<?xml version="1.0" encoding="utf-8"?>
<!-- Generator: Adobe Illustrator 20.1.0, SVG Export Plug-In . SVG Version: 6.00 Build 0)  -->
<svg version="1.1" id="Layer_1" xmlns="http://www.w3.org/2000/svg" xmlns:xlink="http://www.w3.org/1999/xlink" x="0px" y="0px"
	 viewBox="0 0 150.6 30" style="enable-background:new 0 0 150.6 30;" xml:space="preserve">
<g>
	<path d="M9.3,0l-9,4.5C0.1,4.6,0,4.8,0,4.9v19.9c0,0.2,0.1,0.3,0.2,0.4l9,4.5c0.3,0.2,0.7-0.1,0.7-0.4V0.5C9.9,0.1,9.6-0.1,9.3,0z"
		/>
	<path d="M11.2,29.7l9-4.5c0.2-0.1,0.2-0.2,0.2-0.4v-9.7c0-0.2-0.1-0.3-0.2-0.4l-9-4.5c-0.3-0.2-0.7,0.1-0.7,0.4v18.7
		C10.5,29.7,10.9,29.9,11.2,29.7z"/>
	<g>
		<path d="M36.4,9.8c3,0,4.7,1.1,4.7,4c0,1.8-0.6,2.8-1.8,3.4c1.3,0.5,2.2,1.5,2.2,3.6c0,3.1-1.9,4.3-4.9,4.3h-6V9.8L36.4,9.8
			L36.4,9.8z M33.1,11.9v4.4h3.3c1.5,0,2.2-0.8,2.2-2.3c0-1.5-0.8-2.1-2.3-2.1C36.3,11.9,33.1,11.9,33.1,11.9z M33.1,18.4v4.5h3.4
			c1.5,0,2.4-0.5,2.4-2.3c0-1.7-1.3-2.2-2.5-2.2L33.1,18.4C33.1,18.3,33.1,18.4,33.1,18.4z"/>
		<path d="M44,13.9h2.4v1.3c0,0,1.9-1.2,3.8-1.6v2.4c-2,0.4-3.7,1.8-3.7,1.8v7.2H44V13.9z"/>
		<path d="M102.6,13.9h2.4v1.3c0,0,1.9-1.2,3.8-1.6v2.4c-2,0.4-3.7,1.8-3.7,1.8v7.2h-2.4V13.9z"/>
		<path d="M61.4,19.4c0,3.7-1.1,5.9-5,5.9s-5-2.2-5-5.9c0-3.6,1.3-5.7,5-5.7C60.1,13.7,61.4,15.8,61.4,19.4z M58.9,19.4
			c0-2.6-0.6-3.7-2.5-3.7s-2.5,1.1-2.5,3.7s0.5,3.8,2.5,3.8C58.4,23.2,58.9,22,58.9,19.4z"/>
		<path d="M65.3,13.9L67,23h0.5l2.1-8.8h2.5l2.1,8.8h0.5l1.7-9.1h2.4L76.4,25h-3.9l-1.7-7.7L69.1,25h-3.9l-2.4-11.1
			C62.8,13.9,65.3,13.9,65.3,13.9z"/>
		<path d="M88.6,16.2c0,0-2.6-0.3-4-0.3s-2,0.3-2,1.2c0,0.7,0.5,0.9,2.6,1.3c2.7,0.5,3.6,1.1,3.6,3.4c0,2.6-1.6,3.6-4.4,3.6
			c-1.5,0-4.1-0.5-4.1-0.5l0.1-2c0,0,2.7,0.3,3.8,0.3c1.6,0,2.2-0.3,2.2-1.3c0-0.8-0.4-1-2.6-1.4c-2.4-0.4-3.7-0.9-3.7-3.3
			c0-2.5,2-3.4,4.2-3.4c1.6,0,4.2,0.5,4.2,0.5V16.2z"/>
		<path d="M99.9,23l0,1.8c0,0-2.5,0.5-4.5,0.5c-3.3,0-4.6-1.8-4.6-5.7c0-4.1,1.8-5.9,4.8-5.9c3.1,0,4.7,1.6,4.7,5.1l-0.2,1.7h-6.9
			c0,1.8,0.7,2.7,2.5,2.7C97.5,23.2,99.9,23,99.9,23z M97.9,18.6c0-2.2-0.7-2.9-2.3-2.9c-1.6,0-2.4,0.8-2.4,2.9H97.9z"/>
		<path d="M118.1,15.3c0,0-2.4-0.3-3.9-0.3c-1.4,0-2.6,0.4-2.6,1.9c0,1.1,0.6,1.5,3,1.9c2.9,0.5,3.9,1,3.9,3.1
			c0,2.6-1.6,3.4-4.3,3.4c-1.4,0-3.8-0.4-3.8-0.4l0.1-1.2c0,0,2.5,0.4,3.6,0.4c1.9,0,3-0.5,3-2.2c0-1.3-0.7-1.6-3.2-2
			c-2.6-0.4-3.7-0.9-3.7-3c0-2.4,2-3.1,3.9-3.1c1.7,0,3.9,0.4,3.9,0.4L118.1,15.3z"/>
		<path d="M121.3,13.9l2.9,10h0.8l3-10h1.4L124.7,30h-1.3l1.5-5h-1.5L120,13.9C120,13.9,121.3,13.9,121.3,13.9z"/>
		<path d="M131.7,25.1V13.9h1.3v0.8c0,0,1.9-1,3.6-1c3.1,0,3.7,1.4,3.7,5.5v5.9H139v-5.8c0-3.3-0.3-4.4-2.6-4.4
			c-1.7,0-3.4,0.9-3.4,0.9v9.2L131.7,25.1L131.7,25.1z"/>
		<path d="M150.6,14l-0.1,1.1c0,0-1.8-0.2-2.6-0.2c-2.7,0-3.4,1.2-3.4,4.4c0,3.5,0.5,4.8,3.4,4.8c0.8,0,2.6-0.2,2.6-0.2l0,1.1
			c0,0-2,0.3-2.9,0.3c-3.6,0-4.6-1.6-4.6-6c0-4.1,1.3-5.6,4.6-5.6C148.7,13.7,150.6,14,150.6,14z"/>
	</g>
</g>
</svg>
