<?xml version="1.0" encoding="utf-8"?>
<!-- Generator: Adobe Illustrator 20.1.0, SVG Export Plug-In . SVG Version: 6.00 Build 0)  -->
<svg version="1.1" id="Layer_1" xmlns="http://www.w3.org/2000/svg" xmlns:xlink="http://www.w3.org/1999/xlink" x="0px" y="0px"
	 viewBox="0 0 393.5 78.4" style="enable-background:new 0 0 393.5 78.4;" xml:space="preserve">
<g>
	<path d="M24.2,0.1L0.6,11.9c-0.4,0.2-0.6,0.6-0.6,1v52c0,0.4,0.2,0.8,0.6,1l23.6,11.8c0.8,0.4,1.7-0.2,1.7-1V1.2
		C25.9,0.3,25-0.3,24.2,0.1z"/>
	<path d="M29.2,77.7l23.6-11.8c0.4-0.2,0.6-0.6,0.6-1V39.6c0-0.4-0.2-0.8-0.6-1L29.2,26.8c-0.8-0.4-1.7,0.2-1.7,1v48.8
		C27.5,77.5,28.4,78.1,29.2,77.7z"/>
	<g>
		<path d="M95.2,25.5c7.9,0,12.2,3,12.2,10.4c0,4.8-1.5,7.2-4.7,9c3.4,1.3,5.7,3.8,5.7,9.3c0,8.2-5,11.3-12.7,11.3H80.1V25.6
			L95.2,25.5L95.2,25.5z M86.5,31.1v11.4h8.6c4,0,5.7-2,5.7-5.9c0-3.8-2-5.5-5.9-5.5H86.5z M86.5,48v11.8h8.8c4,0,6.4-1.3,6.4-6.1
			c0-4.5-3.4-5.8-6.5-5.8h-8.7C86.5,47.9,86.5,48,86.5,48z"/>
		<path d="M115,36.3h6.3v3.5c0,0,5-3.2,9.9-4.1v6.4c-5.3,1-9.8,4.6-9.8,4.6v18.8H115V36.3z"/>
		<path d="M268.3,36.3h6.3v3.5c0,0,5-3.2,9.9-4.1v6.4c-5.3,1-9.8,4.6-9.8,4.6v18.8h-6.4V36.3z"/>
		<path d="M160.4,50.7c0,9.7-3,15.4-13,15.4s-13-5.7-13-15.4c0-9.4,3.3-15,13-15S160.4,41.3,160.4,50.7z M153.9,50.7
			c0-6.8-1.5-9.7-6.6-9.7s-6.6,2.9-6.6,9.7s1.2,10,6.6,10C152.8,60.7,153.9,57.5,153.9,50.7z"/>
		<path d="M170.6,36.3l4.6,23.7h1.2l5.5-23.1h6.5l5.5,23.1h1.2l4.5-23.7h6.3l-6.2,29.1h-10.1l-4.5-20l-4.5,20h-10.1l-6.2-29.1H170.6
			z"/>
		<path d="M231.6,42.3c0,0-6.9-0.9-10.4-0.9s-5.1,0.8-5.1,3.2c0,1.9,1.2,2.4,6.9,3.4c7,1.2,9.5,3,9.5,8.8c0,6.8-4.3,9.3-11.5,9.3
			c-4,0-10.8-1.3-10.8-1.3l0.2-5.3c0,0,7,0.9,10,0.9c4.2,0,5.8-0.9,5.8-3.4c0-2-1-2.7-6.8-3.6c-6.4-1-9.7-2.4-9.7-8.6
			c0-6.6,5.1-9,10.9-9c4.3,0,11,1.3,11,1.3L231.6,42.3z"/>
		<path d="M261.1,60l0.1,4.7c0,0-6.6,1.3-11.8,1.3c-8.7,0-12.1-4.7-12.1-14.9c0-10.7,4.6-15.5,12.6-15.5c8.2,0,12.2,4.3,12.2,13.3
			l-0.4,4.5h-18.1c0.1,4.7,1.8,7,6.6,7C255,60.6,261.1,60,261.1,60z M256,48.7c0-5.8-1.7-7.7-6-7.7c-4.3,0-6.2,2.2-6.3,7.7H256z"/>
		<path d="M308.7,39.9c0,0-6.2-0.9-10.1-0.9c-3.6,0-6.9,1-6.9,5c0,3,1.5,3.9,7.8,5c7.5,1.2,10.3,2.6,10.3,8.2c0,6.8-4.3,9-11.2,9
			c-3.6,0-10-1-10-1l0.2-3.1c0,0,6.5,1,9.5,1c5,0,7.9-1.2,7.9-5.7c0-3.5-1.7-4.3-8.3-5.2c-6.7-1-9.8-2.3-9.8-7.9
			c0-6.4,5.2-8.2,10.3-8.2c4.4,0,10.3,1,10.3,1L308.7,39.9z"/>
		<path d="M317.2,36.3l7.7,26.1h2.1l7.8-26.1h3.6L326,78.4h-3.5l3.8-13h-4l-8.6-29.1H317.2z"/>
		<path d="M344.3,65.5V36.4h3.4v2.2c0,0,4.9-2.7,9.5-2.7c8,0,9.7,3.7,9.7,14.4v15.3h-3.5V50.5c0-8.6-0.9-11.4-6.8-11.4
			c-4.5,0-9,2.4-9,2.4v24.1L344.3,65.5L344.3,65.5z"/>
		<path d="M393.7,36.5l-0.2,3c0,0-4.6-0.6-6.8-0.6c-7,0-9,3.1-9,11.5c0,9.1,1.4,12.5,9,12.5c2.2,0,6.9-0.5,6.9-0.5l0.1,3
			c0,0-5.2,0.7-7.7,0.7c-9.4,0-12-4.2-12-15.7c0-10.7,3.4-14.6,12.1-14.6C388.7,35.7,393.7,36.5,393.7,36.5z"/>
	</g>
</g>
</svg>
