<?xml version="1.0" encoding="utf-8"?>
<!-- Generator: Adobe Illustrator 20.1.0, SVG Export Plug-In . SVG Version: 6.00 Build 0)  -->
<svg version="1.1" id="Layer_1" xmlns="http://www.w3.org/2000/svg" xmlns:xlink="http://www.w3.org/1999/xlink" x="0px" y="0px"
	 viewBox="0 0 16 16" style="enable-background:new 0 0 16 16;" xml:space="preserve">
<style type="text/css">
	.st0{fill:#2D2D2D;}
</style>
<path class="st0" d="M8,0C3.6,0,0,3.6,0,8c0,3.4,2.2,6.5,5.5,7.6C5.9,15.7,6,15.4,6,15.2s0-0.7,0-1.4c-2.2,0.5-2.7-1.1-2.7-1.1
	c-0.4-0.9-0.9-1.2-0.9-1.2C1.7,11,2.5,11,2.5,11c0.8,0.1,1.2,0.8,1.2,0.8C4.4,13,5.6,12.7,6,12.5c0.1-0.5,0.3-0.9,0.5-1.1
	c-1.8-0.2-3.6-0.9-3.6-4c0-0.9,0.3-1.6,0.8-2.1c-0.1-0.2-0.4-1,0.1-2.1C3.8,3.2,4.5,3,6,4c0.6,0,1.3-0.1,2-0.1S9.4,4,10,4.2
	c1.5-1,2.2-0.8,2.2-0.8c0.4,1.1,0.2,1.9,0.1,2.1c0.5,0.6,0.8,1.3,0.8,2.1c0,3.1-1.9,3.8-3.7,3.9C9.7,11.8,10,12.3,10,13
	c0,1.1,0,1.9,0,2.2c0,0.2,0.1,0.5,0.6,0.4c4.2-1.4,6.5-5.9,5.1-10.1C14.5,2.2,11.4,0,8,0"/>
</svg>
