<?xml version="1.0" encoding="utf-8"?>
<!-- Generator: Adobe Illustrator 20.1.0, SVG Export Plug-In . SVG Version: 6.00 Build 0)  -->
<svg version="1.1" id="Layer_1" xmlns="http://www.w3.org/2000/svg" xmlns:xlink="http://www.w3.org/1999/xlink" x="0px" y="0px"
	 viewBox="0 0 13.5 30" style="enable-background:new 0 0 13.5 30;" xml:space="preserve">
<path d="M12.7,0c0,0-0.9,0.9-1.8,1.9L9,3.8L8.3,6.6l-2,0C2.6,6.7,0.5,7,0,7.5C0,7.6,0,7.6,0.1,7.7c1,0.8,8.6,1.1,12.1,0.4
	c1.3-0.2,1.6-0.5,0.9-0.8c-0.5-0.2-2.4-0.5-3.3-0.5c-0.2,0-0.3,0-0.3-0.1c0-0.1,0.1-0.6,0.3-1.2l0.3-1.1l1.7-1.8
	c0.9-1,1.7-1.8,1.7-1.9C13.6,0.4,12.9-0.1,12.7,0z M0.1,8.3c0,0.2,0.7,6.9,0.8,7c0,0,0.1,0,0.1-0.2c0.5-1.5,1.6-2.7,2.5-2.9
	c0.4-0.1,0.8,0,1.1,0.4c0.4,0.4,0.5,0.8,0.2,1c-0.1,0.1-0.3,0-0.5-0.4c-0.4-0.7-1.2-0.3-2,1c-0.9,1.4-1.1,3-0.4,3
	c0.2,0,0.8-0.5,1.2-1c0.3-0.4,0.4-0.6,0.5-1c0.1-0.3,0.2-0.6,0.3-0.6c0,0,0.2-0.1,0.2,0c0.2,0,0.2,0,0.2,0.3c0,0.2,0,0.4-0.2,0.8
	c-0.2,0.5-0.4,1.1-0.7,2.3c-0.1,0.3-0.2,0.6-0.2,0.6c-0.1,0.2-0.3,0.2-0.4,0c-0.1-0.1,0-0.3,0.1-0.8C3,17.3,3.1,17,3.1,16.9
	c0-0.1-0.1,0-0.4,0.3c-0.6,0.6-1.2,0.8-1.5,0.6c-0.1-0.1-0.1,0-0.1,0.1c0,0.5,0.4,4.5,0.5,4.6C1.8,22.7,3,23,4.3,23.2
	c1,0.2,3.8,0.2,4.7,0c0.8-0.1,1.8-0.4,2.2-0.5c0.6-0.2,0.6,0,0.9-3.1c0.2-1.5,0.3-2.7,0.3-2.7c0,0-0.2,0.1-0.4,0.3
	c-0.5,0.4-0.8,0.6-1.1,0.6c-0.3,0-0.5-0.1-0.5-0.3c-0.1-0.2,0-0.5,0.5-1c0.5-0.6,0.6-0.7,0.6-0.9c0-0.3-0.6,0-1,0.4
	c-0.1,0.1-0.3,0.4-0.4,0.5c-0.2,0.3-0.7,1.5-1,2.3c-0.2,0.6-0.4,0.8-0.6,0.8c-0.1,0-0.3-0.1-0.3-0.2c0-0.2,0.2-0.6,0.5-1.4
	c0.2-0.5,0.4-0.9,0.4-0.9s-0.1,0.1-0.3,0.2c-0.3,0.3-0.7,0.5-0.9,0.5c-0.2,0-0.5-0.1-0.5-0.3c0-0.1,0-0.1-0.4,0.1
	c-0.6,0.3-0.9,0.2-0.9-0.3V17L6,17.3c-0.4,0.5-1.1,0.6-1.4,0.4c-0.2-0.2-0.2-0.6,0-1.2c0.4-1.2,0.7-1.7,1-1.5
	c0.2,0.1,0.1,0.3-0.1,0.8c-0.5,1-0.5,1.4-0.1,1.3c0.4-0.1,0.9-0.7,1.2-1.6C6.8,15.3,6.9,15,6.9,15c0.1-0.1,0.3-0.1,0.4,0.1
	c0,0.1,0,0.3-0.2,0.9c-0.2,0.5-0.3,0.8-0.3,1c0,0.3,0,0.3,0.2,0.3c0.2,0,0.6-0.2,0.6-0.4c0.2-0.6,1.6-3.9,1.7-4.1
	c0.1-0.1,0.2-0.1,0.3-0.1c0.1,0,0.2,0.1,0.2,0.2c0,0.1-0.1,0.4-0.2,0.7c-0.6,1.3-1.3,3.3-1.3,3.4c0,0.1,0,0.2,0.1,0.2
	c0.1,0,0.5-0.2,1-0.6c0.4-0.3,0.5-0.4,0.6-0.7c0.2-0.7,0.4-0.9,0.6-0.8c0.1,0.1,0.1,0.1,0.1,0.3c0,0.1,0,0.2,0,0.2
	c0,0,0.2-0.1,0.3-0.2c0.5-0.4,0.8-0.5,1.2-0.3c0.2,0.1,0.2,0.1,0.2,0.4c0,0.3-0.2,0.7-0.7,1.3c-0.2,0.2-0.3,0.4-0.3,0.5
	c0,0,0.1,0.1,0.1,0.1c0.1,0,1.1-0.8,1.3-1c0.1-0.1,0.2-1.2,0.5-4.1c0.2-2.2,0.4-4,0.4-4c0,0-0.2,0-0.3,0.1c-0.5,0.2-1.5,0.3-2.7,0.5
	c-1.3,0.1-5.7,0.1-7,0C2.2,8.6,1,8.4,0.5,8.3L0.1,8.1L0.1,8.3L0.1,8.3z M1.9,23c0,0,0.2,0.3,0.4,0.7l0.4,0.7l0.2,2.4l0.2,2.4
	l0.2,0.2C3.7,29.7,4.8,30,6.4,30c1.9,0,3.4-0.2,3.8-0.6l0.2-0.2l0.1-2.4l0.1-2.4l0.4-0.7c0.2-0.4,0.4-0.7,0.4-0.7c0,0-0.2,0-0.4,0.1
	c-0.8,0.3-2.4,0.5-3.8,0.6c-1.5,0.1-3.9-0.2-5.1-0.6C2,23,1.9,23,1.9,23C1.9,23,1.9,23,1.9,23z"/>
</svg>
