<?xml version="1.0" encoding="utf-8"?>
<!-- Generator: Adobe Illustrator 20.1.0, SVG Export Plug-In . SVG Version: 6.00 Build 0)  -->
<svg version="1.1" id="Layer_1" xmlns="http://www.w3.org/2000/svg" xmlns:xlink="http://www.w3.org/1999/xlink" x="0px" y="0px"
	 viewBox="0 0 74.2 30" style="enable-background:new 0 0 74.2 30;" xml:space="preserve">
<style type="text/css">
	.st0{display:none;}
	.st1{display:inline;}
	.st2{fill:#CC0000;}
</style>
<g id="logo-black">
	<g id="test-tube_1_">
		<path id="tube_1_" d="M60.8,30L60.8,30c-0.4,0-0.9-0.1-1.3-0.2c-1.7-0.7-2.6-2.5-2.2-4.3l0,0l0.1-0.3l8.7-22.7
			c0.1-0.3,0.1-1.1,0-1.6c0-0.1,0-0.2,0-0.3l0,0c0,0,0,0,0-0.1C66.4,0.2,66.8,0,67.5,0c0.8,0,2,0.3,3.2,0.7c1,0.4,1.9,0.9,2.5,1.3
			c0.8,0.6,1,1.1,0.9,1.5c0,0,0,0,0,0.1l0,0c0,0.1-0.1,0.2-0.2,0.2c-0.4,0.3-1,0.9-1,1.2l-8.8,23l0,0C63.4,29.2,62.2,30,60.8,30z
			 M58.1,25.3L58.1,25.3c-0.6,1.6,0.2,3.3,1.7,3.8c0.3,0.1,0.7,0.2,1,0.2c1.2,0,2.3-0.7,2.7-1.9l0-0.1l8.7-22.6
			c0.2-0.5,1-1.3,1.2-1.4l0,0c0,0,0,0,0,0l0,0c0-0.1-0.1-0.3-0.7-0.8c-0.6-0.4-1.4-0.9-2.4-1.3c-1.1-0.4-2.2-0.7-3-0.7
			c-0.5,0-0.7,0.1-0.7,0.2v0c0,0,0,0,0,0v0c0,0.1,0.2,1.3,0,1.9L58.1,25.3z"/>
		<path id="liquid_1_" d="M69.3,11c0,0-1.2,1.4-2.3,1.9c-1.1,0.5-1.9,0.4-2.9,0.9c-1,0.6-1.5,1.4-1.5,1.4l-4,10.5
			c-0.4,1.2,0.2,2.6,1.4,3c1.2,0.5,2.6-0.1,3-1.3l0,0L69.3,11z M65.2,17c0.2-0.1,0.4,0,0.5,0.2c0.1,0.2,0,0.4-0.2,0.5
			c-0.2,0.1-0.4,0-0.5-0.2C64.9,17.3,65,17.1,65.2,17z M63.6,15.3c0.1-0.1,0.3,0,0.3,0.1c0.1,0.1,0,0.3-0.1,0.3s-0.3,0-0.3-0.1
			S63.5,15.3,63.6,15.3z M61.8,21.2c-0.2,0.1-0.4,0-0.5-0.2c-0.1-0.2,0-0.4,0.2-0.5c0.2-0.1,0.4,0,0.5,0.2
			C62.1,20.9,62,21.1,61.8,21.2z M62.2,19.8c-0.2-0.4,0-0.8,0.4-0.9c0.4-0.2,0.8,0,0.9,0.4c0.2,0.4,0,0.8-0.4,0.9
			C62.7,20.3,62.3,20.2,62.2,19.8z M63.1,23.4c0.1-0.1,0.3,0,0.3,0.1c0.1,0.1,0,0.3-0.1,0.3c-0.1,0.1-0.3,0-0.3-0.1
			C62.9,23.7,63,23.5,63.1,23.4z"/>
		<ellipse id="top_1_" transform="matrix(0.359 -0.9333 0.9333 0.359 42.7643 66.8749)" cx="70.1" cy="2.3" rx="0.6" ry="2.4"/>
	</g>
	<path id="jekyll-text" d="M16.9,13.9c0.4,0.3,1.1,0.1,1.6-0.4c0.5-0.5,0.6-1.2,0.2-1.5c-0.4-0.3-1.1-0.1-1.6,0.4
		C16.5,12.9,16.5,13.6,16.9,13.9z M15.7,14.9c-0.1,0-0.3,0.2-0.1,0.3c0.2,0.1,0.3,0.3,0.3,0.5c-0.2,1.1-1.5,2.3-2,2.7
		c-0.1,0.1,0.1,0.4,0.2,0.3c0.3-0.2,0.9-0.7,1.4-1.3c-0.8,1.8-2.3,4.1-2.9,4.9c-2.3,3.2-5.9,6.2-8.3,6.2c-1.9,0-3.6-1.3-3.9-3.2
		c0-0.2-0.3-0.3-0.3,0c0.4,2.7,2.5,3.7,5,3.7c2.7,0,5.9-2,7.6-4c2.8-3.2,4.7-7,4.2-9.1C16.6,15,16,14.8,15.7,14.9z M33.1,21.9
		c0.7-0.2,1.4-0.6,1.4-1.2c0-0.1-0.1-0.1-0.1,0c0,0.4-0.4,0.7-0.9,0.8c-1.2,0.2-3.4-1.2-4.5-2.6c1.2,0.4,3.5-0.2,4.6-1
		c1-0.7,1.4-1.6,1.5-2.2c0.1-1.1-1.1-1.8-2.8-1.1c-1.1,0.4-2.4,1.4-3.7,3.2c1.4-2.3,4.2-6.2,6.9-8.6c3.3-3,5.3-2.4,2.3,0.7
		c-1.2,1.3-3.6,3-5.2,3.7c-0.5,0.2-0.3,0.5,0.1,0.3c1.7-0.7,4-2.3,5.3-3.6c4-3.9,0.7-6.8-3.8-2.7c-3,2.8-5,5.7-6.8,9.6
		c-0.6,0.7-1,1.3-1.6,1.8c-0.1,0.1-0.1,0.1-0.2,0.2c-1.5,1.3-3.8,3-5.3,3c-1,0-1.5-0.7-1.3-1.8c0.3-1.6,1.9-3.4,3.3-4.1
		c1.8-0.8,2.9,0.8,0.5,2.1c-0.9,0.5-2,0.7-2.4,0.7c-0.5,0-0.5,0.2,0,0.2c0.7,0,1.9-0.3,2.7-0.6c2.4-1.2,2.6-3.3-0.1-3.4
		c-2.9-0.1-6.3,2.3-6.3,5.4c0,1.4,1.1,2.1,2.7,2.1c2.5,0,4.8-2,6.6-3.6c0.3-0.2,0.5-0.5,0.8-0.7c-0.6,1.7-1,3.2-0.8,4.3
		c0.1,0.8,0.6,1.2,0.9,1.5c0.1,0.1,0.2,0,0.1-0.2c-0.5-0.6-0.4-2.6,0.4-4.4C28.2,20.9,30.6,22.5,33.1,21.9z M30.1,16.6
		c3-2.7,4.1-0.3,2.2,1.2c-1,0.7-2.9,1.3-3.5,1l-0.1-0.1c-0.1-0.1-0.2-0.3-0.2-0.4C28.9,17.6,29.5,17.1,30.1,16.6z M46.5,13.6
		c1.2,0.1,0.7-1.3-0.5-1c-0.5,0.2-1.1,1.2-1.4,2.1c-1.2,1.8-3.2,4.2-4.6,5.5c-1.2,1.1-2.4,1.3-1-0.6c0.6-0.8,1.3-1.7,1.7-2.5
		c1-2.1-1.1-3.1-2.8-1.8c-1,0.7-2.3,2.3-3.3,3.1c-0.3,0.2-0.2,0.6,0.1,0.3c0.8-0.7,2.3-2.2,3.5-3.1c1-0.8,1.4-0.3,0.8,0.4
		c-0.8,1-2.3,2.6-2.6,3.7c-0.5,1.6,0.1,2.3,1.1,2.3c1.4,0,3.5-2.2,5-4c0.5-0.6,1-1.3,1.4-2c-1.2,2.4-2.5,4.8-4.1,7
		c-2.3,3.1-5.1,5.4-7.8,5.4c-1.9,0-3.6-1.3-4-3.2c0-0.2-0.3-0.3-0.3,0c0.4,2.7,2.5,3.7,5,3.7c2.7,0,5.3-1.6,7.1-3.5
		c3.7-3.9,4.1-8.3,5.3-10.7C45.6,13.6,46.1,13.5,46.5,13.6z M61.5,9.8c0.5-0.9,0.5-1.7-0.7-1.7c-1,0-2.7,0.7-3.5,1.3
		c-0.2,0.2-0.1,0.3,0.1,0.2c0.2-0.1,0.3-0.2,0.5-0.2c0.9-0.5,0.5,0.5,0.3,0.9c-1.1,1.9-3,4.5-4,5.9c-0.5,0.6-1,1.3-1.6,1.8
		c-1,0.9-2.9,2.6-4.3,3.1c-4.7,1.8,1.3-6.2,1.8-6.9c1.1-1.4,3.6-3.8,4.3-5C55,8.3,55,7.6,53.8,7.6c-1,0-2.7,0.7-3.5,1.3
		c-0.2,0.2-0.1,0.3,0.1,0.2c0.2-0.1,0.3-0.2,0.5-0.2c0.9-0.5,0.5,0.5,0.3,0.9c-1.1,1.9-3,4.5-4,5.9c-0.8,1.1-1.8,2.2-2.6,2.8
		c-0.3,0.3-0.1,0.5,0.2,0.3c0.3-0.2,0.7-0.6,1.2-1.1c-0.8,1.7-1.6,4.1,0.7,4.4c1.9,0.3,4.2-1.7,5.7-3.1c0.2-0.2,0.3-0.3,0.5-0.5
		c0,0,0.1-0.1,0.1-0.1c-0.8,1.7-1.5,4.1,0.7,4.4c2.5,0.3,5.5-3,6.7-4.2c0.2-0.2,0.2-0.6-0.2-0.2c-0.7,0.7-3,2.9-4.8,3.5
		c-4.7,1.8,1.3-6.2,1.8-6.9C58.3,13.4,60.8,11,61.5,9.8z"/>
</g>
<g id="logo-black-red" class="st0">
	<g id="test-tube_2_" class="st1">
		<path id="tube_2_" d="M308.6,186.8L308.6,186.8c-5,0-9.9-0.9-14.6-2.7c-19.7-7.5-30.1-28.9-24.7-48.7l-0.2-0.1l1.3-3.4l100.1-260
			c1.5-3.8,0.8-13,0.1-18.1c-0.2-1.2-0.2-2.3,0.1-3.4l0.1-0.2c0.1-0.2,0.1-0.4,0.2-0.6c1.6-4.2,6.5-6.3,14.5-6.3
			c9.6,0,22.9,3,36.5,8.2c11.4,4.4,21.8,9.9,29.1,15.4c8.6,6.5,12,12.3,10.1,17.3c-0.1,0.2-0.2,0.4-0.3,0.6l-0.1,0.2
			c-0.5,1-1.2,1.8-2.1,2.5c-4.4,3.9-10.9,10.5-12,13.5L345.4,164.5l-0.2-0.1C338.1,178,324.1,186.8,308.6,186.8z M277.3,133.5
			l-0.3,0.7c-6.4,17.2,2.3,36.6,19.5,43.2c3.9,1.5,7.9,2.2,12,2.2c13.9,0,26.2-8.3,31.3-21.3l0.4-0.9l99.6-258.9
			c2.1-5.6,12-14.5,14-16.3l0.2-0.2c0.2-0.1,0.3-0.2,0.3-0.3l0.1-0.1c0.1-0.7-0.8-3.8-7.8-9.2c-6.7-5.1-16.4-10.2-27.3-14.4
			c-12.6-4.9-25.4-7.8-34-7.8c-5.7,0-7.6,1.2-7.9,1.8v0.1c0,0.1,0,0.2,0,0.4v0.1c0.2,1.5,2.1,14.8-0.5,21.7L277.3,133.5z"/>
		<path id="liquid_2_" class="st2" d="M405.4-31.2c0,0-13.8,15.9-26.4,21.6c-12.5,5.6-21.9,4.2-33.2,10.8s-17,15.8-17,15.8
			l-46,119.7c-5,13.5,2.4,29.3,16.1,34.6c13.7,5.3,29.2-1.7,34.5-15.1l0,0L405.4-31.2z M359,37.9c2.2-1,4.8,0,5.7,2.2
			c1,2.2,0,4.8-2.2,5.7c-2.2,1-4.8,0-5.7-2.2C355.8,41.4,356.8,38.9,359,37.9z M340.6,18.2c1.5-0.6,3.2,0,3.8,1.5s0,3.2-1.5,3.8
			s-3.2,0-3.8-1.5S339.2,18.9,340.6,18.2z M320.3,85.9c-2.2,1-4.8,0-5.7-2.2c-1-2.2,0-4.8,2.2-5.7c2.2-1,4.8,0,5.7,2.2
			C323.5,82.4,322.5,84.9,320.3,85.9z M324.3,70.2c-1.8-4.1,0-8.9,4.1-10.8c4.1-1.8,8.9,0,10.8,4.1c1.8,4.1,0,8.9-4.1,10.8
			C330.9,76.1,326.1,74.4,324.3,70.2z M334.8,111.8c1.5-0.6,3.2,0,3.8,1.5s0,3.2-1.5,3.8c-1.5,0.6-3.2,0-3.8-1.5
			C332.7,114.1,333.3,112.5,334.8,111.8z"/>
		
			<ellipse id="top_2_" transform="matrix(0.359 -0.9333 0.9333 0.359 387.5324 303.5237)" cx="414.7" cy="-130.4" rx="7.3" ry="27.8"/>
	</g>
	<path id="jekyll-text_1_" class="st1" d="M-194.6,2.1c4.4,3.5,12.4,1.5,17.8-4.4c5.6-6.2,6.5-14.1,2.1-17.7
		c-4.4-3.5-12.4-1.5-17.8,4.7C-198.2-9.1-199.1-1.6-194.6,2.1z M-207.6,13.6c-1.2,0-3.2,2.1-1.5,2.9c2.4,0.9,3.5,2.9,3.5,5.9
		c-2.1,12.1-17.1,26-23.1,30.7c-1.5,1.5,0.6,4.7,2.1,3.5c3.2-2.6,10-7.9,15.6-15c-9.1,20.4-26.9,46.6-33.7,55.8
		c-26.6,36.9-67,70.8-94.8,70.8c-22.2,0-41-15-45.1-37.2c-0.3-2.4-3.5-2.9-2.9,0.3c5,30.4,28.4,42.1,56.7,42.1
		c31,0,67.4-22.5,87.4-45.4C-211,90.7-189.9,48-195.6,23.8C-197.9,14.8-204.1,13.2-207.6,13.6z M-8.4,94.4
		c8.5-2.1,15.6-6.8,15.6-14.2c0-0.7-1.5-0.7-1.5,0c0,4.4-5,8-10.6,8.9c-13.2,2.1-39.5-13.5-51.9-29.5c13.2,5,40.4-2.3,53.2-11.4
		c11.8-8.5,16.5-18,17.5-25.7C15.4,9.9,1.5,2.4-17.7,9.9c-12.4,5-27.2,15.9-42.5,36.3C-44,19.3-12.1-24.3,19.2-52.3
		c38.1-33.9,60.2-27.4,26,8.5C31.1-29.1,4.5-9.9-13.9-1.6c-5.6,2.4-2.9,5.6,1.2,3.8c19.5-8.5,45.4-26.3,61.1-41
		c46.3-44.5,7.7-78.1-43.7-31C-30.1-37.6-52.9-4-72.6,39.6c-6.8,8.2-11.8,15-18.1,20.4c-0.7,0.6-1.3,1.3-1.8,1.9
		c-17,14.6-43.8,34.3-60.5,34.6c-11.8,0.3-16.8-8.5-14.7-20.1c3.2-18,21.9-39.2,37.8-46.6c20.7-9.4,32.8,8.8,5.6,23.6
		c-10.3,5.3-22.8,8.2-27.8,8.2c-5.9,0-5.3,2.4-0.3,2.6c8.2,0.3,21.6-3.2,30.4-7.4c27.8-13.2,29.5-38-0.6-38.9
		c-32.8-1.2-72,26.9-71.7,62c0.3,15.9,13,24.5,30.4,24.5c29-0.3,54.9-22.4,76-41.7c3-2.5,6-5.3,8.9-8.2
		c-7.4,18.9-11.2,36.3-9.4,49.2c1.2,9.4,6.5,13.8,10.6,17.3c0.9,0.6,2.6,0,1.5-1.8c-6.2-7.4-4.4-29.3,4.1-50.4
		C-65.1,82.9-37.4,100.9-8.4,94.4z M-43.2,32.9C-9.3,2.5,4,29.7-17.5,46.1c-11.2,8.5-33.4,15-40.4,10.9l-1.5-0.9
		c-0.9-1.5-1.8-2.9-2.4-4.4C-56.3,44.9-49.8,38.9-43.2,32.9z M145.1-1.6c13.5,1.5,7.9-15-5.9-10.9c-6.2,1.8-12.1,13.5-16.5,23.9
		c-13.5,20.4-36.3,48-52.3,62.5c-14.1,12.1-27.2,15.3-11.2-7.4c6.5-9.1,14.7-18.9,19.5-28.6C89.9,13.4,66,2.5,46.8,17.2
		c-11.2,8.5-26.3,26.3-38.1,36c-3.2,2.6-2.4,6.5,0.9,3.8c9.4-7.6,26-25.1,40.1-35.4c11.8-9.1,16.5-3.2,9.7,4.4
		c-9.4,10.9-26,29.8-30.1,41.9c-5.9,18,1.2,26,12.9,26c16.2,0,40.4-25.4,56.7-45.4c5.3-6.8,11.2-14.7,16.2-22.4
		C101,53.5,86.2,81.3,67.9,106.3c-26,35.4-58.5,62-89.2,62c-22.2,0-41.3-15-45.4-37.2c-0.3-2.4-3.2-2.9-2.9,0.3
		c5,30.4,28.4,42.1,56.7,42.1c31,0,60.8-18,81.7-40.1C111,88.9,116,38.7,129,10.7C135.1-1.6,140.7-2.1,145.1-1.6z M316.7-44.6
		c6.2-10.6,5.9-18.9-8.5-18.9c-10.9,0.3-30.7,7.9-39.8,15c-2.1,2.1-1.2,3.2,1.5,2.1c1.8-0.6,3.8-1.8,5.9-2.6
		c10.3-5.6,6.2,6.2,3.8,10.6c-12.4,21.6-34.2,51.9-45.7,67c-5.5,7.4-11.7,14.8-17.8,21.1c-11.1,10.5-33,29.2-49.5,35.4
		c-53.8,20.1,14.7-71.4,20.4-78.7c12.7-15.9,41-43.6,49.5-57.5c6.2-10.6,5.9-18.9-8.5-18.9c-10.9,0.3-30.7,7.9-39.8,15
		c-2.1,2.1-1.2,3.2,1.5,2.1c1.8-0.6,3.8-1.8,5.9-2.6c10.3-5.6,6.2,6.2,3.8,10.6C187-23.2,165.2,7,153.7,22.1
		c-9.4,12.6-21,25.4-29.8,32.4c-3.5,2.9-1.5,5.6,2.1,3.2c3.2-2.1,7.9-6.8,13.2-12.4c-9.7,19.5-17.8,46.9,7.9,50.1
		c21.9,3,47.9-19.4,64.7-35.9c1.8-1.8,3.9-3.8,6-6c0.5-0.5,1-1,1.5-1.5c-9.7,19.5-17.7,46.8,8,50c28.1,3.8,62.9-33.9,76.4-47.7
		c2.6-2.6,1.8-7.1-2.6-2.6c-7.9,8.2-34.8,32.7-54.4,40.1c-53.8,20.1,14.7-71.4,20.4-78.7C279.8-2.9,308.2-30.6,316.7-44.6z"/>
</g>
</svg>
