<?xml version="1.0" encoding="utf-8"?>
<!-- Generator: Adobe Illustrator 20.1.0, SVG Export Plug-In . SVG Version: 6.00 Build 0)  -->
<svg version="1.1" id="Layer_1" xmlns="http://www.w3.org/2000/svg" xmlns:xlink="http://www.w3.org/1999/xlink" x="0px" y="0px"
	 viewBox="0 0 97.8 30" style="enable-background:new 0 0 97.8 30;" xml:space="preserve">
<g>
	<g>
		<g>
			<rect x="11.8" y="0.2" width="0.3" height="23.6"/>
		</g>
		<g>
			<rect x="23.6" y="6.1" width="0.3" height="23.6"/>
		</g>
		<g>
			<g>
				<path d="M1.8,12.6c-0.1,0-0.2,0-0.4,0l0.1-0.7c0.2,0,0.4,0,0.5,0L2,12.6C1.9,12.6,1.8,12.6,1.8,12.6z"/>
			</g>
			<g>
				<path d="M18.5,21.3c-0.2-0.1-0.5-0.1-0.7-0.2c-0.2-0.1-0.4-0.1-0.5-0.2l0.2-0.6c0.2,0.1,0.4,0.1,0.5,0.2
					c0.2,0.1,0.5,0.1,0.7,0.1L18.5,21.3z M19.6,21.3l-0.1-0.7c0.4-0.1,0.7-0.2,0.8-0.5l0.5,0.4C20.5,20.9,20.1,21.2,19.6,21.3z
					 M16.2,20.5c-0.4-0.2-0.8-0.5-1.1-0.8l0.5-0.4c0.2,0.3,0.5,0.5,0.9,0.7L16.2,20.5z M21.3,19.5l-0.6-0.2c0.1-0.4,0.2-0.7,0.2-1.2
					l0.7,0.1C21.5,18.7,21.4,19.2,21.3,19.5z M14.5,18.8c-0.2-0.4-0.4-0.8-0.5-1.3l0.6-0.2c0.1,0.4,0.3,0.8,0.5,1.2L14.5,18.8z
					 M21.6,17.2h-0.7v-0.1c0-0.4,0-0.8,0-1.2h0.7C21.6,16.4,21.6,16.8,21.6,17.2L21.6,17.2z M13.8,16.5c-0.1-0.4-0.1-0.8-0.2-1.3
					l0.7-0.1c0.1,0.5,0.1,0.9,0.2,1.3L13.8,16.5z M20.8,14.9c0-0.4,0-0.8-0.1-1.3h0.7c0,0.4,0,0.8,0.1,1.3L20.8,14.9z M13.5,14.3
					c-0.1-0.4-0.1-0.8-0.2-1.3l0.7-0.1c0.1,0.4,0.1,0.9,0.2,1.3L13.5,14.3z M29,13.3c-0.1-0.4-0.2-0.8-0.4-1.2l0.6-0.3
					c0.2,0.4,0.4,0.8,0.5,1.3L29,13.3z M21.5,12.7l-0.7-0.1c0-0.5,0.1-1,0.2-1.3l0.7,0.1C21.6,11.8,21.5,12.2,21.5,12.7z M3.1,12.2
					l-0.3-0.6c0.4-0.2,0.7-0.4,1-0.7l0.4,0.5C3.9,11.8,3.5,12.1,3.1,12.2z M13,12.1c-0.1-0.4-0.3-0.8-0.5-1.1l0.5-0.4
					c0.2,0.4,0.4,0.8,0.5,1.3L13,12.1z M28.1,11.4c-0.2-0.4-0.5-0.7-0.8-0.9l0.4-0.5c0.4,0.3,0.7,0.6,0.9,1L28.1,11.4z M5,10.8
					l-0.4-0.5c0.3-0.2,0.7-0.5,1.1-0.8L6,10.1C5.6,10.4,5.2,10.7,5,10.8z M21.9,10.5l-0.6-0.2c0.2-0.5,0.5-0.8,0.9-1.2l0.4,0.5
					C22.2,9.9,22.1,10.2,21.9,10.5z M12,10.4c-0.3-0.2-0.6-0.5-1-0.6l0.2-0.6c0.4,0.2,0.8,0.4,1.2,0.7L12,10.4z M26.5,10
					c-0.4-0.2-0.7-0.3-1.2-0.4L25.6,9c0.5,0.1,0.9,0.3,1.3,0.5L26.5,10z M6.8,9.8L6.5,9.2C7,9,7.4,8.8,7.9,8.8L8,9.5
					C7.6,9.5,7.2,9.6,6.8,9.8z M10.1,9.5C9.8,9.4,9.4,9.3,9,9.3H8.9V8.7H9c0.4,0,0.8,0.1,1.3,0.1L10.1,9.5z M23.3,9.4l-0.1-0.7
					c0.2,0,0.3-0.1,0.5-0.1c0.3,0,0.6,0,0.9,0l-0.1,0.7c-0.2,0-0.5,0-0.8,0C23.6,9.4,23.5,9.4,23.3,9.4z"/>
			</g>
			<g>
				<path d="M29.3,14.9c0,0,0-0.2-0.1-0.6l0.7-0.1c0.1,0.4,0.1,0.7,0.1,0.7H29.3z"/>
			</g>
		</g>
		<g>
			<path d="M0,30V6.1l11.9-6l11.8,5.9L35.6,0v23.9L35.6,24l-11.9,5.9l-0.1-0.1l-11.7-5.9L0,30z M11.9,23.6L11.9,23.6l11.8,5.9
				l11.6-5.8V0.5L23.7,6.3L11.9,0.4L0.3,6.2v23.2L11.9,23.6z"/>
		</g>
		<g>
			<path d="M23.7,28.4L23.7,28.4l-11.8-5.9L1.3,27.8v-21l10.6-5.3l11.8,5.9L34.3,2v21L34.2,23L23.7,28.4z M11.9,22.1L11.9,22.1
				l11.8,5.9L34,22.9V2.6L23.7,7.8L11.9,1.9L1.6,7v20.2L11.9,22.1z"/>
		</g>
		<g>
			<rect x="11.8" y="0.2" width="0.3" height="23.6"/>
		</g>
		<g>
			<rect x="23.6" y="6.1" width="0.3" height="23.6"/>
		</g>
		<g>
			<polygon points="29.8,25.2 29.5,25.2 29.5,20.7 34.1,18.4 34.2,18.7 29.8,20.9 			"/>
		</g>
		<g>
			<g>
				<path d="M1.8,12.6c-0.1,0-0.2,0-0.4,0l0.1-0.7c0.2,0,0.4,0,0.5,0L2,12.6C1.9,12.6,1.8,12.6,1.8,12.6z"/>
			</g>
			<g>
				<path d="M18.5,21.3c-0.2-0.1-0.5-0.1-0.7-0.2c-0.2-0.1-0.4-0.1-0.5-0.2l0.2-0.6c0.2,0.1,0.4,0.1,0.5,0.2
					c0.2,0.1,0.5,0.1,0.7,0.1L18.5,21.3z M19.6,21.3l-0.1-0.7c0.4-0.1,0.7-0.2,0.8-0.5l0.5,0.4C20.5,20.9,20.1,21.2,19.6,21.3z
					 M16.2,20.5c-0.4-0.2-0.8-0.5-1.1-0.8l0.5-0.4c0.2,0.3,0.5,0.5,0.9,0.7L16.2,20.5z M21.3,19.5l-0.6-0.2c0.1-0.4,0.2-0.7,0.2-1.2
					l0.7,0.1C21.5,18.7,21.4,19.2,21.3,19.5z M14.5,18.8c-0.2-0.4-0.4-0.8-0.5-1.3l0.6-0.2c0.1,0.4,0.3,0.8,0.5,1.2L14.5,18.8z
					 M21.6,17.2h-0.7v-0.1c0-0.4,0-0.8,0-1.2h0.7C21.6,16.4,21.6,16.8,21.6,17.2L21.6,17.2z M13.8,16.5c-0.1-0.4-0.1-0.8-0.2-1.3
					l0.7-0.1c0.1,0.5,0.1,0.9,0.2,1.3L13.8,16.5z M20.8,14.9c0-0.4,0-0.8-0.1-1.3h0.7c0,0.4,0,0.8,0.1,1.3L20.8,14.9z M13.5,14.3
					c-0.1-0.4-0.1-0.8-0.2-1.3l0.7-0.1c0.1,0.4,0.1,0.9,0.2,1.3L13.5,14.3z M29,13.3c-0.1-0.4-0.2-0.8-0.4-1.2l0.6-0.3
					c0.2,0.4,0.4,0.8,0.5,1.3L29,13.3z M21.5,12.7l-0.7-0.1c0-0.5,0.1-1,0.2-1.3l0.7,0.1C21.6,11.8,21.5,12.2,21.5,12.7z M3.1,12.2
					l-0.3-0.6c0.4-0.2,0.7-0.4,1-0.7l0.4,0.5C3.9,11.8,3.5,12.1,3.1,12.2z M13,12.1c-0.1-0.4-0.3-0.8-0.5-1.1l0.5-0.4
					c0.2,0.4,0.4,0.8,0.5,1.3L13,12.1z M28.1,11.4c-0.2-0.4-0.5-0.7-0.8-0.9l0.4-0.5c0.4,0.3,0.7,0.6,0.9,1L28.1,11.4z M5,10.8
					l-0.4-0.5c0.3-0.2,0.7-0.5,1.1-0.8L6,10.1C5.6,10.4,5.2,10.7,5,10.8z M21.9,10.5l-0.6-0.2c0.2-0.5,0.5-0.8,0.9-1.2l0.4,0.5
					C22.2,9.9,22.1,10.2,21.9,10.5z M12,10.4c-0.3-0.2-0.6-0.5-1-0.6l0.2-0.6c0.4,0.2,0.8,0.4,1.2,0.7L12,10.4z M26.5,10
					c-0.4-0.2-0.7-0.3-1.2-0.4L25.6,9c0.5,0.1,0.9,0.3,1.3,0.5L26.5,10z M6.8,9.8L6.5,9.2C7,9,7.4,8.8,7.9,8.8L8,9.5
					C7.6,9.5,7.2,9.6,6.8,9.8z M10.1,9.5C9.8,9.4,9.4,9.3,9,9.3H8.9V8.7H9c0.4,0,0.8,0.1,1.3,0.1L10.1,9.5z M23.3,9.4l-0.1-0.7
					c0.2,0,0.3-0.1,0.5-0.1c0.3,0,0.6,0,0.9,0l-0.1,0.7c-0.2,0-0.5,0-0.8,0C23.6,9.4,23.5,9.4,23.3,9.4z"/>
			</g>
			<g>
				<path d="M29.3,14.9c0,0,0-0.2-0.1-0.6l0.7-0.1c0.1,0.4,0.1,0.7,0.1,0.7H29.3z"/>
			</g>
		</g>
		<g>
			<path d="M30.5,18.6l-0.8-0.8l-0.8,0.8l-1.1-1.1l0.8-0.8l-0.8-0.8l1.1-1.1l0.8,0.8l0.8-0.8l1.1,1.1l-0.8,0.8l0.8,0.8L30.5,18.6z
				 M29.6,17.3l0.8,0.8l0.6-0.6l-0.8-0.8l0.8-0.8l-0.6-0.6l-0.8,0.8l-0.8-0.8l-0.6,0.6l0.8,0.8l-0.8,0.8l0.6,0.6L29.6,17.3z"/>
		</g>
		<g>
			<path d="M1.6,25.2l-0.3-0.1c0.1-0.1,1-3.2,3.8-4c1.4-0.4,2.1-0.2,2.8-0.1c0.7,0.2,1.3,0.3,2.4-0.1c2.4-0.8,3.8-1.2,6.5,1.3
				c2.5,2.3,4.2,2,6.1,0.7c2-1.4,3.9-2.5,6.7-1.8l-0.1,0.3c-2.7-0.7-4.4,0.4-6.4,1.8c-1.9,1.3-3.8,1.7-6.4-0.7
				c-2.6-2.4-3.8-2-6.2-1.2c-1.3,0.4-1.9,0.2-2.6,0.1c-0.7-0.2-1.3-0.3-2.7,0.1C2.7,22.1,1.6,25.2,1.6,25.2z"/>
		</g>
		<g>
			<path d="M31.8,5.4l0.9-1.6l0.9,0.5L31.8,5.4z M32.8,4l-0.5,0.9l1-0.6L32.8,4z"/>
		</g>
	</g>
	<path d="M42.1,19V8.7h2.2v8.4h4.4V19H42.1L42.1,19z"/>
	<path d="M49.1,15.3c0-2.1,1.5-3.9,3.9-3.9s3.9,1.8,3.9,3.9s-1.5,3.9-3.9,3.9C50.6,19.2,49.1,17.4,49.1,15.3z M54.9,15.3
		c0-1.2-0.7-2.2-1.9-2.2c-1.2,0-1.9,1-1.9,2.2s0.7,2.2,1.9,2.2C54.2,17.5,54.9,16.5,54.9,15.3z"/>
	<path d="M57.8,18.1l0.8-1.4c0.5,0.5,1.6,1,2.5,1c0.8,0,1.3-0.4,1.3-0.8c0-1.2-4.4-0.2-4.4-3.2c0-1.3,1.1-2.4,3-2.4
		c1.3,0,2.2,0.4,3,1l-0.8,1.3c-0.4-0.5-1.3-0.8-2.2-0.8c-0.7,0-1.2,0.3-1.2,0.7c0,1.1,4.4,0.2,4.4,3.2c0,1.3-1.2,2.4-3.2,2.4
		C59.8,19.2,58.5,18.7,57.8,18.1z"/>
	<path d="M66.2,17.2v-3.9H65v-1.7h1.2V9.5h1.9v2.1h1.5v1.7h-1.5v3.3c0,0.5,0.2,0.8,0.7,0.8c0.3,0,0.5-0.1,0.7-0.2l0.4,1.5
		c-0.3,0.2-0.8,0.5-1.6,0.5C67,19.2,66.2,18.5,66.2,17.2z"/>
	<path d="M71.8,13.9c0-3.2,2.4-5.3,5.3-5.3c1.8,0,3.1,0.8,4,1.9l-1,0.6c-0.7-0.8-1.8-1.4-3-1.4c-2.2,0-3.9,1.7-3.9,4.2
		c0,2.4,1.7,4.2,3.9,4.2c1.2,0,2.2-0.6,2.7-1.1v-2.1h-3.5v-1.2h4.8v3.7c-1,1.1-2.4,1.8-4.1,1.8C74.2,19.2,71.8,17.1,71.8,13.9z"/>
	<path d="M82.7,19v-7.5h1.2v1.2c0.6-0.8,1.5-1.3,2.5-1.3v1.2c-0.1-0.1-0.3-0.1-0.5-0.1c-0.7,0-1.7,0.6-2,1.2v5.3L82.7,19L82.7,19z"
		/>
	<path d="M87.7,9.8c0-0.4,0.4-0.8,0.8-0.8s0.8,0.4,0.8,0.8c0,0.4-0.4,0.8-0.8,0.8C88.1,10.5,87.7,10.2,87.7,9.8z M87.9,19v-7.5h1.2
		V19H87.9z"/>
	<path d="M96.6,19v-1.1c-0.5,0.7-1.5,1.3-2.5,1.3c-1.9,0-3.3-1.5-3.3-3.9c0-2.4,1.3-3.9,3.3-3.9c1,0,1.9,0.5,2.5,1.3V8.8h1.2v10.3
		L96.6,19L96.6,19z M96.6,17v-3.4c-0.4-0.7-1.3-1.2-2.2-1.2c-1.5,0-2.4,1.2-2.4,2.8s0.9,2.8,2.4,2.8C95.3,18.2,96.2,17.7,96.6,17z"
		/>
</g>
</svg>
