<?xml version="1.0" encoding="utf-8"?>
<!-- Generator: Adobe Illustrator 20.1.0, SVG Export Plug-In . SVG Version: 6.00 Build 0)  -->
<svg version="1.1" id="Layer_1" xmlns="http://www.w3.org/2000/svg" xmlns:xlink="http://www.w3.org/1999/xlink" x="0px" y="0px"
	 viewBox="0 0 161.3 49.5" style="enable-background:new 0 0 161.3 49.5;" xml:space="preserve">
<g>
	<g>
		<g>
			<rect x="19.4" y="0.7" width="0.5" height="38.9"/>
		</g>
		<g>
			<rect x="38.9" y="10.5" width="0.5" height="38.9"/>
		</g>
		<g>
			<g>
				<path d="M2.9,21.2c-0.2,0-0.4,0-0.7,0l0.1-1.1c0.3,0,0.6,0,0.9,0l0.1,1.1C3.2,21.2,3,21.2,2.9,21.2z"/>
			</g>
			<g>
				<path d="M30.5,35.6c-0.4-0.1-0.8-0.1-1.2-0.3c-0.3-0.1-0.6-0.2-0.9-0.3l0.4-1c0.3,0.1,0.6,0.2,0.8,0.3c0.4,0.1,0.8,0.2,1.1,0.2
					L30.5,35.6z M32.3,35.6l-0.2-1.1c0.6-0.1,1.1-0.4,1.4-0.9l0.9,0.6C33.9,34.9,33.2,35.4,32.3,35.6z M26.8,34.2
					c-0.7-0.4-1.3-0.9-1.8-1.4l0.8-0.7c0.4,0.5,0.9,0.9,1.5,1.2L26.8,34.2z M35.2,32.6l-1-0.3c0.2-0.6,0.3-1.2,0.3-2l1.1,0.1
					C35.4,31.3,35.3,32.1,35.2,32.6z M24,31.4c-0.4-0.6-0.6-1.3-0.9-2.1l1-0.3c0.2,0.7,0.5,1.3,0.8,1.9L24,31.4z M35.6,28.8h-1.1
					v-0.1c0-0.6,0-1.3,0-2h1.1C35.6,27.4,35.6,28.1,35.6,28.8L35.6,28.8z M22.7,27.7c-0.1-0.6-0.2-1.3-0.4-2.1l1.1-0.2
					c0.1,0.9,0.2,1.5,0.4,2.1L22.7,27.7z M34.4,25c0-0.7,0-1.4-0.1-2.2h1.1c0,0.7,0,1.4,0.1,2.1L34.4,25z M22.2,24
					c-0.1-0.7-0.2-1.4-0.3-2.1l1.1-0.2c0.1,0.7,0.2,1.5,0.3,2.1L22.2,24z M47.9,22.4c-0.2-0.7-0.4-1.3-0.7-1.9l1-0.5
					c0.3,0.6,0.6,1.4,0.8,2.1L47.9,22.4z M35.4,21.3l-1.1-0.1c0-0.8,0.1-1.6,0.3-2.2l1.1,0.2C35.6,19.8,35.5,20.5,35.4,21.3z
					 M5.1,20.6l-0.5-1c0.6-0.3,1.1-0.7,1.7-1.2L7,19.2C6.4,19.8,5.8,20.3,5.1,20.6z M21.5,20.4c-0.2-0.7-0.5-1.3-0.8-1.8l0.9-0.6
					c0.4,0.6,0.7,1.3,0.9,2.1L21.5,20.4z M46.4,19.2c-0.4-0.6-0.8-1.1-1.3-1.5l0.7-0.8c0.6,0.5,1.1,1,1.5,1.7L46.4,19.2z M8.2,18.3
					l-0.7-0.8c0.5-0.4,1.1-0.8,1.8-1.3l0.6,0.9C9.2,17.5,8.6,18,8.2,18.3z M36.1,17.8l-1-0.4c0.4-0.8,0.9-1.4,1.5-1.9l0.6,0.9
					C36.7,16.7,36.4,17.2,36.1,17.8z M19.8,17.5c-0.5-0.4-1-0.8-1.6-1l0.4-1c0.7,0.3,1.4,0.7,2,1.2L19.8,17.5z M43.8,16.9
					c-0.6-0.3-1.2-0.5-1.9-0.7l0.3-1c0.8,0.2,1.5,0.5,2.1,0.8L43.8,16.9z M11.2,16.5l-0.4-1c0.7-0.3,1.4-0.5,2.2-0.6l0.2,1.1
					C12.5,16,11.9,16.2,11.2,16.5z M16.7,16c-0.6-0.1-1.2-0.2-1.9-0.2h-0.1v-1.1h0.1c0.7,0,1.4,0.1,2.1,0.2L16.7,16z M38.5,15.9
					l-0.2-1.1c0.3,0,0.5-0.1,0.8-0.1c0.5,0,1,0,1.5,0l-0.1,1.1c-0.4,0-0.9,0-1.3,0C38.9,15.9,38.7,15.9,38.5,15.9z"/>
			</g>
			<g>
				<path d="M48.3,25c0,0,0-0.4-0.1-1l1.1-0.1c0.1,0.7,0.1,1.1,0.1,1.1H48.3z"/>
			</g>
		</g>
		<g>
			<path d="M0,49.9V10.4l19.7-9.9l19.4,9.7l19.7-9.8v39.5L58.7,40l-19.6,9.8L39,49.6l-19.3-9.7L0,49.9z M19.7,39.4L19.7,39.4
				l19.4,9.8l19.2-9.6V1.2l-19.2,9.6L19.7,1L0.5,10.6v38.3L19.7,39.4z"/>
		</g>
		<g>
			<path d="M39.1,47.2L39.1,47.2l-19.4-9.8L2.2,46.3V11.6l17.5-8.8l19.4,9.7l17.5-8.8v34.6l-0.1,0.1L39.1,47.2z M19.7,36.9
				L19.7,36.9l19.4,9.8l17-8.5V4.7l-17,8.5L19.7,3.5L2.7,12v33.4L19.7,36.9z"/>
		</g>
		<g>
			<rect x="19.4" y="0.7" width="0.5" height="38.9"/>
		</g>
		<g>
			<rect x="38.9" y="10.5" width="0.5" height="38.9"/>
		</g>
		<g>
			<polygon points="49.1,41.9 48.6,41.9 48.6,34.6 56.2,30.8 56.4,31.3 49.1,34.9 			"/>
		</g>
		<g>
			<g>
				<path d="M2.9,21.2c-0.2,0-0.4,0-0.7,0l0.1-1.1c0.3,0,0.6,0,0.9,0l0.1,1.1C3.2,21.2,3,21.2,2.9,21.2z"/>
			</g>
			<g>
				<path d="M30.5,35.6c-0.4-0.1-0.8-0.1-1.2-0.3c-0.3-0.1-0.6-0.2-0.9-0.3l0.4-1c0.3,0.1,0.6,0.2,0.8,0.3c0.4,0.1,0.8,0.2,1.1,0.2
					L30.5,35.6z M32.3,35.6l-0.2-1.1c0.6-0.1,1.1-0.4,1.4-0.9l0.9,0.6C33.9,34.9,33.2,35.4,32.3,35.6z M26.8,34.2
					c-0.7-0.4-1.3-0.9-1.8-1.4l0.8-0.7c0.4,0.5,0.9,0.9,1.5,1.2L26.8,34.2z M35.2,32.6l-1-0.3c0.2-0.6,0.3-1.2,0.3-2l1.1,0.1
					C35.4,31.3,35.3,32.1,35.2,32.6z M24,31.4c-0.4-0.6-0.6-1.3-0.9-2.1l1-0.3c0.2,0.7,0.5,1.3,0.8,1.9L24,31.4z M35.6,28.8h-1.1
					v-0.1c0-0.6,0-1.3,0-2h1.1C35.6,27.4,35.6,28.1,35.6,28.8L35.6,28.8z M22.7,27.7c-0.1-0.6-0.2-1.3-0.4-2.1l1.1-0.2
					c0.1,0.9,0.2,1.5,0.4,2.1L22.7,27.7z M34.4,25c0-0.7,0-1.4-0.1-2.2h1.1c0,0.7,0,1.4,0.1,2.1L34.4,25z M22.2,24
					c-0.1-0.7-0.2-1.4-0.3-2.1l1.1-0.2c0.1,0.7,0.2,1.5,0.3,2.1L22.2,24z M47.9,22.4c-0.2-0.7-0.4-1.3-0.7-1.9l1-0.5
					c0.3,0.6,0.6,1.4,0.8,2.1L47.9,22.4z M35.4,21.3l-1.1-0.1c0-0.8,0.1-1.6,0.3-2.2l1.1,0.2C35.6,19.8,35.5,20.5,35.4,21.3z
					 M5.1,20.6l-0.5-1c0.6-0.3,1.1-0.7,1.7-1.2L7,19.2C6.4,19.8,5.8,20.3,5.1,20.6z M21.5,20.4c-0.2-0.7-0.5-1.3-0.8-1.8l0.9-0.6
					c0.4,0.6,0.7,1.3,0.9,2.1L21.5,20.4z M46.4,19.2c-0.4-0.6-0.8-1.1-1.3-1.5l0.7-0.8c0.6,0.5,1.1,1,1.5,1.7L46.4,19.2z M8.2,18.3
					l-0.7-0.8c0.5-0.4,1.1-0.8,1.8-1.3l0.6,0.9C9.2,17.5,8.6,18,8.2,18.3z M36.1,17.8l-1-0.4c0.4-0.8,0.9-1.4,1.5-1.9l0.6,0.9
					C36.7,16.7,36.4,17.2,36.1,17.8z M19.8,17.5c-0.5-0.4-1-0.8-1.6-1l0.4-1c0.7,0.3,1.4,0.7,2,1.2L19.8,17.5z M43.8,16.9
					c-0.6-0.3-1.2-0.5-1.9-0.7l0.3-1c0.8,0.2,1.5,0.5,2.1,0.8L43.8,16.9z M11.2,16.5l-0.4-1c0.7-0.3,1.4-0.5,2.2-0.6l0.2,1.1
					C12.5,16,11.9,16.2,11.2,16.5z M16.7,16c-0.6-0.1-1.2-0.2-1.9-0.2h-0.1v-1.1h0.1c0.7,0,1.4,0.1,2.1,0.2L16.7,16z M38.5,15.9
					l-0.2-1.1c0.3,0,0.5-0.1,0.8-0.1c0.5,0,1,0,1.5,0l-0.1,1.1c-0.4,0-0.9,0-1.3,0C38.9,15.9,38.7,15.9,38.5,15.9z"/>
			</g>
			<g>
				<path d="M48.3,25c0,0,0-0.4-0.1-1l1.1-0.1c0.1,0.7,0.1,1.1,0.1,1.1H48.3z"/>
			</g>
		</g>
		<g>
			<path d="M50.3,31.1l-1.4-1.4l-1.4,1.4l-1.8-1.8l1.4-1.4l-1.4-1.4l1.8-1.8l1.4,1.4l1.4-1.4l1.8,1.8l-1.4,1.4l1.4,1.4L50.3,31.1z
				 M48.9,28.9l1.4,1.4l1-1l-1.4-1.4l1.4-1.4l-1-1l-1.4,1.4l-1.4-1.4l-1,1l1.4,1.4l-1.4,1.4l1,1L48.9,28.9z"/>
		</g>
		<g>
			<path d="M2.7,42l-0.5-0.2c0.1-0.2,1.7-5.3,6.3-6.6c2.3-0.7,3.5-0.4,4.6-0.1c1.1,0.3,2.1,0.5,4-0.1c4-1.3,6.2-2,10.7,2.1
				c4.2,3.8,6.9,3.3,10,1.2c3.3-2.3,6.4-4.1,11.1-3l-0.1,0.5c-4.5-1.1-7.3,0.6-10.6,2.9c-3.2,2.2-6.2,2.8-10.6-1.2
				c-4.3-3.9-6.2-3.3-10.2-2c-2.1,0.7-3.2,0.4-4.3,0.1c-1.1-0.3-2.2-0.5-4.4,0.1C4.4,36.9,2.7,41.9,2.7,42z"/>
		</g>
		<g>
			<path d="M52.5,9.3L54,6.6l1.5,0.9L52.5,9.3z M54.1,7l-0.9,1.5l1.7-1L54.1,7z"/>
		</g>
	</g>
	<path d="M69.4,31.8v-17H73v13.8h7.2v3.2L69.4,31.8L69.4,31.8z"/>
	<path d="M81,25.6c0-3.5,2.4-6.4,6.5-6.4c4.1,0,6.5,2.9,6.5,6.4S91.6,32,87.5,32C83.5,32.1,81,29.1,81,25.6z M90.6,25.6
		c0-1.9-1.1-3.6-3.1-3.6s-3.1,1.7-3.1,3.6s1.1,3.6,3.1,3.6S90.6,27.6,90.6,25.6z"/>
	<path d="M95.3,30.2l1.4-2.3c0.9,0.8,2.7,1.7,4.2,1.7c1.4,0,2.1-0.6,2.1-1.3c0-2-7.3-0.4-7.3-5.2c0-2.1,1.8-3.9,5-3.9
		c2.1,0,3.7,0.7,5,1.7l-1.3,2.2c-0.7-0.8-2.1-1.4-3.6-1.4c-1.2,0-1.9,0.5-1.9,1.2c0,1.8,7.3,0.3,7.3,5.3c0,2.2-1.9,3.9-5.3,3.9
		C98.6,32.1,96.6,31.3,95.3,30.2z"/>
	<path d="M109.3,28.7v-6.4h-2v-2.8h2v-3.4h3.2v3.4h2.5v2.8h-2.5v5.5c0,0.8,0.4,1.3,1.1,1.3c0.5,0,0.9-0.2,1.1-0.4l0.7,2.4
		c-0.5,0.4-1.3,0.8-2.7,0.8C110.5,32.1,109.3,30.9,109.3,28.7z"/>
	<path d="M118.5,23.3c0-5.3,3.9-8.8,8.7-8.8c3,0,5.1,1.3,6.6,3.2l-1.7,1c-1.1-1.4-2.9-2.3-4.9-2.3c-3.7,0-6.5,2.8-6.5,6.9
		c0,4,2.8,6.9,6.5,6.9c2,0,3.7-1,4.5-1.8v-3.5h-5.8V23h7.9v6.1c-1.6,1.8-3.9,2.9-6.7,2.9C122.4,32.1,118.5,28.6,118.5,23.3z"/>
	<path d="M136.5,31.8V19.5h1.9v2c1-1.3,2.4-2.2,4.1-2.2v2c-0.2-0.1-0.5-0.1-0.8-0.1c-1.2,0-2.8,1-3.3,2v8.7L136.5,31.8L136.5,31.8z"
		/>
	<path d="M144.7,16.5c0-0.7,0.6-1.3,1.3-1.3c0.7,0,1.3,0.6,1.3,1.3c0,0.7-0.6,1.3-1.3,1.3C145.3,17.7,144.7,17.2,144.7,16.5z
		 M145.1,31.8V19.5h1.9v12.3H145.1z"/>
	<path d="M159.4,31.8v-1.8c-0.9,1.2-2.4,2.1-4.1,2.1c-3.2,0-5.5-2.4-5.5-6.4c0-3.9,2.2-6.4,5.5-6.4c1.6,0,3.1,0.8,4.1,2.2v-6.5h1.9
		V32L159.4,31.8L159.4,31.8z M159.4,28.4v-5.6c-0.7-1.1-2.2-2-3.7-2c-2.5,0-3.9,2-3.9,4.7c0,2.7,1.5,4.7,3.9,4.7
		C157.2,30.4,158.7,29.6,159.4,28.4z"/>
</g>
</svg>
