<?xml version="1.0" encoding="utf-8"?>
<!-- Generator: Adobe Illustrator 20.1.0, SVG Export Plug-In . SVG Version: 6.00 Build 0)  -->
<svg version="1.1" id="Layer_1" xmlns="http://www.w3.org/2000/svg" xmlns:xlink="http://www.w3.org/1999/xlink" x="0px" y="0px"
	 viewBox="0 0 82.6 32" style="enable-background:new 0 0 82.6 32;" xml:space="preserve">
<path d="M0,13.8v13.8h23.1V32h18.2v-4.5h41.3V0H0V13.8L0,13.8z M23.1,13.8v9.3h-4.8V9.3h-4.5v13.8H4.5V4.5h18.6V13.8z M46.1,13.8
	v9.3h-8.9v4.5h-9.6V4.5h18.6V13.8L46.1,13.8z M78.1,13.8v9.3h-4.5V9.3h-4.8v13.8h-4.5V9.3h-4.5v13.8h-9.3V4.5h27.5V13.8L78.1,13.8z
	 M36.8,13.8v4.5h4.5V9.3h-4.1v4.5H36.8z"/>
</svg>
