<?xml version="1.0" encoding="utf-8"?>
<!-- Generator: Adobe Illustrator 20.1.0, SVG Export Plug-In . SVG Version: 6.00 Build 0)  -->
<svg version="1.1" id="Layer_1" xmlns="http://www.w3.org/2000/svg" xmlns:xlink="http://www.w3.org/1999/xlink" x="0px" y="0px"
	 viewBox="0 0 24 18.4" style="enable-background:new 0 0 24 18.4;" xml:space="preserve">
<path d="M0,8.5v4h6.7v1.3H12v-1.3h12v-8H0V8.5L0,8.5z M6.7,8.5v2.7H5.3v-4H4v4H1.3V5.8h5.4V8.5z M13.4,8.5v2.7h-2.6v1.3H8V5.8h5.4
	V8.5L13.4,8.5z M22.7,8.5v2.7h-1.3v-4H20v4h-1.3v-4h-1.3v4h-2.7V5.8h8V8.5L22.7,8.5z M10.7,8.5v1.3H12V7.2h-1.2v1.3H10.7z"/>
</svg>
