<?xml version="1.0" encoding="utf-8"?>
<!-- Generator: Adobe Illustrator 20.1.0, SVG Export Plug-In . SVG Version: 6.00 Build 0)  -->
<svg version="1.1" id="Layer_1" xmlns="http://www.w3.org/2000/svg" xmlns:xlink="http://www.w3.org/1999/xlink" x="0px" y="0px"
	 viewBox="0 0 30.1 30" style="enable-background:new 0 0 30.1 30;" xml:space="preserve">
<style type="text/css">
	.st0{fill:#FFFFFF;}
</style>
<title>postcss-logo-symbol</title>
<g>
	<g>
		<path d="M5.6,12.5c0,0,0.1,0.1,0,0.1c-0.1,0.1-0.1,0.1-0.2,0.2c0,0.1-0.1,0.1-0.1,0C5.5,12.8,5.6,12.7,5.6,12.5L5.6,12.5z
			 M25.9,23.2C25.9,23.2,26,23.2,25.9,23.2C26,23.2,26,23.2,25.9,23.2L25.9,23.2z M25.9,23.2L25.9,23.2L25.9,23.2z M22.1,15.2
			C22.1,15.3,22.1,15.3,22.1,15.2C22.1,15.3,22.1,15.3,22.1,15.2L22.1,15.2z M22.1,15.4C22.1,15.4,22.1,15.4,22.1,15.4L22.1,15.4
			C22.1,15.4,22.1,15.4,22.1,15.4L22.1,15.4z M22.1,15.5L22.1,15.5c0-0.1-0.1-0.1-0.1-0.1C22,15.5,22.1,15.5,22.1,15.5L22.1,15.5z"
			/>
		<path class="st0" d="M25.9,23.5v-0.2c0,0,0,0,0,0c0,0,0,0,0-0.1v-0.1h0.2l0,0.1c0,0,0,0,0,0c0,0,0,0,0,0.1L25.9,23.5z M22,15.5
			C22,15.5,22,15.5,22,15.5C22,15.5,22,15.5,22,15.5l-0.2-0.1l0.2,0c0,0,0,0,0.1,0c0,0,0,0,0,0v-0.1l0,0c0,0,0-0.1,0-0.1l0.1,0
			c0,0,0,0,0,0.1H22l0.1,0.1l0,0v0l0.1,0L22,15.5C22.1,15.5,22.1,15.5,22,15.5L22,15.5L22,15.5C22,15.5,22,15.5,22,15.5z M5.5,13
			C5.4,13,5.4,13,5.5,13l-0.1-0.1l0,0c0.1-0.1,0.2-0.3,0.2-0.4l0,0l0,0c0,0,0,0,0,0c0,0,0.1,0,0.1,0.1c0,0,0,0.1,0,0.1
			c0,0,0,0-0.1,0.1c0,0-0.1,0.1-0.1,0.1C5.5,12.9,5.5,13,5.5,13C5.5,13,5.5,13,5.5,13z M5.7,12.6L5.7,12.6L5.7,12.6z"/>
	</g>
	<g>
		<path d="M29.9,13.1c0-0.4,0-0.8-0.1-1.2c-0.1-0.5-0.1-1.1-0.3-1.6c-0.1-0.4-0.2-0.8-0.4-1.3c-0.2-0.5-0.4-1-0.6-1.4
			c-0.4-0.7-0.9-1.4-1.4-2.1c-0.3-0.4-0.7-0.8-1-1.3c-0.2-0.3-0.4-0.5-0.7-0.7c-0.4-0.3-0.8-0.6-1.3-0.9c-0.3-0.2-0.6-0.4-1-0.6
			c-0.3-0.2-0.6-0.3-0.8-0.4c-0.3-0.2-0.6-0.3-1-0.4c-0.1,0-0.2-0.1-0.3-0.1c-0.2-0.1-0.5-0.2-0.7-0.2c-0.4-0.1-0.7-0.2-1.1-0.3
			c-0.4-0.1-0.7-0.2-1.1-0.2c-0.4-0.1-0.8-0.1-1.2-0.1c-0.3,0-0.5-0.1-0.8-0.1c-0.4,0-0.8,0-1.2,0c-0.2,0-0.4,0-0.6,0
			c-0.3,0-0.6,0-0.9,0.1c-0.3,0-0.6,0.1-0.8,0.1c-0.3,0-0.7,0.1-1,0.1c-0.3,0-0.6,0.1-1,0.2c-0.1,0-0.2,0.1-0.3,0.1
			c-0.2,0-0.5,0.1-0.7,0.1C9.4,0.9,8.9,1,8.5,1.2C8.1,1.3,7.7,1.5,7.4,1.7C7,1.9,6.6,2.2,6.3,2.4c-0.3,0.2-0.7,0.5-1,0.7
			C4.9,3.4,4.6,3.7,4.3,4C4.2,4.1,4,4.3,3.9,4.5C3.6,4.8,3.4,5.1,3.1,5.4C2.9,5.6,2.7,5.9,2.6,6.2c-0.3,0.5-0.6,1-0.9,1.5
			C1.5,7.8,1.4,8,1.3,8.2C1.2,8.5,1,8.8,0.9,9.1C0.8,9.4,0.7,9.6,0.6,9.8c-0.1,0.5-0.3,1-0.4,1.5c-0.1,0.4-0.2,0.9-0.2,1.4
			c0,0.4,0,0.8,0.1,1.2c0,0.1-0.1,0.2,0.1,0.3c0,0.1,0,0.2,0.1,0.2c-0.1,0.1,0,0.2,0,0.3c0,0,0,0.1,0.1,0.1c0,0,0,0.1,0,0.1
			c0,0.1,0.1,0.2,0.1,0.3c0,0.1,0.1,0.2,0.1,0.2c0,0,0,0.1,0,0.1c-0.1,0.1-0.1,0.1,0,0.2c0.1,0.1,0,0.2,0,0.3c0,0.1,0,0.1,0,0.1
			c0.1,0.2,0.1,0.3,0.1,0.5c0,0,0,0.1,0,0.1c0,0,0,0.2,0,0.2c0.1,0,0.1,0,0.1-0.1c0,0.1,0.1,0.3,0.1,0.4c0.1,0.1,0.1,0.1,0,0.1
			c0,0.2,0.1,0.4,0.1,0.5c0-0.2,0-0.4-0.1-0.6c0.1,0.1,0.3,0.1,0.3,0.1c0,0,0-0.1,0-0.1c-0.1-0.1-0.1-0.2-0.2-0.2c0,0.1,0,0.1,0,0.1
			c0,0-0.1,0-0.1-0.1c0-0.1,0.1-0.1,0.1-0.2c0-0.1-0.1-0.2-0.2-0.2c0.1,0,0.1-0.1,0.2-0.1c0.1-0.1,0-0.2,0-0.3
			c0-0.2-0.1-0.3-0.1-0.5c-0.1-0.3,0-0.7-0.1-1C0.9,14.9,0.9,15,0.9,15c0,0.2,0.1,0.5,0.1,0.7c-0.1-0.2-0.1-0.4-0.2-0.7
			c0,0.1,0,0.1,0,0.1c-0.1,0.1,0,0.1,0,0.2c-0.1,0-0.2,0-0.2,0v0.3c-0.1-0.1-0.1-0.2-0.2-0.3c0-0.1,0-0.2-0.1-0.2c0-0.1,0-0.1,0-0.1
			c0-0.1,0-0.2,0-0.2c0,0,0-0.2,0-0.2c0.1,0,0.1,0,0.2,0c-0.1-0.1,0-0.2,0-0.3c0,0,0.1-0.1,0.1-0.1c0.1-0.2,0.2-0.3,0.2-0.5
			c0-0.1,0-0.2,0-0.3c0-0.2,0-0.3,0.1-0.5c0-0.2,0-0.4,0.1-0.7c0.1-0.4,0.2-0.7,0.3-1.1c0.1-0.3,0.2-0.5,0.3-0.7
			c0.2-0.4,0.3-0.8,0.5-1.2C2.3,8.9,2.7,8.3,3,7.8c0.2-0.3,0.4-0.6,0.6-1C3.8,6.5,4,6.2,4.2,5.9c0.3-0.4,0.7-0.8,1.1-1.1
			C5.7,4.4,6.1,4,6.5,3.7c0.6-0.4,1.2-0.8,1.8-1.2C8.8,2.2,9.3,2,9.9,1.8c0.3-0.1,0.7-0.2,1.1-0.3c0.4-0.1,0.8-0.2,1.2-0.2
			c0.3,0,0.5,0,0.8-0.1c0.2,0,0.5,0,0.7-0.1c0,0,0,0.1-0.1,0.1c-0.1,0.2-0.2,0.3-0.3,0.5c-0.1,0.1-0.2,0.3-0.3,0.4
			c-0.2,0.2-0.3,0.4-0.5,0.6c-0.2,0.3-0.4,0.7-0.7,1c-0.2,0.3-0.5,0.6-0.8,0.9c-0.3,0.4-0.6,0.9-1,1.3C9.9,6.5,9.5,6.9,9.2,7.3
			C9,7.7,8.7,8,8.5,8.4C8.1,9,7.7,9.5,7.4,10.1c-0.3,0.4-0.6,0.8-0.9,1.3c0,0-0.1,0-0.1,0.1c-0.1,0.1-0.1,0.2-0.1,0.3
			C6.2,11.8,6.1,12,6,12.1c-0.1,0.1-0.1,0.2-0.2,0.2c0-0.1,0.2-0.2,0.1-0.3c-0.1,0.1-0.1,0.2-0.2,0.2l-0.1,0.2c0,0,0.1,0.1,0,0.1
			c0,0.1-0.1,0.1-0.1,0.2c0,0,0.1-0.1,0.1-0.1c0,0.1-0.1,0.2-0.1,0.3c0,0.1-0.1,0.1-0.2,0.2c0,0,0.1,0,0.1,0.1
			c0.1,0,0.1-0.1,0.1-0.1c0,0,0.1-0.1,0.1-0.1c0-0.1,0.1-0.2,0.2-0.2c0,0,0.1-0.1,0.1-0.1c0.3-0.3,0.6-0.6,0.9-1
			c0.4-0.5,0.8-1.1,1.2-1.6C8.3,10,8.5,9.8,8.7,9.6c0,0.2,0,0.5,0,0.7c0,0.4-0.1,0.7-0.1,1.1c0,0.2,0,0.3,0,0.5c0,0,0,0.1,0,0.1
			c0,0.1,0,0.2,0,0.3c0,0.4-0.1,0.7-0.1,1.1c0,0.1,0,0.2,0.1,0.2c-0.1,0.5,0.1,1.1,0,1.7c0.1-0.1,0.1-0.2,0.1-0.3c0-0.1,0-0.1,0-0.2
			v-0.1c0-0.2,0.1-0.4,0-0.6c0-0.2,0-0.4,0-0.6c0-0.1,0-0.2,0-0.3v0.2c0,0.6,0,1.2-0.1,1.7c0,0.1,0,0.1-0.1,0.1
			c-0.1,0.2,0,0.3-0.1,0.4c0,0,0,0.1,0,0.2c0,0.1,0,0.1,0,0.1c0,0.2,0,0.4,0,0.6c0.2-0.4,0.1-0.8,0.2-1.2c0,0.2,0,0.3,0,0.5
			c0,0.3,0,0.5,0,0.8c0,0.1,0,0.1,0,0.2c0,0.1,0,0.3-0.1,0.4c0,0.1,0,0.3,0,0.4v0.4c0,0.2,0,0.3,0,0.4c0,0.1,0,0.1,0,0.2l0,0.2
			c0.2,0,0.1,0.1,0.2,0.2c-0.1,0.1,0,0.1,0,0.2c0,0.1,0,0.2,0,0.3c0,0.2,0,0.5,0,0.7c0,0,0,0.1,0,0.1c0,0,0,0.3,0,0.3
			c0,0,0,0.1,0,0.1c0,0,0-1.3,0-1.3H8.4c0,0.6,0,1.2-0.1,1.7c-0.1,0-0.2,0-0.3,0c-0.3,0-0.6,0-0.9,0c-0.4,0-0.7,0-1.1,0
			c-0.2,0-0.4,0-0.6,0c-0.2,0-0.5,0-0.7,0c-0.4,0-0.7,0-1.1,0c-0.3,0-0.5,0-0.8,0c-0.2,0-0.4,0-0.5,0c-0.1,0-0.2,0-0.3,0.1
			c0,0-0.1,0-0.2,0c-0.1,0-0.2,0.1-0.3,0.1c-0.2,0-0.2,0.1-0.2,0.2v0.1c0,0,0.2,0,0.2,0c0,0,0,0.1-0.1,0.1c0.1,0,0.1-0.1,0.2-0.1
			c0.2,0.1,0.3,0,0.4,0.1c0.4,0.1,0.8,0.1,1.2,0.2c0.3,0,0.5,0,0.8,0c0.4,0,0.7,0,1.1,0c0.3,0,0.6,0,0.9,0c0.4,0,0.9,0,1.3,0
			c0.1,0,0.2,0,0.3,0h0.7c0.7,0,1.3,0,2-0.1c0.4,0,0.8,0,1.1,0l1.2,0c0.4,0,0.9,0,1.3,0c0.3,0,0.7,0,1,0c0.4,0,0.8,0,1.1-0.1
			c0.2,0,0.4,0,0.6-0.1c0.2,0,0.5-0.1,0.7-0.1c0.4,0,0.7,0,1.1-0.1c0.5,0,0.9-0.1,1.4-0.1c0.4,0,0.9,0,1.3,0c0.4,0,0.7,0,1.1,0
			l0.6,0c0,0,0.4,0,0.6,0c0.4,0,0.7-0.1,1.1-0.1c0.2,0,0.5,0,0.7,0c0.4,0,0.8,0,1.1,0c0.1,0,0.3,0,0.5,0c-0.1,0.1-0.1,0.1-0.2,0.2
			c0,0,0.1,0,0.1,0.1c-0.1,0-0.1,0.1-0.2,0.1c0,0.1,0,0.1-0.1,0.2H27c-0.1,0-0.1,0.1-0.2,0.2c-0.1,0-0.2,0-0.2,0.1
			c0.1,0,0.1,0.1,0.1,0.1c-0.1,0-0.2,0.1-0.2,0.2c0,0-0.1,0-0.1,0.1c-0.1,0.1-0.1,0.1-0.1,0.2c0,0,0.1,0,0.1,0
			c-0.1,0-0.1,0.1-0.2,0.1c-0.2,0.1-0.1,0.2-0.1,0.2c0,0-0.1,0-0.1,0.1c0,0.1,0.1,0.1,0.1,0.1c-0.1,0-0.1,0.1-0.2,0.1
			c0,0.1-0.1,0.1-0.1,0.2c0,0.1-0.1,0.1-0.1,0.2c-0.2,0.2-0.4,0.5-0.6,0.7c-0.1,0.1-0.2,0.2-0.3,0.3c-0.2,0.2-0.3,0.4-0.5,0.5
			c-0.3,0.2-0.5,0.4-0.8,0.6c-0.3,0.2-0.7,0.5-1,0.7c-0.2,0.1-0.4,0.2-0.6,0.3s-0.4,0.2-0.6,0.3c-0.1,0.1-0.2,0.2-0.4,0.3
			c-0.3,0.1-0.7,0.3-1,0.4c-0.3,0.1-0.6,0.3-0.8,0.4c-0.2,0.1-0.5,0.1-0.7,0.2c-0.1,0-0.2,0-0.3,0c-0.2,0-0.3,0.1-0.5,0.1
			c-0.4,0.1-0.9,0.1-1.3,0.2c-0.3,0-0.5,0.1-0.8,0.1c-0.2,0-0.4,0-0.6,0c-0.1,0-0.3,0-0.4,0c-0.2,0-0.4-0.1-0.6-0.1
			c-0.1,0-0.1,0-0.2,0c-0.1,0-0.2,0-0.2,0c-0.1,0-0.1,0-0.2,0c0,0-0.1,0-0.1,0c-0.1,0-0.2-0.1-0.3-0.1c-0.1,0-0.2-0.1-0.4-0.1
			c-0.2,0-0.4-0.1-0.5-0.1c-0.1,0-0.1-0.1-0.2-0.1c-0.3,0-0.4,0-0.6-0.1c-0.1-0.1-0.3-0.1-0.4-0.1c0,0-0.1,0-0.1,0
			c0,0-0.1-0.1-0.1-0.1c-0.2,0-0.3-0.2-0.5-0.2c-0.1,0-0.2-0.1-0.3-0.2c-0.2-0.1-0.4-0.3-0.7-0.3C9.1,27.1,9,27,8.9,27
			c0,0,0.1,0.1,0.1,0.1c-0.3-0.1-0.6-0.3-0.8-0.5c0,0-0.1-0.1-0.1-0.1l-0.3-0.2c-0.2,0-0.2,0-0.3-0.1c-0.3-0.2-0.6-0.3-0.8-0.5
			c-0.1-0.1-0.2-0.2-0.3-0.3c-0.1-0.2-0.3-0.3-0.5-0.4c-0.2-0.1-0.3-0.2-0.4-0.3c-0.1-0.1-0.1-0.1-0.1-0.2c0-0.1,0-0.1-0.1-0.1
			c0-0.1-0.1-0.1-0.1-0.2c-0.1-0.1-0.2-0.1-0.3-0.2S4.5,24,4.4,23.9c-0.2-0.1-0.3-0.3-0.4-0.4c-0.3-0.3-0.5-0.7-0.8-1.1
			c0,0-0.1-0.1-0.1-0.1c0,0.1,0.1,0.2,0.1,0.3c-0.1,0-0.2-0.1-0.2-0.2c0,0,0.7,1.2,0.7,1.2c0.1,0.1,0.1,0.2,0.2,0.3
			c-0.1,0-0.2-0.1-0.3-0.2c-0.1-0.2-0.2-0.3-0.4-0.2c0-0.1,0-0.2-0.1-0.2c0,0-0.1,0-0.1,0c0.1,0.2,0.3,0.4,0.4,0.6
			c-0.1,0-0.1-0.1-0.1-0.1c0.2,0.2,0.3,0.4,0.5,0.6c0.1,0.2,0.3,0.3,0.4,0.6c-0.1,0-0.1,0-0.1,0c-0.1-0.1-0.2-0.2-0.3-0.3
			c0,0.1,0.1,0.1,0.1,0.2C4,25,4.1,25.2,4.2,25.3c0.1,0.1,0.1,0.1,0.1,0.2c0.1,0,0.1,0.1,0.1,0.1c0,0.1,0,0.2,0.1,0.1
			c0.1,0.2,0.2,0.2,0.3,0.1c0.1,0.1,0.2,0.1,0.3,0.1c0,0.1,0,0.1,0,0.1c0,0,0-0.1,0-0.1c0.1,0,0.1,0.1,0.1,0.1
			c0.1,0.1,0.2,0.3,0.3,0.4c0.2,0.2,0.4,0.3,0.5,0.5c0.4,0.3,0.7,0.5,1.1,0.8c0.5,0.3,1,0.6,1.4,0.8c0.6,0.3,1.2,0.5,1.9,0.7
			c0.2,0.1,0.5,0.1,0.7,0.2c0.2,0.1,0.4,0.2,0.6,0.2c0.3,0.1,0.7,0.1,1,0.2c0.1,0,0.1,0,0.2,0c0.1,0,0.2,0,0.2,0
			c0.1,0.1,0.1,0,0.2,0c0.1,0,0.2,0,0.2,0c0.3,0,0.6,0.1,0.8,0.1c0.1,0,0.2-0.1,0.2,0.1c0.1,0,0.1,0,0.2-0.1c0,0.1,0,0.1,0,0.1
			c0,0-0.1,0-0.1,0.1c0.4,0.1,0.7,0.1,1,0c0.5,0,1,0,1.4-0.2c0,0.1,0.1,0.1,0.1,0c0,0,0.1,0,0.1-0.1c0.1,0,0.2-0.1,0.3,0
			c0.1,0,0.1-0.1,0.2-0.1c0.1,0,0.2,0,0.3,0c0.1,0,0.1,0,0.2-0.1c-0.1,0-0.1-0.1-0.2-0.1c0.1-0.1,0.2-0.1,0.3-0.2c0,0,0,0.1-0.1,0.1
			h0.1c0,0-0.1,0.1-0.1,0.2c0.4-0.1,0.7-0.2,1-0.3c-0.1-0.2,0.1-0.1,0.2-0.3c-0.1,0-0.2,0.1-0.3,0.1c0.3-0.2,0.7-0.3,1-0.5
			c-0.1,0.1-0.1,0.1-0.2,0.1c0.1,0,0.1,0,0.1,0c0.2,0.1,0.1-0.1,0.2-0.2c0.2,0,0.3,0,0.4-0.1c0.1,0,0.2-0.1,0.3-0.1
			c0.2-0.1,0.3-0.2,0.5-0.2c0,0,0.1,0,0.1,0c0.1-0.1,0.2-0.1,0.2-0.1c0.1,0,0.2,0,0.3-0.2c0.1-0.1,0.1-0.1,0.2-0.1
			c0.2-0.1,0.4-0.2,0.7-0.4c0.1,0,0.1,0,0.1,0c0.1-0.1,0.3-0.1,0.4-0.2c0,0-0.1,0-0.1-0.1c0.1,0,0.1,0,0.2-0.1
			c0.2-0.3,0.6-0.5,0.8-0.7c0.1,0,0.1,0,0.1-0.1c0-0.1,0.1-0.1,0.1-0.2c0.2-0.2,0.5-0.4,0.7-0.6c0.3-0.3,0.6-0.6,0.8-0.9
			c0.2-0.3,0.5-0.6,0.7-0.9c0.3-0.4,0.5-0.9,0.8-1.3c0.2-0.3,0.3-0.6,0.5-1c0,0,0.1-0.1,0.1-0.1c0.3,0,0.5-0.1,0.8-0.1
			c0.1,0,0.1-0.1,0.2-0.1c0-0.1-0.1-0.1-0.1-0.2c0-0.1-0.1-0.1-0.1-0.2c0-0.1-0.1-0.1-0.1-0.2c0-0.1-0.1-0.1-0.1-0.1
			c-0.1-0.1-0.1-0.2-0.2-0.3c0,0,0-0.1,0-0.1c0.2-0.4,0.3-0.8,0.4-1.2c0.2-0.4,0.2-0.9,0.3-1.3c0.1-0.4,0.1-0.8,0.2-1.2
			c0-0.3,0.1-0.6,0.1-0.9c0.1-0.5,0-0.9,0-1.3C30,13.8,30,13.4,29.9,13.1L29.9,13.1z M4.6,25.5c-0.1-0.1-0.1-0.2-0.2-0.3l0,0
			c0.1,0.1,0.2,0.2,0.3,0.4C4.7,25.6,4.6,25.6,4.6,25.5z M4.7,25.6C4.8,25.6,4.8,25.6,4.7,25.6c0.1,0,0.1,0.1,0.2,0.2
			C4.8,25.8,4.7,25.7,4.7,25.6L4.7,25.6z M15.2,29.8L15.2,29.8c0.2-0.1,0.4-0.1,0.6-0.1v0C15.6,29.8,15.4,29.8,15.2,29.8L15.2,29.8z
			 M17.8,29.5c-0.1,0-0.3,0.1-0.4,0.1c-0.1,0-0.1,0.1-0.1,0c0,0,0,0-0.1,0c0.1,0.2,0.2,0,0.3,0.1c-0.2,0-0.4,0.1-0.6,0.1v0
			c0.1,0,0.1,0,0.2,0v0c-0.1,0-0.2,0-0.3,0c0,0-0.1,0-0.1,0.1c0,0-0.1,0-0.1,0c-0.2,0-0.3,0-0.5,0c0,0,0,0,0,0v0
			c0.7-0.1,1.3-0.2,2-0.3c0,0,0,0,0,0.1C17.9,29.5,17.8,29.5,17.8,29.5L17.8,29.5z M17.9,29.4c0.2,0,0.4-0.1,0.7-0.1
			C18.1,29.5,18,29.5,17.9,29.4L17.9,29.4z M9.1,9c0.3-0.4,0.7-0.9,1-1.3c0.1-0.1,0.2-0.3,0.3-0.4c0,0,0.1-0.1,0.1-0.1l0,0
			c0-0.1,0.1-0.1,0.1-0.1c0.1-0.1,0.1-0.2,0.1-0.3c0,0,0,0,0,0c0.1,0.1,0.1-0.1,0.2-0.1c0.1-0.1,0.2-0.2,0.3-0.3
			c0.1-0.1,0.1-0.2,0.2-0.2c0,0,0-0.1,0-0.1h0c0,0,0.1-0.1,0.1-0.1c0,0,0,0,0,0c0.1-0.1,0.1-0.2,0.2-0.3c0.1-0.2,0.3-0.3,0.4-0.5
			c0,0.1,0,0.1-0.1,0.1c0,0,0,0,0,0c0.1-0.2,0.3-0.3,0.4-0.5c0,0,0,0,0,0c-0.1,0.1-0.1,0.1-0.1,0.2c0,0,0,0,0,0
			c0.1-0.1,0.2-0.3,0.3-0.4c0,0,0,0.1,0.1,0.2c0-0.1,0.1-0.2,0.1-0.2c0,0-0.1,0.1-0.1,0.1l0,0l0.2-0.3c0.2-0.3,0.4-0.6,0.6-0.8
			c0.1-0.1,0.2-0.2,0.2-0.3c0.2-0.4,0.5-0.7,0.7-1c0.1-0.1,0.1-0.1,0.2-0.2c0.1-0.1,0.1,0,0.1,0c0.3,0.3,0.5,0.7,0.8,1
			c0.2,0.3,0.4,0.5,0.6,0.8c0.2,0.3,0.5,0.6,0.7,1c0.3,0.4,0.5,0.7,0.8,1.1c0.4,0.6,0.7,1.1,1.1,1.7c0.3,0.4,0.6,0.8,0.8,1.2h-0.5
			c-0.5,0-1-0.1-1.4,0c-0.6,0-1.3,0.1-2,0.2c-0.8,0.1-1.6,0.1-2.5,0.1c-0.3,0-0.6,0-0.9,0.1c-0.4,0-0.7,0-1.1,0.1
			c-0.4,0-0.8,0-1.2,0C9.6,9,9.4,9,9.1,9L9.1,9z M20.7,13.6L20.7,13.6c0,0.1,0,0.1,0,0.1c0-0.1-0.1-0.3-0.1-0.4
			c-0.1-0.3-0.2-0.6-0.4-0.8c-0.2-0.3-0.4-0.6-0.6-0.9c-0.1-0.1-0.1-0.1-0.2-0.2c-0.2-0.2-0.4-0.5-0.7-0.6c-0.4-0.3-0.8-0.5-1.3-0.6
			c-0.1-0.1-0.2-0.1-0.4-0.2h0.2l1.7,0c0.4,0,0.7,0,1.1,0c0.1,0,0.1,0,0.2,0.1c0.1,0.2,0.2,0.3,0.3,0.5c0,0,0,0.1,0,0.1
			c0,0.2,0,0.5,0,0.7c0,0.2,0,0.5,0,0.7c0,0.2,0,0.5,0,0.7C20.7,12.9,20.7,13.3,20.7,13.6L20.7,13.6z M9.9,10.3
			c0.5,0,0.9-0.1,1.4-0.1c0.4,0,0.7,0,1.1-0.1c0.2,0,0.3,0,0.4,0c-0.2,0.1-0.3,0.2-0.5,0.3c-0.2,0.1-0.4,0.3-0.5,0.4
			c-0.2,0.1-0.3,0.3-0.5,0.5c-0.2,0.2-0.4,0.4-0.6,0.7c-0.1,0.2-0.3,0.3-0.4,0.5c-0.2,0.2-0.3,0.5-0.5,0.7
			C9.8,12.2,9.9,11.2,9.9,10.3L9.9,10.3z M16.5,20c-0.3,0.1-0.7,0.2-1,0.2c-0.3,0-0.6,0-0.9,0c-0.3,0-0.5,0-0.8,0
			c-0.3,0-0.6-0.1-0.9-0.2c-0.2-0.1-0.5-0.2-0.7-0.3c-0.2-0.1-0.5-0.3-0.7-0.5c-0.1-0.2-0.3-0.3-0.5-0.4c0,0.1,0.1,0.2,0.2,0.3
			c-0.1,0.1-0.1,0-0.2-0.1c0,0-0.1,0-0.1,0c0-0.1,0.1-0.1,0.1-0.2c0-0.1-0.1-0.2-0.1-0.3c-0.1-0.1-0.2-0.3-0.2-0.4c0,0,0-0.1,0-0.1
			c-0.1-0.1-0.1-0.1-0.1-0.2c-0.1-0.1-0.2-0.3-0.3-0.4c0,0,0,0.1,0,0.1c0,0,0,0,0,0L10,17c0,0,0,0,0,0l0.2,0.7c0,0,0,0,0,0
			c0,0-0.1-0.1-0.1-0.1c0-0.1-0.1-0.1-0.1-0.1c0,0-0.1,0.1,0,0.1c0.1,0.2,0.2,0.3,0.2,0.5c0,0.1,0,0.1,0.1,0.2c0,0,0,0,0,0.1
			c0,0.1,0.1,0.2,0.1,0.2c0.1,0.1,0.2,0.2,0.3,0.4c0.1,0.1,0.2,0.3,0.3,0.4c0,0,0,0,0.1,0c0.1,0.2,0.2,0.3,0.3,0.2
			c0,0.2,0.3,0.3,0.4,0.5c-0.1,0-0.2-0.1-0.3-0.1c0,0,0,0,0,0c0.1,0.1,0.2,0.1,0.4,0.2c0.1,0.1,0.2,0.1,0.3,0.2
			c0.1,0.1,0.3,0.2,0.4,0.2c0,0,0,0,0,0c0.3,0.1,0.6,0.3,0.8,0.4c-1.1,0-2.2,0-3.3,0.1c0-0.2,0-0.4,0-0.6c0-0.1,0-0.2,0-0.2
			c0-0.5,0-0.9-0.1-1.4c-0.1-0.5-0.1-1-0.1-1.4c0-0.3,0-0.5,0-0.8c0-0.4,0-0.7,0-1.1c0-0.1,0-0.1,0-0.1h0c0,0,0,0.1,0,0.1
			c0,0,0.1,0.1,0.1,0.1c0.1,0,0.2-0.1,0.2-0.1c0.1-0.1,0.1-0.3,0.1-0.4c0-0.1,0-0.2,0.1-0.2c0,0,0-0.1,0.1-0.1c0,0-0.1-0.1-0.1-0.1
			c0-0.1,0-0.2,0.2-0.3c0,0,0-0.1,0-0.1c0-0.1,0-0.2,0-0.3c0,0,0,0,0.1,0.1c0,0,0,0,0,0c0,0,0-0.1,0-0.1c0.1,0,0.1-0.2,0.1-0.2
			c0,0,0,0,0-0.1c0,0,0-0.1,0-0.1c0.1,0,0.1-0.2,0.2-0.3c0,0,0-0.1,0.1-0.1c0.1,0.1-0.1,0.2-0.1,0.3c0.2-0.1,0.2-0.3,0.1-0.4
			c0,0,0.1-0.1,0.1-0.1c0.1-0.1,0.2-0.2,0.3-0.4c0.1-0.1,0.1-0.2,0.2-0.3c0-0.1,0.1-0.1,0.2-0.1c0.2-0.1,0.4-0.2,0.5-0.4
			c0,0,0.1,0,0.1-0.1c0,0,0.1,0,0.1-0.1c0,0,0-0.1,0-0.1c0,0,0.1-0.1,0.2-0.1c0,0.1,0,0.1-0.1,0.1l0.1,0.1c0.1-0.1,0.2-0.2,0.3-0.2
			c0,0-0.1-0.1-0.1-0.1c-0.1,0-0.2,0.1-0.2,0.1c0,0,0-0.1,0-0.1c0.1-0.1,0.3-0.2,0.4-0.3c0.4-0.2,0.7-0.3,1.1-0.5c0.1,0,0.1,0,0.2,0
			c0,0,0.1,0,0.1,0c0.2-0.1,0.3-0.1,0.5-0.1c0.1,0,0.2,0,0.2,0c0.3,0,0.6,0,0.9,0c0.1,0,0.3,0,0.4,0.1c0.2,0.1,0.3,0.1,0.5,0.2
			c0.2,0.1,0.3,0.2,0.5,0.3c0.3,0.2,0.6,0.4,0.9,0.6c0.3,0.2,0.5,0.4,0.7,0.7c0.2,0.3,0.5,0.6,0.6,1l0.2,0.7c0,0.1,0.1,0.2,0.1,0.4
			c-0.1,0.3-0.1,0.5-0.1,0.8c0,0.1,0,0.2,0,0.3c0,0.3-0.1,0.6-0.2,0.9c0,0.1-0.1,0.2-0.2,0.3c0,0,0.1,0,0.1,0l0.1-0.2c0,0,0,0,0,0
			c-0.1,0.1-0.1,0.3-0.1,0.4c-0.1,0.3-0.2,0.6-0.4,0.9c-0.1,0.2-0.2,0.3-0.3,0.5c-0.1,0.1-0.2,0.3-0.3,0.4c-0.1,0.1-0.2,0.2-0.3,0.3
			c-0.3,0.2-0.6,0.4-0.8,0.6C16.9,19.9,16.7,19.9,16.5,20L16.5,20z M11.1,19.5L11.1,19.5C11,19.5,11,19.4,11.1,19.5l-0.3-0.4
			c0,0,0-0.1,0-0.1C10.8,19.1,10.9,19.3,11.1,19.5L11.1,19.5z M17.4,20.8c0.5-0.2,0.8-0.5,1.2-0.8c0.1-0.1,0.1-0.1,0.2-0.1
			c0.4-0.3,0.7-0.6,1-1c0.3-0.5,0.5-1,0.8-1.5c0,0,0-0.1,0.1-0.1c0,1.2,0.1,2.3,0.3,3.4C19.7,20.8,18.5,20.8,17.4,20.8L17.4,20.8z
			 M27.6,20.5C27.6,20.6,27.6,20.6,27.6,20.5C27.6,20.6,27.6,20.5,27.6,20.5c-0.1,0.1-0.3,0.1-0.3,0.1c-0.5,0-1.1,0-1.6,0
			c-0.5,0-1.1,0-1.6,0c-0.2,0-0.4,0-0.5,0.1c-0.4,0-0.8,0-1.2,0c0,0-0.1-0.1-0.1-0.1c0,0,0,0.1-0.1,0.1c0,0,0,0-0.1-0.1
			c0,0,0,0.1,0,0.1h0c0-0.1-0.1-0.3-0.1-0.4c0-0.3,0-0.6,0-0.9c0-0.1,0-0.3,0-0.4c0,0,0.1,0.1,0.1,0.1c0,0,0-0.1,0.1-0.1
			c0,0,0,0,0,0c0,0,0,0,0,0c0,0,0-0.1,0-0.1c0-0.1,0-0.1,0-0.2c0,0,0,0,0,0l0.1,0.3h0c0-0.1,0.1-0.1,0-0.2c0,0,0-0.1,0-0.1
			c0-0.1-0.1-0.1-0.1-0.2c0,0,0,0,0.1,0c0,0-0.1,0-0.1-0.1c0.1-0.1,0.1-0.1,0-0.2c0,0,0,0,0,0c0-0.1,0-0.2,0-0.3
			c0-0.1,0-0.2-0.1-0.3c0,0,0,0.1,0,0.1c0,0,0,0-0.1,0c-0.1-0.1-0.1-0.3-0.1-0.5c0.1,0,0.1,0,0.2,0.1c0-0.1-0.1-0.2-0.1-0.2h0v-0.7
			c0,0,0.1,0,0.1,0c0,0,0,0,0,0c0,0-0.1-0.1-0.1-0.1l0,0c-0.1-0.1,0-0.2,0-0.3v-0.7c0.1,0.1-0.1,0.2,0.1,0.3v-0.1h0
			c0-0.2,0-0.3,0-0.5h0c0,0,0,0,0,0.1h0l0.1-2.4c0.1,0.1,0.2,0.3,0.3,0.4c0.2,0.4,0.5,0.8,0.8,1.2c0.2,0.3,0.5,0.7,0.7,1
			c0.3,0.4,0.5,0.8,0.8,1.2c0.2,0.3,0.4,0.6,0.6,0.9c0.2,0.3,0.4,0.5,0.6,0.8c0.2,0.2,0.4,0.5,0.5,0.7c0.2,0.3,0.4,0.6,0.6,0.8
			c0.1,0.1,0.2,0.3,0.3,0.4c0.1,0.1,0.2,0.1,0.2,0.2c0,0,0,0,0,0c0,0,0.1,0.1,0.1,0.1C27.7,20.4,27.7,20.5,27.6,20.5L27.6,20.5z
			 M28.1,18L28.1,18C28.1,18,28.1,18,28.1,18L28.1,18z M18.8,5.6c-0.3-0.4-0.5-0.7-0.8-1.1c-0.3-0.4-0.6-0.8-0.9-1.2
			c-0.4-0.5-0.7-1-1.1-1.5c-0.2-0.2-0.4-0.4-0.6-0.7c0.1,0,0.3,0,0.4,0.1l0.5,0c0.4,0,0.7,0.1,1.1,0.1c0.3,0,0.6,0.1,0.9,0.2
			c0.7,0.1,1.3,0.3,2,0.5c0.4,0.1,0.7,0.3,1.1,0.4c0.8,0.3,1.6,0.7,2.4,1.2C24,3.8,24.1,4,24.3,4.2c0.3,0.3,0.5,0.5,0.8,0.8
			c0.3,0.3,0.6,0.7,0.8,1c0.3,0.3,0.5,0.6,0.8,0.9c0.1,0.1,0.1,0.2,0.2,0.3c0.2,0.2,0.3,0.5,0.5,0.7c0.1,0.2,0.2,0.4,0.2,0.6
			c0.1,0.3,0.2,0.6,0.3,0.9c0.1,0.2,0.1,0.5,0.2,0.7c0,0.2,0,0.3,0.1,0.5c0.1,0.2,0,0.4,0.1,0.7c0,0,0,0.1,0,0.1c0,0,0.1,0.1,0,0.1
			c0,0,0,0.1,0,0.1c0,0,0,0,0.1-0.1c0,0,0,0,0,0c0,0,0,0.1,0,0.1c0,0,0,0.1,0,0.1c0,0,0,0,0.1-0.1 M28.6,12.9c0,0.3,0.1,0.7-0.1,1
			c0-0.1,0-0.2,0-0.3l0,0c0,0-0.1-0.1-0.1-0.1c0,0,0,0.1,0,0.1c0,0-0.1,0-0.1-0.1c0,0.1,0.1,0.3,0.1,0.4c0,0,0.2,0,0.2-0.1
			c0,0,0,0,0,0c-0.2,0.2-0.2,0.3-0.1,0.5c0,0,0.1,0.1,0,0.2c0,0,0,0.1,0,0.1h0v0l-0.1,0c0,0-0.1-0.1-0.1-0.1v0.5
			c0.1,0,0.1,0.2,0.1,0.2c0,0,0-0.1,0-0.1l0,0c0,0.1,0,0.1,0,0.2c0,0.1,0,0.2-0.1,0.3c0,0,0,0,0,0c-0.1,0.3-0.1,0.5-0.1,0.8
			c0,0.2,0,0.4,0,0.6c0,0.2-0.1,0.4-0.1,0.5c0,0,0,0-0.1,0.1c0-0.1,0-0.2,0-0.3c0,0-0.1-0.1-0.2-0.1c0,0.1,0.1,0.3,0.1,0.5
			c0,0-0.2-0.1-0.2-0.1c0,0.1,0,0.3,0,0.4c0,0.1-0.1,0.2-0.1,0.3c0,0.1,0.1,0.1,0.1,0.2h0.1c0-0.2,0.1-0.4,0.1-0.6h0c0,0,0,0,0,0.1
			c0,0.1-0.1,0.2-0.1,0.3c0,0.1,0.1,0.1,0,0.2c0,0.1,0,0.1,0,0.2c0-0.1,0-0.1,0-0.1c0,0-0.1,0-0.1,0c0,0.1,0.1,0.1,0.1,0.2
			c0,0,0,0,0,0l-0.3-0.5c-0.3-0.4-0.5-0.8-0.8-1.2c-0.1-0.1-0.1-0.2-0.2-0.3c-0.3-0.5-0.7-1.1-1-1.5c-0.3-0.4-0.5-0.8-0.8-1.2
			c-0.3-0.4-0.5-0.7-0.8-1.1c-0.1-0.1-0.2-0.2-0.3-0.4c-0.3-0.4-0.5-0.8-0.8-1.3c-0.2-0.3-0.5-0.7-0.7-1c-0.1-0.1-0.2-0.2-0.2-0.4
			c0,0,0,0,0-0.1c0-0.2,0-0.4-0.1-0.7c0-0.2,0-0.4,0-0.6V8.7c0-0.1,0-0.1,0-0.1c0,0,0,0,0,0c-0.3,0-0.6,0-0.9,0
			c-0.2,0-0.3-0.1-0.4-0.2c-0.4-0.4-0.7-0.9-1-1.4"/>
		<path class="st0" d="M15.5,30c-0.2,0-0.4,0-0.6-0.1l-0.1,0l0.1-0.1c0,0,0.1,0,0.1,0c0,0-0.1,0-0.1,0l0,0l0,0c0,0,0,0-0.1,0
			c0,0,0,0-0.1,0c-0.2,0-0.4,0-0.5,0c-0.1,0-0.2,0-0.3,0c-0.1,0-0.2,0-0.2,0c0,0,0,0,0,0c0,0-0.1,0-0.2,0c0,0,0,0,0,0
			c0,0-0.1,0-0.1,0c-0.1,0-0.1,0-0.2,0l-0.1,0c-0.3-0.1-0.6-0.1-0.9-0.2c-0.1,0-0.2-0.1-0.4-0.1c-0.1,0-0.2-0.1-0.3-0.1
			c-0.3-0.1-0.5-0.1-0.7-0.2C10,29,9.3,28.7,8.8,28.5c-0.3-0.2-0.6-0.3-0.9-0.5c-0.2-0.1-0.4-0.2-0.6-0.3c-0.3-0.2-0.8-0.4-1.2-0.8
			c-0.1-0.1-0.2-0.2-0.3-0.2c-0.1-0.1-0.2-0.2-0.3-0.2c-0.1-0.1-0.2-0.2-0.3-0.4l0,0c0,0,0,0,0,0c0,0,0,0-0.1,0l-0.1,0V26
			c0,0,0,0,0-0.1c-0.1,0-0.2,0-0.3-0.1c-0.1,0-0.2,0-0.3-0.1c0,0-0.1,0-0.1,0c0,0,0-0.1,0-0.1c0,0,0,0,0,0c0,0-0.1,0-0.1-0.1l0,0v0
			c0,0,0-0.1-0.1-0.1c0,0,0,0,0,0C4.1,25.2,4,25.1,3.9,25l-0.1-0.1c0-0.1-0.1-0.1-0.1-0.2l-0.1-0.2l0.2,0.2c0,0.1,0.1,0.1,0.1,0.1
			C4,24.9,4,24.9,4.1,25c0,0,0,0,0,0c0-0.1-0.1-0.1-0.1-0.2c-0.1-0.1-0.2-0.2-0.2-0.3c-0.2-0.1-0.3-0.2-0.4-0.4
			C3.3,24.1,3.3,24,3.2,24L3,23.8l0.2,0.1c-0.1-0.2-0.2-0.3-0.3-0.5l-0.1-0.1l0.1,0c0.1,0,0.1,0,0.1,0h0l0,0c0,0,0,0.1,0,0.2
			c0.2,0,0.3,0.1,0.4,0.3c0,0.1,0.1,0.1,0.2,0.1c0,0,0,0,0-0.1c0,0-0.1-0.1-0.1-0.1C3.2,22.9,3,22.7,3,22.6c0,0,0,0,0,0l0,0
			c0,0,0-0.1,0-0.1l0,0l0,0c0,0,0,0,0.1,0.1c0,0,0-0.1-0.1-0.1L3,22.2l0.2,0.2c0,0,0,0,0,0c0,0,0,0,0.1,0.1c0.1,0.1,0.1,0.2,0.2,0.3
			C3.6,23,3.8,23.3,4,23.5c0,0,0,0,0.1,0.1c0.1,0.1,0.2,0.3,0.4,0.3c0.1,0,0.1,0.1,0.2,0.2c0,0,0.1,0.1,0.1,0.1c0,0,0,0,0.1,0.1
			c0.1,0.1,0.1,0.1,0.2,0.2c0.1,0,0.1,0.1,0.1,0.1c0,0,0.1,0,0.1,0c0,0,0.1,0.1,0.1,0.1c0,0.1,0,0.1,0.1,0.2
			c0.1,0.1,0.3,0.2,0.4,0.3c0.2,0.1,0.4,0.2,0.5,0.4c0,0.1,0.1,0.1,0.2,0.2c0,0,0.1,0.1,0.1,0.1C6.8,25.9,7,26,7.1,26.1
			c0.1,0.1,0.3,0.1,0.4,0.2h0c0,0,0,0,0,0c0,0,0.1,0.1,0.2,0l0,0l0.3,0.2c0,0,0,0,0,0c0,0,0,0,0,0l0,0c0.1,0,0.1,0.1,0.2,0.1
			c0.1,0.1,0.3,0.2,0.4,0.2l0-0.1l0.2,0.1c0,0,0.1,0,0.1,0c0.1,0,0.1,0,0.2,0c0.2,0,0.3,0.1,0.4,0.2c0.1,0,0.2,0.1,0.2,0.1
			c0.1,0,0.1,0.1,0.1,0.1c0,0,0.1,0.1,0.1,0.1c0.1,0,0.1,0.1,0.2,0.1c0.1,0.1,0.2,0.1,0.3,0.1c0,0,0,0,0,0c0.1,0,0.1,0,0.1,0.1
			c0,0,0,0,0,0c0,0,0,0,0,0c0,0,0,0,0,0c0.1,0,0.3,0,0.4,0.1c0,0,0.1,0,0.1,0c0.2,0.1,0.3,0.1,0.6,0.1h0l0,0c0.1,0,0.1,0.1,0.2,0.1
			c0.1,0,0.2,0,0.3,0.1c0.1,0,0.2,0,0.3,0.1c0,0,0.1,0,0.1,0c0.1,0,0.2,0,0.2,0c0.1,0,0.2,0,0.3,0c0,0,0,0,0.1,0c0,0,0,0,0.1,0
			c0,0,0.1,0,0.1,0c0,0,0.1,0,0.1,0c0,0,0,0,0.1,0c0,0,0.1,0,0.1,0c0,0,0.1,0,0.1,0c0.1,0,0.1,0,0.2,0l0,0c0.1,0,0.1,0,0.2,0
			c0.1,0,0.3,0.1,0.4,0.1c0.1,0,0.2,0,0.2,0c0.1,0,0.3,0,0.4,0c0.1,0,0.2,0,0.3,0c0.1,0,0.3,0,0.4-0.1c0.1,0,0.3,0,0.4-0.1
			c0.2,0,0.4-0.1,0.7-0.1c0.2,0,0.4-0.1,0.7-0.1c0.1,0,0.2,0,0.3-0.1c0.1,0,0.1,0,0.2,0c0,0,0.1,0,0.1,0c0,0,0.1,0,0.1,0
			c0.3-0.1,0.5-0.1,0.7-0.2c0.2-0.1,0.3-0.1,0.5-0.2c0.1,0,0.2-0.1,0.3-0.1c0.1,0,0.2-0.1,0.3-0.1c0.2-0.1,0.5-0.2,0.7-0.3
			c0.1,0,0.1-0.1,0.2-0.1c0,0,0.1-0.1,0.1-0.1c0.1-0.1,0.2-0.1,0.3-0.2c0.1-0.1,0.2-0.1,0.3-0.2c0.1,0,0.1-0.1,0.2-0.1
			c0.1-0.1,0.2-0.1,0.3-0.2c0.3-0.2,0.7-0.5,1-0.7c0.2-0.2,0.5-0.4,0.8-0.6c0.1-0.1,0.2-0.2,0.3-0.3c0.1-0.1,0.1-0.1,0.2-0.2
			c0.1-0.1,0.2-0.2,0.3-0.3c0.2-0.1,0.3-0.3,0.4-0.4c0.1-0.1,0.1-0.2,0.2-0.2c0,0,0-0.1,0.1-0.1c0,0,0-0.1,0-0.1c0,0,0,0,0,0
			c0,0,0.1-0.1,0.1-0.1l0,0l0.1-0.1c0,0,0-0.1,0-0.1l0,0l0,0c0,0,0,0,0,0c0,0,0-0.1,0-0.1c0-0.1,0-0.1,0.1-0.2c0,0,0,0,0,0l0,0l0,0
			c0-0.1,0-0.2,0.1-0.2c0,0,0,0,0.1-0.1l0,0l0,0c0,0,0.1,0,0.1-0.1c0,0,0,0,0,0c0,0,0-0.1,0-0.1c0-0.1,0.1-0.1,0.2-0.1c0,0,0,0,0,0
			l0,0l0,0c0-0.1,0.1-0.2,0.2-0.1c0,0,0,0,0,0c0,0,0,0,0,0h-0.1l0-0.1c0-0.1,0-0.1,0-0.1c0,0,0,0,0,0l0,0h0c0,0,0,0,0,0l-0.1,0
			l0.1-0.1c0,0,0,0,0.1,0c0,0-0.1,0-0.1,0c-0.1,0-0.2,0-0.3,0c-0.2,0-0.5,0-0.8,0c-0.1,0-0.3,0-0.4,0c-0.2,0-0.5,0-0.7,0
			c-0.2,0-0.4,0-0.7,0c-0.1,0-0.3,0-0.4,0c-0.2,0-0.6,0-0.6,0l-0.6,0c-0.2,0-0.4,0-0.6,0c-0.2,0-0.4,0-0.6,0c-0.2,0-0.3,0-0.5,0
			c-0.3,0-0.5,0-0.8,0c-0.4,0-0.7,0-1,0.1c-0.1,0-0.2,0-0.3,0c-0.2,0-0.4,0-0.6,0c-0.2,0-0.4,0-0.5,0c-0.2,0-0.3,0-0.5,0
			c-0.1,0-0.2,0-0.2,0c-0.2,0-0.4,0-0.6,0.1c-0.1,0-0.2,0-0.4,0c-0.3,0-0.5,0-0.8,0l0,0c-0.3,0-0.6,0-1,0c-0.2,0-0.4,0-0.7,0
			c-0.2,0-0.4,0-0.7,0l-1.2,0c-0.2,0-0.4,0-0.6,0c-0.2,0-0.4,0-0.6,0c-0.3,0-0.7,0-1,0c-0.3,0-0.7,0-1,0H7.7c-0.1,0-0.1,0-0.2,0
			c0,0-0.1,0-0.1,0c-0.1,0-0.3,0-0.4,0c-0.4,0-0.9,0-1.3,0c-0.5,0-1.1,0-1.6,0c-0.3,0-0.5,0-0.8,0c-0.4,0-0.8-0.1-1.2-0.2
			c0,0-0.1,0-0.1,0c-0.1,0-0.2,0-0.3,0c0,0-0.1,0-0.2,0.1l-0.1,0.1l0.1-0.1c0,0,0,0,0,0c-0.1,0-0.2,0-0.2,0l0,0l0,0v-0.1
			c0-0.2,0.1-0.2,0.2-0.3c0,0,0.1,0,0.1,0c0,0,0.1,0,0.2-0.1c0.1,0,0.1,0,0.1,0c0,0,0,0,0,0c0,0,0.1,0,0.1,0c0.1,0,0.1,0,0.2,0
			c0.2,0,0.4,0,0.5,0c0.1,0,0.3,0,0.4,0c0.1,0,0.3,0,0.4,0c0.2,0,0.3,0,0.4,0c0.2,0,0.4,0,0.7,0c0.1,0,0.2,0,0.4,0
			c0.2,0,0.4,0,0.6,0c0.3,0,0.6,0,0.8,0c0.2,0,0.4,0,0.6,0c0.3,0,0.6,0,0.9,0c0.1,0,0.1,0,0.2,0c0,0,0.1,0,0.1,0
			c0.1-0.4,0.1-0.7,0.1-1.1c0-0.2,0-0.4,0-0.5l0,0h0.2c0,0,0-0.1,0-0.1c0,0,0,0,0,0c0,0,0-0.1,0-0.1c0,0,0-0.1,0-0.1
			c0-0.1,0-0.1-0.1-0.1l0,0l0-0.2c0,0,0-0.1,0-0.2l0,0c0,0,0-0.1,0-0.1c0-0.1,0-0.1,0-0.2l0,0v-0.4c0,0,0-0.1,0-0.1
			c0-0.1,0-0.2,0-0.3c0-0.1,0-0.2,0.1-0.3c0,0,0-0.1,0-0.1c0,0,0-0.1,0-0.1l0,0c0-0.1,0-0.1,0-0.2c0,0.1,0,0.1-0.1,0.2l-0.1,0.2
			l0-0.2c0-0.1,0-0.2,0-0.3c0-0.1,0-0.2,0-0.3c0,0,0,0,0,0c0,0,0-0.1,0-0.1c0,0,0,0,0-0.1c0-0.1,0-0.1,0-0.2c0,0,0-0.1,0-0.1
			c0,0,0-0.1,0-0.1l0,0l0-0.2c0-0.3,0-0.6,0-0.9c0-0.2,0-0.5,0-0.7c0,0,0,0,0,0c0-0.1,0-0.1,0-0.2c0-0.2,0-0.4,0.1-0.6
			c0-0.2,0-0.4,0.1-0.6c0,0,0-0.1,0-0.1c0-0.1,0-0.1,0-0.2c0,0,0-0.1,0-0.1c0,0,0,0,0,0c0-0.1,0-0.2,0-0.2c0-0.1,0-0.2,0-0.2
			c0-0.2,0-0.4,0-0.6c0-0.2,0-0.4,0-0.6l0-0.1c0-0.1,0-0.3,0-0.4c0,0-0.1,0.1-0.1,0.1c-0.1,0.2-0.3,0.3-0.4,0.5
			c-0.1,0.2-0.3,0.4-0.4,0.5c-0.3,0.3-0.5,0.7-0.8,1.1c-0.2,0.3-0.5,0.5-0.7,0.7c-0.1,0.1-0.1,0.1-0.2,0.2c0,0-0.1,0.1-0.1,0.1
			c-0.1,0-0.1,0.1-0.2,0.2c0,0,0,0.1-0.1,0.1c0,0,0,0,0,0l-0.1,0.1l0,0c0,0,0,0-0.1,0l0,0l0,0c0,0,0,0,0,0c0,0,0,0-0.1,0l0,0l0,0
			c0,0,0,0,0.1,0c0.1,0,0.1-0.1,0.1-0.1l0,0c0,0,0-0.1,0-0.1L5.4,13l0.1-0.2c0,0,0-0.1,0-0.1c0,0,0-0.1,0-0.1l0,0c0,0,0,0,0,0
			c0,0,0,0,0,0c0,0,0,0,0,0l0,0l0.1-0.3c0,0,0.1-0.1,0.1-0.1c0,0,0.1-0.1,0.1-0.1l0-0.1L6,12c0,0,0,0.1,0,0.1
			c0.1-0.1,0.2-0.3,0.2-0.4c0,0,0,0,0-0.1c0,0,0-0.1,0.1-0.2l0,0c0,0,0,0,0,0c0,0,0,0,0,0C6.7,10.9,7,10.5,7.3,10
			c0.2-0.3,0.4-0.6,0.6-0.8c0.2-0.3,0.4-0.6,0.6-0.8C8.5,8.2,8.6,8.1,8.7,8C8.9,7.7,9,7.5,9.2,7.3C9.4,7,9.5,6.8,9.7,6.6
			C9.8,6.4,10,6.2,10.1,6c0.2-0.2,0.3-0.4,0.5-0.7c0.2-0.2,0.3-0.4,0.5-0.7c0.1-0.1,0.2-0.2,0.3-0.3c0.2-0.2,0.3-0.4,0.5-0.6
			c0.1-0.2,0.3-0.4,0.4-0.6c0.1-0.1,0.2-0.3,0.3-0.4c0.1-0.2,0.2-0.3,0.4-0.5c0-0.1,0.1-0.1,0.1-0.2c0-0.1,0.1-0.1,0.1-0.2
			c0-0.1,0.1-0.1,0.1-0.2c0.1-0.1,0.1-0.2,0.2-0.2c0.1-0.1,0.1-0.2,0.2-0.2c-0.2,0-0.4,0-0.6,0.1l0,0c-0.3,0-0.5,0.1-0.8,0.1
			c-0.4,0-0.8,0.1-1.2,0.2c-0.1,0-0.3,0.1-0.5,0.1c-0.2,0.1-0.4,0.1-0.6,0.2c-0.5,0.2-1,0.4-1.6,0.7C7.7,2.9,7.1,3.3,6.5,3.7
			C6.2,4,5.9,4.2,5.6,4.5C5.5,4.6,5.4,4.7,5.3,4.8C4.9,5.1,4.6,5.5,4.2,5.9C4,6.2,3.9,6.5,3.7,6.7L3.6,6.8C3.4,7.1,3.2,7.5,3,7.8
			C2.9,7.9,2.9,8.1,2.8,8.2C2.6,8.6,2.3,9,2.1,9.4c-0.2,0.3-0.3,0.7-0.4,1l-0.1,0.2c-0.1,0.3-0.2,0.5-0.3,0.7
			c-0.1,0.4-0.2,0.7-0.3,1.1c0,0.1,0,0.3,0,0.4C1,12.9,1,13,1,13c0,0.2,0,0.3-0.1,0.5c0,0,0,0.1,0,0.1c0,0.1,0,0.1,0,0.2
			c0,0.2-0.1,0.3-0.1,0.4c0,0-0.1,0.1-0.1,0.1c0,0,0,0.1-0.1,0.1c0,0,0,0,0,0c0,0,0,0,0,0c0,0.1-0.1,0.1,0,0.2l0.1,0.1H0.5
			c0,0-0.1,0-0.1,0c0,0.1,0,0.1,0,0.1l0,0.2c0,0,0,0,0,0c0,0,0,0.1,0,0.1c0,0,0,0.1,0,0.1c0,0,0,0.1,0,0.1c0,0,0,0,0,0.1
			c0,0,0,0,0,0.1v-0.2l0,0c0,0,0,0,0.1,0c0,0,0-0.1,0-0.1c0,0,0,0,0-0.1c0,0,0,0,0-0.1l0-0.3l0,0.2l0,0c0,0,0.1-0.1,0.1-0.1
			c0,0,0,0,0.1,0l0,0l0,0c0,0.1,0,0.3,0,0.4c0,0.2,0,0.4,0,0.6c0,0.1,0,0.1,0.1,0.2c0,0.1,0.1,0.2,0.1,0.3c0,0,0,0.1,0,0.1
			c0,0.1,0.1,0.2,0,0.2l0,0c0,0,0,0,0,0c0,0,0,0,0,0c0,0,0.1,0.1,0.1,0.2v0l0,0c0,0,0,0,0,0l0,0c0,0,0.1,0.1,0.1,0.1
			c0,0,0.1,0.1,0.1,0.1l0,0l0,0c0,0,0,0,0,0.1c0,0,0,0,0,0l0,0h0c-0.1,0-0.2,0-0.3-0.1c0,0.2,0,0.3,0,0.5v0.3L1,17.9
			c-0.1-0.1-0.1-0.3-0.1-0.4c0,0,0-0.1,0-0.1l0,0l0,0c0,0,0,0,0-0.1l0,0c0-0.1-0.1-0.2-0.1-0.3l0,0c0,0,0,0,0,0l-0.1,0l0-0.1
			c0-0.1,0-0.1,0-0.2l0,0c0,0,0-0.1,0-0.1c0-0.2,0-0.4-0.1-0.5c0,0,0,0,0-0.1c0,0,0,0,0-0.1l0,0l0,0c0,0,0-0.1,0-0.2
			c0,0-0.1-0.1-0.1-0.1c0,0,0-0.1,0-0.1c0,0,0,0,0-0.1c0,0,0-0.1,0-0.1c0-0.1,0-0.1,0-0.2c0-0.1,0-0.1,0-0.2c0,0,0-0.1,0-0.1
			c0,0,0-0.1,0-0.1c0,0,0,0,0,0c0,0,0,0,0,0c0,0-0.1-0.1,0-0.1c0,0,0,0,0-0.1c0,0,0-0.1,0-0.2c0,0,0,0,0,0c0,0,0-0.1,0-0.1
			C0.1,14.1,0.1,14,0.1,14c0,0,0-0.1,0-0.1l0,0C0,13.5,0,13.1,0,12.7c0-0.4,0-0.9,0.2-1.4c0.1-0.4,0.2-0.9,0.4-1.5
			c0.1-0.2,0.1-0.5,0.2-0.7C0.9,8.9,1,8.7,1.1,8.5c0.1-0.1,0.1-0.2,0.2-0.3C1.4,8,1.5,7.8,1.6,7.6c0.2-0.4,0.5-1,0.9-1.5
			C2.6,6.1,2.6,6,2.7,5.9c0.1-0.2,0.3-0.4,0.4-0.6c0.2-0.2,0.4-0.5,0.6-0.7c0.1-0.1,0.1-0.1,0.2-0.2C3.9,4.4,3.9,4.4,4,4.3
			c0.1-0.1,0.2-0.2,0.3-0.4c0.3-0.3,0.6-0.6,0.9-0.8c0.3-0.3,0.7-0.5,1-0.7l0.2-0.1C6.7,2.1,7,1.8,7.3,1.7C7.7,1.5,8,1.3,8.5,1.1
			C9,1,9.4,0.8,9.8,0.7c0.2-0.1,0.4-0.1,0.5-0.1c0.1,0,0.1,0,0.2,0c0.1,0,0.1,0,0.2,0c0.1,0,0.1,0,0.2,0c0.1,0,0.2,0,0.3,0
			c0.2,0,0.4-0.1,0.7-0.1c0.2,0,0.3,0,0.5-0.1c0.2,0,0.3,0,0.5-0.1c0.1,0,0.2,0,0.2,0c0.2,0,0.4-0.1,0.6-0.1C14,0,14.3,0,14.5,0
			c0.1,0,0.3,0,0.5,0c0,0,0.1,0,0.1,0c0.1,0,0.3,0,0.4,0c0.3,0,0.5,0,0.8,0c0.3,0,0.5,0,0.7,0.1l0,0c0.1,0,0.3,0,0.4,0
			c0.3,0,0.5,0,0.8,0.1c0.3,0,0.7,0.1,1.1,0.2c0.2,0.1,0.5,0.1,0.7,0.2c0.1,0,0.2,0.1,0.4,0.1c0.1,0,0.3,0.1,0.4,0.2
			C21,1,21.1,1,21.1,1l0.1,0c0.1,0,0.1,0,0.2,0.1c0.3,0.1,0.6,0.2,0.8,0.3c0.1,0,0.1,0.1,0.2,0.1c0.1,0,0.2,0.1,0.2,0.1
			c0.2,0.1,0.4,0.2,0.6,0.3c0.4,0.2,0.7,0.4,1,0.6c0.4,0.3,0.8,0.6,1.3,0.9c0.2,0.2,0.5,0.4,0.7,0.7c0.2,0.2,0.3,0.5,0.5,0.7
			c0.2,0.2,0.3,0.4,0.5,0.6c0.1,0.2,0.2,0.4,0.4,0.5c0.4,0.5,0.7,1,1,1.6C28.9,8,29,8.4,29.2,8.9l0,0.1c0.2,0.4,0.3,0.8,0.4,1.3
			c0.1,0.5,0.2,1.1,0.3,1.6l0,0c0,0.3,0,0.6,0.1,0.9c0,0.1,0,0.2,0,0.3l0,0c0,0.4,0,0.7,0.1,1.1l0,0.1c0,0.4,0,0.8,0,1.2
			c0,0.2,0,0.4-0.1,0.6c0,0.1,0,0.2,0,0.2c0,0.1,0,0.2,0,0.3c0,0.3-0.1,0.6-0.1,0.9c0,0.1,0,0.2,0,0.3c-0.1,0.3-0.1,0.7-0.3,1
			c-0.1,0.2-0.1,0.4-0.2,0.6c-0.1,0.2-0.1,0.4-0.2,0.6c0,0,0,0,0,0.1l0,0c0,0.1,0.1,0.2,0.2,0.3c0,0,0,0,0,0.1c0,0,0,0,0,0.1
			c0,0.1,0.1,0.1,0.1,0.2c0,0,0,0.1,0.1,0.1c0,0,0.1,0.1,0.1,0.1c0,0,0,0.1,0,0.1c0,0,0,0.1,0,0.1l0,0l-0.1,0
			c-0.1,0-0.1,0.1-0.2,0.1c-0.1,0-0.3,0-0.4,0c-0.1,0-0.3,0-0.4,0c0,0,0,0-0.1,0c-0.1,0.2-0.2,0.3-0.3,0.5c-0.1,0.2-0.2,0.3-0.3,0.5
			L28,22.6c-0.2,0.4-0.5,0.8-0.7,1.2c-0.2,0.3-0.5,0.6-0.7,0.9c-0.3,0.3-0.5,0.6-0.8,0.9c-0.1,0.1-0.3,0.2-0.4,0.4
			c-0.1,0.1-0.2,0.1-0.3,0.2c0,0-0.1,0.1-0.1,0.1c0,0,0,0,0,0c0,0.1-0.1,0.1-0.1,0.1c-0.1,0.1-0.2,0.2-0.3,0.2
			c-0.2,0.1-0.4,0.3-0.5,0.5l0,0l0,0c0,0,0,0-0.1,0l0.1,0l-0.1,0.1c-0.1,0.1-0.2,0.1-0.4,0.2c0,0-0.1,0-0.1,0
			c-0.1,0.1-0.2,0.1-0.3,0.2c-0.1,0.1-0.2,0.1-0.3,0.2c0,0-0.1,0-0.1,0.1c0,0,0,0,0,0c0,0.1-0.2,0.2-0.3,0.2c0,0,0,0,0,0
			c0,0-0.1,0.1-0.1,0.1l0,0h0c0,0,0,0,0,0c0,0,0,0-0.1,0c-0.1,0-0.1,0.1-0.2,0.1c-0.1,0.1-0.2,0.1-0.3,0.2c-0.1,0-0.2,0.1-0.3,0.1
			l0,0c-0.1,0-0.2,0.1-0.3,0.1c0,0,0,0,0,0.1c0,0,0,0.1-0.1,0.1c0,0-0.1,0-0.1,0c0,0,0,0-0.1,0c0,0,0,0-0.1,0l-0.1,0
			c-0.1,0.1-0.2,0.1-0.4,0.2L20,29c0,0.1-0.1,0.1-0.2,0.1c0,0-0.1,0-0.1,0c0,0,0,0,0,0.1l0,0.1l-0.1,0c-0.2,0-0.3,0.1-0.5,0.1
			c-0.2,0-0.4,0.1-0.5,0.1l-0.2,0l0,0c0,0,0,0,0,0c0,0-0.1,0-0.1,0c-0.1,0-0.2,0-0.4,0c0,0,0,0,0,0c0,0-0.1,0.1-0.2,0
			c-0.1,0-0.1,0-0.2,0c0,0,0,0-0.1,0l0,0c0,0-0.1,0-0.1,0c0,0,0,0.1-0.1,0.1c0,0-0.1,0-0.1-0.1c-0.4,0.1-0.9,0.2-1.4,0.2
			C15.8,30,15.7,30,15.5,30z M15.1,29.9c0.3,0,0.6,0,0.9,0l0,0l0,0c0.3,0,0.7,0,1-0.1c-0.1,0-0.1,0-0.2,0l-0.1,0v-0.1c0,0,0,0-0.1,0
			c0,0,0,0,0,0c0,0,0,0-0.1,0c0,0-0.1,0-0.1,0c-0.1,0-0.2,0-0.3,0c-0.1,0-0.2,0-0.3,0c0,0,0,0,0,0h-0.1l0,0l0,0
			c-0.2,0-0.4,0.1-0.6,0.1L15.1,29.9l0.1-0.2l0.7-0.1v0l2-0.3l0,0l0.1,0c0.1,0,0.2,0,0.3,0c0.1,0,0.2,0,0.4,0l0,0c0,0,0.1,0,0.1-0.1
			l0.2-0.1l-0.1,0.1h0v0.1c0,0,0,0,0,0c0,0,0,0,0,0c0.1,0,0.3-0.1,0.4-0.1c0.1,0,0.3-0.1,0.4-0.1c0,0,0-0.1,0-0.1c0,0,0,0,0,0
			l-0.4,0.1l0.3-0.2c0.3-0.1,0.6-0.3,0.9-0.4l0.4-0.2l0,0.1c0.2,0,0.2,0,0.3-0.1l0,0c0.1,0,0.2-0.1,0.3-0.1c0.1,0,0.2-0.1,0.3-0.1
			c0.1,0,0.1-0.1,0.2-0.1c0,0,0.1,0,0.1,0c0,0,0,0,0,0c0,0,0.1-0.1,0.1-0.1c0,0,0.1-0.1,0.1,0c0.1,0,0.2,0,0.2-0.1l0,0l0,0
			c0,0,0,0,0.1,0c0,0,0.1-0.1,0.1-0.1c0.1-0.1,0.2-0.1,0.3-0.2c0.1-0.1,0.2-0.1,0.3-0.2l0,0h0c0.1,0,0.1,0,0.1,0
			c0.1,0,0.2-0.1,0.3-0.2c0,0,0,0,0,0l-0.1-0.1l0.1,0c0.1,0,0.1,0,0.2,0c0.2-0.2,0.3-0.3,0.5-0.5c0.1-0.1,0.2-0.2,0.3-0.2l0,0l0,0
			c0,0,0.1,0,0.1,0l0,0l0,0c0,0,0,0,0,0c0,0,0.1-0.1,0.1-0.1c0.1-0.1,0.2-0.2,0.3-0.2c0.1-0.1,0.3-0.2,0.4-0.4
			c0.3-0.3,0.6-0.6,0.8-0.9c0.2-0.3,0.5-0.6,0.7-0.9c0.3-0.4,0.5-0.8,0.7-1.2l0.1-0.1c0.1-0.2,0.2-0.3,0.3-0.5
			c0.1-0.2,0.2-0.3,0.3-0.5c0,0,0.1-0.1,0.1-0.1c0.1,0,0.3,0,0.4,0c0.1,0,0.3,0,0.4,0c0,0,0.1,0,0.1-0.1c0,0,0,0,0,0
			c0,0,0-0.1,0-0.1c0,0,0-0.1-0.1-0.1c0,0-0.1-0.1-0.1-0.1c0-0.1-0.1-0.1-0.1-0.2c0,0,0,0,0-0.1c0,0,0,0,0-0.1
			c-0.1-0.1-0.1-0.2-0.2-0.4l0,0c0,0,0-0.1,0-0.1c0.1-0.2,0.2-0.4,0.2-0.6c0.1-0.2,0.1-0.4,0.2-0.6c0.1-0.3,0.2-0.7,0.3-1
			c0-0.1,0-0.2,0-0.3c0.1-0.3,0.1-0.6,0.1-0.9c0-0.1,0-0.2,0-0.3c0-0.1,0-0.2,0-0.2c0-0.2,0-0.4,0.1-0.6c0.1-0.4,0-0.8,0-1.2l0-0.1
			c0-0.4,0-0.7-0.1-1.1l0,0c0-0.1,0-0.2,0-0.3c0-0.3,0-0.6-0.1-0.9l0,0c-0.1-0.5-0.1-1.1-0.3-1.6c-0.1-0.4-0.2-0.9-0.4-1.3l0-0.1
			c-0.2-0.5-0.4-0.9-0.6-1.4c-0.3-0.6-0.7-1.1-1-1.6c-0.1-0.2-0.3-0.4-0.4-0.5c-0.1-0.2-0.3-0.4-0.5-0.6c-0.2-0.2-0.4-0.4-0.5-0.7
			c-0.2-0.3-0.4-0.5-0.7-0.7c-0.4-0.3-0.9-0.6-1.3-0.9c-0.3-0.2-0.6-0.4-1-0.6c-0.2-0.1-0.4-0.2-0.6-0.3c-0.1,0-0.2-0.1-0.2-0.1
			c-0.1,0-0.1-0.1-0.2-0.1c-0.2-0.1-0.5-0.2-0.8-0.3c-0.1,0-0.1,0-0.2-0.1l-0.1,0c-0.1,0-0.2-0.1-0.3-0.1c-0.1-0.1-0.3-0.1-0.4-0.2
			c-0.1,0-0.2-0.1-0.4-0.1c-0.2-0.1-0.5-0.2-0.7-0.2c-0.4-0.1-0.8-0.2-1.1-0.2c-0.3,0-0.5-0.1-0.8-0.1c-0.1,0-0.3,0-0.4,0l0,0
			c-0.2,0-0.5-0.1-0.7-0.1c-0.3,0-0.5,0-0.8,0c-0.1,0-0.3,0-0.4,0c0,0-0.1,0-0.1,0c-0.1,0-0.3,0-0.4,0c-0.3,0-0.5,0-0.9,0.1
			c-0.2,0-0.4,0.1-0.6,0.1c-0.1,0-0.2,0-0.2,0c-0.2,0-0.3,0-0.5,0.1c-0.2,0-0.3,0-0.5,0.1c-0.2,0-0.4,0.1-0.7,0.1
			c-0.1,0-0.2,0-0.3,0c-0.1,0-0.1,0-0.2,0c-0.1,0-0.1,0-0.2,0c-0.1,0-0.1,0-0.2,0c-0.2,0-0.4,0.1-0.5,0.1C9.4,0.9,9,1.1,8.5,1.2
			C8.1,1.4,7.7,1.6,7.4,1.8C7.1,1.9,6.8,2.1,6.5,2.3L6.3,2.5C6,2.7,5.6,2.9,5.3,3.2C4.9,3.5,4.6,3.7,4.4,4C4.3,4.1,4.2,4.2,4.1,4.4
			C4,4.4,4,4.5,3.9,4.5C3.9,4.6,3.8,4.7,3.7,4.8C3.5,5,3.4,5.2,3.2,5.4C3,5.6,2.9,5.8,2.7,6C2.7,6.1,2.6,6.1,2.6,6.2
			c-0.4,0.5-0.7,1-0.9,1.5C1.6,7.9,1.5,8.1,1.4,8.3C1.3,8.4,1.3,8.5,1.2,8.6C1.1,8.8,1,9,0.9,9.2C0.8,9.4,0.7,9.6,0.7,9.8
			c-0.2,0.6-0.3,1.1-0.4,1.5c-0.1,0.5-0.2,0.9-0.2,1.4c0,0.4,0,0.8,0.1,1.2l0,0c0,0,0,0.1,0,0.1c0,0.1,0,0.1,0.1,0.2l0,0l0,0
			c0,0,0,0.1,0,0.1c0,0,0,0,0,0l0.1,0l0,0.1c0,0,0,0.1,0,0.1c0,0,0,0.1,0,0.1c0,0,0,0,0,0c0,0,0,0,0,0c0,0,0,0,0,0l0-0.1l0.1,0
			c0,0,0,0,0.1,0c0,0,0,0,0,0c0-0.1,0-0.2,0-0.2c0,0,0,0,0,0c0,0,0-0.1,0.1-0.1c0,0,0,0,0,0c0,0,0.1-0.1,0.1-0.1
			C0.8,14,0.8,14,0.8,13.8c0-0.1,0-0.1,0-0.2c0,0,0-0.1,0-0.1c0-0.2,0-0.3,0.1-0.5c0-0.1,0-0.2,0-0.2c0-0.1,0-0.3,0-0.4
			C1,12,1.1,11.7,1.3,11.3c0.1-0.2,0.2-0.5,0.3-0.8l0.1-0.2C1.7,10,1.9,9.7,2,9.4C2.2,9,2.5,8.5,2.7,8.1C2.8,8,2.8,7.9,2.9,7.8
			c0.2-0.3,0.4-0.7,0.6-1l0.1-0.1C3.8,6.4,4,6.1,4.2,5.9C4.5,5.4,4.9,5,5.2,4.7c0.1-0.1,0.2-0.2,0.3-0.3c0.3-0.3,0.6-0.6,0.9-0.8
			C7,3.2,7.6,2.8,8.3,2.5C8.8,2.2,9.4,2,9.9,1.8c0.2-0.1,0.4-0.1,0.6-0.2c0.1,0,0.3-0.1,0.4-0.1c0.4-0.1,0.8-0.2,1.2-0.2
			c0.3,0,0.5,0,0.8-0.1l0,0c0.2,0,0.5,0,0.7-0.1l0.1,0l-0.1,0.1c0,0,0,0.1,0,0.1c-0.1,0.1-0.1,0.2-0.2,0.2c-0.1,0.1-0.1,0.2-0.2,0.2
			c0,0.1-0.1,0.1-0.1,0.2c0,0.1-0.1,0.1-0.1,0.2c0,0.1-0.1,0.1-0.1,0.2c-0.1,0.2-0.2,0.3-0.4,0.5c-0.1,0.1-0.2,0.3-0.3,0.4
			c-0.1,0.2-0.3,0.4-0.4,0.6c-0.2,0.2-0.3,0.4-0.5,0.6c-0.1,0.1-0.2,0.2-0.3,0.3C11,5,10.8,5.2,10.7,5.4c-0.2,0.2-0.3,0.4-0.5,0.7
			c-0.1,0.2-0.3,0.4-0.4,0.5C9.6,6.9,9.4,7.1,9.3,7.3C9.1,7.5,9,7.8,8.8,8C8.7,8.2,8.6,8.3,8.5,8.4C8.3,8.7,8.2,9,8,9.3
			c-0.2,0.3-0.4,0.5-0.6,0.8c-0.3,0.4-0.6,0.8-0.9,1.3c0,0,0,0-0.1,0.1c0,0,0,0,0,0c0,0.1-0.1,0.1-0.1,0.2c0,0,0,0.1,0,0.1
			c-0.1,0.2-0.2,0.3-0.3,0.4C6,12.2,6,12.2,6,12.3c0,0,0,0.1-0.1,0.1l-0.1,0.1l0-0.1c0,0,0,0,0,0l-0.1,0.2c0,0,0,0,0,0l0,0v0
			c0,0,0,0,0,0c0,0,0,0,0,0v0.1c0,0.1-0.1,0.2-0.1,0.3l0,0c0,0.1-0.1,0.1-0.2,0.2c0,0,0,0,0,0c0,0,0,0,0.1,0c0,0,0,0,0,0
			c0,0,0,0,0,0c0,0,0,0,0-0.1c0.1-0.1,0.1-0.2,0.2-0.3c0,0,0.1,0,0.1-0.1c0.1-0.1,0.1-0.1,0.2-0.2c0.2-0.2,0.5-0.5,0.7-0.7
			c0.3-0.3,0.6-0.7,0.8-1c0.1-0.2,0.3-0.4,0.4-0.5C8.2,10,8.3,9.9,8.5,9.7c0.1-0.1,0.1-0.1,0.2-0.2l0.1-0.1l0,0.1c0,0.2,0,0.4,0,0.6
			l0,0.1c0,0.2,0,0.4,0,0.6c0,0.2,0,0.4,0,0.6c0,0.1,0,0.1,0,0.2c0,0.1,0,0.2,0,0.2c0,0,0,0.1,0,0.1c0,0,0,0,0,0c0,0,0,0.1,0,0.1
			c0,0.1,0,0.1,0,0.2c0,0.2,0,0.4-0.1,0.6c0,0.2,0,0.4-0.1,0.6c0,0.1,0,0.1,0,0.2c0,0,0,0,0,0.1l0,0l0,0c0,0,0,0.1,0,0.1
			c0,0,0-0.1,0-0.1c0,0,0-0.1,0-0.1c0-0.1,0-0.1,0-0.2l0.1-0.2v0.4c0,0.1,0,0.3,0,0.4c0,0.4,0,0.9-0.1,1.3c0,0,0,0,0,0
			c0,0,0,0.1,0,0.1c0,0,0,0-0.1,0c0,0.1,0,0.1,0,0.2c0,0.1,0,0.1,0,0.2c0,0,0,0,0,0.1c0,0,0,0.1,0,0.1l0,0l0,0c0,0,0,0,0,0.1
			c0,0,0,0,0,0l0,0l0,0c0,0.1,0,0.2,0,0.3c0,0,0,0,0,0c0-0.1,0-0.3,0-0.4c0-0.2,0-0.3,0-0.5l0.1-0.4l0,0.4c0,0.2,0,0.3,0,0.5
			c0,0.3,0,0.5,0,0.8l0,0c0,0.1,0,0.1,0,0.2c0,0,0,0.1,0,0.1c0,0.1,0,0.2-0.1,0.3c0,0.1,0,0.2,0,0.3c0,0,0,0.1,0,0.1v0.4
			c0,0.1,0,0.2,0,0.2c0,0,0,0.1,0,0.1l0,0l0,0c0,0.1,0,0.1,0,0.1l0,0.1c0.1,0,0.1,0.1,0.2,0.2c0,0,0,0.1,0,0.1l0,0l0,0
			c0,0,0,0.1,0,0.1c0,0,0,0,0,0c0,0.1,0,0.2,0,0.2l0,0c0,0.1,0,0.2,0,0.3c0,0.1,0,0.2,0,0.3c0,0,0,0,0,0c0,0,0,0,0,0.1
			c0,0,0,0.2,0,0.3c0,0,0,0.1,0,0.1l0,0h0c-0.1,0-0.1,0-0.1-1.3H8.5c0,0.2,0,0.3,0,0.5c0,0.4,0,0.8-0.1,1.2l0,0l0,0c0,0-0.1,0-0.1,0
			c-0.1,0-0.1,0-0.2,0c-0.3,0-0.6,0-0.9,0c-0.2,0-0.4,0-0.6,0c-0.3,0-0.6,0-0.8,0c-0.2,0-0.4,0-0.7,0c-0.1,0-0.2,0-0.4,0
			c-0.2,0-0.4,0-0.7,0c-0.1,0-0.3,0-0.4,0c-0.1,0-0.3,0-0.4,0c-0.1,0-0.3,0-0.4,0c-0.2,0-0.4,0-0.5,0c-0.1,0-0.1,0-0.2,0
			c0,0-0.1,0-0.1,0l0,0c0,0,0,0,0,0c0,0-0.1,0-0.1,0c0,0-0.1,0-0.1,0c0,0-0.1,0-0.2,0.1c-0.1,0-0.1,0-0.1,0.2l0,0.1c0,0,0.1,0,0.2,0
			c0,0,0,0,0,0h0.5l-0.3,0.1c0.1,0,0.1,0,0.2,0c0.1,0,0.1,0,0.2,0c0.4,0.1,0.8,0.1,1.2,0.2c0.3,0,0.5,0,0.8,0c0.5,0,1.1,0.1,1.6,0
			c0.4,0,0.9,0,1.3,0c0.1,0,0.3,0,0.4,0c0,0,0.1,0,0.1,0c0.1,0,0.1,0,0.2,0h0.7c0.3,0,0.7,0,1,0c0.3,0,0.7,0,1,0c0.2,0,0.4,0,0.6,0
			c0.2,0,0.4,0,0.6,0l1.2,0c0.2,0,0.4,0,0.7,0c0.2,0,0.4,0,0.7,0c0.3,0,0.6,0,1,0l0,0c0.3,0,0.5,0,0.8,0c0.1,0,0.2,0,0.4,0
			c0.2,0,0.4,0,0.6-0.1c0.1,0,0.2,0,0.2,0c0.2,0,0.3,0,0.5,0c0.2,0,0.4,0,0.5,0c0.2,0,0.4,0,0.6,0c0.1,0,0.2,0,0.3,0
			c0.3,0,0.7,0,1-0.1c0.3,0,0.5,0,0.8,0c0.2,0,0.3,0,0.5,0c0.2,0,0.4,0,0.6,0c0.2,0,0.4,0,0.6,0l0.6,0c0,0,0.4,0,0.6,0
			c0.1,0,0.3,0,0.4,0c0.2,0,0.4,0,0.7,0c0.2,0,0.5,0,0.7,0c0.1,0,0.2,0,0.4,0c0.3,0,0.5,0,0.8,0c0.1,0,0.2,0,0.3,0
			c0.1,0,0.1,0,0.2,0l0.1,0l-0.1,0.1c-0.1,0-0.1,0.1-0.1,0.1c0,0,0,0,0,0l0.1,0l-0.1,0c-0.1,0-0.1,0.1-0.2,0.1c0,0,0,0,0,0
			c0,0,0,0,0,0.1H27v0.1c0,0-0.1,0-0.1,0.1c0,0,0,0-0.1,0.1l0,0l0,0c0,0-0.1,0-0.1,0c0.1,0,0,0.1,0,0.1l0,0l0,0
			c-0.1,0-0.1,0-0.1,0.1c0,0,0,0,0,0.1l0,0l0,0c0,0,0,0,0,0c0,0-0.1,0-0.1,0c0,0,0,0-0.1,0.1c0,0,0,0,0,0.1c0,0,0,0,0,0c0,0,0,0,0,0
			l0.1,0l-0.1,0.1c0,0,0,0-0.1,0c0,0-0.1,0-0.1,0c-0.1,0-0.1,0.1-0.1,0.1c0,0,0,0,0,0c0,0,0,0,0,0l0,0l0,0c0,0,0,0-0.1,0
			c0,0,0,0,0,0h0.1L26,23.2c0,0.1-0.1,0.1-0.1,0.2c0,0,0,0,0,0c0,0,0,0,0,0.1c0,0,0,0.1-0.1,0.1c-0.1,0.1-0.1,0.2-0.2,0.2
			c-0.1,0.2-0.3,0.3-0.5,0.5c-0.1,0.1-0.2,0.2-0.3,0.2c-0.1,0.1-0.1,0.1-0.2,0.2c-0.1,0.1-0.2,0.2-0.3,0.3c-0.3,0.2-0.6,0.4-0.8,0.6
			c-0.3,0.2-0.7,0.5-1,0.7c-0.1,0.1-0.2,0.1-0.4,0.2c-0.1,0-0.1,0.1-0.2,0.1c-0.1,0.1-0.2,0.1-0.3,0.2c-0.1,0.1-0.2,0.1-0.3,0.2
			c0,0-0.1,0.1-0.1,0.1c-0.1,0.1-0.2,0.1-0.2,0.2c-0.2,0.1-0.5,0.2-0.7,0.3c-0.1,0-0.2,0.1-0.3,0.1c-0.1,0.1-0.2,0.1-0.3,0.1
			c-0.2,0.1-0.3,0.1-0.5,0.2c-0.2,0.1-0.4,0.1-0.7,0.2c-0.1,0-0.1,0-0.2,0c0,0-0.1,0-0.1,0c-0.1,0-0.1,0-0.2,0c-0.1,0-0.2,0-0.3,0.1
			c-0.2,0-0.4,0.1-0.7,0.1c-0.2,0-0.4,0.1-0.7,0.1c-0.1,0-0.3,0-0.4,0.1c-0.1,0-0.3,0-0.4,0.1c-0.1,0-0.2,0-0.3,0
			c-0.1,0-0.2,0-0.4,0c-0.1,0-0.2,0-0.3,0c-0.1,0-0.3-0.1-0.4-0.1c-0.1,0-0.1,0-0.2,0l0,0c0,0-0.1,0-0.1,0c-0.1,0-0.1,0-0.2,0
			c0,0-0.1,0-0.1,0c0,0-0.1,0-0.1,0c0,0,0,0-0.1,0l0,0c0,0,0,0,0,0c0,0-0.1,0-0.1,0c0,0,0,0-0.1,0c-0.1,0-0.2,0-0.3,0
			c-0.1,0-0.2,0-0.3,0c0,0-0.1,0-0.1,0c-0.1,0-0.2,0-0.3-0.1c-0.1,0-0.2,0-0.3-0.1c-0.1,0-0.1-0.1-0.2-0.1c-0.3,0-0.4,0-0.6-0.1
			c0,0-0.1,0-0.1,0c-0.1,0-0.2-0.1-0.3-0.1c0,0-0.1,0-0.1,0c0,0,0,0,0,0h0l0,0c0,0,0,0,0-0.1c0,0,0,0,0,0c-0.1,0-0.2-0.1-0.3-0.1
			c-0.1,0-0.1-0.1-0.2-0.1c-0.1,0-0.1-0.1-0.1-0.1c0,0-0.1-0.1-0.1-0.1c-0.1,0-0.2-0.1-0.3-0.1c-0.1-0.1-0.2-0.2-0.4-0.2
			c0,0-0.1,0-0.1,0l0.2,0.2l-0.3-0.1c-0.2-0.1-0.4-0.2-0.6-0.3c-0.1,0-0.1-0.1-0.2-0.1c0,0-0.1,0-0.1-0.1c0,0,0,0,0,0l-0.3-0.2
			c-0.1,0-0.2,0-0.2,0c0,0,0,0,0,0c-0.1-0.1-0.3-0.2-0.4-0.2c-0.2-0.1-0.3-0.2-0.5-0.3c0,0-0.1-0.1-0.1-0.1
			c-0.1-0.1-0.2-0.1-0.2-0.2c-0.1-0.1-0.3-0.3-0.5-0.4c-0.2-0.1-0.3-0.2-0.4-0.3c-0.1,0-0.2-0.1-0.2-0.3c0,0,0-0.1,0-0.1
			c0,0,0,0,0,0l0,0l0-0.1c0,0-0.1-0.1-0.1-0.1c-0.1,0-0.2-0.1-0.3-0.2c0,0,0,0-0.1,0c0,0-0.1-0.1-0.1-0.1C4.5,24.1,4.5,24,4.4,24
			c-0.2-0.1-0.3-0.2-0.4-0.3c0,0,0,0-0.1-0.1c-0.2-0.3-0.4-0.5-0.6-0.8c0,0,0,0,0,0l0,0.1l-0.1,0c0,0,0,0,0,0
			c0.1,0.2,0.4,0.6,0.6,0.9c0,0,0.1,0.1,0.1,0.1c0,0,0.1,0.1,0.1,0.1L4,24l-0.1,0c-0.1,0-0.3-0.1-0.4-0.2c-0.1-0.1-0.2-0.2-0.3-0.2
			c0.1,0.1,0.1,0.2,0.2,0.3l0.1,0.2l0,0c0.1,0.1,0.2,0.2,0.3,0.3l0,0l0,0c0,0.1,0.1,0.2,0.2,0.3c0.1,0.1,0.2,0.2,0.2,0.3l0,0.1
			l-0.1,0c0,0,0,0-0.1,0c0,0,0,0,0,0c0.1,0.1,0.1,0.1,0.2,0.2c0,0,0,0,0,0c0,0,0.1,0.1,0.1,0.1c0,0,0,0,0,0c0,0,0,0,0,0
			c0,0-0.1-0.1-0.1-0.1l0,0l0.1-0.1l0,0c0.1,0.1,0.2,0.2,0.3,0.4c0,0,0,0,0,0c0,0,0,0,0,0l0,0l0,0c0,0,0,0.1,0.1,0.1c0,0,0,0,0,0.1
			l0,0c0.1,0.1,0.1,0.1,0.2,0l0,0l0,0l0.1-0.1v0.1l0,0c0,0,0,0,0,0c0,0,0,0,0.1,0l0,0c0.1,0.1,0.2,0.3,0.3,0.4
			c0.1,0.1,0.2,0.2,0.3,0.2c0.1,0.1,0.2,0.2,0.3,0.2c0.4,0.3,0.8,0.6,1.1,0.8c0.2,0.1,0.4,0.2,0.6,0.3c0.3,0.2,0.6,0.3,0.9,0.5
			c0.5,0.3,1.2,0.5,1.9,0.7c0.2,0,0.5,0.1,0.7,0.2c0.1,0,0.2,0.1,0.3,0.1c0.1,0,0.2,0.1,0.4,0.1c0.3,0.1,0.6,0.1,0.9,0.2l0.1,0
			c0.1,0,0.1,0,0.2,0c0,0,0.1,0,0.1,0c0.1,0,0.1,0,0.1,0c0,0,0,0,0.1,0c0,0,0,0,0,0c0.1,0,0.2,0,0.2,0c0.1,0,0.2,0,0.3,0
			c0.2,0,0.3,0,0.5,0c0,0,0,0,0,0c0,0,0.1,0,0.2,0c0.1,0,0.1,0,0.1,0c0,0,0,0,0,0l0.1,0l0,0.1C15.1,29.8,15.1,29.8,15.1,29.9z
			 M17.5,29.7C17.5,29.7,17.5,29.7,17.5,29.7C17.5,29.7,17.5,29.7,17.5,29.7L17.5,29.7z M16.9,29.6C16.9,29.6,17,29.6,16.9,29.6
			l0.1,0v0c0,0,0.1,0,0.1,0c0,0,0,0,0,0c0,0,0,0,0-0.1l0,0L16.9,29.6z M17.5,29.6C17.5,29.6,17.5,29.6,17.5,29.6L17.5,29.6
			c0.1,0,0.1,0,0.2,0l0,0c0,0,0,0,0.1,0c0.1,0,0.2,0,0.3,0c0,0,0,0,0.1,0c0,0,0.1,0,0.1,0c0.1,0,0.2,0,0.3,0c0,0,0,0,0,0
			c0,0,0,0-0.1,0h-0.2l0.1,0c-0.1,0-0.2,0-0.3,0l0,0h-0.1c0,0-0.1,0-0.1,0c0,0,0,0-0.1,0C17.7,29.6,17.6,29.6,17.5,29.6z M17.3,29.6
			C17.3,29.6,17.3,29.6,17.3,29.6C17.3,29.6,17.3,29.6,17.3,29.6L17.3,29.6z M18.6,29.4C18.6,29.5,18.6,29.5,18.6,29.4L18.6,29.4
			c0.1,0,0.1,0,0.1,0L18.6,29.4L18.6,29.4C18.7,29.4,18.6,29.4,18.6,29.4z M20.6,28.7C20.7,28.7,20.7,28.7,20.6,28.7
			C20.7,28.7,20.7,28.7,20.6,28.7C20.7,28.7,20.7,28.7,20.6,28.7z M22.2,28.1C22.2,28.1,22.2,28.1,22.2,28.1
			C22.2,28.1,22.2,28.1,22.2,28.1z M4.7,25.6L4.7,25.6C4.7,25.6,4.7,25.6,4.7,25.6C4.7,25.6,4.7,25.6,4.7,25.6
			C4.7,25.6,4.7,25.6,4.7,25.6z M4.6,25.6C4.6,25.6,4.6,25.6,4.6,25.6C4.6,25.6,4.6,25.6,4.6,25.6C4.6,25.6,4.6,25.6,4.6,25.6
			C4.6,25.6,4.6,25.6,4.6,25.6z M3.1,23.4C3.1,23.4,3.1,23.4,3.1,23.4C3.1,23.4,3.1,23.4,3.1,23.4C3.1,23.4,3.1,23.4,3.1,23.4z
			 M0.9,17.2l0.1,0c0.1,0,0.2,0.1,0.2,0.1c0,0,0,0,0,0c0,0,0-0.1-0.1-0.1v0.1l-0.1,0C1.1,17.2,1.1,17.2,0.9,17.2L0.9,17.2L0.9,17.2
			C1,17.1,1.1,17,1.1,17l0-0.1l0,0c0,0,0,0,0,0c0,0-0.1,0-0.1,0l-0.2,0C0.9,17,0.9,17.1,0.9,17.2C0.9,17.2,0.9,17.2,0.9,17.2z
			 M1.1,17.1C1.1,17.1,1.1,17.1,1.1,17.1C1.1,17.1,1.1,17.1,1.1,17.1C1.1,17.1,1.1,17.1,1.1,17.1z M0.8,16.8L0.8,16.8
			C0.8,16.8,0.8,16.8,0.8,16.8l0.2,0c0,0,0,0,0.1,0c0,0,0.1,0,0.1,0c0,0,0,0,0-0.1c0,0,0-0.1,0-0.2c0-0.1,0-0.2-0.1-0.3
			C1,16.1,1,16,1,16l0,0.3l-0.1-0.5c0-0.1-0.1-0.2-0.1-0.3l0,0c0,0-0.1,0-0.1,0v0.4l-0.1-0.1c-0.1-0.1-0.1-0.1-0.1-0.2c0,0,0,0,0,0
			c0,0,0,0,0,0c0,0,0,0,0,0.1c0,0,0,0,0,0l0,0l0,0c0.1,0.1,0,0.2,0,0.3l0,0c0,0.1,0,0.1,0,0.1c0,0,0,0,0,0c0.1,0.1,0.1,0.3,0.1,0.5
			c0,0,0,0.1,0,0.1l0,0c0,0,0,0,0,0.1C0.7,16.8,0.7,16.8,0.8,16.8C0.7,16.8,0.7,16.8,0.8,16.8L0.8,16.8z M0.9,15c0,0.1,0,0.3,0,0.4
			c0,0,0-0.1,0-0.1C0.9,15.2,0.9,15.1,0.9,15C0.9,15,0.9,15,0.9,15C0.9,15,0.9,15,0.9,15z M0.3,14.7C0.3,14.7,0.3,14.7,0.3,14.7
			C0.3,14.7,0.3,14.7,0.3,14.7z M8.6,14.2C8.6,14.2,8.6,14.3,8.6,14.2C8.6,14.3,8.6,14.2,8.6,14.2z M9.9,21.1L9.9,21.1
			c0-0.1,0-0.2,0-0.3c0-0.1,0-0.2,0-0.3c0,0,0-0.1,0-0.1c0,0,0-0.1,0-0.1c0-0.2,0-0.3,0-0.5c0-0.3,0-0.6-0.1-0.9
			c-0.1-0.5-0.1-0.9-0.1-1.5c0-0.2,0-0.4,0-0.6c0-0.1,0-0.1,0-0.2c0-0.4,0-0.7,0-1.1c0-0.1,0-0.1,0-0.1l0-0.1h0.1l0,0c0,0,0,0,0,0
			c0,0,0,0,0,0h0l0,0c0,0,0,0,0.1,0.1c0,0,0,0,0,0c0,0,0.1-0.1,0.1-0.1c0-0.1,0.1-0.2,0.1-0.4c0-0.1,0-0.2,0.1-0.2c0,0,0,0,0-0.1
			c0,0,0,0,0,0c0,0,0,0,0,0c0,0-0.1,0-0.1-0.1l0,0l0,0c0,0,0-0.1,0-0.1c0-0.1,0-0.2,0.2-0.3c0,0,0,0,0,0c0,0,0,0,0,0l0-0.4l0,0.1
			c0,0,0,0,0-0.1l0,0l0,0c0,0,0,0,0-0.1c0,0,0-0.1,0-0.1c0,0,0,0,0,0c0,0,0-0.1,0.1-0.1c0.1,0,0.1,0,0.1-0.1c0,0,0-0.1,0.1-0.1
			c0,0,0,0,0,0c0,0,0,0,0-0.1l0,0l0,0l0.1,0c0,0,0.1-0.1,0.1-0.1c0-0.1,0.1-0.1,0.1-0.1c0.1-0.1,0.1-0.1,0.2-0.2
			c0,0,0.1-0.1,0.1-0.1c0-0.1,0.1-0.1,0.1-0.2c0-0.1,0.1-0.1,0.2-0.1c0.2-0.1,0.3-0.2,0.4-0.4l0,0c0,0,0.1,0,0.1-0.1c0,0,0,0,0.1,0
			c0,0,0,0,0,0c0,0,0,0,0-0.1l0,0l0.1,0c0,0,0,0,0,0c0,0,0.1,0,0.1-0.1l0.1-0.1l0,0c0.1-0.1,0.2-0.1,0.4-0.2
			c0.3-0.2,0.7-0.3,1.1-0.5c0.1,0,0.1,0,0.2,0c0,0,0,0,0.1,0c0,0,0,0,0.1,0c0.2-0.1,0.3-0.1,0.5-0.1c0.1,0,0.2,0,0.2,0
			c0.1,0,0.2,0,0.3,0c0.2,0,0.4,0,0.6,0c0.1,0,0.2,0,0.4,0.1c0.2,0.1,0.3,0.1,0.5,0.2c0.2,0.1,0.3,0.2,0.5,0.3
			c0.1,0.1,0.2,0.2,0.3,0.2c0.2,0.1,0.3,0.2,0.5,0.3c0.3,0.2,0.5,0.4,0.7,0.7c0,0.1,0.1,0.1,0.1,0.2c0.2,0.2,0.4,0.5,0.5,0.8
			l0.2,0.7c0,0,0,0.1,0,0.1c0,0.1,0.1,0.2,0,0.3c0,0.2-0.1,0.5-0.1,0.7l0,0.1c0,0.1,0,0.2,0,0.3c0,0.3-0.1,0.6-0.2,0.9l0,0
			c0,0,0,0,0,0.1h0c0,0,0,0,0.1,0l0,0l0,0c0,0.1,0,0.1-0.1,0.2c0,0.1,0,0.1-0.1,0.2l0,0.1c-0.1,0.3-0.2,0.6-0.4,0.9
			c-0.1,0.1-0.1,0.2-0.2,0.3c0,0.1-0.1,0.1-0.1,0.2c0,0.1-0.1,0.1-0.1,0.2c0,0.1-0.1,0.2-0.2,0.2c-0.1,0.1-0.2,0.2-0.3,0.3
			c-0.3,0.2-0.6,0.4-0.9,0.6c-0.2,0.1-0.4,0.2-0.6,0.2l-0.1,0c-0.3,0.1-0.6,0.1-0.9,0.2c-0.2,0-0.5,0-0.7,0l-0.1,0
			c-0.3,0-0.5,0-0.8,0c-0.3,0-0.6-0.1-0.9-0.2c-0.1,0-0.2-0.1-0.3-0.1c-0.2-0.1-0.3-0.1-0.5-0.2c-0.2-0.1-0.5-0.3-0.7-0.5
			c0-0.1-0.1-0.1-0.2-0.2l0,0c0,0-0.1,0-0.1,0c-0.1,0-0.1,0-0.2-0.1c0,0,0,0,0,0c0,0,0,0,0,0l-0.1,0.1l0.1-0.1
			c0-0.1,0.1-0.1,0.1-0.2c0,0,0-0.1-0.1-0.1c0,0,0-0.1-0.1-0.1c-0.1-0.1-0.2-0.3-0.2-0.4c0,0,0,0,0-0.1c0,0,0,0,0,0
			c0-0.1-0.1-0.1-0.1-0.2c0,0,0-0.1-0.1-0.1c0,0-0.1-0.1-0.1-0.1h0l0,0l0,0l0,0.1h-0.1c0,0,0,0,0,0h0l0,0c0,0-0.1-0.1-0.1-0.1
			c0,0,0,0,0,0c0,0,0,0,0,0c0,0,0,0,0,0.1c0.1,0.2,0.2,0.3,0.2,0.5c0,0.1,0,0.1,0.1,0.2c0,0,0,0,0,0c0,0,0,0,0,0.1c0,0,0,0,0,0.1
			c0,0.1,0.1,0.1,0.1,0.2c0,0.1,0.1,0.1,0.1,0.2c0,0,0.1,0.1,0.1,0.1c0,0,0,0,0,0l0-0.1l0.1,0.1c0.1,0.2,0.2,0.3,0.3,0.5l0,0
			l-0.1,0.1c0,0,0.1,0.1,0.1,0.1c0,0,0.1,0,0.1,0l0.1,0l0,0.1c0,0.1,0.1,0.2,0.2,0.3c0.1,0.1,0.2,0.1,0.2,0.3l0,0.1
			c0.1,0.1,0.2,0.1,0.3,0.2c0.1,0.1,0.2,0.1,0.3,0.2l-0.1-0.1l0.3,0.1c0.3,0.1,0.6,0.3,0.8,0.4l0.2,0.1l-0.2,0
			C12.2,21.1,11.1,21.1,9.9,21.1L9.9,21.1z M9.8,15.6C9.8,15.6,9.8,15.6,9.8,15.6c0,0.4,0,0.7,0,1.1c0,0.1,0,0.1,0,0.2
			c0,0.2,0,0.4,0,0.6c0,0.5,0,1,0.1,1.4c0,0.3,0.1,0.6,0.1,0.9c0,0.2,0,0.3,0,0.5c0,0.1,0,0.1,0,0.1c0,0,0,0.1,0,0.1
			c0,0.1,0,0.2,0,0.3c0,0.1,0,0.2,0,0.2c1.1,0,2.1,0,3.1-0.1c-0.2-0.1-0.3-0.2-0.5-0.2l0,0l-0.1,0c-0.2,0-0.3-0.1-0.5-0.2
			c-0.1-0.1-0.2-0.1-0.3-0.2c-0.1-0.1-0.2-0.1-0.3-0.2l0,0l0,0c0,0,0,0,0,0c0,0,0,0,0,0l0,0l0,0c0,0,0.1,0,0.1,0.1
			c0,0-0.1-0.1-0.1-0.1c-0.1-0.1-0.2-0.2-0.2-0.3c0,0-0.1,0-0.1,0c-0.1,0-0.2-0.1-0.2-0.2c0,0,0,0-0.1,0c0,0,0-0.1-0.1-0.1
			c-0.1-0.1-0.1-0.2-0.2-0.3c0-0.1-0.1-0.1-0.1-0.2c0-0.1-0.1-0.1-0.1-0.2c0-0.1-0.1-0.1-0.1-0.2c0,0,0,0,0-0.1l0,0v0c0,0,0,0,0,0
			c0,0,0,0,0,0c0-0.1-0.1-0.1-0.1-0.2C10,18,9.9,17.9,9.9,17.7c0-0.1,0-0.1,0.1-0.2c0,0,0.1,0,0.1,0c0,0,0,0,0,0L10,17l0,0
			c0,0,0,0,0.1,0h0l0.1,0.3v0l0.1,0.1c0.1,0.1,0.1,0.2,0.2,0.3c0,0,0,0.1,0.1,0.1c0,0.1,0.1,0.1,0.1,0.2c0,0,0,0,0,0.1c0,0,0,0,0,0
			c0.1,0.1,0.2,0.3,0.2,0.4c0,0,0,0.1,0.1,0.1c0,0,0,0.1,0.1,0.1c0,0,0.1,0.1,0.1,0.1c0.1,0.1,0.2,0.2,0.3,0.3
			c0.2,0.2,0.4,0.4,0.7,0.5c0.2,0.1,0.3,0.1,0.5,0.2c0.1,0,0.2,0.1,0.3,0.1c0.3,0.1,0.6,0.2,0.9,0.2c0.3,0,0.5,0,0.8,0l0.1,0
			c0.2,0,0.5,0,0.7,0c0.3,0,0.6-0.1,0.9-0.2l0.1,0c0.2,0,0.4-0.1,0.6-0.2c0.3-0.2,0.5-0.3,0.8-0.6c0.1-0.1,0.2-0.2,0.3-0.3
			c0.1-0.1,0.1-0.1,0.2-0.2c0-0.1,0.1-0.1,0.1-0.2c0-0.1,0.1-0.1,0.1-0.2c0.1-0.1,0.1-0.2,0.2-0.3c0.1-0.3,0.2-0.6,0.4-0.8l0-0.1
			c0-0.1,0-0.1,0.1-0.2l0,0c0,0-0.1,0-0.1-0.1l0,0l0,0c0,0,0-0.1,0.1-0.1c0-0.1,0.1-0.1,0.1-0.2l0,0c0.1-0.3,0.2-0.5,0.2-0.8
			c0-0.1,0-0.2,0-0.3l0-0.1c0-0.2,0.1-0.5,0.1-0.7c0-0.1,0-0.2,0-0.3c0,0,0-0.1,0-0.1l-0.2-0.7c-0.1-0.3-0.3-0.5-0.4-0.8
			c0-0.1-0.1-0.1-0.1-0.2c-0.2-0.3-0.4-0.5-0.7-0.7c-0.2-0.1-0.4-0.2-0.5-0.3c-0.1-0.1-0.2-0.2-0.3-0.2c-0.2-0.1-0.3-0.2-0.5-0.3
			c-0.1-0.1-0.3-0.1-0.4-0.2c-0.1,0-0.2-0.1-0.4-0.1c-0.2,0-0.4,0-0.6,0c-0.1,0-0.2,0-0.3,0c-0.1,0-0.1,0-0.2,0
			c-0.2,0-0.3,0.1-0.5,0.1c-0.1,0-0.1,0-0.2,0c0,0-0.1,0-0.1,0c-0.4,0.2-0.7,0.3-1.1,0.5c-0.1,0-0.1,0.1-0.2,0.1
			c0.1,0,0.1,0.1,0.1,0.1v0l0,0c0,0-0.1,0-0.1,0.1c-0.1,0-0.2,0.1-0.2,0.1l0,0l-0.1-0.1c0,0,0,0,0,0c0,0-0.1,0-0.1,0.1c0,0,0,0,0,0
			c0,0-0.1,0-0.1,0.1c-0.1,0.2-0.3,0.3-0.5,0.4c-0.1,0-0.1,0.1-0.2,0.1c0,0-0.1,0.1-0.1,0.1c0,0.1-0.1,0.1-0.1,0.2
			c-0.1,0.1-0.1,0.1-0.2,0.2c0,0-0.1,0.1-0.1,0.1c0,0,0,0.1-0.1,0.1c0,0,0,0.1,0,0.1c0,0.1-0.1,0.2-0.2,0.3l-0.1,0.1l0-0.1
			c0,0,0-0.1,0.1-0.1c0,0,0,0,0-0.1c0,0,0,0,0,0c0,0,0,0.1-0.1,0.1c0,0.1-0.1,0.1-0.1,0.2c0,0,0,0,0,0c0,0,0,0,0,0c0,0,0,0.1,0,0.1
			c0,0,0,0,0,0.1c0,0,0,0.1-0.1,0.1c0,0,0,0,0,0c0,0,0,0,0,0.1v0l0,0c0,0,0,0,0,0l0,0l0,0l0,0.1c0,0,0,0,0,0c0,0,0,0.1,0,0.1
			c-0.1,0-0.1,0.1-0.1,0.2c0,0,0,0,0,0.1c0,0,0,0,0,0c0,0,0,0,0.1,0l0,0l0,0c0,0,0,0,0,0c0,0,0,0,0,0.1c0,0.1-0.1,0.1-0.1,0.2
			c0,0.1,0,0.3-0.1,0.4c0,0.1-0.1,0.1-0.1,0.1c0,0,0,0,0,0C9.9,15.7,9.9,15.6,9.8,15.6C9.8,15.6,9.8,15.6,9.8,15.6z M11,13.2
			L11,13.2C11,13.2,11,13.2,11,13.2C11,13.2,11,13.2,11,13.2z M12.4,11.8L12.4,11.8L12.4,11.8z M12.6,11.7
			C12.6,11.7,12.6,11.7,12.6,11.7C12.6,11.7,12.6,11.7,12.6,11.7L12.6,11.7z M17.1,20.9l0.3-0.1c0.4-0.2,0.8-0.4,1.2-0.8
			c0,0,0.1-0.1,0.2-0.1c0.5-0.3,0.8-0.7,1-1c0.2-0.3,0.4-0.7,0.6-1c0.1-0.2,0.2-0.3,0.2-0.5c0,0,0,0,0-0.1c0,0,0,0,0-0.1l0.1-0.2
			l0,0.2c0,1.2,0.1,2.3,0.3,3.4l0,0.1l-0.1,0c-1.1,0-2.3,0.1-3.5,0.1L17.1,20.9z M20.5,17.5c-0.1,0.1-0.1,0.3-0.2,0.4
			c-0.2,0.3-0.3,0.7-0.6,1c-0.2,0.3-0.6,0.8-1,1c-0.1,0-0.1,0.1-0.2,0.1c-0.3,0.3-0.6,0.5-1,0.7c1.1,0,2.1-0.1,3.2-0.1
			C20.6,19.7,20.5,18.6,20.5,17.5z M22.1,20.8L22.1,20.8L22.1,20.8l-0.1,0l0,0c0,0,0-0.1,0-0.1c0-0.1,0-0.2,0-0.3c0-0.2,0-0.4,0-0.5
			c0-0.1,0-0.2,0-0.4c0-0.1,0-0.2,0-0.3c0,0,0-0.1,0-0.1v-0.1l0.1,0.1c0,0,0,0,0.1,0c0,0,0,0,0,0c0,0,0,0,0,0c0,0,0,0,0,0l0,0l0.1,0
			c0,0,0,0,0,0c0,0,0,0,0,0c0,0,0,0,0,0c0,0,0-0.1,0-0.1c0,0,0,0,0-0.1l0-0.1h0.1l0,0c0,0,0,0,0-0.1l0-0.1l0,0c0,0,0,0,0,0l-0.1,0
			l0.1-0.1c0,0,0.1-0.1,0.1-0.1c0,0,0,0-0.1-0.1l0,0l0.1,0c0,0,0,0,0,0c0-0.1,0-0.2,0-0.2c0,0,0-0.1,0-0.1c0,0,0-0.1,0-0.1l0,0
			c0,0,0,0,0,0l0,0l0,0c-0.1-0.1-0.1-0.2-0.1-0.3c0-0.1,0-0.1,0-0.2l0-0.1l0.1,0c0,0,0,0,0.1,0c0,0,0,0,0,0c0,0,0-0.1,0-0.1h-0.1
			v-0.7H22l0,0c0,0,0,0,0,0c0,0,0,0,0,0c0,0,0,0-0.1-0.1l0,0l0,0c-0.1-0.1,0-0.2,0-0.2c0,0,0,0,0,0V15l0.1,0.1c0,0,0-0.1,0-0.1h-0.1
			l0.1-2.6l0.1,0.1c0,0,0.1,0.1,0.1,0.1c0.1,0.1,0.2,0.2,0.2,0.3c0.2,0.3,0.4,0.6,0.6,0.9c0.1,0.1,0.1,0.2,0.2,0.3
			c0.2,0.3,0.4,0.5,0.5,0.8c0.1,0.1,0.1,0.2,0.2,0.3c0.1,0.2,0.3,0.4,0.4,0.6c0.1,0.2,0.3,0.4,0.4,0.6c0.2,0.3,0.4,0.6,0.6,0.9
			c0.2,0.3,0.4,0.5,0.6,0.8c0.1,0.1,0.2,0.2,0.3,0.4c0.1,0.1,0.2,0.2,0.3,0.3c0.2,0.3,0.4,0.6,0.6,0.8c0.1,0.1,0.2,0.3,0.3,0.4
			c0,0.1,0.1,0.1,0.2,0.1c0,0,0,0,0,0l0.1,0.1h-0.1c0.1,0,0.1,0.1,0.1,0.1c0,0,0,0.1,0,0.1c0,0,0,0,0,0c0,0,0,0,0,0l0,0.1l0-0.1
			c-0.1,0-0.1,0-0.2,0c0,0,0,0-0.1,0c-0.5,0-1.1,0-1.6,0c-0.5,0-1.1,0-1.6,0c-0.1,0-0.2,0-0.3,0c-0.1,0-0.2,0-0.2,0
			c-0.4,0-0.8,0-1.2,0l0,0c0,0-0.1,0-0.1-0.1c0,0,0,0,0,0L22.1,20.8z M22.1,20.5L22.1,20.5C22.2,20.6,22.2,20.6,22.1,20.5
			c0.1,0.1,0.1,0.1,0.1,0.1l0,0c0.4,0,0.8,0,1.2,0c0.1,0,0.1,0,0.2,0c0.1,0,0.2,0,0.3,0c0.5,0,1.1,0,1.6,0c0.5,0,1.1,0,1.6,0
			c0,0,0,0,0,0c0,0,0.1,0,0.1,0c0.1,0,0.1,0,0.2-0.1l0-0.1c0,0,0,0,0,0l0,0c0,0,0,0-0.1-0.1l-0.1-0.1c0,0-0.1-0.1-0.1-0.1
			c-0.1-0.1-0.2-0.3-0.3-0.4c-0.2-0.3-0.4-0.6-0.6-0.8c-0.1-0.1-0.2-0.2-0.3-0.3c-0.1-0.1-0.2-0.2-0.3-0.4c-0.2-0.3-0.4-0.5-0.6-0.8
			c-0.2-0.3-0.4-0.6-0.6-0.9c-0.1-0.2-0.3-0.4-0.4-0.6c-0.1-0.2-0.3-0.4-0.4-0.6c-0.1-0.1-0.1-0.2-0.2-0.3c-0.2-0.3-0.3-0.5-0.5-0.8
			C23,14,23,13.9,22.9,13.8c-0.2-0.3-0.4-0.6-0.6-0.9c0-0.1-0.1-0.2-0.2-0.3L22,14.8h0.1l0,0c0,0.1,0,0.2,0,0.2c0,0.1,0,0.1,0,0.2h0
			l0,0.1v0.2l-0.1,0c0,0,0,0,0,0v0.4c0,0,0,0,0,0c0,0,0,0.1,0,0.2l0,0l0,0c0,0,0,0,0,0c0,0,0,0,0.1,0.1l0,0v0c0,0,0,0,0,0v0.1
			l-0.1,0c0,0,0,0,0,0v0.6h0l0,0c0,0,0,0.1,0.1,0.1c0,0,0,0.1,0.1,0.1l0,0.1l-0.1,0c0,0-0.1,0-0.1,0c0,0,0,0.1,0,0.1
			c0,0,0,0.1,0,0.1l0.1,0c0.1,0.1,0.1,0.2,0.1,0.2c0,0,0,0.1,0,0.1c0,0.1,0,0.2,0,0.3c0,0,0,0,0,0c0,0,0,0.1,0,0.1c0,0,0,0.1,0,0.1
			c0,0,0,0,0,0c0,0,0,0,0,0l0.1,0.1l-0.1,0c0,0,0,0,0,0l0,0c0,0.1,0,0.1,0.1,0.1l0,0v0c0,0,0,0,0,0.1c0,0,0,0,0,0
			c0.1,0.1,0,0.1,0,0.2c0,0,0,0,0,0l0,0.1h-0.1l0,0c0,0,0,0.1-0.1,0.1l0,0.1l0,0c0,0,0,0,0,0c0,0,0,0,0,0c0,0.1,0,0.2,0,0.3
			c0,0.1,0,0.2,0,0.4c0,0.2,0,0.4,0,0.5c0,0.1,0,0.2,0,0.3c0,0,0,0,0,0l0-0.1L22.1,20.5C22.1,20.6,22.1,20.6,22.1,20.5L22.1,20.5z
			 M27.6,20.4L27.6,20.4C27.6,20.5,27.6,20.4,27.6,20.4C27.6,20.4,27.6,20.4,27.6,20.4z M22.2,18.9L22.2,18.9L22.2,18.9
			C22.2,18.9,22.2,18.9,22.2,18.9z M28.1,19.3l0-0.2l0,0c0,0,0,0,0,0c0,0,0,0,0,0l0,0l-0.4-0.5c-0.3-0.4-0.5-0.8-0.8-1.1
			c-0.1-0.1-0.1-0.2-0.2-0.3c-0.3-0.6-0.7-1.1-1-1.5c-0.2-0.2-0.4-0.5-0.5-0.7c-0.1-0.1-0.2-0.3-0.3-0.4c-0.1-0.2-0.3-0.4-0.4-0.6
			c-0.1-0.2-0.3-0.4-0.4-0.6c0,0-0.1-0.1-0.1-0.1c-0.1-0.1-0.1-0.2-0.2-0.2c-0.1-0.2-0.3-0.4-0.4-0.6c-0.1-0.2-0.2-0.4-0.4-0.6
			c-0.2-0.2-0.3-0.5-0.5-0.7c-0.1-0.1-0.1-0.2-0.2-0.3c-0.1-0.1-0.2-0.2-0.2-0.4c0,0,0-0.1,0-0.1c0-0.2,0-0.4-0.1-0.7
			c0-0.1,0-0.2,0-0.3c0-0.1,0-0.2,0-0.3V8.7c0,0,0-0.1,0-0.1c0,0,0,0,0-0.1c-0.1,0-0.1,0-0.2,0c-0.2,0-0.4,0-0.6,0
			c-0.2,0-0.3-0.1-0.5-0.2c-0.3-0.3-0.5-0.6-0.7-0.9c-0.1-0.2-0.2-0.3-0.3-0.5l0.1-0.1c0.1,0.2,0.2,0.3,0.3,0.5
			c0.2,0.3,0.4,0.6,0.7,0.9c0.1,0.1,0.2,0.2,0.4,0.2c0.2,0,0.4,0,0.6,0c0.1,0,0.2,0,0.3,0h0.1l-0.1,0.1c0,0,0,0,0,0c0,0,0,0,0,0
			c0,0,0,0,0,0.1c0,0,0,0,0,0.1v0.2c0,0.1,0,0.2,0,0.3c0,0.1,0,0.2,0,0.3c0,0.2,0,0.4,0.1,0.7c0,0,0,0,0,0.1
			c0.1,0.1,0.2,0.2,0.2,0.3c0.1,0.1,0.1,0.2,0.2,0.3c0.2,0.2,0.3,0.5,0.5,0.7c0.1,0.2,0.3,0.4,0.4,0.6c0.1,0.2,0.2,0.4,0.4,0.6
			c0,0.1,0.1,0.2,0.2,0.2c0,0,0.1,0.1,0.1,0.1c0.1,0.2,0.3,0.4,0.4,0.6c0.1,0.2,0.3,0.4,0.4,0.6c0.1,0.1,0.2,0.3,0.3,0.4
			c0.2,0.2,0.3,0.5,0.5,0.7c0.4,0.5,0.7,1,1,1.6c0.1,0.1,0.1,0.2,0.2,0.3c0.3,0.4,0.5,0.8,0.8,1.1l0.2,0.3l0,0c0,0,0-0.1,0-0.1
			c0,0,0-0.1,0-0.1c0-0.1,0-0.1,0.1-0.2c0,0,0-0.1,0-0.1c0,0,0-0.1,0-0.1c0-0.1,0-0.2,0-0.3l0,0h0c0,0,0,0,0.1,0c0,0,0-0.1,0-0.1
			c0-0.1-0.1-0.2-0.1-0.3v-0.1H28c0,0,0,0,0.1,0c0,0,0,0,0.1,0h0l0,0c0,0,0,0.1,0,0.1c0-0.1,0.1-0.3,0.1-0.4c0-0.1,0-0.2,0-0.3
			c0-0.1,0-0.2,0-0.3c0-0.1,0-0.2,0-0.3c0-0.2,0-0.3,0.1-0.5c0,0,0,0,0,0c0-0.1,0-0.2,0-0.2l0,0c0,0,0,0,0,0l0,0c0,0,0-0.1,0-0.1
			c0-0.1,0-0.1-0.1-0.1l0,0v-0.6h0.1c0,0,0,0,0.1,0.1c0,0,0,0,0,0c0,0,0,0,0,0c0,0,0-0.1,0-0.1c0,0,0-0.1,0-0.1l0,0
			c-0.1-0.1-0.1-0.3,0-0.4c0,0,0,0-0.1,0l-0.1,0l0-0.1c0-0.1,0-0.1,0-0.2c0-0.1,0-0.1,0-0.2l0.1,0c0,0,0,0,0,0c0,0,0,0,0,0
			c0,0,0,0,0,0c0,0,0,0,0,0c0,0,0,0,0,0l0-0.1l0.1,0.1c0,0,0.1,0,0.1,0.1h0c0-0.1,0-0.3,0-0.4c0-0.1,0-0.2,0-0.2h0.1
			c0,0.1,0,0.2,0,0.2c0,0.2,0,0.5-0.1,0.7l0,0c0,0,0,0,0,0h0.2L28.6,14c-0.2,0.1-0.1,0.2,0,0.4l0,0c0,0,0.1,0.1,0,0.2c0,0,0,0,0,0
			c0,0,0,0,0,0h0v0.1l-0.2,0.1l0,0c0,0,0,0,0,0c0,0,0,0,0,0v0.4c0.1,0,0.1,0.1,0.1,0.1l0,0l0.1,0.1l0,0c0,0.1,0,0.1,0,0.2l0,0
			c0,0.1,0,0.1,0,0.2c0,0,0,0,0,0l0,0c-0.1,0.1-0.1,0.3-0.1,0.5c0,0.1,0,0.2,0,0.3c0,0.1,0,0.2,0,0.3c0,0.1,0,0.2,0,0.3
			c0,0.2-0.1,0.4-0.1,0.5c0,0.1-0.1,0.1-0.1,0.1l0,0c0,0,0,0,0,0l0,0c0,0,0,0,0,0c0,0,0,0,0,0l0,0l0,0c0,0,0,0,0,0.1l0,0.1
			c0,0,0,0,0,0c0,0,0,0.1,0,0.1c0,0,0,0.1,0,0.1c0,0.1,0,0.2,0,0.2c0,0,0,0,0,0.1c0,0,0,0.1,0,0.1c0,0.1,0,0.1,0,0.2L28.1,19.3z
			 M27.8,18.8L27.8,18.8C27.9,18.8,27.9,18.8,27.8,18.8L27.8,18.8L27.8,18.8z M28,18.8C28,18.8,28,18.8,28,18.8
			C28,18.8,28,18.7,28,18.8c0-0.1,0-0.1,0-0.2c0,0,0,0,0,0C28,18.6,28,18.7,28,18.8L28,18.8z M28,17.9c0,0.1,0,0.1,0,0.2
			c0,0,0,0.1,0,0.1c0,0.1,0,0.1-0.1,0.2c0,0,0,0.1-0.1,0.1c0,0,0,0,0,0c0,0,0,0,0,0.1c0-0.1,0-0.1,0-0.2c0-0.1,0-0.2,0-0.3v-0.1h0.1
			L28,17.9L28,17.9C28.1,17.9,28,17.9,28,17.9C28,17.9,28,17.9,28,17.9z M28.1,17.5c0,0.1,0,0.1,0.1,0.2c0,0,0,0,0,0
			C28.1,17.6,28.1,17.6,28.1,17.5C28.1,17.5,28.1,17.5,28.1,17.5z M28.6,14.6C28.6,14.6,28.6,14.6,28.6,14.6
			C28.6,14.6,28.6,14.6,28.6,14.6z M28.4,13.7C28.4,13.7,28.4,13.7,28.4,13.7c0,0.1,0,0.1,0,0.2c0,0,0,0,0,0c0,0,0,0,0.1,0l0,0
			C28.4,13.8,28.4,13.8,28.4,13.7C28.4,13.7,28.4,13.6,28.4,13.7L28.4,13.7L28.4,13.7z M20.7,13.8L20.7,13.8l-0.1-0.1
			c0-0.1-0.1-0.2-0.1-0.4c-0.1-0.3-0.2-0.6-0.4-0.8c-0.1-0.2-0.2-0.3-0.3-0.5c-0.1-0.1-0.2-0.3-0.3-0.4c0,0-0.1-0.1-0.1-0.1
			c0,0,0,0,0,0l0,0c-0.2-0.2-0.4-0.4-0.6-0.6c-0.4-0.2-0.8-0.4-1.3-0.6c-0.1-0.1-0.3-0.1-0.4-0.2l-0.1-0.1h0.4l1.7,0
			c0.1,0,0.2,0,0.4,0c0.2,0,0.5,0,0.7,0c0,0,0,0,0,0c0.1,0,0.2,0,0.2,0.1c0.1,0.2,0.2,0.3,0.3,0.5l0,0c0,0,0,0.1,0,0.1
			c0,0.2,0,0.5,0,0.7c0,0.1,0,0.2,0,0.3c0,0.1,0,0.2,0,0.3c0,0.1,0,0.2,0,0.3c0,0.1,0,0.3,0,0.4c0,0.3,0,0.7,0,1L20.7,13.8
			L20.7,13.8C20.7,13.8,20.7,13.8,20.7,13.8z M17.3,10c0.1,0,0.1,0.1,0.2,0.1c0.5,0.2,0.9,0.4,1.3,0.7c0.3,0.2,0.5,0.4,0.7,0.6l0,0
			c0,0,0,0,0,0c0,0,0.1,0.1,0.1,0.2c0.1,0.1,0.2,0.3,0.3,0.4c0.1,0.2,0.2,0.3,0.3,0.5c0.2,0.3,0.3,0.6,0.4,0.9c0,0.1,0,0.1,0.1,0.2
			c0-0.3,0-0.6,0-0.9c0-0.1,0-0.3,0-0.4c0-0.1,0-0.2,0-0.3c0-0.1,0-0.2,0-0.3c0-0.1,0-0.2,0-0.3c0-0.2,0-0.5,0-0.7c0,0,0,0,0,0l0,0
			c-0.1-0.1-0.2-0.3-0.3-0.4c0-0.1-0.1-0.1-0.2-0.1c-0.2,0-0.5,0-0.7,0c-0.1,0-0.2,0-0.4,0L17.3,10z M9.7,13.3l0-0.5
			c0-0.9,0.1-1.7,0.1-2.6l0-0.1l0.1,0c0.2,0,0.5,0,0.7,0c0.2,0,0.5,0,0.7,0c0.2,0,0.4,0,0.6,0c0.2,0,0.4,0,0.6,0c0.2,0,0.3,0,0.5,0
			l0.2,0l-0.1,0.1c-0.2,0.1-0.3,0.2-0.5,0.3c-0.1,0.1-0.2,0.1-0.3,0.2c-0.1,0.1-0.2,0.1-0.2,0.2c-0.2,0.1-0.3,0.3-0.5,0.5
			c-0.1,0.1-0.3,0.3-0.4,0.4c-0.1,0.1-0.2,0.2-0.2,0.2c0,0.1-0.1,0.1-0.1,0.2c-0.1,0.1-0.2,0.2-0.3,0.3c-0.2,0.2-0.3,0.4-0.4,0.6
			L9.7,13.3z M9.9,10.3c0,0.9,0,1.7-0.1,2.6l0,0.1c0.1-0.2,0.2-0.4,0.4-0.6c0.1-0.1,0.2-0.2,0.3-0.3c0-0.1,0.1-0.1,0.1-0.2
			c0.1-0.1,0.2-0.2,0.2-0.2c0.1-0.1,0.3-0.3,0.4-0.4c0.2-0.2,0.3-0.4,0.5-0.5c0.1-0.1,0.2-0.1,0.2-0.2c0.1-0.1,0.2-0.2,0.3-0.2
			c0.1-0.1,0.2-0.1,0.3-0.2h0c-0.1,0-0.2,0-0.2,0l0,0c-0.2,0-0.4,0-0.6,0c-0.2,0-0.4,0-0.6,0c-0.2,0-0.5,0-0.7,0
			C10.4,10.3,10.1,10.3,9.9,10.3z M28.4,12L28.4,12c-0.1-0.1-0.1-0.1-0.1-0.1c0,0,0,0,0,0l0,0l0-0.1c0,0,0-0.1,0-0.1c0,0,0,0,0,0
			c0,0,0,0,0,0l0,0c0,0,0,0,0,0c0,0,0,0,0,0c0-0.1,0-0.2,0-0.4c0-0.1,0-0.2,0-0.3c0-0.1,0-0.2,0-0.3c0-0.1,0-0.1,0-0.2
			C28,10,27.9,9.8,27.9,9.6c-0.1-0.2-0.1-0.3-0.2-0.5c-0.1-0.2-0.1-0.3-0.2-0.5c0,0,0-0.1,0-0.1c-0.1-0.2-0.1-0.3-0.2-0.5
			c-0.1-0.2-0.2-0.3-0.3-0.5c-0.1-0.1-0.1-0.1-0.2-0.2c0,0,0-0.1-0.1-0.1c0-0.1-0.1-0.1-0.1-0.2c-0.1-0.2-0.3-0.3-0.4-0.5
			c-0.1-0.2-0.3-0.3-0.4-0.5c-0.1-0.1-0.1-0.2-0.2-0.3c-0.2-0.2-0.4-0.5-0.6-0.8c-0.3-0.3-0.5-0.6-0.8-0.8c0,0-0.1-0.1-0.1-0.1
			c-0.1-0.1-0.2-0.3-0.4-0.4c-0.7-0.4-1.5-0.8-2.4-1.2l-0.2-0.1c-0.3-0.1-0.6-0.3-0.9-0.3c-0.7-0.2-1.4-0.4-2-0.5
			c-0.1,0-0.2,0-0.3-0.1c-0.2,0-0.4-0.1-0.6-0.1c-0.3,0-0.5-0.1-0.8-0.1c-0.1,0-0.2,0-0.3,0l-0.5,0c-0.1,0-0.2,0-0.2,0
			c0,0.1,0.1,0.1,0.1,0.2c0.1,0.1,0.2,0.3,0.3,0.4l0,0c0.4,0.5,0.7,1,1.1,1.4c0.2,0.3,0.4,0.5,0.6,0.8c0.1,0.1,0.2,0.3,0.3,0.4
			c0.1,0.2,0.3,0.4,0.4,0.5c0.1,0.2,0.3,0.3,0.4,0.5l-0.1,0.1c-0.1-0.2-0.3-0.4-0.4-0.5c-0.1-0.2-0.3-0.3-0.4-0.5
			c-0.1-0.1-0.2-0.3-0.3-0.4c-0.2-0.3-0.4-0.5-0.6-0.8c-0.4-0.5-0.7-1-1.1-1.4l0,0c-0.1-0.1-0.2-0.3-0.3-0.4
			c-0.1-0.1-0.1-0.2-0.2-0.3l-0.1-0.1l0.2,0c0.1,0,0.2,0,0.3,0l0.5,0c0.1,0,0.2,0,0.3,0c0.3,0,0.5,0,0.8,0.1c0.2,0,0.4,0.1,0.6,0.1
			c0.1,0,0.2,0,0.3,0.1c0.6,0.1,1.2,0.3,2,0.5c0.3,0.1,0.6,0.2,0.9,0.4l0.2,0.1c0.9,0.4,1.7,0.8,2.4,1.2c0.2,0.1,0.3,0.3,0.4,0.4
			c0,0,0.1,0.1,0.1,0.1c0.3,0.3,0.5,0.5,0.8,0.8c0.2,0.2,0.4,0.5,0.6,0.8C25.8,5.8,25.9,5.9,26,6c0.1,0.2,0.3,0.3,0.4,0.5
			c0.1,0.2,0.3,0.3,0.4,0.5c0.1,0.1,0.1,0.1,0.1,0.2c0,0,0,0.1,0.1,0.1C27,7.3,27,7.4,27.1,7.5c0.1,0.2,0.2,0.3,0.3,0.5
			c0.1,0.2,0.1,0.3,0.2,0.5c0,0,0,0.1,0,0.1c0.1,0.2,0.1,0.3,0.2,0.5c0.1,0.2,0.1,0.3,0.2,0.5c0.1,0.2,0.1,0.5,0.2,0.7
			c0,0.1,0,0.2,0,0.2c0,0.1,0,0.2,0,0.3c0,0.1,0,0.2,0,0.3c0,0.1,0,0.2,0,0.3c0,0,0,0,0,0c0,0,0,0,0,0c0,0,0,0,0,0.1l0,0v0.2
			c0,0,0,0,0,0c0,0,0,0,0,0c0,0,0,0,0,0.1l0,0c0,0,0,0,0,0l0.1,0.1C28.5,11.9,28.5,11.9,28.4,12C28.4,11.9,28.4,11.9,28.4,12
			L28.4,12z M9.6,9.1c-0.1,0-0.2,0-0.2,0C9.3,9,9.2,9,9.1,9H9L9.1,9c0.1-0.2,0.2-0.3,0.4-0.5c0.2-0.3,0.4-0.6,0.6-0.9
			c0.1-0.1,0.1-0.1,0.1-0.2c0-0.1,0.1-0.1,0.1-0.2c0,0,0.1-0.1,0.1-0.1c0,0,0,0,0,0l0,0l0,0c0,0,0,0,0,0c0,0,0-0.1,0.1-0.1
			c0-0.1,0.1-0.1,0.1-0.2c0,0,0-0.1,0-0.1c0,0,0-0.1,0.1-0.1l0,0l0,0c0,0,0,0,0,0c0,0,0,0,0-0.1c0,0,0-0.1,0-0.1
			c0.1-0.1,0.2-0.2,0.3-0.3l0-0.1c0-0.1,0.1-0.1,0.1-0.2c0,0,0,0,0,0c0,0,0,0,0,0h-0.2l0.1-0.1c0,0,0,0,0,0c0,0,0,0,0,0l0,0
			c0.1-0.1,0.1-0.2,0.2-0.3C11.7,5.3,11.9,5.2,12,5l0.1-0.1h-0.1l0.1-0.1c0.1-0.1,0.2-0.3,0.3-0.4l0-0.1l0,0l0.2-0.3
			C12.8,4,12.9,3.8,13,3.7c0.1-0.1,0.2-0.3,0.3-0.4c0,0,0.1-0.1,0.1-0.1c0-0.1,0.1-0.1,0.1-0.2c0.1-0.2,0.3-0.4,0.4-0.7
			C14,2.2,14.1,2.1,14.2,2c0-0.1,0.1-0.1,0.1-0.2c0,0,0,0,0,0c0,0,0.1-0.1,0.1-0.1c0.1,0,0.1,0,0.1,0.1c0.1,0.2,0.3,0.3,0.4,0.5
			c0.1,0.2,0.3,0.3,0.4,0.5c0,0.1,0.1,0.1,0.1,0.2c0.2,0.2,0.3,0.4,0.5,0.6c0.1,0.2,0.2,0.3,0.3,0.5c0.1,0.2,0.2,0.3,0.3,0.5
			c0.3,0.4,0.5,0.7,0.8,1.1C17.7,6,17.9,6.2,18,6.5c0.2,0.3,0.4,0.6,0.6,0.8c0.1,0.1,0.2,0.2,0.2,0.4C19,8,19.3,8.3,19.4,8.6
			l0.1,0.1h-0.6c-0.2,0-0.3,0-0.5,0c-0.3,0-0.6,0-1,0c-0.4,0-0.9,0.1-1.3,0.1c-0.2,0-0.4,0-0.6,0.1c-0.8,0.1-1.7,0.1-2.5,0.1
			c-0.2,0-0.4,0-0.6,0c-0.1,0-0.2,0-0.3,0l-0.1,0c-0.3,0-0.7,0-1,0c-0.4,0-0.9,0-1.2,0C9.8,9,9.7,9.1,9.6,9.1z M9.2,8.9
			c0.1,0,0.1,0,0.2,0c0.2,0,0.3,0,0.5,0c0.4,0,0.8,0,1.2,0c0.3,0,0.7,0,1,0l0.1,0c0.1,0,0.2,0,0.3,0c0.2,0,0.4,0,0.6,0
			c0.8,0,1.6,0,2.5-0.1c0.2,0,0.4,0,0.6-0.1c0.4,0,0.9-0.1,1.3-0.1c0.3,0,0.6,0,1,0c0.2,0,0.3,0,0.5,0h0.4c-0.2-0.3-0.4-0.5-0.5-0.8
			c-0.1-0.1-0.2-0.2-0.2-0.4c-0.2-0.3-0.4-0.6-0.6-0.8c-0.2-0.3-0.4-0.6-0.6-0.8c-0.3-0.4-0.5-0.8-0.8-1.1c-0.1-0.2-0.2-0.3-0.3-0.5
			C16.2,4,16,3.8,15.9,3.6c-0.1-0.2-0.3-0.4-0.5-0.6c0-0.1-0.1-0.1-0.1-0.2c-0.1-0.2-0.3-0.3-0.4-0.5c-0.1-0.2-0.3-0.3-0.4-0.5
			c0,0,0,0,0,0c0,0,0,0,0,0c0,0,0,0-0.1,0c0,0-0.1,0.1-0.1,0.1c-0.1,0.1-0.2,0.3-0.3,0.4c-0.2,0.2-0.3,0.4-0.4,0.6
			c0,0.1-0.1,0.1-0.1,0.2c0,0-0.1,0.1-0.1,0.1c-0.1,0.1-0.2,0.3-0.3,0.4c-0.1,0.1-0.2,0.3-0.3,0.4l0,0.1l0.1-0.1l-0.1,0.2
			c0,0,0,0.1,0,0.1c0,0,0,0.1-0.1,0.2l0,0.1l-0.1-0.1c0,0,0-0.1,0-0.1c0,0-0.1,0.1-0.1,0.1c0,0,0,0,0,0l0,0l0,0
			c-0.1,0.1-0.1,0.2-0.2,0.2c-0.1,0.1-0.1,0.2-0.2,0.2l0,0h0c0,0,0,0,0,0h0c-0.1,0.1-0.2,0.2-0.2,0.3c-0.1,0.1-0.1,0.2-0.2,0.3
			c0,0,0,0,0,0c0,0,0,0,0,0c0,0,0,0,0,0c0,0,0,0.1,0,0.1c0,0.1-0.1,0.1-0.1,0.2l0,0.1c-0.1,0.1-0.2,0.2-0.3,0.3c0,0,0,0,0,0
			c0,0,0,0.1-0.1,0.1c0,0-0.1,0-0.1,0c0,0,0,0,0,0c0,0,0,0.1,0,0.1c0,0.1-0.1,0.1-0.1,0.2c0,0,0,0.1-0.1,0.1c0,0,0,0,0,0l0,0l0,0
			c0,0,0,0,0,0c0,0,0,0-0.1,0.1c0,0.1-0.1,0.1-0.1,0.2c0,0.1-0.1,0.1-0.1,0.2C10,8,9.7,8.3,9.5,8.5C9.4,8.7,9.3,8.8,9.2,8.9z
			 M12.1,4.9L12.1,4.9C12.1,5,12.1,5,12.1,4.9C12.1,4.9,12.2,4.9,12.1,4.9L12.1,4.9C12.2,4.9,12.2,4.9,12.1,4.9L12.1,4.9z"/>
	</g>
	<g>
		<path d="M22,17.5C22,17.5,22,17.5,22,17.5L22,17.5C22,17.5,22,17.5,22,17.5L22,17.5z M23.6,27.5c-0.1,0.1-0.2,0.2-0.4,0.2
			c0,0,0,0,0,0C23.3,27.6,23.4,27.5,23.6,27.5C23.6,27.4,23.6,27.5,23.6,27.5L23.6,27.5z M4.7,13.8c0.1-0.1,0.2-0.3,0.3-0.4
			c0,0,0.1,0,0.1,0c-0.1,0.1-0.3,0.3-0.4,0.5C4.7,13.9,4.7,13.8,4.7,13.8L4.7,13.8z M1.8,18.7c-0.1-0.2-0.2-0.4-0.2-0.5
			c0,0,0.1,0,0.1,0C1.7,18.3,1.8,18.5,1.8,18.7C1.9,18.7,1.8,18.7,1.8,18.7L1.8,18.7z M4.4,13.9c-0.1,0.1-0.1,0.2-0.2,0.3
			c0,0-0.1,0-0.1,0C4.1,14.1,4.3,13.9,4.4,13.9C4.3,13.9,4.3,13.9,4.4,13.9L4.4,13.9z M22.5,27.9C22.5,27.9,22.5,27.9,22.5,27.9
			c0.1,0,0.2,0,0.3,0C22.6,28,22.6,28,22.5,27.9L22.5,27.9z M4.4,14.3C4.4,14.3,4.4,14.2,4.4,14.3c0.1-0.1,0.1-0.1,0.1-0.1
			c0-0.1,0-0.1,0.1-0.2c0,0,0,0,0,0c-0.1,0-0.1,0.1-0.2,0.1c0,0,0,0,0,0.1c-0.1,0-0.1,0-0.2,0.1c0,0-0.1,0-0.1,0.1c0,0,0,0.1,0,0.1
			l0,0c0,0-0.1,0-0.1,0c-0.1,0.1-0.1,0.1-0.2,0.2c0,0,0,0.1,0,0.1c0.1-0.1,0.2-0.2,0.3-0.3l0,0c0-0.1,0.1-0.1,0.1-0.2c0,0,0,0,0,0
			c0,0.1-0.1,0.2-0.1,0.3c0,0-0.1,0-0.1,0c0,0-0.1,0.1-0.1,0.1l-0.2,0.1c-0.1,0.1-0.2,0.2-0.3,0.3c-0.1,0.1-0.1,0.2-0.2,0.3
			c0.1,0,0.2,0,0.1,0.1c0.1,0,0.2-0.1,0.2-0.2c0,0,0-0.1,0-0.1c0.1-0.1,0.2-0.2,0.3-0.2c0,0,0-0.1,0-0.1c0,0-0.1,0-0.1,0
			c0.1-0.1,0.2-0.3,0.3-0.4c0.1,0,0.1-0.1,0.1-0.1C4.3,14.4,4.4,14.4,4.4,14.3C4.4,14.3,4.4,14.3,4.4,14.3L4.4,14.3z"/>
		<path class="st0" d="M22.6,28C22.6,28,22.6,28,22.6,28c-0.1,0-0.1,0-0.1-0.1l0-0.1h0.1c0,0,0,0,0,0c0.1,0,0.2,0,0.2,0H23L22.8,28
			C22.7,28,22.7,28,22.6,28z M23.2,27.7L23.2,27.7C23.2,27.7,23.2,27.7,23.2,27.7L23.2,27.7l0-0.1c0.1,0,0.1-0.1,0.2-0.1
			c0.1,0,0.1-0.1,0.2-0.1l0,0l0,0.1c0,0,0,0,0,0c0,0,0,0,0,0l0,0l0,0C23.5,27.6,23.4,27.7,23.2,27.7L23.2,27.7z M1.8,18.8L1.8,18.8
			L1.8,18.8c-0.1-0.1-0.1-0.2-0.2-0.3c0-0.1-0.1-0.2-0.1-0.3l0,0l0,0c0,0,0.1,0,0.1,0l0,0l0,0c0.1,0.1,0.1,0.2,0.2,0.4
			c0,0.1,0,0.1,0.1,0.2l0,0l0,0C1.8,18.8,1.8,18.8,1.8,18.8z M1.6,18.2c0,0.1,0.1,0.1,0.1,0.2c0,0.1,0.1,0.1,0.1,0.2
			c0,0,0-0.1,0-0.1C1.7,18.4,1.7,18.3,1.6,18.2C1.6,18.2,1.6,18.2,1.6,18.2z M22.3,17.7L22,17.5h-0.1l0.1-0.1l0,0v0c0,0,0.1,0,0.1,0
			L22.3,17.7z M3.4,15.7C3.4,15.7,3.4,15.7,3.4,15.7L3.4,15.7L3.4,15.7c-0.1-0.1-0.1-0.1-0.1-0.1c0,0,0,0-0.1,0l-0.1,0l0.1-0.1
			c0-0.1,0.1-0.1,0.1-0.2c0,0,0.1-0.1,0.1-0.1l0,0l0,0c0.1-0.1,0.2-0.1,0.3-0.2v0c0,0,0-0.1,0-0.1l0,0l0,0c0,0,0.1-0.1,0.1-0.1
			c0,0,0.1-0.1,0.1-0.1l0,0l0,0c0,0,0,0,0,0l0,0c0,0,0-0.1,0-0.1c0,0,0,0,0-0.1l0,0c0,0,0,0,0.1,0c0,0,0,0,0,0
			c0-0.1,0.1-0.1,0.1-0.2l0,0l0,0c0,0,0.1,0,0.1-0.1c0,0,0.1,0,0.1-0.1l0,0l0,0c0,0,0,0,0,0l0,0l0,0c0,0,0,0.1,0,0.1
			c0,0,0,0.1,0,0.1l0,0l0,0c0,0,0,0,0,0c0,0,0,0,0,0c0,0,0,0,0,0l0.1,0l-0.1,0c-0.1,0-0.1,0.1-0.1,0.1c0,0,0,0.1-0.1,0.1
			c0,0-0.1,0.1-0.1,0.1C4.1,14.9,4,14.9,4,15c0,0,0,0,0,0.1c0,0,0,0.1,0,0.1c0,0-0.1,0.1-0.1,0.1c-0.1,0-0.1,0.1-0.2,0.1l0,0
			c0,0,0,0,0,0c0,0,0,0,0,0c0,0,0,0,0,0C3.6,15.6,3.6,15.7,3.4,15.7z M3.4,15.4C3.4,15.4,3.4,15.5,3.4,15.4c0.1,0.1,0.1,0.1,0.1,0.1
			c0,0,0.1,0,0.1-0.1c0,0,0,0,0-0.1c0,0,0,0,0,0c0,0,0-0.1,0-0.1c0.1-0.1,0.1-0.1,0.2-0.1c0,0,0.1-0.1,0.1-0.1c0,0,0,0,0,0
			c0,0,0,0,0,0l-0.1,0L3.8,15c0,0,0.1-0.1,0.1-0.2l-0.1,0.1c-0.1,0.1-0.2,0.1-0.3,0.2l0,0c0,0-0.1,0.1-0.1,0.1
			C3.4,15.4,3.4,15.4,3.4,15.4z M4.3,14.3C4.3,14.3,4.3,14.4,4.3,14.3L4.3,14.3L4.3,14.3C4.3,14.4,4.3,14.4,4.3,14.3
			C4.3,14.3,4.3,14.3,4.3,14.3L4.3,14.3c0.1-0.1,0.1-0.1,0.1-0.1C4.3,14.2,4.3,14.2,4.3,14.3C4.3,14.3,4.3,14.3,4.3,14.3z M4.4,14.1
			C4.4,14.1,4.4,14.1,4.4,14.1L4.4,14.1C4.4,14.2,4.4,14.2,4.4,14.1C4.5,14.1,4.5,14.1,4.4,14.1C4.5,14.1,4.4,14.1,4.4,14.1z
			 M4.1,14.2C4,14.2,4,14.2,4.1,14.2L4.1,14.2L4.1,14.2c0-0.1,0-0.2,0.1-0.3c0.1-0.1,0.1-0.1,0.1-0.2l0-0.1l0,0c0,0,0,0,0,0l0.1,0
			l0,0c0,0-0.1,0.1-0.1,0.1c0,0-0.1,0.1-0.1,0.1l0,0.1l0,0C4.2,14.2,4.1,14.2,4.1,14.2C4.1,14.2,4.1,14.2,4.1,14.2z M4.7,13.9
			L4.7,13.9C4.7,13.9,4.7,13.9,4.7,13.9c-0.1-0.1-0.1-0.1-0.1-0.1l-0.1,0l0,0c0.1-0.1,0.2-0.3,0.3-0.4l0,0l0,0c0,0,0,0,0,0
			c0,0,0.1,0,0.1,0l0,0l-0.1,0.1C5,13.6,4.9,13.8,4.7,13.9L4.7,13.9z M4.7,13.8C4.7,13.8,4.7,13.8,4.7,13.8c0.1-0.1,0.2-0.2,0.3-0.4
			c0,0,0,0,0,0C4.9,13.5,4.8,13.6,4.7,13.8z"/>
	</g>
	<g>
		<path d="M4.6,14.2c0,0.1-0.1,0.1-0.1,0.2l-0.1,0c0,0.2-0.2,0.4-0.3,0.5c0,0,0.1,0,0.1,0c0,0,0.1-0.1,0.1-0.1l0.3-0.4L4.6,14.2
			L4.6,14.2L4.6,14.2z M1.2,18.6c0.1,0,0.1,0,0.2,0c0,0,0.1,0,0.1-0.1h0c0,0.1,0,0.1,0,0.1L1.2,18.6C1.2,18.7,1.2,18.6,1.2,18.6
			L1.2,18.6z M1.1,18.2C1.1,18.1,1.1,18.1,1.1,18.2C1,18,1.1,18,1.1,17.9C1.1,18,1.1,18.1,1.1,18.2C1.1,18.1,1.1,18.1,1.1,18.2
			L1.1,18.2z M1.4,17.5c0,0.1,0.1,0.2,0.1,0.3c0,0-0.1,0-0.1,0C1.4,17.8,1.3,17.7,1.4,17.5C1.3,17.5,1.4,17.5,1.4,17.5L1.4,17.5z
			 M23.9,27.2c0.1,0,0.1,0,0.2-0.1c-0.1,0.1-0.2,0.1-0.2,0.2c0,0,0,0,0,0C23.8,27.3,23.9,27.2,23.9,27.2L23.9,27.2z M11.5,5.8
			c0.1,0,0.1-0.1,0.2-0.1l0,0c-0.1,0.1-0.1,0.2-0.2,0.3C11.5,5.9,11.5,5.9,11.5,5.8C11.4,5.8,11.5,5.8,11.5,5.8L11.5,5.8z
			 M14.4,10.9c0.1,0,0.2-0.1,0.3-0.1c0,0.1,0,0.1,0,0.1c0,0-0.1,0-0.1,0C14.5,10.9,14.4,11,14.4,10.9C14.4,11,14.4,10.9,14.4,10.9
			L14.4,10.9z M22,19.5c0,0.1,0.2,0.2,0,0.3c0,0,0.1,0,0.1,0.1c0,0,0,0,0,0c0,0-0.1,0-0.1,0c0,0,0,0,0-0.1C22,19.7,22,19.6,22,19.5
			L22,19.5z"/>
		<path class="st0" d="M23.9,27.4L23.9,27.4C23.8,27.4,23.8,27.4,23.9,27.4l-0.1,0l0-0.1c0,0,0,0,0-0.1c0,0,0,0,0-0.1l0,0l0,0
			c0,0,0.1,0,0.1,0c0,0,0,0,0.1,0l0.2-0.1l-0.2,0.2C24,27.3,23.9,27.3,23.9,27.4L23.9,27.4z M22,19.9C22,19.9,22,19.9,22,19.9
			c-0.1,0-0.1-0.1-0.1-0.1c0,0,0,0,0,0l0,0l0,0c0-0.1,0-0.1,0-0.2l0-0.4l0.1,0.4c0,0,0,0,0,0.1c0,0,0.1,0.1,0.1,0.1c0,0,0,0,0,0.1
			c0,0,0,0,0,0l0,0v0c0,0,0,0.1,0,0.1L22,19.9C22.1,19.9,22.1,19.9,22,19.9z M22.1,19.6C22,19.7,22,19.7,22.1,19.6
			C22.1,19.7,22.1,19.7,22.1,19.6C22.1,19.7,22.1,19.7,22.1,19.6z M1.5,18.8H1.2l0,0c0,0,0,0,0-0.1c0,0,0-0.1,0-0.1l0,0h0
			c0,0,0.1,0,0.1,0c0,0,0,0,0.1,0c0,0,0,0,0,0c0,0,0,0,0,0v0h0.1v0.1c0,0,0,0,0,0.1C1.5,18.7,1.5,18.7,1.5,18.8L1.5,18.8z M1.2,18.3
			L1.2,18.3c-0.1-0.1-0.1-0.1-0.1-0.1c0,0-0.1-0.1-0.1-0.1C1,18,1,18,1.1,17.9l0.1-0.1l0,0.1c0,0,0,0.1,0,0.1c0,0,0,0.1,0,0.1l0,0
			l0,0c0,0,0,0,0,0V18.3z M1.4,18L1.4,18c0-0.1-0.1-0.2-0.1-0.2c0-0.1,0-0.1-0.1-0.2l0,0l0,0c0,0,0.1,0,0.1,0l0,0l0,0
			c0,0.1,0,0.1,0.1,0.2c0,0.1,0,0.1,0.1,0.2l0,0l-0.1,0C1.5,17.9,1.5,17.9,1.4,18L1.4,18z M4.2,14.9c0,0-0.1,0-0.1,0l-0.1-0.1l0.1,0
			c0.1,0,0.3-0.2,0.3-0.4l0-0.1l0.1,0c0,0,0,0,0-0.1c0,0,0-0.1,0.1-0.1l0-0.1l0.1,0.1l-0.1,0.2l-0.3,0.4c0,0,0,0,0,0
			C4.3,14.9,4.2,14.9,4.2,14.9C4.2,14.9,4.2,14.9,4.2,14.9z M14.4,11.1L14.4,11.1c0-0.1,0-0.1,0-0.1c0,0,0,0,0,0v0l0,0
			c0.1,0,0.2-0.1,0.3-0.1l0.1,0l0,0.1c0,0.1,0,0.1,0,0.1V11l-0.1,0c0,0-0.1,0-0.1,0c0,0-0.1,0-0.1,0C14.5,11,14.4,11.1,14.4,11.1
			L14.4,11.1z M11.4,6.1l0-0.1c0,0,0-0.1,0-0.1c0,0,0,0,0-0.1l0-0.1l0,0c0,0,0.1,0,0.1-0.1c0,0,0.1,0,0.1-0.1l0,0l0.1,0.1l0,0
			c0,0-0.1,0.1-0.1,0.1c0,0,0,0.1-0.1,0.1L11.4,6.1z M11.5,5.8C11.5,5.8,11.5,5.8,11.5,5.8C11.5,5.8,11.5,5.8,11.5,5.8
			C11.5,5.8,11.5,5.8,11.5,5.8z"/>
	</g>
</g>
</svg>
