<?xml version="1.0" encoding="utf-8"?>
<!-- Generator: Adobe Illustrator 20.1.0, SVG Export Plug-In . SVG Version: 6.00 Build 0)  -->
<svg version="1.1" id="Layer_1" xmlns="http://www.w3.org/2000/svg" xmlns:xlink="http://www.w3.org/1999/xlink" x="0px" y="0px"
	 viewBox="0 0 300 300" style="enable-background:new 0 0 300 300;" xml:space="preserve">
<style type="text/css">
	.st0{stroke:#FFFFFF;stroke-miterlimit:10;}
</style>
<title>postcss-logo-symbol</title>
<g>
	<path class="st0" d="M58.7,125.8c0.4,0.3,1.1,0.5,0.4,1.1c-0.5,0.7-1.1,1.3-1.5,2.1c-0.4,0.7-0.7,0.9-1.3,0.4
		C57.1,128.1,57.9,126.9,58.7,125.8L58.7,125.8z M259.5,230.7c0,0.3,0.1,0.5,0.1,0.8c0.2-0.4,0.2-0.6,0.3-0.8H259.5z M259.5,231.6
		L259.5,231.6L259.5,231.6z M221.2,152.4c-0.1,0.3-0.1,0.6-0.1,0.9C221.1,153,221.1,152.7,221.2,152.4L221.2,152.4z M221.3,154.4
		c-0.1,0-0.1,0-0.2-0.1v0.1C221.2,154.5,221.2,154.5,221.3,154.4L221.3,154.4z M221.1,155.2v-0.7c-0.3,0.1-0.6,0.1-1,0.2
		C220.6,154.9,221.1,155,221.1,155.2L221.1,155.2z"/>
	<path class="st0" d="M298.9,130.9c-0.2-3.9-0.3-7.8-0.7-11.7c-0.7-5.3-1.4-10.7-2.6-15.9c-0.9-4.3-2.4-8.4-3.9-12.5
		c-1.9-4.8-3.8-9.7-6.2-14.3c-3.9-7.4-9-14-13.7-20.9c-3.1-4.4-7.1-8-10.1-12.5c-1.7-2.6-4.2-4.8-6.7-6.8c-4-3.2-8.2-6.1-12.4-8.9
		c-3.2-2.2-6.4-4.3-9.8-6.2c-2.7-1.5-5.6-2.7-8.4-4c-3.2-1.5-6.3-3.3-9.9-4c-0.9-0.2-1.7-0.5-2.6-0.8c-2.3-0.8-4.5-1.7-6.8-2.4
		c-3.5-1.1-6.9-2.4-10.5-3.3c-3.5-0.9-7.1-1.5-10.7-2c-4-0.6-8.1-0.8-12.1-1.2c-2.6-0.3-5.1-0.6-7.7-0.7c-3.8-0.2-7.7-0.2-11.5-0.3
		c-1.9-0.1-3.9-0.3-5.8-0.2c-2.9,0.1-5.8,0.4-8.7,0.8c-2.8,0.3-5.6,0.8-8.3,1.2c-3.3,0.4-6.6,0.6-9.9,1c-3.1,0.4-6.3,1-9.4,1.5
		c-1.1,0.2-2.2,0.6-3.3,0.8C104.9,8,102.4,8.2,100,9c-4.3,1.3-8.6,2.8-12.8,4.4c-3.9,1.6-7.7,3.3-11.4,5.3c-3.8,2.1-7.4,4.6-11,7
		C61.4,28,58,30.5,54.8,33c-3.2,2.5-6.2,5.3-9.1,8.1c-1.6,1.6-2.9,3.5-4.4,5.3c-2.5,2.9-5,5.7-7.4,8.7c-2,2.5-3.8,5.1-5.7,7.7
		c-3.4,4.6-6.3,9.5-9,14.4c-1.1,2-2.1,4-3.1,6c-1.5,3-3.1,5.9-4.5,9c-1,2.1-1.8,4.4-2.4,6.7c-1.4,4.9-2.8,9.9-4.1,14.8
		c-1.2,4.4-1.5,9-1.6,13.5c-0.1,4,0.3,7.9,0.7,11.9c0.1,1-0.5,2.2,0.7,3c-0.4,1.1-0.1,1.7,0.5,1.9c-0.7,1.1,0.3,1.8-0.1,2.8
		c-0.1,0.2,0.3,0.6,0.5,0.9c0,0.3-0.1,0.7,0,1c0.1,0.9,0.5,1.8,0.5,2.8c0,0.7,0.6,1.5,0.8,2.2c0.1,0.3,0,0.8-0.2,1
		c-0.6,0.7-0.5,1.3,0.4,1.7c0.5,1.3,0.3,1.9,0.2,2.5c0.2,0.9-0.1,1.2,0,1.4c0.8,1.6,1.1,3.4,1.2,5.2c0,0.4,0.2,0.8,0.4,1.3
		c0.1,0,0,1.9,0,1.9c0.5-0.3,0.9-0.4,1.4-0.6c0.3,1.3,0.6,2.5,1,3.6c0.5,0.8,0.5,1.2,0.3,1.3c0.4,1.8,0.6,3.5,1.3,5.2
		c0-1.9-0.2-3.8-0.5-5.6c1.4,0.5,2.6,1,3.4,1c0.1-0.3,0.2-0.7,0.3-0.9c-0.6-0.6-1.1-1.5-1.7-2.1c0.2,0.8,0,1.1,0,1.4
		c-0.4-0.2-0.9-0.4-1.4-0.6c0.4-0.5,0.8-1,1.4-1.6c0-0.9-0.5-1.7-1.9-1.6c0.6-0.2,1.2-0.5,1.9-0.7c1.1-0.6-0.1-1.7-0.1-3.1
		c0.1-1.7-0.9-3.4-1.2-5.2c-0.5-2.8-0.4-7-0.7-9.8c-0.6-0.5-1.1,0.8-1.2,0.9c0.3,2.4,0.6,4.8,0.8,7.2c-0.6-2-1-4.2-1.5-6.6
		c-0.1,0.7-0.2,1-0.2,1.4c-0.5,0.5-0.1,1.1,0.2,1.8c-0.7-0.3-1.5-0.2-1.5-0.2v2.8c-1-1-1.3-1.8-1.8-2.5c-0.2-0.8-0.3-1.6-0.5-2.4
		c0.2-0.5,0-0.8,0-1.1c-0.1-0.8-0.2-1.6-0.3-2.4c0.1-0.1-0.1-1.6-0.1-1.6c0.8,0.1,1.3,0.2,1.8,0.2c-1-1.3-0.3-2.1,0.1-2.9
		c0.2-0.4,0.9-0.5,1.1-0.9c0.8-1.5,2.1-2.7,2.1-4.6c0-0.9,0.3-1.9,0.4-2.8c0.2-1.7,0.4-3.4,0.5-5.1c0.2-2.2,0-4.4,0.5-6.5
		c0.8-3.5,1.8-7,2.9-10.5c0.8-2.5,1.7-4.9,2.7-7.4c1.5-3.9,2.9-7.8,4.8-11.5c2.7-5.4,5.8-10.6,8.8-15.9c1.9-3.3,3.9-6.4,6-9.6
		c2-3.1,4-6.3,6.3-9.2c3.2-4.1,6.7-7.9,10.6-11.3c4-3.6,7.8-7.3,12.1-10.6C72.8,33.8,78.7,30,85,26.7c5.1-2.7,10.4-4.8,15.7-6.8
		c3.4-1.3,7.1-1.9,10.6-3c4-1.3,8-1.9,12.2-2c2.7-0.1,5.3-0.4,8-0.7c2.4-0.2,4.8-0.4,7.4-0.7c-0.3,0.4-0.4,0.6-0.5,0.8
		c-1.1,1.6-2.3,3.2-3.4,4.8c-0.9,1.3-1.9,2.7-2.8,4c-1.6,2.1-3.3,4.2-4.8,6.4c-2.3,3.3-4.4,6.7-6.8,10c-2.4,3.2-5,6.2-7.5,9.3
		c-3.3,4.3-6.4,8.7-9.7,13c-3,4.1-6.2,8-9.1,12.1c-2.6,3.6-4.9,7.4-7.4,11.1c-3.7,5.5-7.4,10.9-11.1,16.4c-2.9,4.2-5.8,8.4-8.8,12.5
		c-0.2,0.3-0.5,0.4-0.8,0.6c-0.8,1.3-0.8,2-1.1,2.6c-0.8,1.5-1.6,3-2.5,4.4c-0.5,0.8-1.2,1.5-1.8,2.3c-0.1-1.2,1.6-1.8,0.8-3.3
		c-0.5,0.8-1,1.5-1.5,2.3l-1.2,2.4c0.4,0.3,1.1,0.5,0.4,1.1c-0.3,0.5-0.6,1.1-0.9,1.6c0.4-0.3,0.8-0.6,1.1-1c0,1.1-0.6,2-1.1,2.9
		c-0.4,0.8-1.4,1.4-2.1,2c0.1,0.1,0.8,0.4,0.9,0.5c0.9-0.3,1.2-0.8,1.3-0.5c0.3-0.4,0.6-0.7,0.7-1c0.4-1,1-1.8,2-2.2
		c0.4-0.2,0.7-0.5,1-0.8c3-3.1,6.1-6.1,8.8-9.4c4.2-5.1,8-10.4,12-15.6c1.7-2.2,3.7-4.4,5.5-6.5c0.3,2.3,0.1,4.5,0,6.6
		c-0.3,3.7-0.5,7.4-0.8,11.2c-0.1,1.5,0,3-0.1,4.5c0,0.4-0.3,0.7-0.3,1.1c0,1,0.3,2.1,0.3,3.1c-0.3,3.7-0.7,7.3-1,11
		c-0.1,0.8,0.3,1.6,0.5,2.3c-0.5,5.4,0.6,11.1-0.3,16.8c0.7-1.1,0.9-1.8,0.9-2.5c0.1-0.6,0-1.2,0-1.9v-1c0.1-1.8,0.5-3.7,0.3-5.5
		c-0.2-2-0.2-3.9,0.2-5.8c0.2-0.8-0.1-1.8,0.4-2.8v1.5c-0.1,5.7,0.1,11.4-0.7,17.1c-0.1,0.5,0.3,1.4-0.8,1.3
		c-0.9,1.8,0.2,3.1-0.8,4.1c-0.2,0.2,0.2,1.1,0.3,1.7c-0.4,1.2-0.4,1.2,0.2,1.3c0.1,2.2,0.3,4.2,0.4,6.3c1.6-3.8,0.8-7.7,1.5-11.6
		c0.1,1.6,0.2,3.2,0.1,4.9c0,2.6-0.1,5.1-0.2,7.7c0,0.5-0.1,1-0.2,1.5c-0.3,1.4-0.4,2.8-0.9,4.1c-0.4,1-0.2,2.5-0.2,3.7v3.8
		c0.4,1.7-0.1,2.6,0.2,3.6c-0.3,1-0.4,1.3-0.3,1.6l0.3,1.5c2-0.2,1.1,1.3,1.9,2.1c-0.6,0.8-0.4,1.1-0.4,1.5c0,0.9-0.1,1.7-0.2,2.6
		c0,2.3-0.1,4.6-0.1,6.8c0,0.3,0.1,0.6,0.1,0.9c0,0.2-0.1,2.8-0.1,2.8c0.2,0.3,0,0.6-0.3,0.9c-0.1,0-0.4-12.7-0.4-12.7h-1.5
		c-0.2,6,0.3,11.4-0.8,17c-1.2,0.1-1.6,0.3-2.9,0.3c-3.1,0-6.2,0-9.3,0.1c-3.7,0-7.3,0.1-11,0.1c-1.8,0-3.7,0.2-5.5,0.2
		c-2.4,0-4.9-0.3-7.3-0.3c-3.7,0-7.3,0.3-11,0.4c-2.7,0.1-5.4,0.1-8.1,0.2c-1.8,0.1-3.6,0.2-5.4,0.4c-0.8,0.1-1.5,0.4-2.5,0.7
		c-0.3,0-1-0.1-1.6,0c-1,0.2-1.9,0.8-2.9,1c-1.5,0.3-1.9,0.7-1.7,2.2v1c-0.1,0.2,2.2-0.3,2.2-0.3c-0.2,0-0.3,0.6-0.6,1.1
		c0.8-0.3,1.3-0.5,1.8-0.7c1.5,0.7,2.8,0.3,4,0.6c3.9,1,7.9,1.4,11.9,1.8c2.6,0.2,5.1,0.3,7.7,0.4c3.7,0.2,7.4,0.4,11.1,0.4
		c3.1,0,6.1-0.3,9.2-0.3c4.3,0,8.6,0.2,12.9,0.3c0.9,0,1.9-0.1,2.9-0.1h7.3c6.5-0.2,13-0.3,19.5-0.5c3.7-0.1,7.5-0.3,11.2-0.4
		l11.4-0.3c4.4-0.1,8.8-0.1,13.1-0.2c3.3,0,6.5-0.1,9.8-0.2c3.7-0.1,7.5-0.4,11.2-0.6c2-0.1,4-0.3,6-0.5c2.4-0.2,4.9-0.5,7.3-0.6
		c3.6-0.2,7.3-0.3,10.9-0.5c4.5-0.3,9-0.7,13.6-0.8c4.2-0.2,8.5-0.1,12.7-0.2c3.7-0.1,7.4-0.3,11.2-0.4l6.3-0.3c0,0,4.2-0.1,6.3-0.3
		c3.6-0.2,7.2-0.6,10.8-0.7c2.3-0.1,4.6,0,6.9-0.1c3.7-0.1,7.5-0.3,11.2-0.3c1.4,0,2.9,0.2,4.7,0.3c-0.8,0.7-1.3,1.1-1.9,1.6
		c0.4,0.1,0.8,0.3,1.2,0.5c-0.5,0.3-1,0.5-1.6,0.5c-0.2,0.5-0.4,0.7-0.6,1.7h1.8c-0.7,0-1.3,0.9-2,1.5c-0.8-0.2-1.5,0-1.9,1.1
		c0.7,0.4,0.6,0.7,0.5,1.1c-1.2,0.4-2.1,0.8-1.6,2.1c-0.4,0.2-0.9,0.4-1.4,0.7c-0.5,0.8-1.4,1-1.2,2.1c0.4,0.1,0.8,0.3,1.1,0.4
		c-0.5,0.2-1,0.5-1.5,0.7c-1.8,1.1-1,1.6-0.6,2.1c-0.3,0.2-0.6,0.4-0.9,0.5c0.2,0.9,0.5,1.1,0.6,1.1c-0.5,0.4-1,0.8-1.5,1.2
		c-0.3,0.9-0.7,1.3-1.1,1.9c-0.4,0.6-0.6,1.4-1.1,2c-2.1,2.3-3.6,5-6.3,6.8c-1,0.7-1.9,1.6-2.8,2.5c-1.8,1.7-3.4,3.6-5.3,5.2
		c-2.5,2.1-5.1,4-7.8,5.9c-3.3,2.3-6.6,4.6-9.9,6.8c-1.8,1.2-3.8,2.1-5.7,3.2c-1.9,1.1-3.7,2.1-5.6,3.2c-1.2,0.8-2.3,1.9-3.6,2.5
		c-3.3,1.4-6.8,2.6-10.2,3.9c-3.3,1.4-5.7,2.6-8.2,3.5c-2.3,0.8-4.7,1.4-7.1,1.9c-0.8,0.2-1.7,0-2.6,0.1c-1.7,0.3-3.4,0.7-5.1,0.9
		c-4.4,0.6-8.8,1-13.2,1.6c-2.6,0.3-5.1,0.8-7.7,1.1c-1.8,0.1-3.7-0.1-5.5-0.1c-1.3,0-2.7,0.3-4,0.1c-2.1-0.3-4.2-0.8-6.3-1.2
		c-0.5-0.1-1.2-0.3-1.6-0.1c-0.8,0.4-1.5-0.2-2.3,0c-0.5,0.1-1-0.3-1.5-0.3c-0.4-0.1-0.9,0.1-1.4,0c-1.1-0.3-2.1-0.7-3.3-0.6
		c-1.2,0.1-2.4-0.5-3.7-0.8c-1.8-0.4-3.5-0.8-5.3-1.2c-0.7-0.2-1.4-0.5-2-0.9c-2.6,0-4.3-0.1-5.9-0.7c-1.4-0.5-2.7-1.2-4.2-1
		c-0.4,0.1-0.7-0.1-1.1-0.1c-0.3-0.4-0.6-1.2-0.9-1.2c-2,0.1-3.2-1.6-4.9-2.1c-0.9-0.3-1.6-1.3-2.5-1.6c-2.2-0.9-4-2.8-6.5-3.1
		c-0.8-0.1-1.6-0.5-2.5-0.8c0.3,0.4,0.5,0.7,0.8,1c-2.9-1.4-5.6-3-8.3-4.5c-0.4-0.1-0.7-0.5-1-0.7l-2.7-1.8
		c-1.5,0.3-2.1-0.3-2.5-0.5c-2.7-1.9-5.8-3.1-8.4-5.2c-1.1-0.9-2.4-1.5-3.2-2.6c-1.4-1.7-3.1-2.9-5-3.9c-1.5-0.8-2.9-1.7-4.3-2.6
		c-0.7-0.5-1.4-1.1-1.4-2.2c0-0.7-0.3-1.4-1.2-1c-0.4-0.6-0.8-1.3-1.3-1.5c-1.2-0.5-2-1.4-2.9-2.2c-0.9-0.8-1.6-1.9-2.7-2.3
		c-2-0.8-3.2-2.5-4.4-3.9c-2.8-3.3-5.3-6.9-7.9-10.4c-0.2-0.3-0.6-0.5-0.9-0.8c0.4,1.1,0.9,2,1.4,3c-1-0.4-1.7-1.1-2.3-1.8
		c-0.1,0.1,6.9,11.6,6.9,11.6c0.6,0.9,1.1,1.8,1.7,2.7c-1.2,0.1-2.4-0.5-3-1.6c-0.9-1.6-1.9-2.6-3.9-2.4c-0.2-0.7-0.4-1.5-0.5-2.2
		c-0.4,0-0.7,0-1.4-0.1c1.4,2.2,2.6,4.1,3.9,6.3c-0.5-0.3-0.8-0.5-1-0.6c1.8,1.9,3.1,4.3,5.4,5.5c0.5,2.3,3.1,3.4,3.7,5.6
		c-0.5-0.1-0.9-0.2-1.4-0.3c-0.8-1-1.7-2-2.6-3.1c0.2,0.7,0.5,1.3,0.9,1.8c1.2,1.5,2.3,3,3.7,4.3c0.5,0.5,1.2,0.7,1.2,1.6
		c0.8,0.4,1.1,0.5,1.4,0.5c0.2,0.6-0.1,1.5,1.1,1.3c0.8,1.5,1.6,1.5,2.7,1c1.3,1.3,2,1.4,2.9,0.6c0,0.5,0.1,1,0.1,1.4
		c0.4-0.2,0.3-0.5,0.3-1c0.5,0.4,0.8,0.6,1,0.8c1,1.4,1.9,2.7,3.3,3.8c1.9,1.6,3.6,3.3,5.4,4.8c3.5,2.9,7.4,5.3,11.3,7.5
		c4.8,2.7,9.4,5.6,14.3,8.2c5.9,3.1,12.2,5.2,18.7,6.7c2.4,0.5,4.7,1,7.1,1.6c2.1,0.6,4.2,1.5,6.3,2c3.2,0.7,6.5,1.3,9.7,1.9
		c0.7,0.1,1.4,0.2,2.2,0.3c0.9,0.2,2-0.2,2.2,0.1c0.5,0.8,0.9,0.4,1.5,0.3c0.7-0.2,1.5-0.2,2.3-0.2c2.8,0.1,5.5,0.7,8.3,0.5
		c0.6,0,1.5-0.5,2,0.5c0.9-0.4,1.4-0.4,1.8-0.5c0.1,0.9,0,0.9-0.2,1c-0.2,0.1-0.5,0.2-0.9,0.5c3.6,0.7,7,0.8,10,0
		c5.2,0.4,9.7-0.2,14-1.7c0.4,0.5,0.7,1.2,1.3,0.2c0.2-0.3,0.7-0.4,1.1-0.5c0.9-0.2,2-0.6,2.8-0.3c0.9,0.3,1.2-0.5,1.9-0.5
		c1.2,0,2.3-0.1,3.4-0.3c0.6-0.1,1.2-0.4,1.9-0.6c-0.7-0.3-1.4-0.5-2.2-0.5c1.2-0.6,2.3-1.1,3.4-1.6c-0.2,0.3-0.4,0.7-0.8,0.7h1.4
		c-0.3,0-0.7,0.9-1.2,1.5c3.6-0.9,6.9-1.7,10.1-2.5c-1.1-2.1,1.2-1.4,2-2.6c-1,0.3-2,0.6-3,0.8c3.4-1.7,6.9-3.2,10.3-4.7
		c-0.5,0.6-1.1,0.9-2,1.4c0.6,0.1,1,0.1,1.3,0.2c1.6,0.5,1.2-1,1.7-1.9c1.9,0,2.7-0.3,3.6-0.6c1-0.3,2-0.6,3-1
		c1.6-0.7,3.1-1.6,4.7-2.4c0.3-0.1,0.8,0,1.2,0c1.1-0.7,1.5-1.3,1.8-1.2c1.4,0.2,2.4-0.3,2.8-1.6c0.7-0.5,1.2-0.9,1.7-1.2
		c2.2-1.2,4.3-2.4,6.5-3.6c0.8,0,1.2,0,1.4-0.1c1.3-0.6,2.5-1.3,3.7-2c-0.3-0.1-0.7-0.3-1-0.5c1-0.2,1.3-0.3,1.9-0.5
		c2.4-2.8,5.7-4.7,8.2-6.9c1.1-0.1,1.1-0.4,1.1-0.6c0.4-0.5,0.8-1.1,1.3-1.5c2.2-2,4.6-3.7,6.6-5.8c2.9-2.9,5.7-5.9,8.3-9
		c2.4-2.8,4.8-5.6,6.8-8.7c2.8-4.3,5.2-8.7,7.7-13.2c1.8-3.2,3.4-6.4,5.2-9.6c0.2-0.3,0.6-0.7,0.9-0.7c2.7-0.3,5.4-0.5,8-0.8
		c0.6-0.1,1.3-0.5,1.9-0.8c-0.3-0.5-0.5-1.1-0.8-1.6c-0.4-0.6-1-1.1-1.4-1.7c-0.4-0.5-0.7-1.1-1-1.7c-0.3-0.5-0.6-0.9-0.9-1.4
		c-0.6-1.1-1.2-2.2-1.7-3.4c-0.1-0.3-0.3-0.8-0.2-1.1c1.8-3.9,2.5-8.1,4.2-12c1.7-4,2.2-8.5,3-12.8c0.7-4.1,1.1-8.2,1.6-12.3
		c0.3-2.9,0.7-5.7,0.8-8.6c0.6-4.6,0.4-8.9,0.3-13.2C299.3,138.6,299.1,134.7,298.9,130.9L298.9,130.9z M48.2,254.1
		c-0.7-0.8-1.3-1.7-2-2.5l0.3-0.3c1.1,1.2,2.2,2.4,3.3,3.7C49.2,254.7,48.5,254.5,48.2,254.1z M49.8,255c0.3-0.1,0.6-0.1,0.9-0.2
		c0.3,0.5,0.5,1.1,0.8,1.7C50.1,256.4,49.4,255.8,49.8,255L49.8,255z M153.7,296.3V296c1.9-0.2,3.7-0.4,5.6-0.6v0.3
		C157.4,296,155.6,296.2,153.7,296.3L153.7,296.3z M178.9,293.7c-1.4,0.3-2.9,0.5-4.3,0.7c-0.5,0.1-1.1,0.6-1.3-0.3
		c-0.2,0.1-0.4,0.1-0.6,0.2c0.5,1.5,1.7,0.3,2.7,0.9c-2.2,0.3-4.3,0.5-6.4,0.8v-0.2c0.6-0.1,1.3-0.2,1.9-0.3v-0.3
		c-1-0.1-2-0.2-3-0.2c-0.3,0-0.7,0.4-1,0.5c-0.4,0.1-0.8,0.2-1.3,0.2c-1.7,0.1-3.4,0.1-5,0.2c-0.1,0-0.3-0.1-0.4-0.1v-0.3
		c6.7-0.9,13.3-1.8,20-2.7c0.1,0.2,0.1,0.4,0.2,0.6C179.8,293.4,179.4,293.6,178.9,293.7L178.9,293.7z M180.4,292.7
		c2.3-0.3,4.4-0.5,6.6-0.8C182.4,293.2,180.9,293.4,180.4,292.7L180.4,292.7z M93.3,90.7c3.2-4.4,6.5-8.8,9.7-13.3
		c1-1.3,1.8-2.7,2.8-4c0.3-0.4,0.7-0.6,1.2-1l-0.1-0.2c0.4-0.5,0.8-0.9,1-1.3c0.5-0.8,0.8-1.7,1.2-2.6c0.1-0.2,0.4-0.4,0.4-0.4
		c1.4,0.7,1.4-0.8,1.9-1.3c0.9-1,1.8-2.1,2.6-3.1c0.6-0.8,1.2-1.5,1.7-2.4c0.1-0.3-0.2-0.8-0.3-1.2h-0.3c0.3-0.2,0.6-0.5,0.9-0.7
		c0.1,0,0.1,0,0.2-0.1c0.6-0.9,1.2-1.8,1.8-2.6c1.2-1.6,2.5-3.2,3.9-4.6c-0.2,0.5-0.4,1-0.6,1.4c0.1,0,0.1,0.1,0.2,0.1
		c1.2-1.6,2.5-3.1,3.7-4.7c-0.1-0.1-0.2-0.2-0.3-0.2c-0.5,0.5-0.9,1-1.4,1.5c-0.1-0.1-0.2-0.2-0.3-0.2c1-1.3,2-2.6,3-4.1
		c0.2,0.3,0.4,0.7,0.8,1.5c0.4-1,0.8-1.7,1.1-2.4c-0.3,0.3-0.7,0.6-1,0.9l-0.3-0.3l1.8-2.7c1.9-2.7,3.8-5.5,5.7-8.2
		c0.7-1,1.6-1.8,2.2-2.8c1.9-3.8,4.9-6.8,7.2-10.3c0.5-0.7,1.2-1.3,1.8-1.9c0.5-0.6,0.9-0.4,1.3,0.1c2.7,3.4,5.4,6.9,8.1,10.3
		c2,2.5,4,4.9,5.9,7.5c2.3,3.2,4.5,6.4,6.8,9.6c2.6,3.7,5.2,7.4,7.7,11.2c3.8,5.6,7.4,11.2,11.2,16.8c2.8,4.1,5.6,8.1,8.3,12.2h-5.1
		c-4.7-0.1-9.5-0.5-14.2-0.3c-6.4,0.3-12.9,1-19.3,1.5c-8.1,0.7-16.3,0.8-24.4,0.8c-2.9,0-5.8,0.4-8.7,0.6
		c-3.5,0.2-6.9,0.4-10.4,0.5c-4.1,0.2-8.1,0.3-12.2,0.4C98.2,90.8,95.8,90.7,93.3,90.7L93.3,90.7z M208,136.7v0.9
		c-0.1,0-0.2,0.1-0.4,0.1c-0.4-1.4-0.8-2.9-1.3-4.3c-1-2.9-2.1-5.8-3.9-8.4c-2-2.8-3.8-5.7-5.8-8.6c-0.5-0.7-1.2-1.3-1.8-1.9
		c-2.1-2.3-4.2-4.7-6.9-6.4c-4-2.5-8.2-4.6-12.5-6.4c-1.2-0.5-2.4-1.1-3.5-1.8h2.4l17.1-0.3c3.7-0.1,7.3-0.1,11-0.3
		c0.9,0,1.4,0.3,1.9,1.1c0.9,1.5,1.8,3,2.8,4.5c0.1,0.2,0.3,0.5,0.3,0.8c0,2.2,0,4.5,0.1,6.7c0.1,2.3,0.3,4.5,0.4,6.8
		c0,2.3-0.2,4.7-0.1,7.1C207.8,129.7,207.9,133.2,208,136.7L208,136.7z M100.4,103.2c4.7-0.2,9.2-0.5,13.8-0.7
		c3.6-0.2,7.3-0.3,10.9-0.5c1.5-0.1,2.9-0.2,4.4,0c-1.6,0.8-3.2,1.6-4.6,2.6c-1.8,1.2-3.5,2.8-5.3,4.1c-1.8,1.3-3.4,2.9-4.9,4.6
		c-1.9,2.3-4,4.3-6,6.5c-1.4,1.6-3,3.1-4.2,4.8c-1.7,2.2-3.2,4.6-4.8,7.1C100.2,122.2,100.8,112.8,100.4,103.2L100.4,103.2z
		 M165.7,199.4c-3.2,0.8-6.5,1.7-9.8,2.1c-2.8,0.4-5.7,0.3-8.6,0.3c-2.6,0-5.1-0.1-7.7-0.3c-2.9-0.3-5.8-0.6-8.6-1.9
		c-2.4-1.1-4.9-2.1-7.3-3.3c-2.4-1.2-4.8-2.6-6.6-4.8c-1.3-1.6-3.1-2.9-4.7-4.3c0.3,1.2,1,2.2,2.1,2.9c-0.5,0.6-1.2,0.3-2.2-1.3
		c-0.3,0.2-0.6,0.3-0.8,0.4c0.3-0.7,0.6-1.4,0.9-2c-0.4-0.8-0.9-1.7-1.3-2.5c-0.8-1.3-1.6-2.7-2.3-4c-0.2-0.3-0.2-0.6-0.4-0.9
		c-0.5-0.6-1-1.2-1.4-1.8c-0.8-1.2-1.5-2.5-2.5-3.7c0,0.3,0.1,0.6,0.1,1c-0.1,0-0.2,0.1-0.2,0.1l-2.1-5.1c-0.1,0-0.1,0-0.2,0.1
		l1.8,6.6c-0.1,0-0.2,0.1-0.3,0.1c-0.3-0.4-0.6-0.8-0.8-1.3c-0.2-0.8-0.8-0.8-1.3-0.5c-0.3,0.2-0.5,0.9-0.4,1.2
		c0.7,1.7,1.5,3.4,2.3,5.1c0.2,0.6,0.4,1.1,0.7,1.7c0.1,0.2,0.4,0.4,0.4,0.7c0.4,0.8,0.7,1.6,1.2,2.3c0.9,1.2,1.9,2.4,2.8,3.6
		c0.9,1.2,1.7,2.5,2.5,3.7c0.1,0.2,0.4,0.2,0.5,0.3c0.5,1.5,2.2,2.6,3.4,2c0.3,2.3,2.8,3.1,3.8,5.3c-1-0.4-1.9-0.8-2.9-1.3
		c-0.1,0.1-0.1,0.2-0.2,0.4c1.2,0.6,2.4,1.2,3.5,1.9c1,0.6,2,1.2,2.9,1.9c1.2,1.1,2.6,1.7,4.3,2.1c-0.1-0.3-0.2-0.4-0.2-0.4
		c2.8,1.3,5.7,2.7,7.9,3.8c-10.4,0.2-21.5,0.4-33,0.6c0-1.9-0.1-3.7-0.1-5.6c0-0.8,0.2-1.5,0.1-2.3c-0.3-4.6-0.3-9.2-0.9-13.7
		c-0.6-4.8-0.6-9.5-0.5-14.3c0.1-2.6-0.1-5.3-0.2-7.9c0-3.5,0-6.9,0.1-10.4c0-0.5,0.2-0.9,0.4-1.4h0.3c0.1,0.2,0,0.5,0.2,0.6
		c0.3,0.3,0.8,0.8,1,0.7c0.6-0.4,1.5-0.8,1.7-1.4c0.5-1.2,0.7-2.5,0.7-3.7c0-0.9,0.4-1.5,0.8-2.1c0.2-0.3,0.3-0.6,0.5-1
		c-0.4-0.3-0.8-0.5-1.3-0.9c0.4-1.1,0.3-2.4,1.8-3c0.2-0.1,0.2-0.6,0.3-0.9c0.1-0.8,0.2-1.7,0.3-2.5c0.2,0.3,0.3,0.4,0.5,0.6
		c0.1-0.1,0.1-0.2,0.2-0.3c0-0.4-0.1-1.2,0-1.2c1.2-0.2,0.7-1.5,1.3-2.1c0.1-0.1-0.1-0.4-0.1-0.6c0-0.2,0-0.5,0.1-0.5
		c1.4-0.3,1.2-1.8,2.1-2.5c0.3-0.2,0.4-0.5,0.8-1c0.8,1.4-0.6,2.1-0.7,3.1c1.7-1,2.2-3.4,1.2-4.1c0.4-0.3,0.8-0.7,1.1-1.1
		c1.1-1.2,2.3-2.3,3.3-3.5c0.7-0.9,1.1-2,1.8-2.9c0.4-0.5,1.2-0.9,1.8-1.2c1.8-1,3.5-2.1,4.6-3.8c0.2-0.2,0.5-0.4,0.8-0.6
		c0.3-0.2,0.9-0.2,1-0.5c0.1-0.2-0.2-0.7-0.4-1c0.4-0.2,0.8-0.6,1.6-1c-0.3,0.6-0.4,1-0.6,1.4l0.5,0.5c0.9-0.7,2.3-1.5,3.2-2.1
		c0-0.1-0.5-0.5-0.5-0.5c-0.6,0.3-1.5,0.8-2.4,1.2c0.2-0.3,0.2-0.5,0.3-0.6c1.4-0.9,2.8-1.8,4.3-2.5c3.5-1.6,7-3.2,10.5-4.7
		c0.6-0.3,1.4-0.1,2.1-0.1c0.3,0,0.5,0,0.8-0.1c1.6-0.5,3.2-1,4.8-1.4c0.7-0.2,1.5-0.3,2.2-0.3c3,0.1,6,0.1,9,0.3
		c1.3,0.1,2.5,0.4,3.7,0.8c1.5,0.5,3,1.2,4.5,1.9c1.7,0.9,3.3,1.9,4.9,3c2.9,1.9,5.6,4,8.5,5.7c2.8,1.7,5,4,6.8,6.6
		c2.2,3.1,4.7,5.9,5.7,9.7l1.5,6.6c0.3,1.2,1,2.4,0.7,3.8c-0.5,2.5-0.9,5.1-1.3,7.6c-0.2,1-0.4,2-0.3,3c0.2,3.1-1,5.8-2.2,8.6
		c-0.4,0.9-1,1.8-1.5,2.8c0.2,0.2,0.5,0.3,0.8,0.4l0.9-1.8c0.1,0,0.1,0,0.2,0.1c-0.5,1.4-0.9,2.9-1.4,4.3c-1.2,3.1-2.4,6.3-3.9,9.3
		c-0.8,1.7-2.2,3.1-3.2,4.7c-1,1.4-1.8,2.9-2.8,4.2c-0.9,1.1-1.8,2.2-3,3c-2.7,2-5.5,4-8.4,5.6C169.8,198.4,167.7,199,165.7,199.4
		L165.7,199.4z M112.4,194.1l-0.1,0.1c-0.2-0.1-0.5-0.2-0.7-0.4l-2.4-3.6c-0.2-0.3-0.3-0.6-0.2-1
		C110.1,190.9,111.2,192.5,112.4,194.1L112.4,194.1z M174.6,207.8c4.5-1.9,8.2-4.6,11.6-7.7c0.5-0.5,1-1,1.6-1.4
		c4.2-2.6,7.3-6.2,10.1-10.2c3.2-4.6,5.3-9.8,7.9-14.7c0.2-0.4,0.4-0.7,0.6-1.1c-0.2,11.4,1.1,22.6,2.6,33.9
		C197.7,207,186.2,207.4,174.6,207.8L174.6,207.8z M275.9,204.8c-0.1,0.2-0.3,0.4-0.4,0.6c-0.1-0.2-0.1-0.5-0.2-0.9
		c-0.6,1.6-1.9,0.8-2.8,0.8c-5.4,0.1-10.9,0.1-16.3,0.1c-5.2,0-10.5,0-15.7,0.1c-1.7,0-3.5,0.4-5.2,0.5c-4.1,0.2-8.2,0.3-12.3,0.4
		c-0.3,0-0.6-0.5-1.1-0.9c-0.2,0.3-0.4,0.6-0.6,0.9c-0.1-0.2-0.3-0.4-0.5-0.7c-0.1,0.3-0.2,0.6-0.3,0.8h-0.3
		c-0.2-1.4-0.6-2.7-0.6-4.1c0-3,0.3-6,0.4-9c0.1-1.4,0-2.7,0-4c0.4,0.3,0.7,0.5,1.1,0.8c0.2-0.4,0.4-0.7,0.6-1c0,0-0.2-0.1-0.4-0.3
		c0.2-0.1,0.4-0.3,0.4-0.4c0.1-0.3,0.3-0.6,0.3-0.8c0-0.7-0.2-1.3-0.3-1.9c0.1,0,0.2,0,0.3-0.1l0.6,3h0.3c-0.4-0.7,0.9-1.3-0.2-2.1
		c-0.1-0.1,0.1-0.7,0.1-1c-0.3-0.6-0.5-1.2-0.8-2c0.1-0.1,0.4-0.2,0.7-0.3c-0.4-0.2-0.7-0.4-1-0.5c1-0.9,1-1.4,0.1-2.4
		c0.2-0.1,0.4-0.1,0.4-0.2c0-0.9,0-1.8-0.2-2.7c-0.2-1,0.3-2.2-1.2-2.8c0.1,0.3,0.2,0.6,0.4,0.8c0,0-0.3,0.1-0.6,0.3
		c-1.3-1.2-0.5-2.8-0.8-4.6c0.7,0.2,1.2,0.4,1.7,0.6c-0.2-0.7-0.7-1.5-1-2.4h-0.4v-6.6c0,0.1,0.7,0.1,1.1,0.2c0-0.1,0.1-0.2,0.1-0.3
		c-0.3-0.4-0.7-0.8-1.1-1.3l0.2-0.2c-0.8-1-0.4-2.4-0.4-2.7v-7c1,1-0.5,2.3,1,2.9v-1h-0.1c-0.1-1.5-0.1-3-0.2-4.5h-0.2
		c-0.1,0.2-0.1,0.3-0.2,0.5h-0.2l0.6-23.9c1,1.3,2.1,2.5,2.8,3.8c2.3,4.2,5.3,7.8,8.1,11.6c2.4,3.3,4.6,6.9,6.8,10.3
		c2.7,4.1,5.3,8.2,8,12.3c2,3.1,4.1,6.2,6.2,9.2c1.9,2.7,3.9,5.3,5.9,7.9c1.7,2.3,3.5,4.6,5.2,6.9c2,2.8,4,5.6,6,8.3
		c1,1.4,2.1,2.8,3.2,4.2c0.6,0.8,1.5,1.4,2.1,1.9c-0.1,0-0.2,0-0.4-0.1c0.3,0.4,0.5,0.7,0.7,0.9C276.4,203.4,276.5,204,275.9,204.8
		L275.9,204.8z M281,179.8v-0.7C281,179.3,281.1,179.6,281,179.8L281,179.8z M284.4,135.7c-0.1,0-0.7-0.6-0.8-0.7
		c-0.1,0.3,0,0.6-0.2,1c-0.1-0.3-0.8-0.2-0.8-0.5c-0.1,1.4,0.6,2.8,0.5,4.2c0.3-0.2,1.5-0.3,1.8-0.6c0.1,0.1,0.3,0.2,0.4,0.2
		c-2,1.5-1.5,3-0.6,4.7c0.2,0.4,0.8,1.2,0.2,2c-0.2,0.2,0.1,0.8,0.2,1.3h0.3v0.2l-0.9,0.3c-0.2-0.3-1.4-0.9-1.4-1.4v5.1
		c1,0.3,1,1.7,1.4,2.4c0.2-0.2,0.3-0.5,0.4-0.8l0.1,0.1c-0.1,0.6-0.2,1.2-0.4,1.8c-0.2,0.9-0.4,1.7-0.5,2.6c0,0.1,0.2,0.3,0.2,0.4
		c-1.1,2.5-0.5,5.3-0.9,7.9c-0.3,1.9,0,3.9-0.2,5.9c-0.2,1.7-0.6,3.5-1,5.2c-0.1,0.3-0.3,0.4-0.8,0.6c0.2-1.2,0.1-2-0.1-3.1
		c-0.1,0-1.4-0.7-1.5-0.7c0,1.4,0.8,3.3,1.1,4.9c-0.3-0.1-1.5-0.8-1.6-0.8c-0.2,1.2-0.2,2.8-0.3,4.1c-0.1,1-1,1.9-1.1,3
		c0,0.6,0.7,1,0.6,2h0.8c0-2,0.9-3.8,0.9-5.9h0.3c0.1,0.2,0.4,0.4,0.3,0.5c-0.2,1.1-0.6,2.3-0.5,3.4c0,0.6,0.5,1.2,0.3,1.9
		c-0.2,0.6-0.3,1.2-0.4,2.1c-0.1-0.5-0.2-0.7-0.2-1c-0.1,0-1-0.1-1.1-0.1c-0.1,0.6,0.7,1.2,0.6,1.7c-0.1,0.1-0.2,0.1-0.4,0.2
		l-3.3-4.8c-2.6-3.8-5.2-7.6-7.8-11.5c-0.7-1-1.3-2-1.8-3c-3.1-5.3-6.5-10.4-10.3-15.3c-2.9-3.7-5.2-7.7-7.9-11.6
		c-2.5-3.7-5-7.3-7.5-11c-0.9-1.2-2-2.3-2.8-3.6c-2.6-4.1-4.9-8.3-7.5-12.4c-2.2-3.4-4.6-6.7-6.9-10c-0.8-1.1-1.6-2.3-2.4-3.5
		c-0.1-0.2-0.2-0.4-0.2-0.7c-0.2-2.2-0.4-4.4-0.5-6.5c0-2,0.2-4,0.2-6.1V88c0-0.5,0.1-0.9,0.1-1.4c0.1-0.1,0.2-0.3,0.3-0.4
		c-2.9,0-5.9-0.1-8.8,0c-1.9,0.1-2.9-0.7-4.2-2.1c-3.8-4.3-6.6-9.2-9.9-13.8c-3.1-4.4-6.3-8.7-9.5-13c-2.6-3.5-5.2-6.9-7.8-10.4
		c-2.9-4-5.7-8-8.7-12c-3.6-4.8-7.3-9.6-11-14.4c-1.7-2.2-3.6-4.3-5.5-6.6c1.3,0.2,2.5,0.4,3.7,0.5l4.8,0.3c3.6,0.3,7.2,0.5,10.8,1
		c3,0.4,6,1,9.1,1.5c6.6,1.1,13.1,2.9,19.4,5c3.7,1.2,7.3,2.8,10.9,4.3c8.1,3.3,15.8,7.3,23.4,11.5c2.4,1.3,3.8,3.4,5.6,5.3
		c2.6,2.7,5.2,5.4,7.7,8.2c2.9,3.3,5.6,6.7,8.4,10.1c2.5,3,5.1,6,7.6,9c0.8,0.9,1.4,2,2.1,3c1.6,2.4,3.4,4.7,4.8,7.3
		c1,1.9,1.6,4.1,2.3,6.2c1,3.1,2,6.1,3,9.2c0.7,2.3,1.3,4.7,1.8,7.1c0.4,1.6,0.3,3.3,0.8,4.9c0.6,2.1,0,4.4,0.6,6.5
		c0.1,0.2,0.2,0.5,0.3,0.7c0.4,0.4,0.7,0.8,0.1,1.4c-0.1,0.1-0.1,0.5,0,0.8c0.2-0.2,0.3-0.4,0.5-0.7c0,0.2,0.1,0.3,0.1,0.4
		c0,0.4-0.1,0.8,0,1.2c0,0.2,0.2,0.5,0.3,0.7c0.2-0.2,0.4-0.3,0.8-0.6c0.9,3.4,1,6.8,1,10.3c0,3.3,0.6,6.6-0.8,9.8
		C284.8,137.7,284.1,136.7,284.4,135.7L284.4,135.7z"/>
	<path class="st0" d="M220.6,174.6c0.1,0,0.2,0.1,0.2,0.1L220.6,174.6C220.7,174.5,220.7,174.5,220.6,174.6L220.6,174.6z
		 M236.3,273.5c-1.1,0.8-2.2,1.5-3.6,1.8c-0.1-0.1-0.1-0.2-0.2-0.3c1.1-0.7,2.3-1.4,3.4-2.1C236,273.1,236.2,273.3,236.3,273.5
		L236.3,273.5z M49,137.9c1.1-1.4,2.2-2.8,3.4-4.2c0.1,0.1,0.9,0.3,1,0.4c-1.1,1.4-2.6,3.3-3.7,4.8C49.5,138.7,49.2,138,49,137.9
		L49,137.9z M20.6,186.9c-0.8-1.7-1.6-3.5-2.4-5.2c0.3-0.2,0.6-0.3,0.9-0.4c1.1,1.6,1.6,3.5,2.4,5.2
		C21.5,186.5,20.7,186.9,20.6,186.9L20.6,186.9z M46.1,138.9c-0.6,0.9-1.2,1.9-1.8,2.8c-0.1-0.1-1.2,0.4-1.3,0.3
		c0.6-0.9,2.1-2.5,2.7-3.4C45.8,138.7,45.9,138.8,46.1,138.9L46.1,138.9z M225.7,277.6c0.1,0,0.1-0.1,0.2-0.1
		c0.7,0.1,1.5,0.2,2.3,0.2C226.8,278.6,226,278.5,225.7,277.6L225.7,277.6z M46.3,143.1c0.1-0.3,0.3-0.6,0.5-0.9
		c0.2,0,0.5-0.1,0.5-0.1c0.4-0.7,0.4-1.2,0.8-1.8c-0.1-0.1-0.2-0.1-0.3-0.2c-0.6,0.4-1.2,0.9-1.8,1.3c0.2,0.2,0.2,0.3,0.2,0.5
		c-0.8-0.1-1.1,0.3-1.5,1.4c-0.1,0.3-0.6,0.4-1.1,0.8c-0.1,0.2-0.2,0.7-0.4,1.2l0.1,0.1c-0.2,0.2-0.5,0.3-0.5,0.3
		c-0.6,0.6-1.3,1.1-1.9,1.7c-0.1,0.3-0.2,0.6-0.2,0.9c0.7-0.7,1.9-2,2.8-2.8l0.1,0.1c0.4-0.6,0.7-1.2,1.1-1.8
		c0.1,0.1,0.1,0.2,0.2,0.3c-0.3,0.8-0.6,1.7-0.9,2.5c-0.2,0.1-0.5,0.3-0.5,0.2c-0.4,0.3-0.7,0.7-1.1,1l-1.8,1.2
		c-1,0.9-2,1.7-3.1,2.6c-0.7,1.1-1.4,2.1-2.2,3.4c1.2-0.3,1.5,0.2,1.4,1.2c1.4,0.2,1.5-0.9,1.9-1.7c0.1-0.2,0.2-0.6,0.4-0.7
		c0.9-0.8,1.9-1.5,2.9-2.3c0.2-0.2,0.2-0.6,0.2-0.9c0-0.1-0.5-0.1-0.8-0.2c0.9-1,2.2-2.7,3.1-3.8c0.5-0.3,1-0.7,1-1
		c-0.1-1.1,0.6-1.4,1.4-1.8C46.4,143.5,46.3,143.2,46.3,143.1L46.3,143.1z"/>
	<path class="st0" d="M48.3,142c-0.4,0.7-0.8,1.3-1.2,2l-0.6-0.3c-0.4,2.3-1.8,4.3-3.2,4.7c0.4,0.2,0.8,0.4,1.1,0.3
		c0.3-0.1,0.5-0.6,0.7-0.9l2.7-3.9l0.9-1.5L48.3,142L48.3,142z M15,185.9c0.5,0,1,0.1,1.6,0.1c0-0.4,0.5-0.3,0.5-0.7h0.3
		c0,0.5,0.1,0.9,0.1,1.4h-2.1C15.3,186.6,14.9,186,15,185.9L15,185.9z M14.2,181.3c-0.3-0.3-0.8-0.6-0.8-0.9
		c-0.1-0.4,0.2-0.9,0.5-1.4c0.2,0.7,0.3,1.3,0.5,2C14.3,181.1,14.2,181.2,14.2,181.3L14.2,181.3z M16.7,174.9c0.4,1,0.8,2.1,1.2,3.1
		c-0.3,0.1-0.6,0.2-0.8,0.4c-0.4-1-0.9-2.1-1.3-3.1C16.1,175.1,16.4,175,16.7,174.9L16.7,174.9z M239.1,270.6
		c0.5-0.2,1.1-0.3,1.9-0.5c-0.9,0.7-1.6,1.2-2.2,1.8c-0.1-0.1-0.2-0.2-0.3-0.2C238.7,271.3,238.9,271,239.1,270.6L239.1,270.6z
		 M116.3,59.1c0.6-0.4,1.1-0.7,1.7-1.1l0.2,0.2c-0.6,0.8-1.1,1.6-1.8,2.6c-0.1-0.7-0.1-1.1-0.2-1.6
		C116.1,59.2,116.2,59.2,116.3,59.1L116.3,59.1z M145.6,109.8c0.9-0.4,1.8-0.8,2.9-1.3c-0.1,0.6-0.1,1-0.1,1.4
		c-0.3-0.1-0.7-0.2-1-0.2c-0.6,0.1-1.7,0.9-2.2,1C145.1,110.7,145.6,109.9,145.6,109.8L145.6,109.8z M220.6,194.6
		c0.2,1,2.1,1.5,0.2,2.5c0.3,0.2,0.6,0.3,0.9,0.5c0,0.2-0.1,0.3-0.2,0.4c-0.2,0.1-0.6,0.3-0.8,0.2c-0.1,0-0.3-0.4-0.3-0.6
		C220.4,196.7,220.5,195.8,220.6,194.6L220.6,194.6z"/>
</g>
</svg>
