<?xml version="1.0" encoding="utf-8"?>
<!-- Generator: Adobe Illustrator 20.1.0, SVG Export Plug-In . SVG Version: 6.00 Build 0)  -->
<svg version="1.1" id="Layer_1" xmlns="http://www.w3.org/2000/svg" xmlns:xlink="http://www.w3.org/1999/xlink" x="0px" y="0px"
	 viewBox="0 0 36.9 30" style="enable-background:new 0 0 36.9 30;" xml:space="preserve">
<title>twitter</title>
<path d="M36.9,3.5c-1.4,0.6-2.8,1-4.3,1.2c1.6-0.9,2.8-2.4,3.3-4.2c-1.5,0.9-3.1,1.5-4.8,1.8c-2.9-3-7.7-3.2-10.7-0.3
	c-2,1.8-2.8,4.6-2.2,7.2C12.1,9,6.4,6.1,2.6,1.4c-2,3.5-1,7.9,2.3,10.1c-1.2,0-2.4-0.4-3.4-0.9v0.1c0,3.6,2.5,6.7,6.1,7.4
	c-1.1,0.3-2.3,0.4-3.4,0.1c1,3.1,3.8,5.2,7.1,5.3c-2.7,2.1-6,3.2-9.4,3.2c-0.6,0-1.2,0-1.8-0.1C3.5,28.8,7.5,30,11.6,30
	c13.9,0,21.5-11.5,21.5-21.5c0-0.3,0-0.7,0-1C34.6,6.4,35.9,5.1,36.9,3.5L36.9,3.5z"/>
</svg>
