<svg width="905" height="382" viewBox="268 184 905 382" xmlns="http://www.w3.org/2000/svg" xmlns:xlink="http://www.w3.org/1999/xlink"><defs><path id="a" d="M0 0h905v382H0z"/></defs><g fill="none" fill-rule="evenodd" transform="translate(268 184)"><mask id="b" fill="#fff"><use xlink:href="#a"/></mask><use fill="#2E2E2E" xlink:href="#a"/><rect fill="#373737" mask="url(#b)" x="24" y="28" width="857" height="354" rx="2"/><g mask="url(#b)"><path fill="#FFF" d="M453 28h429v354H453z"/><g transform="translate(474 46)" fill="#E0E0E0"><rect y="70" width="189" height="82" rx="2"/><rect y="162" width="189" height="13" rx="2"/><rect y="185" width="162" height="13" rx="2"/><rect x="199" y="70" width="189" height="82" rx="2"/><rect x="199" y="162" width="181" height="13" rx="2"/><rect x="199" y="185" width="130" height="13" rx="2"/><rect y="231" width="189" height="82" rx="2"/><rect y="323" width="189" height="13" rx="2"/><rect y="346" width="162" height="13" rx="2"/><rect x="199" y="231" width="189" height="82" rx="2"/><rect x="199" y="323" width="181" height="13" rx="2"/><rect x="199" y="346" width="130" height="13" rx="2"/><circle cx="15.5" cy="15.5" r="15.5"/><rect x="353" y="9" width="35" height="13" rx="1"/><rect x="308" y="9" width="35" height="13" rx="1"/><rect x="263" y="9" width="35" height="13" rx="1"/></g></g><g mask="url(#b)"><g transform="translate(24 28)"><path fill="#2E2E2E" d="M429 0H0v354h429z"/><rect fill="#FFF" x="16" y="21" width="36" height="13" rx="1"/><rect fill="#FFF" x="110" y="21" width="123" height="13" rx="1"/><rect fill="#FFF" x="16" y="69" width="298" height="13" rx="1"/><rect fill="#FFF" x="16" y="93" width="346" height="13" rx="1"/><rect fill="#FFF" x="16" y="117" width="217" height="13" rx="1"/><rect fill="#FFF" x="16" y="141" width="94" height="13" rx="1"/><rect fill="#FFF" x="16" y="164" width="265" height="13" rx="1"/><rect fill="#FFF" x="16" y="187" width="240" height="13" rx="1"/><text font-family="RobotoMono-Regular, Roboto Mono" font-size="24"><tspan x="14" y="234" fill="#FFF">$ gulp</tspan></text></g></g></g></svg>