<svg id="Layer_1" xmlns="http://www.w3.org/2000/svg" viewBox="0 0 793.7 378.7"><style>.st0{fill:#f3f3f3}.st1{fill:#191919}.st2,.st3{fill:#fff}.st3{opacity:.5;enable-background:new}.st4{fill:#282828}</style><title>computer-illu</title><path class="st0" d="M396.8 30.5h360.3c2.2 0 4 1.8 4 4v344.2H396.8V30.5z"/><path class="st1" d="M794.2 35.5C794.2 16.2 778 .8 758.7.8H35C15.9.6.3 16 .2 35.2v343.6h397v-348h360c2.2.1 4 1.9 4 4.1v343.9h33V35.5z"/><path class="st2" d="M38.7 46c.1.7.7 1.2 1.6 1.2s1.5-.4 1.5-1.2-.4-.9-1.3-1.1l-.6-.2c-1.3-.3-1.9-1-1.9-2 0-1.2.9-2 2.4-2 1.2-.1 2.2.7 2.3 1.9v.1h-1c-.1-.7-.7-1.2-1.4-1.1-.8 0-1.3.4-1.3 1.1s.4.9 1.2 1.1l.6.2c1.4.3 2 .9 2 2 0 1.3-1 2.1-2.5 2.1s-2.4-.8-2.5-2.1h.9zm7.7-4.9v1.5h2.1v.8h-2.1v2.9c0 .5.4.8 1 .8h1v.8h-1.1c-1.4 0-2-.5-2-1.6v-2.9H44v-.8h1.4v-1.5h1zm3.9 5.3c0-1 .7-1.5 1.9-1.6l1.4-.1v-.5c0-.6-.4-1-1.1-1-.5-.1-.9.2-1.1.7h-1c.2-1 1.1-1.6 2.1-1.5 1.3 0 2 .6 2 1.8v3.6h-.9V47h-.1c-.3.6-.9.9-1.6.9-.9.1-1.6-.6-1.6-1.5 0 .1 0 0 0 0zm3.3-.4v-.6l-1.3.1c-.7 0-1.1.3-1.1.8s.4.8 1 .8c.7.1 1.3-.4 1.4-1.1zm5.1-2.1c.1-.9.9-1.6 1.8-1.5.3 0 .5 0 .8.1v1.1c-.3-.1-.6-.1-.9-.2-1.2 0-1.9.8-1.9 2V47h1.6v.8h-3.6V47h1v-3.8h-1.2v-.8h2.1V44l.3-.1zm6.2-2.8v1.5H67v.8h-2.1v2.9c0 .5.4.8 1 .8h1v.8h-1.1c-1.4 0-2-.5-2-1.6v-2.9h-1.3v-.8h1.4v-1.5h1zm4.1 6.8v-.8h1.8v-3.7H69v-.8h2.7v4.5h1.7v.8H69zm1.5-7.3c0-.4.3-.8.7-.8.4 0 .8.3.8.7s-.3.8-.7.8c-.5.1-.8-.2-.8-.7-.1.1-.1 0 0 0zm4.5 2h1v.9c.3-.7 1-1 1.7-1 1.2 0 1.8.7 1.8 2V48h-1v-3.3c0-.9-.4-1.3-1.2-1.3-.7 0-1.3.6-1.3 1.3v3.2h-1v-5.3zm6.1 5.9h1c.1.4.6.7 1.3.7.9 0 1.4-.4 1.4-1.2v-1h-.1c-.3.6-.9 1-1.6.9-1.1 0-2-.9-2-2v-1.2c-.1-1.1.6-2.1 1.7-2.2h.2c.7-.1 1.3.3 1.6.9h.1v-.8h1v5.3c0 1.2-.9 2-2.4 2-1.3 0-2.1-.6-2.2-1.4zm2.2-1.4c.7 0 1.3-.6 1.4-1.3v-.9c.1-.7-.5-1.4-1.2-1.5s-1.4.5-1.5 1.2v.9c-.1.7.4 1.4 1.3 1.6-.1 0 0 0 0 0zm12.2-6.2c2 0 3 1.2 3 3.5s-1 3.5-3 3.5h-2.1v-7h2.1zm-1 6.1h.9c1.4 0 2.1-.8 2.1-2.6s-.7-2.6-2.1-2.6h-.9V47zm9.8-.5c-.2 1-1.2 1.6-2.2 1.5-1.2.1-2.2-.8-2.4-1.9v-1.2c0-1.3.9-2.3 2.2-2.4 1.3 0 2.3.9 2.4 2.2v.9h-3.6v.2c-.1.7.5 1.4 1.2 1.5h.2c.5.1 1-.2 1.2-.7l1-.1zm-3.6-1.7h2.6c0-1-.5-1.5-1.3-1.5s-1.3.5-1.3 1.5zm6.1-2.2l1.4 4.3h.1l1.4-4.3h1l-1.9 5.3h-1.1l-1.9-5.3h1zm9.9 3.9c-.2 1-1.2 1.6-2.2 1.5-1.2.1-2.2-.8-2.4-1.9v-1.2c0-1.3.9-2.3 2.2-2.4 1.3 0 2.3.9 2.4 2.2v.9h-3.6v.2c-.1.7.5 1.4 1.2 1.5h.2c.5.1 1-.2 1.2-.7l1-.1zm-3.6-1.7h2.6c0-1-.5-1.5-1.3-1.5s-1.3.5-1.3 1.5zm5.3 3.1v-.8h1.8v-5.8h-1.7v-.8h2.7v6.6h1.7v.8h-4.5zm6-2.2v-.8c0-1.3 1.1-2.4 2.4-2.4s2.3 1.1 2.3 2.4v.8c0 1.3-1 2.4-2.3 2.4-1.4-.1-2.4-1.1-2.4-2.4zm1-.8v.7c0 1 .5 1.6 1.4 1.6s1.4-.6 1.4-1.6v-.7c0-1-.5-1.6-1.4-1.6s-1.5.6-1.4 1.6zm9.9-.1v1c.1 1.1-.6 2.1-1.7 2.2h-.3c-.7.1-1.3-.3-1.5-.9h-.1v2.6h-1v-7.1h1v.8h.1c.3-.6.9-1 1.6-.9 1.1 0 2 .9 2 2-.1.1-.1.2-.1.3zm-3.6.1v.8c-.1.7.4 1.4 1.2 1.5.7.1 1.4-.4 1.5-1.2v-1.1c.1-.7-.4-1.4-1.2-1.5-.7-.1-1.4.4-1.5 1.2-.1 0-.1.2 0 .3zm10 3h-.9v-3.7c0-.6-.2-.9-.6-.9s-.7.4-.7 1v3.6h-.9v-3.7c0-.6-.2-.9-.6-.9s-.7.4-.7 1v3.6h-.9v-5.3h.9v.8h.1c.1-.5.5-.9 1-.9s.9.4 1 .8h.1c.1-.5.5-.9 1.1-.8.7 0 1.1.5 1.1 1.5v3.9zm5.9-1.4c-.2 1-1.2 1.6-2.2 1.5-1.2.1-2.3-.7-2.4-1.9v-1.3c0-1.3.9-2.3 2.2-2.4 1.3 0 2.3.9 2.4 2.2v.9H144v.2c-.1.7.5 1.4 1.2 1.5h.2c.5.1 1-.2 1.2-.7h1zm-3.6-1.7h2.6c0-1-.5-1.5-1.3-1.5s-1.3.5-1.3 1.5zm5.2-2.2h.9v.9h.1c.3-.7 1-1 1.7-1 1.2 0 1.8.7 1.8 2V48h-1v-3.3c0-.9-.4-1.3-1.1-1.3-.7 0-1.3.5-1.4 1.3V48h-1v-5.4zm8.4-1.5v1.5h2.1v.8h-2.1v2.9c0 .5.4.8 1 .8h1v.8h-1.1c-1.4 0-2-.5-2-1.6v-2.9h-1.4v-.8h1.4v-1.5h1.1zm4.7 4.9c.1.7.7 1.2 1.6 1.2s1.5-.5 1.5-1.2-.3-.9-1.3-1.1l-.6-.2c-1.3-.3-1.9-1-1.9-2 0-1.2.9-2 2.4-2 1.2-.1 2.2.7 2.3 1.9v.1h-1c-.1-.7-.7-1.2-1.4-1.1-.8 0-1.4.4-1.4 1.1s.4.9 1.2 1.1l.6.2c1.4.3 1.9.9 1.9 2 0 1.3-1 2.1-2.5 2.1s-2.5-.8-2.5-2l1.1-.1zm10 .5c-.2 1-1.2 1.6-2.2 1.5-1.2.1-2.2-.8-2.4-1.9v-1.2c0-1.3.9-2.3 2.2-2.4 1.3 0 2.3.9 2.4 2.2v.9h-3.6v.2c-.1.7.5 1.4 1.2 1.5h.2c.5.1 1-.2 1.2-.7l1-.1zm-3.6-1.7h2.6c0-1-.5-1.5-1.3-1.5s-1.3.5-1.3 1.5zm7.4-.9c.1-.9.9-1.6 1.9-1.5.3 0 .5 0 .8.1v1.1c-.3-.1-.6-.1-.9-.2-1.2 0-1.9.8-1.9 2V47h1.6v.8H174V47h1v-3.8h-1.2v-.8h2.2V44l.1-.1zm4.8-1.3l1.4 4.3h.1l1.4-4.3h1l-1.9 5.3h-1.1l-1.9-5.3h1zm9.9 3.9c-.2 1-1.2 1.6-2.2 1.5-1.2.1-2.2-.8-2.4-1.9v-1.2c0-1.3.9-2.3 2.2-2.4 1.3 0 2.3.9 2.4 2.2v.9h-3.6v.2c-.1.7.5 1.4 1.2 1.5h.2c.5.1 1-.2 1.2-.7l1-.1zm-3.5-1.7h2.6c0-1-.5-1.5-1.3-1.5s-1.3.5-1.3 1.5zm7.4-.9c.1-.9.9-1.6 1.9-1.5.3 0 .5 0 .8.1v1.1c-.3-.1-.6-.1-.9-.2-1.2 0-1.9.8-1.9 2V47h1.6v.8h-3.6V47h1.1v-3.8h-1.2v-.8h2.1l.1 1.5zM200 47c0-.5.5-.9 1-.9s.9.5.9 1-.4.9-.9.9c-.6 0-1-.4-1-1zm6.1 0c0-.5.5-.9 1-.9s.9.5.9 1-.4.9-.9.9-1-.4-1-1zm6.2 0c0-.5.5-.9 1-.9s.9.5.9 1-.4.9-.9.9c-.6 0-1-.4-1-1zM44.2 84.7l3.4-8.6h1l-3.4 8.6h-1zm24.7 0l3.4-8.6h1l-3.4 8.6h-1zm18.2.8v-.8h5.1v.8h-5.1zm18.9-.8l3.4-8.6h1l-3.4 8.6h-1zm15.8 0l-3.4-8.6h1l3.4 8.6h-1zm33.4-.8v-7h.9l2.8 5.2h.1v-5.3h.9v7h-.9l-2.9-5.3h-.1v5.3l-.8.1zm8.6-4.3l-1 4.3h-.9l-1.2-7h.9l.4 2.7.4 2.9h.1l.9-4h.9l.9 4h.1l.4-2.9.4-2.7h.9l-1.2 7h-.9l-1.1-4.3zm7.3 2.4h-2.3l-.6 1.9h-1l2.2-7h1.1l2.2 7h-1.1l-.5-1.9zm-.2-.8L170 78l-1 3.1 1.9.1zM38 96.7l3.4-8.6h1L39 96.7h-1zm15.8 0l-3.4-8.6h1l3.4 8.6h-1zm8.9 0l3.4-8.6h1l-3.4 8.6h-1zm15.8 0l-3.4-8.6h1l3.4 8.6h-1zm2.8 0l3.4-8.6h1l-3.4 8.6h-1zm15.7 0l-3.4-8.6h1l3.4 8.6h-1zm2.8 0l3.4-8.6h1l-3.4 8.6h-1zm12-3.5v-.9h5.2v.9h-5.2zm16.1 3.5l-3.4-8.6h1l3.4 8.6h-1zm32.2-.8h-4.3v-7h1V95h3.3v.9zm1.4-2.2v-.8c0-1.3 1-2.4 2.3-2.4s2.4 1 2.4 2.3v.8c0 1.3-1 2.4-2.3 2.4-1.4 0-2.4-1-2.4-2.3zm1-.8v.7c0 1 .5 1.6 1.4 1.6s1.4-.6 1.4-1.6v-.7c0-1-.5-1.6-1.4-1.6s-1.5.6-1.4 1.6zm8.8-.6c-.1-.6-.6-1-1.2-1-.9 0-1.3.6-1.3 1.7v.4c0 1.1.5 1.7 1.3 1.7.6 0 1.1-.4 1.2-1h1c-.1 1.1-1.1 1.9-2.2 1.8-1.2.1-2.2-.8-2.3-2v-1.1c-.2-1.2.7-2.3 1.9-2.4h.5c1.1-.1 2.1.7 2.2 1.8l-1.1.1zm2.6 2.1c0-.9.7-1.5 1.9-1.6l1.4-.1v-.5c0-.6-.4-1-1.1-1-.5-.1-.9.2-1.1.7h-1c.2-1 1.1-1.6 2.1-1.5 1.3 0 2 .6 2 1.8v3.6h-.9V95h-.1c-.3.6-.9.9-1.6.9-.8.1-1.6-.6-1.6-1.5 0 .1 0 0 0 0zm3.3-.4v-.6l-1.3.1c-.7 0-1.1.3-1.1.8s.4.8 1 .8c.7.1 1.3-.4 1.4-1.1zm3 1.9v-.8h1.8v-5.8h-1.7v-.8h2.7v6.6h1.7v.8h-4.5zm14.2-7c2 0 3 1.2 3 3.5s-1 3.5-3 3.5h-2.1v-7h2.1zm-1 6.1h.9c1.4 0 2.1-.8 2.1-2.6s-.7-2.6-2.1-2.6h-.9V95zm9.8-.5c-.2 1-1.2 1.6-2.2 1.5-1.2.1-2.2-.8-2.4-1.9v-1.2c0-1.3.9-2.3 2.2-2.4 1.3 0 2.3.9 2.4 2.2v.9h-3.6v.2c-.1.7.5 1.4 1.2 1.5h.2c.5.1 1-.2 1.2-.7l1-.1zm-3.6-1.7h2.6c0-.9-.5-1.5-1.3-1.5s-1.3.5-1.3 1.5zm6.1-2.2l1.4 4.3h.1l1.4-4.3h1l-1.9 5.3h-1.1l-1.9-5.3h1zm9.9 3.9c-.2 1-1.2 1.6-2.2 1.5-1.2.1-2.3-.7-2.4-1.9v-1.3c0-1.3.9-2.3 2.2-2.4 1.3 0 2.3.9 2.4 2.2v.9H212v.2c-.1.7.5 1.4 1.2 1.5h.2c.5.1 1-.2 1.2-.7h1zm-3.6-1.7h2.6c0-.9-.5-1.5-1.3-1.5s-1.3.5-1.3 1.5zm5.3 3.1v-.8h1.8v-5.8h-1.7v-.8h2.7v6.6h1.7v.8h-4.5zm6-2.2v-.8c0-1.3 1-2.4 2.3-2.4s2.4 1 2.4 2.3v.8c0 1.3-1 2.4-2.3 2.4-1.4 0-2.4-1-2.4-2.3zm1-.8v.7c0 1 .5 1.6 1.4 1.6s1.4-.6 1.4-1.6v-.7c0-1-.5-1.6-1.4-1.6s-1.5.6-1.4 1.6zm9.9-.1v1c.1 1.1-.6 2.1-1.7 2.2h-.3c-.7.1-1.3-.3-1.5-.9h-.1v2.6h-1v-7.1h1v.8h.1c.3-.6.9-1 1.6-.9 1.1 0 2 .9 2 2-.1.1-.1.2-.1.3zm-3.6.1v.8c-.1.7.4 1.4 1.2 1.5.7.1 1.4-.4 1.5-1.2v-1.1c.1-.7-.4-1.4-1.2-1.5-.7-.1-1.4.4-1.5 1.2-.1 0-.1.2 0 .3zm10 3h-.9v-3.7c0-.6-.2-.9-.6-.9s-.7.4-.7.9v3.6h-.9v-3.7c0-.6-.2-.9-.6-.9s-.7.4-.7.9v3.6h-.9v-5.3h.9v.8h.1c.1-.5.5-.9 1-.9s.9.4 1 .8h.1c.1-.5.5-.9 1.1-.8.7 0 1.1.5 1.1 1.4v4.2zm5.9-1.4c-.2 1-1.2 1.6-2.2 1.5-1.2.1-2.2-.8-2.4-1.9v-1.2c0-1.3.9-2.3 2.2-2.4 1.3 0 2.3.9 2.4 2.2v.9h-3.6v.2c-.1.7.5 1.4 1.2 1.5h.2c.5.1 1-.2 1.2-.7l1-.1zm-3.6-1.7h2.6c0-.9-.5-1.5-1.3-1.5s-1.3.5-1.3 1.5zm5.2-2.2h.9v.9h.1c.3-.7 1-1 1.7-1 1.2 0 1.8.7 1.8 2V96h-1v-3.3c0-.9-.4-1.3-1.1-1.3-.7 0-1.3.5-1.4 1.3V96h-1v-5.4zm8.4-1.5v1.5h2.1v.8h-2.1v2.9c0 .5.4.8 1 .8h1v.8h-1.1c-1.4 0-2-.5-2-1.6v-2.9H254v-.8h1.4v-1.5h1.1zm14.6 6.8h-4.2v-7h4.2v.9h-3.2v2.1h3v.8h-3V95h3.2v.9zm1.7-5.3h1v.9h.1c.3-.7 1-1 1.7-1 1.2 0 1.8.7 1.8 2V96h-1v-3.3c0-.9-.4-1.3-1.1-1.3s-1.3.5-1.4 1.3V96h-1l-.1-5.4zm7.1 0l1.4 4.3h.1l1.4-4.3h1l-1.9 5.3h-1.1l-1.9-5.3h1zm5.4 5.3v-.8h1.8v-3.7h-1.8v-.8h2.7v4.5h1.7v.8h-4.4zm1.5-7.3c0-.4.3-.8.7-.8.4 0 .8.3.8.7 0 .4-.3.8-.7.8-.5.1-.8-.2-.8-.7zm6.8 3.3c.1-.9.9-1.6 1.9-1.5.3 0 .5 0 .8.1v1.1c-.3-.1-.6-.1-.9-.2-1.2 0-1.9.8-1.9 2.1v1.6h1.6v.8h-3.6v-.8h1v-3.8h-1.2v-.8h2.1v1.4h.2zm3.9 1.8v-.8c0-1.3 1.1-2.4 2.4-2.4s2.4 1.1 2.4 2.4v.8c0 1.3-1.1 2.4-2.4 2.4s-2.4-1.2-2.4-2.4zm1-.8v.7c0 1 .5 1.6 1.4 1.6s1.4-.6 1.4-1.6v-.7c0-1-.5-1.6-1.4-1.6s-1.5.6-1.4 1.6zm5.3-2.3h1v.9h.1c.3-.7 1-1 1.7-1 1.2 0 1.8.7 1.8 2V96h-1v-3.3c0-.9-.4-1.3-1.1-1.3s-1.3.5-1.4 1.3V96h-1l-.1-5.4zm11 5.3h-.9v-3.7c0-.6-.2-.9-.6-.9s-.7.4-.7.9v3.6h-.9v-3.7c0-.6-.2-.9-.6-.9s-.7.4-.7.9v3.6h-.9v-5.3h.9v.8h.1c.1-.5.5-.9 1-.9s.9.4 1 .8h.1c.1-.5.5-.9 1.1-.8.7 0 1.1.5 1.1 1.4v4.2zm5.8-1.4c-.2 1-1.2 1.6-2.2 1.5-1.2.1-2.2-.8-2.4-1.9v-1.2c0-1.3.9-2.3 2.2-2.4 1.3 0 2.3.9 2.4 2.2v.9H317v.2c-.1.7.5 1.4 1.2 1.5h.2c.5.1 1-.2 1.2-.7l1-.1zm-3.5-1.7h2.6c0-.9-.5-1.5-1.3-1.5s-1.3.5-1.3 1.5zm5.2-2.2h1v.9h.1c.3-.7 1-1 1.7-1 1.2 0 1.8.7 1.8 2V96h-1v-3.3c0-.9-.4-1.3-1.1-1.3s-1.3.5-1.4 1.3V96h-1l-.1-5.4zm8.4-1.5v1.5h2.1v.8h-2.1v2.9c0 .5.4.8 1 .8h1v.8h-1.1c-1.4 0-2-.5-2-1.6v-2.9h-1.4v-.8h1.4v-1.5h1.1zM37.6 129.2v-.9h5.2v.9h-5.2zm6.6-2.2v-1.1l4.3 2.5v.8l-4.3 2.5v-1.1l3.3-1.8v-.1l-3.3-1.7zm16.9 4.9h-4.3v-7h1v6.1h3.3v.9zm1.7 0v-.8h1.8v-3.7h-1.7v-.8h2.7v4.5h1.7v.8h-4.5zm1.4-7.3c0-.4.3-.8.7-.8.4 0 .8.3.8.7 0 .4-.3.8-.7.8-.4.1-.7-.3-.8-.7zm6.9 1.9c1.2 0 1.9.6 2 1.5h-.9c-.1-.5-.6-.8-1.1-.7-.6 0-1 .3-1 .7s.3.6.9.7l.8.2c1 .2 1.5.7 1.5 1.5 0 1-.8 1.7-2.1 1.7s-2.1-.6-2.2-1.5h1c.1.4.6.7 1.2.7s1.1-.3 1.1-.8-.2-.6-.9-.7l-.8-.2c-1-.2-1.5-.7-1.5-1.5 0-1 .8-1.6 2-1.6zm6.2-1.4v1.5h2.1v.8h-2.1v2.9c0 .5.4.8 1 .8h1v.8h-1.1c-1.4 0-2-.5-2-1.6v-2.9h-1.3v-.8h1.4v-1.5h1zm8.4 5.4c-.2 1-1.2 1.6-2.2 1.5-1.2.1-2.2-.8-2.4-1.9v-1.2c0-1.3.9-2.3 2.2-2.4 1.3 0 2.3.9 2.4 2.2v.9h-3.6v.2c-.1.7.5 1.4 1.2 1.5h.2c.5.1 1-.2 1.2-.7l1-.1zm-3.5-1.7h2.6c0-.9-.5-1.5-1.3-1.5s-1.3.5-1.3 1.5zm5.2-2.2h.9v.9h.1c.3-.7 1-1 1.7-1 1.2 0 1.8.7 1.8 2v3.4h-1v-3.3c0-.9-.4-1.3-1.2-1.3-.7 0-1.3.5-1.4 1.3v3.3h-1l.1-5.3zm6.3 5.3v-.8h1.8v-3.7h-1.8v-.8h2.7v4.5h1.7v.8h-4.4zm1.4-7.3c0-.4.3-.8.7-.8.4 0 .8.3.8.7 0 .4-.3.8-.7.8-.4.1-.7-.2-.8-.7zm4.7 2h.9v.9h.1c.3-.7 1-1 1.7-1 1.2 0 1.8.7 1.8 2v3.4h-1v-3.3c0-.9-.4-1.3-1.2-1.3-.7 0-1.3.5-1.4 1.3v3.3h-1l.1-5.3zm6 5.8h1c.1.4.6.7 1.3.7.9 0 1.4-.4 1.4-1.2v-.9h-.1c-.3.6-.9 1-1.6.9-1.1 0-2-.9-2-2v-1.2c-.1-1.1.6-2.1 1.7-2.3h.3c.7-.1 1.3.3 1.6.9h.1v-.8h1v5.3c0 1.2-.9 2-2.4 2-1.4.1-2.2-.4-2.3-1.4zm2.3-1.3c.7 0 1.3-.6 1.4-1.3v-.9c.1-.7-.5-1.4-1.2-1.5s-1.4.5-1.5 1.2v.9c-.1.7.4 1.4 1.2 1.5-.1.1 0 .1.1.1zm10.1-1.5v-.8c0-1.3 1-2.4 2.3-2.4s2.4 1 2.4 2.3v.8c0 1.3-1 2.4-2.3 2.4-1.4.1-2.4-.9-2.4-2.3 0 .1 0 .1 0 0zm1-.7v.7c0 1 .5 1.6 1.4 1.6s1.4-.6 1.4-1.6v-.7c0-1-.5-1.6-1.4-1.6s-1.4.6-1.4 1.6zm5.3-2.3h.9v.9h.1c.3-.7 1-1 1.7-1 1.2 0 1.8.7 1.8 2v3.4h-1v-3.3c0-.9-.4-1.3-1.2-1.3-.7 0-1.3.5-1.4 1.3v3.3h-1l.1-5.3zm17 2.2v1c.1 1.1-.6 2.1-1.7 2.2h-.3c-.7.1-1.3-.3-1.5-.9h-.1v2.6h-1v-7.1h1v.8h.1c.3-.6.9-1 1.6-.9 1.1 0 2 .9 2 2-.1.1-.1.2-.1.3zm-3.7.1v.8c-.1.7.4 1.4 1.2 1.5.7.1 1.4-.4 1.5-1.2v-1.1c.1-.7-.4-1.4-1.2-1.5-.7-.1-1.4.4-1.5 1.2v.3zm5.1.7v-.8c0-1.3 1-2.4 2.3-2.4s2.4 1 2.4 2.3v.8c0 1.3-1 2.4-2.3 2.4-1.3.1-2.4-.9-2.4-2.3 0 .1 0 .1 0 0zm1-.7v.7c0 1 .5 1.6 1.4 1.6s1.4-.6 1.4-1.6v-.7c0-1-.5-1.6-1.4-1.6s-1.4.6-1.4 1.6zm7.5-1c.1-.9.9-1.6 1.9-1.5.3 0 .5 0 .8.1v1.1c-.3-.1-.6-.1-.9-.2-1.2 0-1.9.8-1.9 2v1.6h1.6v.8h-3.6v-.8h1.1v-3.8h-1.2v-.8h2.1v1.4l.1.1zm6.2-2.8v1.5h2.1v.8h-2.1v2.9c0 .5.4.8 1 .8h1v.8h-1.1c-1.4 0-2-.5-2-1.6v-2.9h-1.4v-.8h1.4v-1.5h1.1zm11.5 2.8h.8c.6.1 1.2-.4 1.3-1.1v-.1c0-.6-.5-1.1-1.1-1.1h-.1c-.7-.1-1.3.4-1.3 1.1h-.9c0-1.2 1-2.1 2.2-2h.1c1.3 0 2.2.8 2.2 1.8.1.8-.5 1.5-1.2 1.6v.1c.9.1 1.6.8 1.5 1.7-.2 1.4-1.5 2.3-2.9 2.1-1.1-.2-1.9-1-2.1-2.1h1c.1.7.8 1.3 1.5 1.2.9 0 1.5-.5 1.5-1.2s-.6-1.2-1.5-1.2h-.8l-.2-.8zm9.5.5c0 2.4-.9 3.7-2.5 3.7s-2.5-1.3-2.5-3.7.9-3.7 2.5-3.7 2.5 1.3 2.5 3.7zm-1.1-1.6c-.2-.8-.6-1.3-1.3-1.3-1 0-1.5 1-1.5 2.8v.6l2.8-2.1zm-2.6 3.1c.2.8.6 1.3 1.3 1.3.9 0 1.4-1 1.4-2.8v-.6l-2.7 2.1zm9.9-1.5c0 2.4-.9 3.7-2.5 3.7s-2.5-1.3-2.5-3.7.9-3.7 2.5-3.7 2.5 1.3 2.5 3.7zm-1.1-1.6c-.2-.8-.6-1.3-1.3-1.3-1 0-1.5 1-1.5 2.8v.6l2.8-2.1zm-2.6 3.1c.2.8.6 1.3 1.3 1.3.9 0 1.4-1 1.4-2.8v-.6l-2.7 2.1zm9.9-1.5c0 2.4-.9 3.7-2.5 3.7s-2.5-1.3-2.5-3.7.9-3.7 2.5-3.7 2.5 1.3 2.5 3.7zm-1.2-1.6c-.2-.8-.6-1.3-1.3-1.3-1 0-1.5 1-1.5 2.8v.6l2.8-2.1zm-2.5 3.1c.2.8.6 1.3 1.3 1.3.9 0 1.4-1 1.4-2.8v-.6l-2.7 2.1z"/><path class="st3" d="M37.1 142.1h4.8v11.4h-4.8z"/><path class="st4" d="M721.4 47.9h19.2v3.3h-19.2zm0 5.8h19.2V57h-19.2zm0 5.8h19.2v3.3h-19.2zm-284.6 3.3h-19l9.5-14.9z"/><path class="st1" d="M417.8 88.7h153.7v86H417.8zm169.1 0h153.7v86H586.9zM417.8 189.4h153.7v86H417.8zm169.1 0h153.7v86H586.9zM417.8 290h220.1v13H417.8zm0 20.1h120v13h-120z"/></svg>