<?xml version="1.0" encoding="UTF-8"?>
<svg width="905px" height="382px" viewBox="0 0 905 382" version="1.1" xmlns="http://www.w3.org/2000/svg" xmlns:xlink="http://www.w3.org/1999/xlink">
    <!-- Generator: Sketch 40 (33762) - http://www.bohemiancoding.com/sketch -->
    <title>computer</title>
    <desc>Created with Sketch.</desc>
    <defs>
        <rect id="path-1" x="0" y="0" width="905" height="382" rx="28"></rect>
    </defs>
    <g id="Page-1" stroke="none" stroke-width="1" fill="none" fill-rule="evenodd">
        <g id="Desktop-HD" transform="translate(-268.000000, -184.000000)">
            <g id="computer" transform="translate(268.000000, 184.000000)">
                <mask id="mask-2" fill="white">
                    <use xlink:href="#path-1"></use>
                </mask>
                <use id="Rectangle-3" fill="#2E2E2E" xlink:href="#path-1"></use>
                <rect id="Rectangle-4" fill="#373737" mask="url(#mask-2)" x="24" y="28" width="857" height="354" rx="2"></rect>
                <g id="Browser" mask="url(#mask-2)">
                    <g transform="translate(453.000000, 28.000000)">
                        <rect id="browser" fill="#FFFFFF" x="0" y="0" width="429" height="354"></rect>
                        <g id="Group-2" stroke-width="1" fill="none" transform="translate(21.000000, 18.000000)">
                            <rect id="Rectangle-6" fill="#E0E0E0" x="0" y="70" width="189" height="82" rx="2"></rect>
                            <rect id="Rectangle-6-Copy" fill="#E0E0E0" x="0" y="162" width="189" height="13" rx="2"></rect>
                            <rect id="Rectangle-6-Copy-2" fill="#E0E0E0" x="0" y="185" width="162" height="13" rx="2"></rect>
                            <rect id="Rectangle-6-Copy-6" fill="#E0E0E0" x="199" y="70" width="189" height="82" rx="2"></rect>
                            <rect id="Rectangle-6-Copy-5" fill="#E0E0E0" x="199" y="162" width="181" height="13" rx="2"></rect>
                            <rect id="Rectangle-6-Copy-4" fill="#E0E0E0" x="199" y="185" width="130" height="13" rx="2"></rect>
                            <rect id="Rectangle-6-Copy-11" fill="#E0E0E0" x="0" y="231" width="189" height="82" rx="2"></rect>
                            <rect id="Rectangle-6-Copy-10" fill="#E0E0E0" x="0" y="323" width="189" height="13" rx="2"></rect>
                            <rect id="Rectangle-6-Copy-9" fill="#E0E0E0" x="199" y="231" width="189" height="82" rx="2"></rect>
                            <rect id="Rectangle-6-Copy-8" fill="#E0E0E0" x="199" y="323" width="181" height="13" rx="2"></rect>
                            <g id="Group-5" fill="#E0E0E0">
                                <circle id="Oval" cx="15.5" cy="15.5" r="15.5"></circle>
                                <rect id="Rectangle-5" x="353" y="9" width="35" height="13" rx="1"></rect>
                                <rect id="Rectangle-5-Copy" x="308" y="9" width="35" height="13" rx="1"></rect>
                                <rect id="Rectangle-5-Copy-2" x="263" y="9" width="35" height="13" rx="1"></rect>
                            </g>
                        </g>
                    </g>
                </g>
                <g id="Editor" mask="url(#mask-2)">
                    <g transform="translate(24.000000, 28.000000)">
                        <rect id="editor" fill="#2E2E2E" fill-rule="evenodd" transform="translate(214.500000, 177.000000) scale(-1, 1) translate(-214.500000, -177.000000) " x="0" y="0" width="429" height="354"></rect>
                        <rect id="Rectangle-5-Copy-3" fill="#FFFFFF" fill-rule="evenodd" x="16" y="21" width="36" height="13" rx="1"></rect>
                        <rect id="Rectangle-5-Copy-4" fill="#FFFFFF" fill-rule="evenodd" x="110" y="21" width="123" height="13" rx="1"></rect>
                        <rect id="Rectangle-5-Copy-6" fill="#FFFFFF" fill-rule="evenodd" x="16" y="69" width="298" height="13" rx="1"></rect>
                        <rect id="Rectangle-5-Copy-7" fill="#FFFFFF" fill-rule="evenodd" x="16" y="93" width="346" height="13" rx="1"></rect>
                        <rect id="Rectangle-5-Copy-8" fill="#FFFFFF" fill-rule="evenodd" x="16" y="117" width="217" height="13" rx="1"></rect>
                        <rect id="Rectangle-5-Copy-9" fill="#FFFFFF" fill-rule="evenodd" x="16" y="141" width="94" height="13" rx="1"></rect>
                        <rect id="Rectangle-5-Copy-10" fill="#FFFFFF" fill-rule="evenodd" x="16" y="164" width="265" height="13" rx="1"></rect>
                        <rect id="Rectangle-5-Copy-11" fill="#FFFFFF" fill-rule="evenodd" x="16" y="187" width="240" height="13" rx="1"></rect>
                        <text id="$-gulp" fill="none" font-family="RobotoMono-Regular, Roboto Mono" font-size="24" font-weight="normal">
                            <tspan x="14" y="234" fill="#FFFFFF">$ gulp</tspan>
                        </text>
                    </g>
                </g>
            </g>
        </g>
    </g>
</svg>