<svg id="Layer_1" xmlns="http://www.w3.org/2000/svg" viewBox="0 0 16 16"><style>.st0{fill:#fff}</style><path class="st0" d="M8 0C3.6 0 0 3.6 0 8c0 3.4 2.2 6.5 5.5 7.6.4.1.5-.2.5-.4v-1.4c-2.2.5-2.7-1.1-2.7-1.1-.4-.9-.9-1.2-.9-1.2-.7-.5.1-.5.1-.5.8.1 1.2.8 1.2.8.7 1.2 1.9.9 2.3.7.1-.5.3-.9.5-1.1-1.8-.2-3.6-.9-3.6-4 0-.9.3-1.6.8-2.1-.1-.2-.4-1 .1-2.1 0 0 .7-.2 2.2.8.6 0 1.3-.1 2-.1s1.4.1 2 .3c1.5-1 2.2-.8 2.2-.8.4 1.1.2 1.9.1 2.1.5.6.8 1.3.8 2.1 0 3.1-1.9 3.8-3.7 3.9.3.3.6.8.6 1.5v2.2c0 .2.1.5.6.4 4.2-1.4 6.5-5.9 5.1-10.1C14.5 2.2 11.4 0 8 0"/></svg>