<svg xmlns="http://www.w3.org/2000/svg" width="24" height="24" viewBox="0 0 24 24"><path d="M16.72.018c-.024.019-.689.708-1.473 1.534l-1.425 1.5-.57 2.223-1.591.028c-2.959.063-4.707.3-5.03.685-.061.071-.052.094.057.189.775.665 6.887.859 9.712.313 1.002-.194 1.259-.438.712-.669-.413-.181-1.928-.429-2.607-.429-.185 0-.228-.014-.228-.085 0-.043.104-.479.228-.964l.224-.884 1.33-1.405c.731-.773 1.334-1.443 1.345-1.481.047-.214-.518-.67-.684-.555zM6.68 6.6c0 .144.574 5.548.603 5.633.009.038.057-.033.104-.171.422-1.183 1.262-2.185 1.975-2.351.347-.081.608.004.889.285.308.309.365.641.128.769-.119.062-.233-.024-.385-.3-.327-.584-.936-.276-1.591.816-.693 1.149-.874 2.423-.347 2.423.194 0 .665-.371.993-.778.223-.285.308-.442.432-.808.081-.247.175-.476.213-.503a.312.312 0 0 1 .199-.039c.123.015.133.034.147.238.009.156-.028.347-.133.642-.138.389-.294.888-.589 1.866-.066.223-.152.451-.194.508-.104.147-.252.138-.318-.014-.048-.1-.034-.205.1-.651.086-.294.171-.574.185-.627.015-.061-.095.02-.299.209-.475.442-.94.628-1.215.479-.081-.042-.091-.033-.091.081 0 .36.342 3.6.384 3.651.143.171 1.154.461 2.18.623.784.122 3.016.122 3.8 0 .674-.109 1.41-.28 1.766-.413.503-.186.441.019.727-2.446.137-1.202.247-2.194.238-2.199-.009-.009-.162.104-.338.252-.38.322-.631.446-.912.451-.251 0-.38-.063-.437-.218-.067-.167.023-.361.384-.809.404-.498.471-.593.471-.693 0-.214-.49.009-.77.352-.09.114-.224.3-.294.413-.161.252-.58 1.206-.788 1.801-.162.461-.313.674-.47.674-.091 0-.243-.113-.243-.181 0-.125.152-.509.433-1.121.181-.389.327-.718.327-.727s-.091.053-.204.143c-.271.224-.57.366-.755.366-.181 0-.371-.114-.371-.218 0-.086.009-.091-.29.075-.452.247-.708.156-.708-.256v-.19l-.194.204c-.357.366-.841.493-1.106.285-.171-.133-.167-.447.014-.988.328-.969.579-1.349.802-1.205.138.085.114.223-.104.674-.375.773-.398 1.14-.066 1.044.318-.09.698-.588.964-1.253.071-.186.161-.371.204-.419.104-.118.262-.086.314.067.033.1 0 .231-.186.688-.152.371-.232.637-.232.778-.004.205 0 .214.133.205.171-.015.446-.194.484-.322.148-.479 1.244-3.158 1.33-3.254.095-.095.133-.108.242-.066.081.028.138.086.148.147.009.057-.081.323-.199.594-.466 1.077-1.073 2.636-1.073 2.755 0 .075.024.132.047.132.114 0 .428-.199.769-.489.304-.266.375-.352.442-.564.18-.552.312-.708.507-.604.077.043.09.086.071.214-.014.091-.014.162 0 .162.015 0 .123-.086.238-.194.361-.328.669-.409.954-.233.133.081.152.119.152.3 0 .247-.19.585-.589 1.054-.147.172-.266.333-.266.361 0 .023.047.042.11.042.104 0 .902-.611 1.078-.826.052-.066.162-.941.414-3.253.186-1.738.337-3.168.327-3.173-.004-.009-.128.028-.276.081-.37.128-1.173.266-2.137.365-1.045.104-4.583.119-5.619.023-.964-.09-1.895-.237-2.29-.365l-.341-.111v.104L6.68 6.6zm1.424 11.783c0 .009.152.275.333.589l.337.574.138 1.908.143 1.915.143.123c.356.305 1.211.475 2.541.504 1.511.033 2.688-.156 3.073-.504l.152-.134.109-1.927.109-1.924.309-.541c.17-.295.309-.552.309-.57 0-.014-.143.019-.323.081-.642.218-1.891.412-3.001.475-1.235.067-3.149-.167-4.118-.503-.138-.048-.252-.076-.252-.066h-.002z"/></svg>