<svg xmlns="http://www.w3.org/2000/svg" width="161.3" height="49.5" viewBox="0 0.35 161.3 49.5"><path fill="#FFF6C5" d="M.3 49.351l19.401-9.701L39.1 49.351l19.5-9.701V.75l-19.5 9.8L19.701.75.3 10.55z"/><path fill="#B5E655" d="M19.701 37.25L2.4 45.851V11.85l17.301-8.6 19.399 9.7 17.3-8.7v34.101L39.1 46.95z"/><path fill="#424142" d="M19.4.75h.5v38.9h-.5zm19.5 9.8h.5v38.9h-.5z"/><path fill="#ECF0F1" d="M56.3 31.051l-7.5 3.699v7.2l7.7-3.7z"/><path fill="#424142" d="M2.9 21.25h-.7l.1-1.1h.9l.1 1.1h-.4zm27.6 14.301c-.4-.101-.799-.101-1.2-.301l-.9-.3.4-1c.3.101.6.2.8.3.399.1.8.2 1.101.2l-.201 1.101zm1.8 0l-.2-1.101c.601-.101 1.101-.399 1.399-.899l.9.6c-.499.799-1.198 1.299-2.099 1.4zm-5.5-1.301c-.7-.4-1.301-.9-1.801-1.4l.801-.7c.4.5.9.9 1.5 1.199l-.5.901zm8.401-1.6l-1-.301c.199-.6.299-1.199.299-2l1.1.101c-.2.9-.3 1.601-.399 2.2zM24 31.45c-.399-.601-.6-1.3-.899-2.101l1-.299c.2.699.5 1.299.8 1.899L24 31.45zm11.6-2.6h-1.1v-2.1h1.1v2.1zm-12.899-1.1c-.101-.6-.201-1.3-.4-2.1l1.1-.2c.1.899.2 1.5.4 2.101l-1.1.199zm11.699-2.7c0-.7 0-1.4-.1-2.2h1.1c0 .7 0 1.4.1 2.1l-1.1.1zm-12.199-1l-.301-2.1 1.1-.2c.101.7.201 1.5.301 2.1l-1.1.2zm25.699-1.6c-.199-.7-.4-1.3-.699-1.9l1-.5c.299.6.6 1.4.799 2.1l-1.1.3zm-12.5-1.1l-1.1-.1c0-.8.1-1.6.3-2.2l1.101.2c-.101.6-.201 1.3-.301 2.1zm-30.3-.7l-.5-1c.6-.3 1.1-.7 1.7-1.2l.7.8c-.6.6-1.2 1.1-1.9 1.4zm16.4-.2c-.199-.7-.5-1.3-.799-1.8l.899-.6c.399.6.7 1.3.899 2.1l-.999.3zm24.9-1.2c-.4-.6-.8-1.1-1.3-1.5l.7-.8c.6.5 1.1 1 1.5 1.7l-.9.6zm-38.2-.9l-.7-.8c.5-.4 1.1-.8 1.8-1.3l.6.9c-.7.4-1.3.9-1.7 1.2zm27.9-.5l-1-.4c.399-.8.899-1.4 1.5-1.9l.601.9c-.5.3-.801.8-1.101 1.4zm-16.3-.3c-.5-.4-1-.8-1.6-1l.399-1c.7.3 1.399.7 2 1.2l-.799.8zm24-.6c-.6-.3-1.2-.5-1.9-.7l.301-1c.799.2 1.5.5 2.1.8l-.501.9zm-32.6-.4l-.4-1c.7-.3 1.401-.5 2.2-.6l.201 1.1c-.701 0-1.301.2-2.001.5zm5.501-.5c-.601-.1-1.201-.2-1.9-.2h-.1v-1.1h.1c.699 0 1.4.1 2.1.2l-.2 1.1zm21.799-.1l-.199-1.1c.3 0 .5-.1.8-.1h1.5l-.101 1.1h-1.299c-.301.1-.5.1-.701.1zm9.8 9.1s0-.4-.1-1l1.1-.1c.1.7.1 1.1.1 1.1h-1.1z"/><path fill="#F2594B" d="M51.701 26.551L50.3 25.15l-1.4 1.401-1.4-1.401-1.4 1.401 1.4 1.399-1.4 1.4 1.4 1.4 1.4-1.4 1.4 1.4 1.401-1.4-1.401-1.4z"/><path fill="#32C8F6" d="M48.701 35.65C44 34.551 41 36.45 37.9 38.55c-3.1 2.2-6 2.7-10.3-1.199-4.3-3.9-6.399-3.4-10.399-2.101s-4.201-1-8.601.2c-4.5 1.3-6.1 6.4-6.1 6.4v3.899h.3l17-8.6 19.4 9.7L49 41.95"/><path fill="#FFDD4B" d="M52.9 8.95l1.2-2.1 1.2.7z"/><path fill="#FFF6C5" d="M19.6.75l.2 39.2 19.2 9.2-.1-38.7z" opacity=".75"/><path fill="#DED4AA" d="M38.9 10.45l.1 38.7 19.6-9.299L58.4.75zm-38.7 0l.1 38.7 19.5-9.299L19.6.75z" opacity=".5"/><path fill="#424142" d="M0 49.851v-39.5l19.701-9.9 19.399 9.7 19.7-9.8v39.5l-.1.1-19.6 9.799-.1-.1-19.299-9.7L0 49.851zm19.701-10.5l19.399 9.8 19.2-9.601V1.25l-19.2 9.6-19.399-9.8L.5 10.65v38.3l19.201-9.599z"/><path fill="#424142" d="M39.1 47.25l-19.399-9.8-17.5 8.9v-34.7l17.5-8.8 19.399 9.7 17.5-8.8v34.601l-.101.1L39.1 47.25zm-19.399-10.3l19.399 9.8 17-8.5V4.75l-17 8.5-19.399-9.7-17 8.5v33.4l17-8.5z"/><path fill="#424142" d="M19.4.75h.5v38.9h-.5zm19.5 9.8h.5v38.9h-.5zm10.2 31.4h-.5v-7.3l7.601-3.8.199.5-7.3 3.6zM2.9 21.25h-.7l.1-1.1h.9l.1 1.1h-.4z"/><path fill="#424142" d="M30.5 35.551c-.4-.101-.799-.101-1.2-.301l-.9-.3.4-1c.3.101.6.2.8.3.399.1.8.2 1.101.2l-.201 1.101zm1.8 0l-.2-1.101c.601-.101 1.101-.399 1.399-.899l.9.6c-.499.799-1.198 1.299-2.099 1.4zm-5.5-1.301c-.7-.4-1.301-.9-1.801-1.4l.801-.7c.4.5.9.9 1.5 1.199l-.5.901zm8.401-1.6l-1-.301c.199-.6.299-1.199.299-2l1.1.101c-.2.9-.3 1.601-.399 2.2zM24 31.45c-.399-.601-.6-1.3-.899-2.101l1-.299c.2.699.5 1.299.8 1.899L24 31.45zm11.6-2.6h-1.1v-2.1h1.1v2.1zm-12.899-1.1c-.101-.6-.201-1.3-.4-2.1l1.1-.2c.1.899.2 1.5.4 2.101l-1.1.199zm11.699-2.7c0-.7 0-1.4-.1-2.2h1.1c0 .7 0 1.4.1 2.1l-1.1.1zm-12.199-1l-.301-2.1 1.1-.2c.101.7.201 1.5.301 2.1l-1.1.2zm25.699-1.6c-.199-.7-.4-1.3-.699-1.9l1-.5c.299.6.6 1.4.799 2.1l-1.1.3zm-12.5-1.1l-1.1-.1c0-.8.1-1.6.3-2.2l1.101.2c-.101.6-.201 1.3-.301 2.1zm-30.3-.7l-.5-1c.6-.3 1.1-.7 1.7-1.2l.7.8c-.6.6-1.2 1.1-1.9 1.4zm16.4-.2c-.199-.7-.5-1.3-.799-1.8l.899-.6c.399.6.7 1.3.899 2.1l-.999.3zm24.9-1.2c-.4-.6-.8-1.1-1.3-1.5l.7-.8c.6.5 1.1 1 1.5 1.7l-.9.6zm-38.2-.9l-.7-.8c.5-.4 1.1-.8 1.8-1.3l.6.9c-.7.4-1.3.9-1.7 1.2zm27.9-.5l-1-.4c.399-.8.899-1.4 1.5-1.9l.601.9c-.5.3-.801.8-1.101 1.4zm-16.3-.3c-.5-.4-1-.8-1.6-1l.399-1c.7.3 1.399.7 2 1.2l-.799.8zm24-.6c-.6-.3-1.2-.5-1.9-.7l.301-1c.799.2 1.5.5 2.1.8l-.501.9zm-32.6-.4l-.4-1c.7-.3 1.401-.5 2.2-.6l.201 1.1c-.701 0-1.301.2-2.001.5zm5.501-.5c-.601-.1-1.201-.2-1.9-.2h-.1v-1.1h.1c.699 0 1.4.1 2.1.2l-.2 1.1zm21.799-.1l-.199-1.1c.3 0 .5-.1.8-.1h1.5l-.101 1.1h-1.299c-.301.1-.5.1-.701.1zm9.8 9.1s0-.4-.1-1l1.1-.1c.1.7.1 1.1.1 1.1h-1.1z"/><path fill="#424142" d="M50.3 31.051l-1.4-1.4-1.4 1.4-1.799-1.801 1.399-1.4-1.399-1.399 1.799-1.8 1.4 1.4 1.4-1.4 1.8 1.8-1.399 1.399 1.399 1.4-1.8 1.801zm-1.4-2.101l1.4 1.399 1-1-1.4-1.399 1.4-1.399-1-1-1.4 1.399-1.4-1.399-1 1 1.4 1.399-1.4 1.399 1 1 1.4-1.399zM2.7 42.05l-.5-.199c.1-.2 1.7-5.301 6.3-6.601 2.3-.699 3.5-.4 4.6-.1 1.101.3 2.101.5 4-.1 4-1.301 6.2-2 10.7 2.1 4.199 3.8 6.9 3.3 10 1.2 3.3-2.301 6.4-4.101 11.1-3.001l-.1.501c-4.5-1.101-7.301.6-10.6 2.899C35 40.95 32 41.55 27.6 37.55c-4.3-3.899-6.2-3.3-10.2-1.999-2.1.699-3.199.399-4.3.1-1.101-.301-2.2-.5-4.4.1-4.3 1.199-6 6.199-6 6.299zm49.8-32.7l1.5-2.7 1.5.9-3 1.8zm1.6-2.3l-.899 1.5 1.699-1-.8-.5zm15.3 24.8v-17H73v13.8h7.201v3.199H69.4zm11.6-6.2c0-3.5 2.4-6.4 6.5-6.4 4.101 0 6.5 2.9 6.5 6.4s-2.399 6.4-6.5 6.4c-4 .1-6.5-2.9-6.5-6.4zm9.6 0c0-1.9-1.101-3.6-3.101-3.6s-3.1 1.7-3.1 3.6 1.1 3.6 3.1 3.6 3.101-1.699 3.101-3.6zm4.7 4.6l1.4-2.3c.899.8 2.699 1.7 4.199 1.7 1.4 0 2.1-.6 2.1-1.301 0-2-7.299-.399-7.299-5.199 0-2.1 1.799-3.9 5-3.9 2.1 0 3.699.7 5 1.7l-1.301 2.2c-.699-.8-2.1-1.4-3.6-1.4-1.2 0-1.9.5-1.9 1.2 0 1.8 7.301.3 7.301 5.3 0 2.2-1.9 3.9-5.301 3.9-2.299 0-4.299-.8-5.599-1.9zm14-1.5v-6.4h-2v-2.8h2v-3.4h3.199v3.4h2.5v2.8h-2.5v5.5c0 .801.4 1.301 1.101 1.301.5 0 .899-.2 1.101-.4l.699 2.4c-.5.4-1.3.8-2.699.8-2.201.199-3.401-1.001-3.401-3.201z"/><path fill="#C1CC6C" d="M118.5 23.35c0-5.3 3.9-8.8 8.701-8.8 3 0 5.1 1.3 6.6 3.2l-1.7 1c-1.101-1.4-2.899-2.3-4.899-2.3-3.701 0-6.5 2.8-6.5 6.9 0 4 2.799 6.9 6.5 6.9 2 0 3.699-1 4.5-1.8v-3.5H125.9v-1.9h7.9v6.1c-1.6 1.8-3.9 2.9-6.7 2.9-4.7.1-8.6-3.4-8.6-8.7zm18 8.5v-12.3h1.9v2c1-1.3 2.4-2.2 4.1-2.2v2c-.199-.1-.5-.1-.799-.1-1.201 0-2.801 1-3.301 2v8.7l-1.9-.1zm8.201-15.3c0-.7.6-1.3 1.299-1.3.701 0 1.301.6 1.301 1.3 0 .7-.6 1.3-1.301 1.3-.7-.1-1.299-.6-1.299-1.3zm.399 15.3v-12.3h1.9v12.3h-1.9zm14.3 0v-1.799c-.9 1.199-2.4 2.1-4.1 2.1-3.2 0-5.5-2.4-5.5-6.4 0-3.9 2.199-6.4 5.5-6.4 1.6 0 3.1.8 4.1 2.2v-6.5h1.9v16.9l-1.9-.101zm0-3.4v-5.6c-.699-1.1-2.199-2-3.699-2-2.5 0-3.9 2-3.9 4.701 0 2.699 1.5 4.699 3.9 4.699 1.5.2 3-.699 3.699-1.8z"/></svg>