<svg data-name="Layer 1" xmlns="http://www.w3.org/2000/svg" viewBox="0 0 273.39 222.18"><title>twitter</title><path d="M273.39 26.3a112.12 112.12 0 0 1-32.21 8.83 56.25 56.25 0 0 0 24.66-31 112.3 112.3 0 0 1-35.62 13.61 56.14 56.14 0 0 0-95.56 51.13 159.24 159.24 0 0 1-115.63-58.6 56.15 56.15 0 0 0 17.36 74.88 55.86 55.86 0 0 1-25.41-7v.71a56.12 56.12 0 0 0 45 55 56.23 56.23 0 0 1-25.33 1 56.15 56.15 0 0 0 52.4 39 112.54 112.54 0 0 1-69.66 24 114.17 114.17 0 0 1-13.38-.78 158.76 158.76 0 0 0 86 25.2c103.17 0 159.58-85.47 159.58-159.59q0-3.65-.16-7.26a114 114 0 0 0 27.96-29.13z"/></svg>