<svg xmlns="http://www.w3.org/2000/svg" viewBox="0 0 393.5 78.4"><path d="M24.2.1L.6 11.9c-.4.2-.6.6-.6 1v52c0 .4.2.8.6 1l23.6 11.8c.8.4 1.7-.2 1.7-1V1.2c0-.9-.9-1.5-1.7-1.1zm5 77.6l23.6-11.8c.4-.2.6-.6.6-1V39.6c0-.4-.2-.8-.6-1L29.2 26.8c-.8-.4-1.7.2-1.7 1v48.8c0 .9.9 1.5 1.7 1.1zm66-52.2c7.9 0 12.2 3 12.2 10.4 0 4.8-1.5 7.2-4.7 9 3.4 1.3 5.7 3.8 5.7 9.3 0 8.2-5 11.3-12.7 11.3H80.1V25.6l15.1-.1zm-8.7 5.6v11.4h8.6c4 0 5.7-2 5.7-5.9 0-3.8-2-5.5-5.9-5.5h-8.4zm0 16.9v11.8h8.8c4 0 6.4-1.3 6.4-6.1 0-4.5-3.4-5.8-6.5-5.8h-8.7v.1zM115 36.3h6.3v3.5s5-3.2 9.9-4.1v6.4c-5.3 1-9.8 4.6-9.8 4.6v18.8H115V36.3zm153.3 0h6.3v3.5s5-3.2 9.9-4.1v6.4c-5.3 1-9.8 4.6-9.8 4.6v18.8h-6.4V36.3zM160.4 50.7c0 9.7-3 15.4-13 15.4s-13-5.7-13-15.4c0-9.4 3.3-15 13-15s13 5.6 13 15zm-6.5 0c0-6.8-1.5-9.7-6.6-9.7s-6.6 2.9-6.6 9.7 1.2 10 6.6 10c5.5 0 6.6-3.2 6.6-10zm16.7-14.4l4.6 23.7h1.2l5.5-23.1h6.5l5.5 23.1h1.2l4.5-23.7h6.3l-6.2 29.1h-10.1l-4.5-20-4.5 20h-10.1l-6.2-29.1h6.3zm61 6s-6.9-.9-10.4-.9-5.1.8-5.1 3.2c0 1.9 1.2 2.4 6.9 3.4 7 1.2 9.5 3 9.5 8.8 0 6.8-4.3 9.3-11.5 9.3-4 0-10.8-1.3-10.8-1.3l.2-5.3s7 .9 10 .9c4.2 0 5.8-.9 5.8-3.4 0-2-1-2.7-6.8-3.6-6.4-1-9.7-2.4-9.7-8.6 0-6.6 5.1-9 10.9-9 4.3 0 11 1.3 11 1.3v5.2zM261.1 60l.1 4.7s-6.6 1.3-11.8 1.3c-8.7 0-12.1-4.7-12.1-14.9 0-10.7 4.6-15.5 12.6-15.5 8.2 0 12.2 4.3 12.2 13.3l-.4 4.5h-18.1c.1 4.7 1.8 7 6.6 7 4.8.2 10.9-.4 10.9-.4zM256 48.7c0-5.8-1.7-7.7-6-7.7s-6.2 2.2-6.3 7.7H256zm52.7-8.8s-6.2-.9-10.1-.9c-3.6 0-6.9 1-6.9 5 0 3 1.5 3.9 7.8 5 7.5 1.2 10.3 2.6 10.3 8.2 0 6.8-4.3 9-11.2 9-3.6 0-10-1-10-1l.2-3.1s6.5 1 9.5 1c5 0 7.9-1.2 7.9-5.7 0-3.5-1.7-4.3-8.3-5.2-6.7-1-9.8-2.3-9.8-7.9 0-6.4 5.2-8.2 10.3-8.2 4.4 0 10.3 1 10.3 1v2.8zm8.5-3.6l7.7 26.1h2.1l7.8-26.1h3.6L326 78.4h-3.5l3.8-13h-4l-8.6-29.1h3.5zm27.1 29.2V36.4h3.4v2.2s4.9-2.7 9.5-2.7c8 0 9.7 3.7 9.7 14.4v15.3h-3.5V50.5c0-8.6-.9-11.4-6.8-11.4-4.5 0-9 2.4-9 2.4v24.1l-3.3-.1zm49.4-29l-.2 3s-4.6-.6-6.8-.6c-7 0-9 3.1-9 11.5 0 9.1 1.4 12.5 9 12.5 2.2 0 6.9-.5 6.9-.5l.1 3s-5.2.7-7.7.7c-9.4 0-12-4.2-12-15.7 0-10.7 3.4-14.6 12.1-14.6 2.6-.1 7.6.7 7.6.7z"/></svg>