<svg xmlns="http://www.w3.org/2000/svg" viewBox="0 0 150.6 30"><path d="M9.3 0l-9 4.5c-.2.1-.3.3-.3.4v19.9c0 .2.1.3.2.4l9 4.5c.3.2.7-.1.7-.4V.5c0-.4-.3-.6-.6-.5zm1.9 29.7l9-4.5c.2-.1.2-.2.2-.4v-9.7c0-.2-.1-.3-.2-.4l-9-4.5c-.3-.2-.7.1-.7.4v18.7c0 .4.4.6.7.4zM36.4 9.8c3 0 4.7 1.1 4.7 4 0 1.8-.6 2.8-1.8 3.4 1.3.5 2.2 1.5 2.2 3.6 0 3.1-1.9 4.3-4.9 4.3h-6V9.8h5.8zm-3.3 2.1v4.4h3.3c1.5 0 2.2-.8 2.2-2.3 0-1.5-.8-2.1-2.3-2.1h-3.2zm0 6.5v4.5h3.4c1.5 0 2.4-.5 2.4-2.3 0-1.7-1.3-2.2-2.5-2.2h-3.3c0-.1 0 0 0 0zM44 13.9h2.4v1.3s1.9-1.2 3.8-1.6V16c-2 .4-3.7 1.8-3.7 1.8V25H44V13.9zm58.6 0h2.4v1.3s1.9-1.2 3.8-1.6V16c-2 .4-3.7 1.8-3.7 1.8V25h-2.4V13.9zm-41.2 5.5c0 3.7-1.1 5.9-5 5.9s-5-2.2-5-5.9c0-3.6 1.3-5.7 5-5.7s5 2.1 5 5.7zm-2.5 0c0-2.6-.6-3.7-2.5-3.7s-2.5 1.1-2.5 3.7.5 3.8 2.5 3.8 2.5-1.2 2.5-3.8zm6.4-5.5L67 23h.5l2.1-8.8h2.5l2.1 8.8h.5l1.7-9.1h2.4L76.4 25h-3.9l-1.7-7.7-1.7 7.7h-3.9l-2.4-11.1h2.5zm23.3 2.3s-2.6-.3-4-.3-2 .3-2 1.2c0 .7.5.9 2.6 1.3 2.7.5 3.6 1.1 3.6 3.4 0 2.6-1.6 3.6-4.4 3.6-1.5 0-4.1-.5-4.1-.5l.1-2s2.7.3 3.8.3c1.6 0 2.2-.3 2.2-1.3 0-.8-.4-1-2.6-1.4-2.4-.4-3.7-.9-3.7-3.3 0-2.5 2-3.4 4.2-3.4 1.6 0 4.2.5 4.2.5v1.9zM99.9 23v1.8s-2.5.5-4.5.5c-3.3 0-4.6-1.8-4.6-5.7 0-4.1 1.8-5.9 4.8-5.9 3.1 0 4.7 1.6 4.7 5.1l-.2 1.7h-6.9c0 1.8.7 2.7 2.5 2.7s4.2-.2 4.2-.2zm-2-4.4c0-2.2-.7-2.9-2.3-2.9-1.6 0-2.4.8-2.4 2.9h4.7zm20.2-3.3s-2.4-.3-3.9-.3c-1.4 0-2.6.4-2.6 1.9 0 1.1.6 1.5 3 1.9 2.9.5 3.9 1 3.9 3.1 0 2.6-1.6 3.4-4.3 3.4-1.4 0-3.8-.4-3.8-.4l.1-1.2s2.5.4 3.6.4c1.9 0 3-.5 3-2.2 0-1.3-.7-1.6-3.2-2-2.6-.4-3.7-.9-3.7-3 0-2.4 2-3.1 3.9-3.1 1.7 0 3.9.4 3.9.4l.1 1.1zm3.2-1.4l2.9 10h.8l3-10h1.4L124.7 30h-1.3l1.5-5h-1.5L120 13.9h1.3zm10.4 11.2V13.9h1.3v.8s1.9-1 3.6-1c3.1 0 3.7 1.4 3.7 5.5v5.9H139v-5.8c0-3.3-.3-4.4-2.6-4.4-1.7 0-3.4.9-3.4.9V25l-1.3.1zM150.6 14l-.1 1.1s-1.8-.2-2.6-.2c-2.7 0-3.4 1.2-3.4 4.4 0 3.5.5 4.8 3.4 4.8.8 0 2.6-.2 2.6-.2V25s-2 .3-2.9.3c-3.6 0-4.6-1.6-4.6-6 0-4.1 1.3-5.6 4.6-5.6 1.1 0 3 .3 3 .3z"/></svg>