<svg xmlns="http://www.w3.org/2000/svg" viewBox="0 0 13.5 30"><path d="M12.7 0s-.9.9-1.8 1.9L9 3.8l-.7 2.8h-2C2.6 6.7.5 7 0 7.5c0 .1 0 .1.1.2 1 .8 8.6 1.1 12.1.4 1.3-.2 1.6-.5.9-.8-.5-.2-2.4-.5-3.3-.5-.2 0-.3 0-.3-.1s.1-.6.3-1.2l.3-1.1 1.7-1.8c.9-1 1.7-1.8 1.7-1.9.1-.3-.6-.8-.8-.7zM.1 8.3c0 .2.7 6.9.8 7 0 0 .1 0 .1-.2.5-1.5 1.6-2.7 2.5-2.9.4-.1.8 0 1.1.4.4.4.5.8.2 1-.1.1-.3 0-.5-.4-.4-.7-1.2-.3-2 1-.9 1.4-1.1 3-.4 3 .2 0 .8-.5 1.2-1 .3-.4.4-.6.5-1 .1-.3.2-.6.3-.6 0 0 .2-.1.2 0 .2 0 .2 0 .2.3 0 .2 0 .4-.2.8-.2.5-.4 1.1-.7 2.3l-.2.6c-.1.2-.3.2-.4 0-.1-.1 0-.3.1-.8s.2-.8.2-.9c0-.1-.1 0-.4.3-.6.6-1.2.8-1.5.6-.1-.1-.1 0-.1.1 0 .5.4 4.5.5 4.6.2.2 1.4.5 2.7.7 1 .2 3.8.2 4.7 0 .8-.1 1.8-.4 2.2-.5.6-.2.6 0 .9-3.1.2-1.5.3-2.7.3-2.7s-.2.1-.4.3c-.5.4-.8.6-1.1.6-.3 0-.5-.1-.5-.3-.1-.2 0-.5.5-1 .5-.6.6-.7.6-.9 0-.3-.6 0-1 .4-.1.1-.3.4-.4.5-.2.3-.7 1.5-1 2.3-.2.6-.4.8-.6.8-.1 0-.3-.1-.3-.2 0-.2.2-.6.5-1.4.2-.5.4-.9.4-.9s-.1.1-.3.2c-.3.3-.7.5-.9.5-.2 0-.5-.1-.5-.3 0-.1 0-.1-.4.1-.6.3-.9.2-.9-.3V17l-.1.3c-.4.5-1.1.6-1.4.4-.2-.2-.2-.6 0-1.2.4-1.2.7-1.7 1-1.5.2.1.1.3-.1.8-.5 1-.5 1.4-.1 1.3.4-.1.9-.7 1.2-1.6.2-.2.3-.5.3-.5.1-.1.3-.1.4.1 0 .1 0 .3-.2.9-.2.5-.3.8-.3 1 0 .3 0 .3.2.3s.6-.2.6-.4c.2-.6 1.6-3.9 1.7-4.1.1-.1.2-.1.3-.1.1 0 .2.1.2.2s-.1.4-.2.7C9 14.9 8.3 16.9 8.3 17c0 .1 0 .2.1.2s.5-.2 1-.6c.4-.3.5-.4.6-.7.2-.7.4-.9.6-.8.1.1.1.1.1.3v.2s.2-.1.3-.2c.5-.4.8-.5 1.2-.3.2.1.2.1.2.4 0 .3-.2.7-.7 1.3-.2.2-.3.4-.3.5l.1.1c.1 0 1.1-.8 1.3-1 .1-.1.2-1.2.5-4.1.2-2.2.4-4 .4-4s-.2 0-.3.1c-.5.2-1.5.3-2.7.5-1.3.1-5.7.1-7 0C2.2 8.6 1 8.4.5 8.3l-.4-.2v.2zM1.9 23s.2.3.4.7l.4.7.2 2.4.2 2.4.2.2c.4.3 1.5.6 3.1.6 1.9 0 3.4-.2 3.8-.6l.2-.2.1-2.4.1-2.4.4-.7c.2-.4.4-.7.4-.7s-.2 0-.4.1c-.8.3-2.4.5-3.8.6-1.5.1-3.9-.2-5.1-.6-.1-.1-.2-.1-.2-.1z"/></svg>