<svg id="Layer_1" xmlns="http://www.w3.org/2000/svg" viewBox="0 0 74.2 30"><style>.st0{display:none}.st1{display:inline}.st2{fill:#c00}</style><g id="logo-black"><g id="test-tube_1_"><path id="tube_1_" d="M60.8 30c-.4 0-.9-.1-1.3-.2-1.7-.7-2.6-2.5-2.2-4.3l.1-.3 8.7-22.7c.1-.3.1-1.1 0-1.6V.5c.3-.3.7-.5 1.4-.5.8 0 2 .3 3.2.7 1 .4 1.9.9 2.5 1.3.8.6 1 1.1.9 1.5v.1c0 .1-.1.2-.2.2-.4.3-1 .9-1 1.2l-8.8 23c-.7 1.2-1.9 2-3.3 2zm-2.7-4.7c-.6 1.6.2 3.3 1.7 3.8.3.1.7.2 1 .2 1.2 0 2.3-.7 2.7-1.9v-.1l8.7-22.6c.2-.5 1-1.3 1.2-1.4 0-.1-.1-.3-.7-.8-.6-.4-1.4-.9-2.4-1.3-1.1-.4-2.2-.7-3-.7-.5 0-.7.1-.7.2s.2 1.3 0 1.9l-8.5 22.7z"/><path id="liquid_1_" d="M69.3 11s-1.2 1.4-2.3 1.9c-1.1.5-1.9.4-2.9.9-1 .6-1.5 1.4-1.5 1.4l-4 10.5c-.4 1.2.2 2.6 1.4 3 1.2.5 2.6-.1 3-1.3L69.3 11zm-4.1 6c.2-.1.4 0 .5.2.1.2 0 .4-.2.5-.2.1-.4 0-.5-.2-.1-.2 0-.4.2-.5zm-1.6-1.7c.1-.1.3 0 .3.1.1.1 0 .3-.1.3s-.3 0-.3-.1 0-.3.1-.3zm-1.8 5.9c-.2.1-.4 0-.5-.2-.1-.2 0-.4.2-.5.2-.1.4 0 .5.2.1.2 0 .4-.2.5zm.4-1.4c-.2-.4 0-.8.4-.9.4-.2.8 0 .9.4.2.4 0 .8-.4.9-.4.1-.8 0-.9-.4zm.9 3.6c.1-.1.3 0 .3.1.1.1 0 .3-.1.3-.1.1-.3 0-.3-.1-.1 0 0-.2.1-.3z"/><ellipse id="top_1_" transform="rotate(-68.96 70.072 2.303)" cx="70.1" cy="2.3" rx=".6" ry="2.4"/></g><path id="jekyll-text" d="M16.9 13.9c.4.3 1.1.1 1.6-.4s.6-1.2.2-1.5c-.4-.3-1.1-.1-1.6.4-.6.5-.6 1.2-.2 1.5zm-1.2 1c-.1 0-.3.2-.1.3.2.1.3.3.3.5-.2 1.1-1.5 2.3-2 2.7-.1.1.1.4.2.3.3-.2.9-.7 1.4-1.3-.8 1.8-2.3 4.1-2.9 4.9-2.3 3.2-5.9 6.2-8.3 6.2-1.9 0-3.6-1.3-3.9-3.2 0-.2-.3-.3-.3 0C.5 28 2.6 29 5.1 29c2.7 0 5.9-2 7.6-4 2.8-3.2 4.7-7 4.2-9.1-.3-.9-.9-1.1-1.2-1zm17.4 7c.7-.2 1.4-.6 1.4-1.2 0-.1-.1-.1-.1 0 0 .4-.4.7-.9.8-1.2.2-3.4-1.2-4.5-2.6 1.2.4 3.5-.2 4.6-1 1-.7 1.4-1.6 1.5-2.2.1-1.1-1.1-1.8-2.8-1.1-1.1.4-2.4 1.4-3.7 3.2 1.4-2.3 4.2-6.2 6.9-8.6 3.3-3 5.3-2.4 2.3.7-1.2 1.3-3.6 3-5.2 3.7-.5.2-.3.5.1.3 1.7-.7 4-2.3 5.3-3.6 4-3.9.7-6.8-3.8-2.7-3 2.8-5 5.7-6.8 9.6-.6.7-1 1.3-1.6 1.8l-.2.2c-1.5 1.3-3.8 3-5.3 3-1 0-1.5-.7-1.3-1.8.3-1.6 1.9-3.4 3.3-4.1 1.8-.8 2.9.8.5 2.1-.9.5-2 .7-2.4.7-.5 0-.5.2 0 .2.7 0 1.9-.3 2.7-.6 2.4-1.2 2.6-3.3-.1-3.4-2.9-.1-6.3 2.3-6.3 5.4 0 1.4 1.1 2.1 2.7 2.1 2.5 0 4.8-2 6.6-3.6.3-.2.5-.5.8-.7-.6 1.7-1 3.2-.8 4.3.1.8.6 1.2.9 1.5.1.1.2 0 .1-.2-.5-.6-.4-2.6.4-4.4.8 1.2 3.2 2.8 5.7 2.2zm-3-5.3c3-2.7 4.1-.3 2.2 1.2-1 .7-2.9 1.3-3.5 1l-.1-.1c-.1-.1-.2-.3-.2-.4.4-.7 1-1.2 1.6-1.7zm16.4-3c1.2.1.7-1.3-.5-1-.5.2-1.1 1.2-1.4 2.1-1.2 1.8-3.2 4.2-4.6 5.5-1.2 1.1-2.4 1.3-1-.6.6-.8 1.3-1.7 1.7-2.5 1-2.1-1.1-3.1-2.8-1.8-1 .7-2.3 2.3-3.3 3.1-.3.2-.2.6.1.3.8-.7 2.3-2.2 3.5-3.1 1-.8 1.4-.3.8.4-.8 1-2.3 2.6-2.6 3.7-.5 1.6.1 2.3 1.1 2.3 1.4 0 3.5-2.2 5-4 .5-.6 1-1.3 1.4-2-1.2 2.4-2.5 4.8-4.1 7-2.3 3.1-5.1 5.4-7.8 5.4-1.9 0-3.6-1.3-4-3.2 0-.2-.3-.3-.3 0 .4 2.7 2.5 3.7 5 3.7 2.7 0 5.3-1.6 7.1-3.5 3.7-3.9 4.1-8.3 5.3-10.7.5-1.1 1-1.2 1.4-1.1zm15-3.8c.5-.9.5-1.7-.7-1.7-1 0-2.7.7-3.5 1.3-.2.2-.1.3.1.2.2-.1.3-.2.5-.2.9-.5.5.5.3.9-1.1 1.9-3 4.5-4 5.9-.5.6-1 1.3-1.6 1.8-1 .9-2.9 2.6-4.3 3.1-4.7 1.8 1.3-6.2 1.8-6.9 1.1-1.4 3.6-3.8 4.3-5 .6-.9.6-1.6-.6-1.6-1 0-2.7.7-3.5 1.3-.2.2-.1.3.1.2.2-.1.3-.2.5-.2.9-.5.5.5.3.9-1.1 1.9-3 4.5-4 5.9-.8 1.1-1.8 2.2-2.6 2.8-.3.3-.1.5.2.3.3-.2.7-.6 1.2-1.1-.8 1.7-1.6 4.1.7 4.4 1.9.3 4.2-1.7 5.7-3.1l.5-.5.1-.1c-.8 1.7-1.5 4.1.7 4.4 2.5.3 5.5-3 6.7-4.2.2-.2.2-.6-.2-.2-.7.7-3 2.9-4.8 3.5-4.7 1.8 1.3-6.2 1.8-6.9 1.1-1.6 3.6-4 4.3-5.2z"/></g><g id="logo-black-red" class="st0"><g id="test-tube_2_" class="st1"><path id="tube_2_" d="M308.6 186.8c-5 0-9.9-.9-14.6-2.7-19.7-7.5-30.1-28.9-24.7-48.7l-.2-.1 1.3-3.4 100.1-260c1.5-3.8.8-13 .1-18.1-.2-1.2-.2-2.3.1-3.4l.1-.2c.1-.2.1-.4.2-.6 1.6-4.2 6.5-6.3 14.5-6.3 9.6 0 22.9 3 36.5 8.2 11.4 4.4 21.8 9.9 29.1 15.4 8.6 6.5 12 12.3 10.1 17.3l-.3.6-.1.2c-.5 1-1.2 1.8-2.1 2.5-4.4 3.9-10.9 10.5-12 13.5L345.4 164.5l-.2-.1c-7.1 13.6-21.1 22.4-36.6 22.4zm-31.3-53.3l-.3.7c-6.4 17.2 2.3 36.6 19.5 43.2 3.9 1.5 7.9 2.2 12 2.2 13.9 0 26.2-8.3 31.3-21.3l.4-.9 99.6-258.9c2.1-5.6 12-14.5 14-16.3l.2-.2c.2-.1.3-.2.3-.3l.1-.1c.1-.7-.8-3.8-7.8-9.2-6.7-5.1-16.4-10.2-27.3-14.4-12.6-4.9-25.4-7.8-34-7.8-5.7 0-7.6 1.2-7.9 1.8v.6c.2 1.5 2.1 14.8-.5 21.7l-99.6 259.2z"/><path id="liquid_2_" class="st2" d="M405.4-31.2S391.6-15.3 379-9.6C366.5-4 357.1-5.4 345.8 1.2s-17 15.8-17 15.8l-46 119.7c-5 13.5 2.4 29.3 16.1 34.6 13.7 5.3 29.2-1.7 34.5-15.1l72-187.4zM359 37.9c2.2-1 4.8 0 5.7 2.2 1 2.2 0 4.8-2.2 5.7-2.2 1-4.8 0-5.7-2.2-1-2.2 0-4.7 2.2-5.7zm-18.4-19.7c1.5-.6 3.2 0 3.8 1.5s0 3.2-1.5 3.8-3.2 0-3.8-1.5.1-3.1 1.5-3.8zm-20.3 67.7c-2.2 1-4.8 0-5.7-2.2-1-2.2 0-4.8 2.2-5.7 2.2-1 4.8 0 5.7 2.2 1 2.2 0 4.7-2.2 5.7zm4-15.7c-1.8-4.1 0-8.9 4.1-10.8 4.1-1.8 8.9 0 10.8 4.1 1.8 4.1 0 8.9-4.1 10.8-4.2 1.8-9 .1-10.8-4.1zm10.5 41.6c1.5-.6 3.2 0 3.8 1.5s0 3.2-1.5 3.8c-1.5.6-3.2 0-3.8-1.5-.6-1.5 0-3.1 1.5-3.8z"/><ellipse id="top_2_" transform="rotate(-68.96 414.759 -130.383)" cx="414.7" cy="-130.4" rx="7.3" ry="27.8"/></g><path id="jekyll-text_1_" class="st1" d="M-194.6 2.1c4.4 3.5 12.4 1.5 17.8-4.4 5.6-6.2 6.5-14.1 2.1-17.7-4.4-3.5-12.4-1.5-17.8 4.7-5.7 6.2-6.6 13.7-2.1 17.4zm-13 11.5c-1.2 0-3.2 2.1-1.5 2.9 2.4.9 3.5 2.9 3.5 5.9-2.1 12.1-17.1 26-23.1 30.7-1.5 1.5.6 4.7 2.1 3.5 3.2-2.6 10-7.9 15.6-15-9.1 20.4-26.9 46.6-33.7 55.8-26.6 36.9-67 70.8-94.8 70.8-22.2 0-41-15-45.1-37.2-.3-2.4-3.5-2.9-2.9.3 5 30.4 28.4 42.1 56.7 42.1 31 0 67.4-22.5 87.4-45.4 32.4-37.3 53.5-80 47.8-104.2-2.3-9-8.5-10.6-12-10.2zM-8.4 94.4C.1 92.3 7.2 87.6 7.2 80.2c0-.7-1.5-.7-1.5 0 0 4.4-5 8-10.6 8.9-13.2 2.1-39.5-13.5-51.9-29.5 13.2 5 40.4-2.3 53.2-11.4 11.8-8.5 16.5-18 17.5-25.7C15.4 9.9 1.5 2.4-17.7 9.9c-12.4 5-27.2 15.9-42.5 36.3C-44 19.3-12.1-24.3 19.2-52.3c38.1-33.9 60.2-27.4 26 8.5C31.1-29.1 4.5-9.9-13.9-1.6-19.5.8-16.8 4-12.7 2.2c19.5-8.5 45.4-26.3 61.1-41 46.3-44.5 7.7-78.1-43.7-31C-30.1-37.6-52.9-4-72.6 39.6c-6.8 8.2-11.8 15-18.1 20.4-.7.6-1.3 1.3-1.8 1.9-17 14.6-43.8 34.3-60.5 34.6-11.8.3-16.8-8.5-14.7-20.1 3.2-18 21.9-39.2 37.8-46.6 20.7-9.4 32.8 8.8 5.6 23.6-10.3 5.3-22.8 8.2-27.8 8.2-5.9 0-5.3 2.4-.3 2.6 8.2.3 21.6-3.2 30.4-7.4 27.8-13.2 29.5-38-.6-38.9-32.8-1.2-72 26.9-71.7 62 .3 15.9 13 24.5 30.4 24.5 29-.3 54.9-22.4 76-41.7 3-2.5 6-5.3 8.9-8.2-7.4 18.9-11.2 36.3-9.4 49.2 1.2 9.4 6.5 13.8 10.6 17.3.9.6 2.6 0 1.5-1.8-6.2-7.4-4.4-29.3 4.1-50.4 7.1 14.1 34.8 32.1 63.8 25.6zm-34.8-61.5C-9.3 2.5 4 29.7-17.5 46.1c-11.2 8.5-33.4 15-40.4 10.9l-1.5-.9c-.9-1.5-1.8-2.9-2.4-4.4 5.5-6.8 12-12.8 18.6-18.8zM145.1-1.6c13.5 1.5 7.9-15-5.9-10.9-6.2 1.8-12.1 13.5-16.5 23.9-13.5 20.4-36.3 48-52.3 62.5C56.3 86 43.2 89.2 59.2 66.5c6.5-9.1 14.7-18.9 19.5-28.6C89.9 13.4 66 2.5 46.8 17.2c-11.2 8.5-26.3 26.3-38.1 36-3.2 2.6-2.4 6.5.9 3.8 9.4-7.6 26-25.1 40.1-35.4 11.8-9.1 16.5-3.2 9.7 4.4-9.4 10.9-26 29.8-30.1 41.9-5.9 18 1.2 26 12.9 26 16.2 0 40.4-25.4 56.7-45.4 5.3-6.8 11.2-14.7 16.2-22.4-14.1 27.4-28.9 55.2-47.2 80.2-26 35.4-58.5 62-89.2 62-22.2 0-41.3-15-45.4-37.2-.3-2.4-3.2-2.9-2.9.3 5 30.4 28.4 42.1 56.7 42.1 31 0 60.8-18 81.7-40.1C111 88.9 116 38.7 129 10.7c6.1-12.3 11.7-12.8 16.1-12.3zm171.6-43c6.2-10.6 5.9-18.9-8.5-18.9-10.9.3-30.7 7.9-39.8 15-2.1 2.1-1.2 3.2 1.5 2.1 1.8-.6 3.8-1.8 5.9-2.6 10.3-5.6 6.2 6.2 3.8 10.6-12.4 21.6-34.2 51.9-45.7 67-5.5 7.4-11.7 14.8-17.8 21.1-11.1 10.5-33 29.2-49.5 35.4-53.8 20.1 14.7-71.4 20.4-78.7 12.7-15.9 41-43.6 49.5-57.5 6.2-10.6 5.9-18.9-8.5-18.9-10.9.3-30.7 7.9-39.8 15-2.1 2.1-1.2 3.2 1.5 2.1 1.8-.6 3.8-1.8 5.9-2.6 10.3-5.6 6.2 6.2 3.8 10.6-12.4 21.7-34.2 51.9-45.7 67-9.4 12.6-21 25.4-29.8 32.4-3.5 2.9-1.5 5.6 2.1 3.2 3.2-2.1 7.9-6.8 13.2-12.4-9.7 19.5-17.8 46.9 7.9 50.1 21.9 3 47.9-19.4 64.7-35.9 1.8-1.8 3.9-3.8 6-6l1.5-1.5c-9.7 19.5-17.7 46.8 8 50 28.1 3.8 62.9-33.9 76.4-47.7 2.6-2.6 1.8-7.1-2.6-2.6-7.9 8.2-34.8 32.7-54.4 40.1-53.8 20.1 14.7-71.4 20.4-78.7 12.7-16 41.1-43.7 49.6-57.7z"/></g></svg>