<svg xmlns="http://www.w3.org/2000/svg" viewBox="0 0 161.3 49.5"><path d="M19.4.7h.5v38.9h-.5zm19.5 9.8h.5v38.9h-.5zm-36 10.7h-.7l.1-1.1h.9l.1 1.1h-.4z"/><path d="M30.5 35.6c-.4-.1-.8-.1-1.2-.3l-.9-.3.4-1c.3.1.6.2.8.3.4.1.8.2 1.1.2l-.2 1.1zm1.8 0l-.2-1.1c.6-.1 1.1-.4 1.4-.9l.9.6c-.5.7-1.2 1.2-2.1 1.4zm-5.5-1.4c-.7-.4-1.3-.9-1.8-1.4l.8-.7c.4.5.9.9 1.5 1.2l-.5.9zm8.4-1.6l-1-.3c.2-.6.3-1.2.3-2l1.1.1c-.2.9-.3 1.7-.4 2.2zM24 31.4c-.4-.6-.6-1.3-.9-2.1l1-.3c.2.7.5 1.3.8 1.9l-.9.5zm11.6-2.6h-1.1v-2.1h1.1v2.1zm-12.9-1.1c-.1-.6-.2-1.3-.4-2.1l1.1-.2c.1.9.2 1.5.4 2.1l-1.1.2zM34.4 25c0-.7 0-1.4-.1-2.2h1.1c0 .7 0 1.4.1 2.1l-1.1.1zm-12.2-1l-.3-2.1 1.1-.2c.1.7.2 1.5.3 2.1l-1.1.2zm25.7-1.6c-.2-.7-.4-1.3-.7-1.9l1-.5c.3.6.6 1.4.8 2.1l-1.1.3zm-12.5-1.1l-1.1-.1c0-.8.1-1.6.3-2.2l1.1.2c-.1.6-.2 1.3-.3 2.1zm-30.3-.7l-.5-1c.6-.3 1.1-.7 1.7-1.2l.7.8c-.6.6-1.2 1.1-1.9 1.4zm16.4-.2c-.2-.7-.5-1.3-.8-1.8l.9-.6c.4.6.7 1.3.9 2.1l-1 .3zm24.9-1.2c-.4-.6-.8-1.1-1.3-1.5l.7-.8c.6.5 1.1 1 1.5 1.7l-.9.6zm-38.2-.9l-.7-.8c.5-.4 1.1-.8 1.8-1.3l.6.9c-.7.4-1.3.9-1.7 1.2zm27.9-.5l-1-.4c.4-.8.9-1.4 1.5-1.9l.6.9c-.5.3-.8.8-1.1 1.4zm-16.3-.3c-.5-.4-1-.8-1.6-1l.4-1c.7.3 1.4.7 2 1.2l-.8.8zm24-.6c-.6-.3-1.2-.5-1.9-.7l.3-1c.8.2 1.5.5 2.1.8l-.5.9zm-32.6-.4l-.4-1c.7-.3 1.4-.5 2.2-.6l.2 1.1c-.7 0-1.3.2-2 .5zm5.5-.5c-.6-.1-1.2-.2-1.9-.2h-.1v-1.1h.1c.7 0 1.4.1 2.1.2l-.2 1.1zm21.8-.1l-.2-1.1c.3 0 .5-.1.8-.1h1.5l-.1 1.1h-1.3c-.3.1-.5.1-.7.1zm9.8 9.1s0-.4-.1-1l1.1-.1c.1.7.1 1.1.1 1.1h-1.1z"/><path d="M0 49.9V10.4L19.7.5l19.4 9.7L58.8.4v39.5l-.1.1-19.6 9.8-.1-.2-19.3-9.7L0 49.9zm19.7-10.5l19.4 9.8 19.2-9.6V1.2l-19.2 9.6L19.7 1 .5 10.6v38.3l19.2-9.5z"/><path d="M39.1 47.2l-19.4-9.8-17.5 8.9V11.6l17.5-8.8 19.4 9.7 17.5-8.8v34.6l-.1.1-17.4 8.8zM19.7 36.9l19.4 9.8 17-8.5V4.7l-17 8.5-19.4-9.7-17 8.5v33.4l17-8.5z"/><path d="M19.4.7h.5v38.9h-.5zm19.5 9.8h.5v38.9h-.5zm10.2 31.4h-.5v-7.3l7.6-3.8.2.5-7.3 3.6zM2.9 21.2h-.7l.1-1.1h.9l.1 1.1h-.4z"/><path d="M30.5 35.6c-.4-.1-.8-.1-1.2-.3l-.9-.3.4-1c.3.1.6.2.8.3.4.1.8.2 1.1.2l-.2 1.1zm1.8 0l-.2-1.1c.6-.1 1.1-.4 1.4-.9l.9.6c-.5.7-1.2 1.2-2.1 1.4zm-5.5-1.4c-.7-.4-1.3-.9-1.8-1.4l.8-.7c.4.5.9.9 1.5 1.2l-.5.9zm8.4-1.6l-1-.3c.2-.6.3-1.2.3-2l1.1.1c-.2.9-.3 1.7-.4 2.2zM24 31.4c-.4-.6-.6-1.3-.9-2.1l1-.3c.2.7.5 1.3.8 1.9l-.9.5zm11.6-2.6h-1.1v-2.1h1.1v2.1zm-12.9-1.1c-.1-.6-.2-1.3-.4-2.1l1.1-.2c.1.9.2 1.5.4 2.1l-1.1.2zM34.4 25c0-.7 0-1.4-.1-2.2h1.1c0 .7 0 1.4.1 2.1l-1.1.1zm-12.2-1l-.3-2.1 1.1-.2c.1.7.2 1.5.3 2.1l-1.1.2zm25.7-1.6c-.2-.7-.4-1.3-.7-1.9l1-.5c.3.6.6 1.4.8 2.1l-1.1.3zm-12.5-1.1l-1.1-.1c0-.8.1-1.6.3-2.2l1.1.2c-.1.6-.2 1.3-.3 2.1zm-30.3-.7l-.5-1c.6-.3 1.1-.7 1.7-1.2l.7.8c-.6.6-1.2 1.1-1.9 1.4zm16.4-.2c-.2-.7-.5-1.3-.8-1.8l.9-.6c.4.6.7 1.3.9 2.1l-1 .3zm24.9-1.2c-.4-.6-.8-1.1-1.3-1.5l.7-.8c.6.5 1.1 1 1.5 1.7l-.9.6zm-38.2-.9l-.7-.8c.5-.4 1.1-.8 1.8-1.3l.6.9c-.7.4-1.3.9-1.7 1.2zm27.9-.5l-1-.4c.4-.8.9-1.4 1.5-1.9l.6.9c-.5.3-.8.8-1.1 1.4zm-16.3-.3c-.5-.4-1-.8-1.6-1l.4-1c.7.3 1.4.7 2 1.2l-.8.8zm24-.6c-.6-.3-1.2-.5-1.9-.7l.3-1c.8.2 1.5.5 2.1.8l-.5.9zm-32.6-.4l-.4-1c.7-.3 1.4-.5 2.2-.6l.2 1.1c-.7 0-1.3.2-2 .5zm5.5-.5c-.6-.1-1.2-.2-1.9-.2h-.1v-1.1h.1c.7 0 1.4.1 2.1.2l-.2 1.1zm21.8-.1l-.2-1.1c.3 0 .5-.1.8-.1h1.5l-.1 1.1h-1.3c-.3.1-.5.1-.7.1zm9.8 9.1s0-.4-.1-1l1.1-.1c.1.7.1 1.1.1 1.1h-1.1z"/><path d="M50.3 31.1l-1.4-1.4-1.4 1.4-1.8-1.8 1.4-1.4-1.4-1.4 1.8-1.8 1.4 1.4 1.4-1.4 1.8 1.8-1.4 1.4 1.4 1.4-1.8 1.8zm-1.4-2.2l1.4 1.4 1-1-1.4-1.4 1.4-1.4-1-1-1.4 1.4-1.4-1.4-1 1 1.4 1.4-1.4 1.4 1 1 1.4-1.4zM2.7 42l-.5-.2c.1-.2 1.7-5.3 6.3-6.6 2.3-.7 3.5-.4 4.6-.1 1.1.3 2.1.5 4-.1 4-1.3 6.2-2 10.7 2.1 4.2 3.8 6.9 3.3 10 1.2 3.3-2.3 6.4-4.1 11.1-3l-.1.5c-4.5-1.1-7.3.6-10.6 2.9-3.2 2.2-6.2 2.8-10.6-1.2-4.3-3.9-6.2-3.3-10.2-2-2.1.7-3.2.4-4.3.1-1.1-.3-2.2-.5-4.4.1-4.3 1.2-6 6.2-6 6.3zM52.5 9.3L54 6.6l1.5.9-3 1.8zM54.1 7l-.9 1.5 1.7-1-.8-.5zm15.3 24.8v-17H73v13.8h7.2v3.2H69.4zM81 25.6c0-3.5 2.4-6.4 6.5-6.4s6.5 2.9 6.5 6.4-2.4 6.4-6.5 6.4c-4 .1-6.5-2.9-6.5-6.4zm9.6 0c0-1.9-1.1-3.6-3.1-3.6s-3.1 1.7-3.1 3.6 1.1 3.6 3.1 3.6 3.1-1.6 3.1-3.6zm4.7 4.6l1.4-2.3c.9.8 2.7 1.7 4.2 1.7 1.4 0 2.1-.6 2.1-1.3 0-2-7.3-.4-7.3-5.2 0-2.1 1.8-3.9 5-3.9 2.1 0 3.7.7 5 1.7l-1.3 2.2c-.7-.8-2.1-1.4-3.6-1.4-1.2 0-1.9.5-1.9 1.2 0 1.8 7.3.3 7.3 5.3 0 2.2-1.9 3.9-5.3 3.9-2.3 0-4.3-.8-5.6-1.9zm14-1.5v-6.4h-2v-2.8h2v-3.4h3.2v3.4h2.5v2.8h-2.5v5.5c0 .8.4 1.3 1.1 1.3.5 0 .9-.2 1.1-.4l.7 2.4c-.5.4-1.3.8-2.7.8-2.2.2-3.4-1-3.4-3.2zm9.2-5.4c0-5.3 3.9-8.8 8.7-8.8 3 0 5.1 1.3 6.6 3.2l-1.7 1c-1.1-1.4-2.9-2.3-4.9-2.3-3.7 0-6.5 2.8-6.5 6.9 0 4 2.8 6.9 6.5 6.9 2 0 3.7-1 4.5-1.8v-3.5h-5.8V23h7.9v6.1c-1.6 1.8-3.9 2.9-6.7 2.9-4.7.1-8.6-3.4-8.6-8.7zm18 8.5V19.5h1.9v2c1-1.3 2.4-2.2 4.1-2.2v2c-.2-.1-.5-.1-.8-.1-1.2 0-2.8 1-3.3 2v8.7l-1.9-.1zm8.2-15.3c0-.7.6-1.3 1.3-1.3.7 0 1.3.6 1.3 1.3 0 .7-.6 1.3-1.3 1.3-.7-.1-1.3-.6-1.3-1.3zm.4 15.3V19.5h1.9v12.3h-1.9zm14.3 0V30c-.9 1.2-2.4 2.1-4.1 2.1-3.2 0-5.5-2.4-5.5-6.4 0-3.9 2.2-6.4 5.5-6.4 1.6 0 3.1.8 4.1 2.2V15h1.9v17l-1.9-.2zm0-3.4v-5.6c-.7-1.1-2.2-2-3.7-2-2.5 0-3.9 2-3.9 4.7s1.5 4.7 3.9 4.7c1.5.2 3-.6 3.7-1.8z"/></svg>