<svg xmlns="http://www.w3.org/2000/svg" viewBox="0 0 97.8 30"><path d="M11.8.2h.3v23.6h-.3zm11.8 5.9h.3v23.6h-.3zM1.8 12.6h-.4l.1-.7H2v.7h-.2z"/><path d="M18.5 21.3c-.2-.1-.5-.1-.7-.2-.2-.1-.4-.1-.5-.2l.2-.6c.2.1.4.1.5.2.2.1.5.1.7.1l-.2.7zm1.1 0l-.1-.7c.4-.1.7-.2.8-.5l.5.4c-.3.4-.7.7-1.2.8zm-3.4-.8c-.4-.2-.8-.5-1.1-.8l.5-.4c.2.3.5.5.9.7l-.3.5zm5.1-1l-.6-.2c.1-.4.2-.7.2-1.2l.7.1c-.1.5-.2 1-.3 1.3zm-6.8-.7c-.2-.4-.4-.8-.5-1.3l.6-.2c.1.4.3.8.5 1.2l-.6.3zm7.1-1.6h-.7v-1.3h.7v1.3zm-7.8-.7c-.1-.4-.1-.8-.2-1.3l.7-.1c.1.5.1.9.2 1.3l-.7.1zm7-1.6c0-.4 0-.8-.1-1.3h.7c0 .4 0 .8.1 1.3h-.7zm-7.3-.6c-.1-.4-.1-.8-.2-1.3l.7-.1c.1.4.1.9.2 1.3l-.7.1zm15.5-1c-.1-.4-.2-.8-.4-1.2l.6-.3c.2.4.4.8.5 1.3l-.7.2zm-7.5-.6l-.7-.1c0-.5.1-1 .2-1.3l.7.1c-.1.4-.2.8-.2 1.3zm-18.4-.5l-.3-.6c.4-.2.7-.4 1-.7l.4.5c-.3.4-.7.7-1.1.8zm9.9-.1c-.1-.4-.3-.8-.5-1.1l.5-.4c.2.4.4.8.5 1.3l-.5.2zm15.1-.7c-.2-.4-.5-.7-.8-.9l.4-.5c.4.3.7.6.9 1l-.5.4zM5 10.8l-.4-.5c.3-.2.7-.5 1.1-.8l.3.6c-.4.3-.8.6-1 .7zm16.9-.3l-.6-.2c.2-.5.5-.8.9-1.2l.4.5c-.4.3-.5.6-.7.9zm-9.9-.1c-.3-.2-.6-.5-1-.6l.2-.6c.4.2.8.4 1.2.7l-.4.5zm14.5-.4c-.4-.2-.7-.3-1.2-.4l.3-.6c.5.1.9.3 1.3.5l-.4.5zM6.8 9.8l-.3-.6c.5-.2.9-.4 1.4-.4l.1.7c-.4 0-.8.1-1.2.3zm3.3-.3c-.3-.1-.7-.2-1.1-.2h-.1v-.6H9c.4 0 .8.1 1.3.1l-.2.7zm13.2-.1l-.1-.7c.2 0 .3-.1.5-.1h.9l-.1.7h-.8c-.1.1-.2.1-.4.1zm6 5.5s0-.2-.1-.6l.7-.1c.1.4.1.7.1.7h-.7z"/><path d="M0 30V6.1l11.9-6L23.7 6l11.9-6v24l-11.9 5.9-.1-.1-11.7-5.9L0 30zm11.9-6.4l11.8 5.9 11.6-5.8V.5L23.7 6.3 11.9.4.3 6.2v23.2l11.6-5.8z"/><path d="M23.7 28.4l-11.8-5.9-10.6 5.3v-21l10.6-5.3 11.8 5.9L34.3 2v21h-.1l-10.5 5.4zm-11.8-6.3L23.7 28 34 22.9V2.6L23.7 7.8 11.9 1.9 1.6 7v20.2l10.3-5.1z"/><path d="M11.8.2h.3v23.6h-.3zm11.8 5.9h.3v23.6h-.3zm6.2 19.1h-.3v-4.5l4.6-2.3.1.3-4.4 2.2zm-28-12.6h-.4l.1-.7H2v.7h-.2z"/><path d="M18.5 21.3c-.2-.1-.5-.1-.7-.2-.2-.1-.4-.1-.5-.2l.2-.6c.2.1.4.1.5.2.2.1.5.1.7.1l-.2.7zm1.1 0l-.1-.7c.4-.1.7-.2.8-.5l.5.4c-.3.4-.7.7-1.2.8zm-3.4-.8c-.4-.2-.8-.5-1.1-.8l.5-.4c.2.3.5.5.9.7l-.3.5zm5.1-1l-.6-.2c.1-.4.2-.7.2-1.2l.7.1c-.1.5-.2 1-.3 1.3zm-6.8-.7c-.2-.4-.4-.8-.5-1.3l.6-.2c.1.4.3.8.5 1.2l-.6.3zm7.1-1.6h-.7v-1.3h.7v1.3zm-7.8-.7c-.1-.4-.1-.8-.2-1.3l.7-.1c.1.5.1.9.2 1.3l-.7.1zm7-1.6c0-.4 0-.8-.1-1.3h.7c0 .4 0 .8.1 1.3h-.7zm-7.3-.6c-.1-.4-.1-.8-.2-1.3l.7-.1c.1.4.1.9.2 1.3l-.7.1zm15.5-1c-.1-.4-.2-.8-.4-1.2l.6-.3c.2.4.4.8.5 1.3l-.7.2zm-7.5-.6l-.7-.1c0-.5.1-1 .2-1.3l.7.1c-.1.4-.2.8-.2 1.3zm-18.4-.5l-.3-.6c.4-.2.7-.4 1-.7l.4.5c-.3.4-.7.7-1.1.8zm9.9-.1c-.1-.4-.3-.8-.5-1.1l.5-.4c.2.4.4.8.5 1.3l-.5.2zm15.1-.7c-.2-.4-.5-.7-.8-.9l.4-.5c.4.3.7.6.9 1l-.5.4zM5 10.8l-.4-.5c.3-.2.7-.5 1.1-.8l.3.6c-.4.3-.8.6-1 .7zm16.9-.3l-.6-.2c.2-.5.5-.8.9-1.2l.4.5c-.4.3-.5.6-.7.9zm-9.9-.1c-.3-.2-.6-.5-1-.6l.2-.6c.4.2.8.4 1.2.7l-.4.5zm14.5-.4c-.4-.2-.7-.3-1.2-.4l.3-.6c.5.1.9.3 1.3.5l-.4.5zM6.8 9.8l-.3-.6c.5-.2.9-.4 1.4-.4l.1.7c-.4 0-.8.1-1.2.3zm3.3-.3c-.3-.1-.7-.2-1.1-.2h-.1v-.6H9c.4 0 .8.1 1.3.1l-.2.7zm13.2-.1l-.1-.7c.2 0 .3-.1.5-.1h.9l-.1.7h-.8c-.1.1-.2.1-.4.1zm6 5.5s0-.2-.1-.6l.7-.1c.1.4.1.7.1.7h-.7z"/><path d="M30.5 18.6l-.8-.8-.8.8-1.1-1.1.8-.8-.8-.8 1.1-1.1.8.8.8-.8 1.1 1.1-.8.8.8.8-1.1 1.1zm-.9-1.3l.8.8.6-.6-.8-.8.8-.8-.6-.6-.8.8-.8-.8-.6.6.8.8-.8.8.6.6.8-.8zm-28 7.9l-.3-.1c.1-.1 1-3.2 3.8-4 1.4-.4 2.1-.2 2.8-.1.7.2 1.3.3 2.4-.1 2.4-.8 3.8-1.2 6.5 1.3 2.5 2.3 4.2 2 6.1.7 2-1.4 3.9-2.5 6.7-1.8l-.1.3c-2.7-.7-4.4.4-6.4 1.8-1.9 1.3-3.8 1.7-6.4-.7-2.6-2.4-3.8-2-6.2-1.2-1.3.4-1.9.2-2.6.1-.7-.2-1.3-.3-2.7.1-2.5.6-3.6 3.7-3.6 3.7zM31.8 5.4l.9-1.6.9.5-1.8 1.1zm1-1.4l-.5.9 1-.6-.5-.3zm9.3 15V8.7h2.2v8.4h4.4V19h-6.6zm7-3.7c0-2.1 1.5-3.9 3.9-3.9s3.9 1.8 3.9 3.9-1.5 3.9-3.9 3.9-3.9-1.8-3.9-3.9zm5.8 0c0-1.2-.7-2.2-1.9-2.2s-1.9 1-1.9 2.2.7 2.2 1.9 2.2 1.9-1 1.9-2.2zm2.9 2.8l.8-1.4c.5.5 1.6 1 2.5 1 .8 0 1.3-.4 1.3-.8 0-1.2-4.4-.2-4.4-3.2 0-1.3 1.1-2.4 3-2.4 1.3 0 2.2.4 3 1l-.8 1.3c-.4-.5-1.3-.8-2.2-.8-.7 0-1.2.3-1.2.7 0 1.1 4.4.2 4.4 3.2 0 1.3-1.2 2.4-3.2 2.4-1.2.1-2.5-.4-3.2-1zm8.4-.9v-3.9H65v-1.7h1.2V9.5h1.9v2.1h1.5v1.7h-1.5v3.3c0 .5.2.8.7.8.3 0 .5-.1.7-.2l.4 1.5c-.3.2-.8.5-1.6.5-1.3 0-2.1-.7-2.1-2zm5.6-3.3c0-3.2 2.4-5.3 5.3-5.3 1.8 0 3.1.8 4 1.9l-1 .6c-.7-.8-1.8-1.4-3-1.4-2.2 0-3.9 1.7-3.9 4.2 0 2.4 1.7 4.2 3.9 4.2 1.2 0 2.2-.6 2.7-1.1v-2.1h-3.5v-1.2h4.8v3.7c-1 1.1-2.4 1.8-4.1 1.8-2.8 0-5.2-2.1-5.2-5.3zM82.7 19v-7.5h1.2v1.2c.6-.8 1.5-1.3 2.5-1.3v1.2c-.1-.1-.3-.1-.5-.1-.7 0-1.7.6-2 1.2V19h-1.2zm5-9.2c0-.4.4-.8.8-.8s.8.4.8.8-.4.8-.8.8c-.4-.1-.8-.4-.8-.8zm.2 9.2v-7.5h1.2V19h-1.2zm8.7 0v-1.1c-.5.7-1.5 1.3-2.5 1.3-1.9 0-3.3-1.5-3.3-3.9s1.3-3.9 3.3-3.9c1 0 1.9.5 2.5 1.3V8.8h1.2v10.3l-1.2-.1zm0-2v-3.4c-.4-.7-1.3-1.2-2.2-1.2-1.5 0-2.4 1.2-2.4 2.8s.9 2.8 2.4 2.8c.9.2 1.8-.3 2.2-1z"/></svg>