<svg id="Layer_1" xmlns="http://www.w3.org/2000/svg" viewBox="0 0 52.3 20.9"><style>.st0{fill:#2d2d2d}</style><path class="st0" d="M10.5.1c-.6-.3-1.4 0-1.6.6L.1 19.1c-.3.6-.1 1.3.5 1.6.2.1.4.1.5.1.4 0 .9-.2 1.1-.7L11 1.7c.3-.6.1-1.3-.5-1.6zm30.8 4.1c-.6-.3-1.3 0-1.6.6l-6.3 13.3c-.1.2-.2.3-.3.4-.1 0-.2-.1-.3-.3l-1.9-4c-.6-1-1.4-1.5-2.4-1.5-.9 0-1.8.7-2.3 1.7l-1.7 3.7c-.1.1-.1.2-.2.3 0-.1-.1-.2-.1-.3l-3-6.2c-.3-.6-1-.8-1.6-.5s-.8 1-.5 1.6l3 6.3c.5 1.1 1.4 1.6 2.3 1.6s1.8-.5 2.3-1.6l1.7-3.8c.1-.3.3-.4.3-.4s.1.1.3.4l1.9 4c.6.9 1.4 1.5 2.3 1.5h.1c.9-.1 1.8-.7 2.3-1.7L41.9 6c.2-.8 0-1.5-.6-1.8zm10.8 14.9L43.4.7c-.3-.6-1-.8-1.6-.5s-.8 1-.5 1.6L50 20.2c.2.4.6.7 1.1.7.2 0 .4 0 .5-.1.6-.4.8-1.1.5-1.7z"/><path class="st0" d="M22.6 2.5c.1.1.1.1.2.3l4.1 8.6c.3.6 1.1.7 1.7.4s.7-1.1.4-1.7l-4.1-8.6C24.3.5 23.4 0 22.5 0c-.9.1-1.7.7-2.2 1.8l-7.7 16.3c-.1.1-.1.2-.1.3 0-.1-.1-.1-.2-.3l-3-6.2c-.3-.6-1.1-.8-1.6-.5-.7.3-.9 1.1-.6 1.6l3 6.2c.6 1 1.4 1.6 2.3 1.6h.1c.9 0 1.7-.7 2.2-1.8l7.7-16.3c.1-.1.1-.2.2-.2zM46 14.2c-.6-.3-1.3-.1-1.6.5l-1.6 3.4c-.1.2-.2.3-.2.3-.1 0-.1-.1-.2-.3l-1.6-3.4c-.3-.6-1-.8-1.6-.5s-.8 1-.5 1.6l1.6 3.4c.6 1 1.4 1.6 2.3 1.6.9 0 1.8-.6 2.3-1.6l1.6-3.4c.3-.6.1-1.3-.5-1.6z"/></svg>