<svg id="Layer_1" xmlns="http://www.w3.org/2000/svg" viewBox="0 0 30.1 30"><style>.st0{fill:#fff}</style><title>postcss-logo-symbol</title><path d="M5.6 12.5s.1.1 0 .1l-.2.2c0 .1-.1.1-.1 0 .2 0 .3-.1.3-.3zm20.3 10.7s.1 0 0 0c.1 0 .1 0 0 0zm0 0zm-3.8-8c0 .1 0 .1 0 0 0 .1 0 .1 0 0zm0 .2zm0 .1c0-.1-.1-.1-.1-.1 0 .1.1.1.1.1z"/><path class="st0" d="M25.9 23.5v-.4h.2v.2l-.2.2zm-3.9-8l-.2-.1h.3v-.2h.1v.1H22l.1.1h.1l-.2.1c.1 0 .1 0 0 0zM5.5 13c-.1 0-.1 0 0 0l-.1-.1c.1-.1.2-.3.2-.4 0 0 .1 0 .1.1v.1l-.1.1-.1.1v.1zm.2-.4z"/><path d="M29.9 13.1c0-.4 0-.8-.1-1.2-.1-.5-.1-1.1-.3-1.6-.1-.4-.2-.8-.4-1.3s-.4-1-.6-1.4c-.4-.7-.9-1.4-1.4-2.1-.3-.4-.7-.8-1-1.3-.2-.3-.4-.5-.7-.7-.4-.3-.8-.6-1.3-.9-.3-.2-.6-.4-1-.6-.3-.2-.6-.3-.8-.4-.3-.2-.6-.3-1-.4-.1 0-.2-.1-.3-.1-.2-.1-.5-.2-.7-.2-.4-.1-.7-.2-1.1-.3-.4-.1-.7-.2-1.1-.2-.4-.1-.8-.1-1.2-.1-.3 0-.5-.1-.8-.1h-1.8c-.3 0-.6 0-.9.1-.3 0-.6.1-.8.1-.3 0-.7.1-1 .1-.3 0-.6.1-1 .2-.1 0-.2.1-.3.1-.2 0-.5.1-.7.1-.2 0-.7.1-1.1.3-.4.1-.8.3-1.1.5-.4.2-.8.5-1.1.7-.3.2-.7.5-1 .7-.4.3-.7.6-1 .9-.1.1-.3.3-.4.5-.3.3-.5.6-.8.9-.2.2-.4.5-.5.8l-.9 1.5c-.2.1-.3.3-.4.5-.1.3-.3.6-.4.9-.1.3-.2.5-.3.7-.1.5-.3 1-.4 1.5-.1.4-.2.9-.2 1.4 0 .4 0 .8.1 1.2 0 .1-.1.2.1.3 0 .1 0 .2.1.2-.1.1 0 .2 0 .3 0 0 0 .1.1.1v.1c0 .1.1.2.1.3 0 .1.1.2.1.2v.1c-.1.1-.1.1 0 .2s0 .2 0 .3v.1c.1.2.1.3.1.5v.3c.1 0 .1 0 .1-.1 0 .1.1.3.1.4.1.1.1.1 0 .1 0 .2.1.4.1.5 0-.2 0-.4-.1-.6.1.1.3.1.3.1v-.1c-.1-.1-.1-.2-.2-.2v.1s-.1 0-.1-.1.1-.1.1-.2-.1-.2-.2-.2c.1 0 .1-.1.2-.1.1-.1 0-.2 0-.3 0-.2-.1-.3-.1-.5-.1-.3 0-.7-.1-1 .1.2.1.3.1.3 0 .2.1.5.1.7-.1-.2-.1-.4-.2-.7v.1c-.1.1 0 .1 0 .2H.6v.3c-.1-.1-.1-.2-.2-.3 0-.1 0-.2-.1-.2v-.5h.2c-.1-.1 0-.2 0-.3l.1-.1c.1-.2.2-.3.2-.5v-.3c0-.2 0-.3.1-.5 0-.2 0-.4.1-.7.1-.4.2-.7.3-1.1.1-.3.2-.5.3-.7.2-.4.3-.8.5-1.2.2-.3.6-.9.9-1.4.2-.3.4-.6.6-1l.6-.9c.3-.4.7-.8 1.1-1.1.4-.4.8-.8 1.2-1.1l1.8-1.2c.5-.3 1-.5 1.6-.7.3-.1.7-.2 1.1-.3.4-.1.8-.2 1.2-.2.3 0 .5 0 .8-.1.2 0 .5 0 .7-.1 0 0 0 .1-.1.1-.1.2-.2.3-.3.5-.1.1-.2.3-.3.4-.2.2-.3.4-.5.6-.2.3-.4.7-.7 1-.2.3-.5.6-.8.9-.3.4-.6.9-1 1.3-.1.6-.5 1-.8 1.4-.2.4-.5.7-.7 1.1-.4.6-.8 1.1-1.1 1.7-.3.4-.6.8-.9 1.3 0 0-.1 0-.1.1-.1.1-.1.2-.1.3-.1 0-.2.2-.3.3-.1.1-.1.2-.2.2 0-.1.2-.2.1-.3-.1.1-.1.2-.2.2l-.1.2s.1.1 0 .1c0 .1-.1.1-.1.2l.1-.1c0 .1-.1.2-.1.3 0 .1-.1.1-.2.2 0 0 .1 0 .1.1.1 0 .1-.1.1-.1l.1-.1c0-.1.1-.2.2-.2l.1-.1c.3-.3.6-.6.9-1 .4-.5.8-1.1 1.2-1.6.3-.1.5-.3.7-.5v.7c0 .4-.1.7-.1 1.1v.9c0 .4-.1.7-.1 1.1 0 .1 0 .2.1.2-.1.5.1 1.1 0 1.7.1-.1.1-.2.1-.3v-.3c0-.2.1-.4 0-.6v-.9.2c0 .6 0 1.2-.1 1.7 0 .1 0 .1-.1.1-.1.2 0 .3-.1.4v.9c.2-.4.1-.8.2-1.2v1.5c0 .1 0 .3-.1.4v1.6c.2 0 .1.1.2.2-.1.1 0 .1 0 .2v.2h-.3c0 .6 0 1.2-.1 1.7h-6c-.1 0-.2 0-.3.1h-.2c-.1 0-.2.1-.3.1-.2 0-.2.1-.2.2v.1h.2s0 .1-.1.1c.1 0 .1-.1.2-.1.2.1.3 0 .4.1.4.1.8.1 1.2.2h5.1c.7 0 1.3 0 2-.1h4.6c.4 0 .8 0 1.1-.1.2 0 .4 0 .6-.1.2 0 .5-.1.7-.1.4 0 .7 0 1.1-.1.5 0 .9-.1 1.4-.1h3.6c.4 0 .7-.1 1.1-.1h2.3l-.2.2s.1 0 .1.1c-.1 0-.1.1-.2.1 0 .1 0 .1-.1.2h.6c-.1 0-.1.1-.2.2-.1 0-.2 0-.2.1.1 0 .1.1.1.1-.1 0-.2.1-.2.2 0 0-.1 0-.1.1-.1.1-.1.1-.1.2h.1c-.1 0-.1.1-.2.1-.2.1-.1.2-.1.2s-.1 0-.1.1.1.1.1.1c-.1 0-.1.1-.2.1 0 .1-.1.1-.1.2s-.1.1-.1.2c-.2.2-.4.5-.6.7l-.3.3c-.2.2-.3.4-.5.5-.3.2-.5.4-.8.6-.3.2-.7.5-1 .7l-.6.3-.6.3c-.1.1-.2.2-.4.3-.3.1-.7.3-1 .4-.3.1-.6.3-.8.4-.2.1-.5.1-.7.2h-.3c-.2 0-.3.1-.5.1-.4.1-.9.1-1.3.2-.3 0-.5.1-.8.1h-1c-.2 0-.4-.1-.6-.1h-.7c-.1 0-.2-.1-.3-.1-.1 0-.2-.1-.4-.1s-.4-.1-.5-.1c-.1 0-.1-.1-.2-.1-.3 0-.4 0-.6-.1-.1-.1-.3-.1-.4-.1h-.1l-.1-.1c-.2 0-.3-.2-.5-.2-.1 0-.2-.1-.3-.2-.2-.1-.4-.3-.7-.3 0-.2-.1-.3-.2-.3l.1.1c-.3-.1-.6-.3-.8-.5l-.1-.1-.3-.2c-.2 0-.2 0-.3-.1-.3-.2-.6-.3-.8-.5l-.3-.3c-.1-.2-.3-.3-.5-.4-.2-.1-.3-.2-.4-.3-.1-.1-.1-.1-.1-.2s0-.1-.1-.1c0-.1-.1-.1-.1-.2-.1-.1-.2-.1-.3-.2s-.4 0-.5-.1c-.2-.1-.3-.3-.4-.4-.3-.3-.5-.7-.8-1.1l-.1-.1c0 .1.1.2.1.3-.1 0-.2-.1-.2-.2l.7 1.2c.1.1.1.2.2.3-.1 0-.2-.1-.3-.2-.1-.2-.2-.3-.4-.2 0-.1 0-.2-.1-.2H3c.1.2.3.4.4.6-.1 0-.1-.1-.1-.1.2.2.3.4.5.6.1.2.3.3.4.6h-.1l-.3-.3c0 .1.1.1.1.2.1.1.2.3.3.4.1.1.1.1.1.2.1 0 .1.1.1.1 0 .1 0 .2.1.1.1.2.2.2.3.1.1.1.2.1.3.1.1 0 .1.1.1.1.1.1.2.3.3.4.2.2.4.3.5.5.4.3.7.5 1.1.8.5.3 1 .6 1.4.8.6.3 1.2.5 1.9.7.2.1.5.1.7.2.2.1.4.2.6.2.3.1.7.1 1 .2h.4c.1.1.1 0 .2 0h.2c.3 0 .6.1.8.1.1 0 .2-.1.2.1.1 0 .1 0 .2-.1v.1s-.1 0-.1.1c.4.1.7.1 1 0 .5 0 1 0 1.4-.2 0 .1.1.1.1 0 0 0 .1 0 .1-.1.1 0 .2-.1.3 0 .1 0 .1-.1.2-.1h.3c.1 0 .1 0 .2-.1-.1 0-.1-.1-.2-.1.1-.1.2-.1.3-.2 0 0 0 .1-.1.1h.1s-.1.1-.1.2c.4-.1.7-.2 1-.3-.1-.2.1-.1.2-.3-.1 0-.2.1-.3.1.3-.2.7-.3 1-.5-.1.1-.1.1-.2.1h.1c.2.1.1-.1.2-.2.2 0 .3 0 .4-.1.1 0 .2-.1.3-.1.2-.1.3-.2.5-.2h.1c.1-.1.2-.1.2-.1.1 0 .2 0 .3-.2.1-.1.1-.1.2-.1.2-.1.4-.2.7-.4h.1c.1-.1.3-.1.4-.2 0 0-.1 0-.1-.1.1 0 .1 0 .2-.1.2-.3.6-.5.8-.7.1 0 .1 0 .1-.1s.1-.1.1-.2c.2-.2.5-.4.7-.6.3-.3.6-.6.8-.9.2-.3.5-.6.7-.9.3-.4.5-.9.8-1.3.2-.3.3-.6.5-1l.1-.1c.3 0 .5-.1.8-.1.1 0 .1-.1.2-.1 0-.1-.1-.1-.1-.2s-.1-.1-.1-.2-.1-.1-.1-.2-.1-.1-.1-.1c-.1-.1-.1-.2-.2-.3v-.1c.2-.4.3-.8.4-1.2.2-.4.2-.9.3-1.3.1-.4.1-.8.2-1.2 0-.3.1-.6.1-.9.1-.5 0-.9 0-1.3.5-.1.5-.5.4-.8zM4.6 25.5c-.1-.1-.1-.2-.2-.3.1.1.2.2.3.4 0 0-.1 0-.1-.1zm.1.1c.1 0 .1 0 0 0 .1 0 .1.1.2.2-.1 0-.2-.1-.2-.2zm10.5 4.2c.2-.1.4-.1.6-.1-.2.1-.4.1-.6.1zm2.6-.3c-.1 0-.3.1-.4.1-.1 0-.1.1-.1 0h-.1c.1.2.2 0 .3.1-.2 0-.4.1-.6.1h.2-.3s-.1 0-.1.1h-.6c.7-.1 1.3-.2 2-.3v.1c-.2-.2-.3-.2-.3-.2zm.1-.1c.2 0 .4-.1.7-.1-.5.2-.6.2-.7.1zM9.1 9c.3-.4.7-.9 1-1.3.1-.1.2-.3.3-.4l.1-.1c0-.1.1-.1.1-.1.1-.1.1-.2.1-.3.1.1.1-.1.2-.1l.3-.3c.1-.1.1-.2.2-.2v-.1l.1-.1c.1-.1.1-.2.2-.3.1-.2.3-.3.4-.5 0 .1 0 .1-.1.1.1-.2.3-.3.4-.5-.1.1-.1.1-.1.2.1-.1.2-.3.3-.4 0 0 0 .1.1.2 0-.1.1-.2.1-.2l-.1.1.2-.3c.2-.3.4-.6.6-.8.1-.1.2-.2.2-.3.2-.4.5-.7.7-1l.2-.2c.1-.1.1 0 .1 0 .3.3.5.7.8 1 .2.3.4.5.6.8.2.3.5.6.7 1 .3.4.5.7.8 1.1.4.6.7 1.1 1.1 1.7.3.4.6.8.8 1.2H19c-.5 0-1-.1-1.4 0-.6 0-1.3.1-2 .2-.8.1-1.6.1-2.5.1-.3 0-.6 0-.9.1-.4 0-.7 0-1.1.1H9.9C9.6 9 9.4 9 9.1 9zm11.6 4.6v.1c0-.1-.1-.3-.1-.4-.1-.3-.2-.6-.4-.8l-.6-.9-.2-.2c-.2-.2-.4-.5-.7-.6-.4-.3-.8-.5-1.3-.6-.1-.1-.2-.1-.4-.2h3c.1 0 .1 0 .2.1.1.2.2.3.3.5v2.2c.2.1.2.5.2.8zM9.9 10.3c.5 0 .9-.1 1.4-.1.4 0 .7 0 1.1-.1h.4c-.2.1-.3.2-.5.3-.2.1-.4.3-.5.4-.2.1-.3.3-.5.5s-.4.4-.6.7c-.1.2-.3.3-.4.5-.2.2-.3.5-.5.7 0-1 .1-2 .1-2.9zm6.6 9.7c-.3.1-.7.2-1 .2h-1.7c-.3 0-.6-.1-.9-.2-.2-.1-.5-.2-.7-.3-.2-.1-.5-.3-.7-.5-.1-.2-.3-.3-.5-.4 0 .1.1.2.2.3-.1.1-.1 0-.2-.1h-.1c0-.1.1-.1.1-.2s-.1-.2-.1-.3c-.1-.1-.2-.3-.2-.4V18c-.1-.1-.1-.1-.1-.2-.1-.1-.2-.3-.3-.4v.1L10 17l.2.7-.1-.1c0-.1-.1-.1-.1-.1s-.1.1 0 .1c.1.2.2.3.2.5 0 .1 0 .1.1.2v.1c0 .1.1.2.1.2.1.1.2.2.3.4.1.1.2.3.3.4h.1c.1.2.2.3.3.2 0 .2.3.3.4.5-.1 0-.2-.1-.3-.1.1.1.2.1.4.2.1.1.2.1.3.2.1.1.3.2.4.2.3.1.6.3.8.4-1.1 0-2.2 0-3.3.1v-.8c0-.5 0-.9-.1-1.4-.1-.5-.1-1-.1-1.4v-2 .1l.1.1c.1 0 .2-.1.2-.1.1-.1.1-.3.1-.4 0-.1 0-.2.1-.2 0 0 0-.1.1-.1l-.1-.1c0-.1 0-.2.2-.3v-.4l.1.1v-.1c.1 0 .1-.2.1-.2v-.2c.1 0 .1-.2.2-.3 0 0 0-.1.1-.1.1.1-.1.2-.1.3.2-.1.2-.3.1-.4l.1-.1c.1-.1.2-.2.3-.4.1-.1.1-.2.2-.3 0-.1.1-.1.2-.1.2-.1.4-.2.5-.4 0 0 .1 0 .1-.1 0 0 .1 0 .1-.1v-.1s.1-.1.2-.1c0 .1 0 .1-.1.1l.1.1c.1-.1.2-.2.3-.2l-.1-.1c-.1 0-.2.1-.2.1v-.1c.1-.1.3-.2.4-.3.4-.2.7-.3 1.1-.5h.3c.2-.1.3-.1.5-.1h1.1c.1 0 .3 0 .4.1.2.1.3.1.5.2s.3.2.5.3l.9.6c.3.2.5.4.7.7.2.3.5.6.6 1l.2.7c0 .1.1.2.1.4-.1.3-.1.5-.1.8v.3c0 .3-.1.6-.2.9 0 .1-.1.2-.2.3h.1l.1-.2c-.1.1-.1.3-.1.4-.1.3-.2.6-.4.9-.1.2-.2.3-.3.5-.1.1-.2.3-.3.4l-.3.3c-.3.2-.6.4-.8.6-.7.2-.9.2-1.1.3zm-5.4-.5c-.1 0-.1-.1 0 0l-.3-.4V19c0 .1.1.3.3.5zm6.3 1.3c.5-.2.8-.5 1.2-.8.1-.1.1-.1.2-.1.4-.3.7-.6 1-1 .3-.5.5-1 .8-1.5 0 0 0-.1.1-.1 0 1.2.1 2.3.3 3.4-1.3.1-2.5.1-3.6.1zm10.2-.3c0 .1 0 .1 0 0 0 .1 0 0 0 0-.1.1-.3.1-.3.1h-3.2c-.2 0-.4 0-.5.1h-1.2l-.1-.1s0 .1-.1.1l-.1-.1v.1c0-.1-.1-.3-.1-.4V19l.1.1s0-.1.1-.1v-.3l.1.3c0-.1.1-.1 0-.2v-.1c0-.1-.1-.1-.1-.2h.1s-.1 0-.1-.1c.1-.1.1-.1 0-.2v-.3c0-.1 0-.2-.1-.3v.1H22c-.1-.1-.1-.3-.1-.5.1 0 .1 0 .2.1 0-.1-.1-.2-.1-.2v-.7h.1l-.1-.1c-.1-.1 0-.2 0-.3v-.7c.1.1-.1.2.1.3V15v.1l.1-2.4c.1.1.2.3.3.4.2.4.5.8.8 1.2.2.3.5.7.7 1 .3.4.5.8.8 1.2l.6.9c.2.3.4.5.6.8.2.2.4.5.5.7.2.3.4.6.6.8.1.1.2.3.3.4.1.1.2.1.2.2l.1.1s0 .1-.1.1zm.5-2.5zM18.8 5.6c-.3-.4-.5-.7-.8-1.1l-.9-1.2c-.4-.5-.7-1-1.1-1.5-.2-.2-.4-.4-.6-.7.1 0 .3 0 .4.1h.5c.4 0 .7.1 1.1.1.3 0 .6.1.9.2.7.1 1.3.3 2 .5.4.1.7.3 1.1.4.8.3 1.6.7 2.4 1.2.2.2.3.4.5.6l.8.8c.3.3.6.7.8 1 .3.3.5.6.8.9.1.1.1.2.2.3.2.2.3.5.5.7.1.2.2.4.2.6l.3.9c.1.2.1.5.2.7 0 .2 0 .3.1.5s0 .4.1.7v.1s.1.1 0 .1v.1l.1-.1v.2l.1-.1m.1 1.3c0 .3.1.7-.1 1v-.3l-.1-.1v.1s-.1 0-.1-.1c0 .1.1.3.1.4 0 0 .2 0 .2-.1-.2.2-.2.3-.1.5 0 0 .1.1 0 .2v.1h-.1l-.1-.1v.5c.1 0 .1.2.1.2v-.1.2c0 .1 0 .2-.1.3-.1.3-.1.5-.1.8v.6c0 .2-.1.4-.1.5l-.1.1v-.3s-.1-.1-.2-.1c0 .1.1.3.1.5l-.2-.1v.4c0 .1-.1.2-.1.3 0 .1.1.1.1.2h.1c0-.2.1-.4.1-.6v.1c0 .1-.1.2-.1.3 0 .1.1.1 0 .2v.1h-.1c0 .1.1.1.1.2l-.3-.5c-.3-.4-.5-.8-.8-1.2-.1-.1-.1-.2-.2-.3-.3-.5-.7-1.1-1-1.5-.3-.4-.5-.8-.8-1.2-.3-.4-.5-.7-.8-1.1-.1-.1-.2-.2-.3-.4-.3-.4-.5-.8-.8-1.3-.2-.3-.5-.7-.7-1-.1-.1-.2-.2-.2-.4v-.1c0-.2 0-.4-.1-.7v-.6.1h-.9c-.2 0-.3-.1-.4-.2-.4-.4-.7-.9-1-1.4"/><path class="st0" d="M15.5 30c-.2 0-.4 0-.6-.1h-.1l.1-.1h-1.8c-.3-.1-.6-.1-.9-.2-.1 0-.2-.1-.4-.1-.1 0-.2-.1-.3-.1-.3-.1-.5-.1-.7-.2-.8-.2-1.5-.5-2-.7-.3-.2-.6-.3-.9-.5l-.6-.3c-.3-.2-.8-.4-1.2-.8-.1-.1-.2-.2-.3-.2-.1-.1-.2-.2-.3-.2-.1-.1-.2-.2-.3-.4H5v-.2c-.1 0-.2 0-.3-.1-.1 0-.2 0-.3-.1h-.1v-.1s-.1 0-.1-.1c0 0 0-.1-.1-.1 0-.2-.1-.3-.2-.4l-.1-.1c0-.1-.1-.1-.1-.2l-.1-.2.2.2c0 .1.1.1.1.1l.2.2c0-.1-.1-.1-.1-.2-.1-.1-.2-.2-.2-.3-.2-.1-.3-.2-.4-.4-.1 0-.1-.1-.2-.1l-.2-.2.2.1c-.1-.2-.2-.3-.3-.5l-.1-.1H3v.2c.2 0 .3.1.4.3 0 .1.1.1.2.1v-.1l-.1-.1c-.3-.8-.5-1-.5-1.1v-.1l.1.1s0-.1-.1-.1v-.3l.2.2.1.1c.1.1.1.2.2.3.1.2.3.5.5.7l.1.1c.1.1.2.3.4.3.1 0 .1.1.2.2l.1.1.1.1.2.2c.1 0 .1.1.1.1h.1l.1.1c0 .1 0 .1.1.2s.3.2.4.3c.2.1.4.2.5.4 0 .1.1.1.2.2l.1.1c.1 0 .3.1.4.2.1.1.3.1.4.2 0 0 .1.1.2 0l.3.2c.1 0 .1.1.2.1.1.1.3.2.4.2v-.1l.2.1h.3c.2 0 .3.1.4.2.1 0 .2.1.2.1.1 0 .1.1.1.1l.1.1c.1 0 .1.1.2.1.1.1.2.1.3.1.1 0 .1 0 .1.1.1 0 .3 0 .4.1h.1c.2.1.3.1.6.1.1 0 .1.1.2.1s.2 0 .3.1c.1 0 .2 0 .3.1h1.7c.1 0 .3.1.4.1h.9c.1 0 .3 0 .4-.1.1 0 .3 0 .4-.1.2 0 .4-.1.7-.1.2 0 .4-.1.7-.1.1 0 .2 0 .3-.1h.4c.3-.1.5-.1.7-.2.2-.1.3-.1.5-.2.1 0 .2-.1.3-.1.1 0 .2-.1.3-.1.2-.1.5-.2.7-.3.1 0 .1-.1.2-.1l.1-.1c.1-.1.2-.1.3-.2.1-.1.2-.1.3-.2.1 0 .1-.1.2-.1.1-.1.2-.1.3-.2.3-.2.7-.5 1-.7.2-.2.5-.4.8-.6l.3-.3.2-.2.3-.3c.2-.1.3-.3.4-.4.1-.1.1-.2.2-.2 0 0 0-.1.1-.1V23l.1-.1.1-.1v-.2c0-.1 0-.1.1-.2 0-.1 0-.2.1-.2l.1-.1s.1 0 .1-.1v-.1c0-.1.1-.1.2-.1 0-.1.1-.2.2-.1h-.1v-.2h-.1l.1-.1h-7c-.4 0-.7 0-1 .1h-2.1c-.2 0-.4 0-.6.1H3.3c-.4 0-.8-.1-1.2-.2h-.4s-.1 0-.2.1l-.1.1.1-.1h-.2v-.1c0-.2.1-.2.2-.3h.1s.1 0 .2-.1h6.4c.1-.4.1-.7.1-1.1v-.5h.2v-.3c0-.1 0-.1-.1-.1v-1.5c0-.1 0-.2.1-.3v-.4c0 .1 0 .1-.1.2l-.1.2v-3.4c0-.2 0-.4.1-.6 0-.2 0-.4.1-.6v-2.5l-.1.1c-.1.2-.3.3-.4.5-.1.2-.3.4-.4.5-.3.3-.5.7-.8 1.1-.2.3-.5.5-.7.7l-.2.2-.1.1c-.1 0-.1.1-.2.2 0 0 0 .1-.1.1l-.1.1h-.2.1c.1 0 .1-.1.1-.1V13l.1-.2v-.2l.1-.3.1-.1.1-.1V12H6v.1c.1-.1.2-.3.2-.4v-.1s0-.1.1-.2c.4-.5.7-.9 1-1.4.2-.3.4-.6.6-.8.2-.3.4-.6.6-.8 0-.2.1-.3.2-.4.2-.3.3-.5.5-.7.2-.3.3-.5.5-.7.1-.2.3-.4.4-.6.2-.2.3-.4.5-.7.2-.2.3-.4.5-.7l.3-.3c.2-.2.3-.4.5-.6.1-.2.3-.4.4-.6.1-.1.2-.3.3-.4.1-.2.2-.3.4-.5 0-.1.1-.1.1-.2s.1-.1.1-.2.1-.1.1-.2c.1-.1.1-.2.2-.2.1-.1.1-.2.2-.2-.2 0-.4 0-.6.1-.3 0-.5.1-.8.1-.4 0-.8.1-1.2.2-.1 0-.3.1-.5.1-.2.1-.4.1-.6.2-.5.2-1 .4-1.6.7-.7.3-1.3.7-1.9 1.1-.3.3-.6.5-.9.8l-.3.3c-.4.3-.7.7-1.1 1.1-.2.3-.3.6-.5.8l-.1.1c-.2.3-.4.7-.6 1-.1.1-.1.3-.2.4-.2.4-.5.8-.7 1.2-.2.3-.3.7-.4 1l-.1.2c-.1.3-.2.5-.3.7-.1.4-.2.7-.3 1.1v.6c0 .2 0 .3-.1.5v.3c0 .2-.1.3-.1.4l-.1.1s0 .1-.1.1c0 .1-.1.1 0 .2l.1.1H.4v.8-.2h.1v-.6.2l.1-.1h.1v1c0 .1 0 .1.1.2 0 .1.1.2.1.3v.1c0 .1.1.2 0 .2 0 0 .1.1.1.2l.1.1.1.1v.1c-.1 0-.2 0-.3-.1v.8l.1.1c-.1-.1-.1-.3-.1-.4v-.2c0-.1-.1-.2-.1-.3H.7v-.4c0-.2 0-.4-.1-.5v-.4l-.1-.1v-.9s-.1-.1 0-.1v-.4c-.4-.1-.4-.2-.4-.2v-.1c-.1-.4-.1-.8-.1-1.2 0-.4 0-.9.2-1.4.1-.4.2-.9.4-1.5.1-.2.1-.5.2-.7l.3-.6c.1-.1.1-.2.2-.3l.3-.6c.2-.4.5-1 .9-1.5.1 0 .1-.1.2-.2.1-.2.3-.4.4-.6.2-.2.4-.5.6-.7l.2-.2.1-.1c.1-.1.2-.2.3-.4.3-.3.6-.6.9-.8.3-.3.7-.5 1-.7l.2-.1c.3-.2.6-.5.9-.6.4-.2.7-.4 1.2-.6C9 1 9.4.8 9.8.7c.2-.1.4-.1.5-.1h.9c.2 0 .4-.1.7-.1.2 0 .3 0 .5-.1.2 0 .3 0 .5-.1h.2c.2 0 .4-.1.6-.1.3-.2.6-.2.8-.2h1.8c.3 0 .5 0 .7.1h.4c.3 0 .5 0 .8.1.3 0 .7.1 1.1.2.2.1.5.1.7.2.1 0 .2.1.4.1.1 0 .3.1.4.2.2.1.3.1.3.1h.1c.1 0 .1 0 .2.1.3.1.6.2.8.3.1 0 .1.1.2.1s.2.1.2.1l.6.3c.4.2.7.4 1 .6.4.3.8.6 1.3.9.2.2.5.4.7.7.2.2.3.5.5.7.2.2.3.4.5.6.1.2.2.4.4.5.4.5.7 1 1 1.6.3.5.4.9.6 1.4V9c.2.4.3.8.4 1.3.1.5.2 1.1.3 1.6 0 .3 0 .6.1.9v.3c0 .4 0 .7.1 1.1v1.3c0 .2 0 .4-.1.6v.5c0 .3-.1.6-.1.9v.3c-.1.3-.1.7-.3 1-.1.2-.1.4-.2.6-.1.2-.1.4-.2.6v.1c0 .1.1.2.2.3v.2c0 .1.1.1.1.2 0 0 0 .1.1.1l.1.1v.2h-.1c-.1 0-.1.1-.2.1h-.9c-.1.2-.2.3-.3.5-.1.2-.2.3-.3.5l.1.3c-.2.4-.5.8-.7 1.2-.2.3-.5.6-.7.9-.3.3-.5.6-.8.9-.1.1-.3.2-.4.4-.1.1-.2.1-.3.2l-.1.1c0 .1-.1.1-.1.1-.1.1-.2.2-.3.2-.2.1-.4.3-.5.5H24h.1l-.1.1c-.1.1-.2.1-.4.2h-.1c-.1.1-.2.1-.3.2-.1.1-.2.1-.3.2 0 0-.1 0-.1.1s-.2.2-.3.2l-.1.1h-.1c-.1 0-.1.1-.2.1-.1.1-.2.1-.3.2-.1 0-.2.1-.3.1-.1 0-.2.1-.3.1v.1s0 .1-.1.1h-.4c-.1.1-.2.1-.4.2L20 29c0 .1-.1.1-.2.1h-.1v.2h-.1c-.2 0-.3.1-.5.1s-.4.1-.5.1h-.7s-.1.1-.2 0h-.4s0 .1-.1.1c0 0-.1 0-.1-.1-.4.1-.9.2-1.4.2.1.3 0 .3-.2.3zm-.4-.1h.9c.3 0 .7 0 1-.1h-.3v-.1h-1c-.2 0-.4.1-.6.1v.1l.1-.2.7-.1 2-.3h.8s.1 0 .1-.1l.2-.1-.1.1v.1c.1 0 .3-.1.4-.1.1 0 .3-.1.4-.1V29l-.4.1.3-.2c.3-.1.6-.3.9-.4l.4-.2v.1c.2 0 .2 0 .3-.1.1 0 .2-.1.3-.1.1 0 .2-.1.3-.1.1 0 .1-.1.2-.1h.1l.1-.1s.1-.1.1 0c.1 0 .2 0 .2-.1h.1l.1-.1c.1-.1.2-.1.3-.2.1-.1.2-.1.3-.2h.1c.1 0 .2-.1.3-.2l-.1-.1h.3l.5-.5c.1-.1.2-.2.3-.2h.1l.1-.1c.1-.1.2-.2.3-.2.1-.1.3-.2.4-.4.3-.3.6-.6.8-.9.2-.3.5-.6.7-.9.3-.4.5-.8.7-1.2l.1-.1c.1-.2.2-.3.3-.5.1-.2.2-.3.3-.5l.1-.1h.8s.1 0 .1-.1v-.1s0-.1-.1-.1l-.1-.1c0-.1-.1-.1-.1-.2v-.2c-.1-.1-.1-.2-.2-.4v-.1c.1-.2.2-.4.2-.6.1-.2.1-.4.2-.6.1-.3.2-.7.3-1v-.3c.1-.3.1-.6.1-.9v-.5c0-.2 0-.4.1-.6.1-.4 0-.8 0-1.2v-.1c0-.4 0-.7-.1-1.1v-.3c0-.3 0-.6-.1-.9-.1-.5-.1-1.1-.3-1.6-.1-.4-.2-.9-.4-1.3V9c-.2-.5-.4-.9-.6-1.4-.3-.6-.7-1.1-1-1.6-.1-.2-.3-.4-.4-.5-.1-.2-.3-.4-.5-.6-.2-.2-.4-.4-.5-.7-.2-.3-.4-.5-.7-.7-.4-.3-.9-.6-1.3-.9-.3-.2-.6-.4-1-.6l-.6-.3c-.1 0-.2-.1-.2-.1-.1 0-.1-.1-.2-.1-.2-.1-.5-.2-.8-.3-.1 0-.1 0-.2-.1h-.1c-.1 0-.2-.1-.3-.1-.1-.1-.3-.1-.4-.2-.1 0-.2-.1-.4-.1-.2-.1-.5-.2-.7-.2-.4-.1-.8-.2-1.1-.2-.3 0-.5-.1-.8-.1h-.4c-.2 0-.5-.1-.7-.1h-1.7c-.3 0-.5 0-.9.1-.2 0-.4.1-.6.1h-.2c-.2 0-.3 0-.5.1-.2 0-.3 0-.5.1-.2 0-.4.1-.7.1h-.9c-.2 0-.4.1-.5.1-.2.2-.6.4-1.1.5-.4.2-.8.4-1.1.6-.3.1-.6.3-.9.5l-.2.2c-.3.2-.7.4-1 .7-.4.3-.7.5-.9.8-.1.1-.2.2-.3.4-.1 0-.1.1-.2.1 0 .1-.1.2-.2.3-.2.2-.3.4-.5.6-.2.2-.3.4-.5.6 0 .1-.1.1-.1.2-.4.5-.7 1-.9 1.5l-.3.6c-.1.1-.1.2-.2.3l-.3.6c-.1.2-.2.4-.2.6-.2.6-.3 1.1-.4 1.5-.1.5-.2.9-.2 1.4 0 .4 0 .8.1 1.2v.1c0 .1 0 .1.1.2v.1h.1v.3-.1h.2v-.2s0-.1.1-.1l.1-.1v-.6c0-.2 0-.3.1-.5v-.6c.1-.4.2-.7.4-1.1.1-.2.2-.5.3-.8l.1-.2c0-.3.2-.6.3-.9.2-.4.5-.9.7-1.3.1-.1.1-.2.2-.3.2-.3.4-.7.6-1l.1-.1c.2-.3.4-.6.6-.8.3-.5.7-.9 1-1.2l.3-.3c.3-.3.6-.6.9-.8.6-.4 1.2-.8 1.9-1.1.5-.3 1.1-.5 1.6-.7.2-.1.4-.1.6-.2.1 0 .3-.1.4-.1.4-.1.8-.2 1.2-.2.3 0 .5 0 .8-.1.2 0 .5 0 .7-.1h.1l-.1.1v.1c-.1.1-.1.2-.2.2-.1.1-.1.2-.2.2 0 .1-.1.1-.1.2s-.1.1-.1.2-.1.1-.1.2c-.1.2-.2.3-.4.5-.1.1-.2.3-.3.4-.1.2-.3.4-.4.6-.2.2-.3.4-.5.6l-.3.3c0 .3-.2.5-.3.7-.2.2-.3.4-.5.7-.1.2-.3.4-.4.5-.2.3-.4.5-.5.7-.2.2-.3.5-.5.7-.1.2-.2.3-.3.4-.2.3-.3.6-.5.9-.2.3-.4.5-.6.8-.3.4-.6.8-.9 1.3l-.1.1c0 .1-.1.1-.1.2v.1c-.1.2-.2.3-.3.4v.1s0 .1-.1.1l-.1.1v-.1l-.1.2v.1c0 .1-.1.2-.1.3 0 .1-.1.1-.2.2h.1v-.1c.1-.1.1-.2.2-.3 0 0 .1 0 .1-.1l.2-.2.7-.7c.3-.3.6-.7.8-1 .1-.2.3-.4.4-.5l.6-.6.2-.2.1-.1v2.8c0 .2 0 .4-.1.6 0 .2 0 .4-.1.6l.1-.2v.8c0 .4 0 .9-.1 1.3v.1h-.1v.1l.1-.4v2c0 .1 0 .2-.1.3v1.3c.1 0 .1.1.2.2v1.5c-.1 0-.1 0-.1-1.3h-.1v.5c0 .4 0 .8-.1 1.2H1.8s-.1 0-.2.1c-.1 0-.1 0-.1.2v.1h.7l-.3.1h.4c.4.1.8.1 1.2.2h.8c.5 0 1.1.1 1.6 0h10.7c.2 0 .4 0 .6-.1h2.1c.3 0 .7 0 1-.1h7.3l-.1.1c-.1 0-.1.1-.1.1h.1-.1c-.1 0-.1.1-.2.1v.1H27v.1s-.1 0-.1.1l-.1.1h-.1c.1 0 0 .1 0 .1-.1 0-.1 0-.1.1v.1h-.1l-.1.1v.1h.1l-.1.1h-.2c-.1 0-.1.1-.1.1H26h.1l-.1.5c0 .1-.1.1-.1.2v.1s0 .1-.1.1c-.1.1-.1.2-.2.2-.1.2-.3.3-.5.5-.1.1-.2.2-.3.2l-.2.2-.3.3c-.3.2-.6.4-.8.6-.3.2-.7.5-1 .7-.1.1-.2.1-.4.2-.1 0-.1.1-.2.1-.1.1-.2.1-.3.2-.1.1-.2.1-.3.2l-.1.1c-.1.1-.2.1-.2.2-.2.1-.5.2-.7.3-.1 0-.2.1-.3.1-.1.1-.2.1-.3.1-.2.1-.3.1-.5.2s-.4.1-.7.2H18c-.1 0-.2 0-.3.1-.2 0-.4.1-.7.1-.2 0-.4.1-.7.1-.1 0-.3 0-.4.1-.1 0-.3 0-.4.1h-1c-.1 0-.3-.1-.4-.1h-1.7c-.1 0-.2 0-.3-.1-.1 0-.2 0-.3-.1-.1 0-.1-.1-.2-.1-.3 0-.4 0-.6-.1h-.1c-.1 0-.2-.1-.3-.1h-.1V28c-.1 0-.2-.1-.3-.1-.1 0-.1-.1-.2-.1s-.1-.1-.1-.1l-.1-.1c-.1 0-.2-.1-.3-.1-.1-.1-.2-.2-.4-.2H9l.2.2-.3-.1-.6-.3c-.1 0-.1-.1-.2-.1 0 0-.1 0-.1-.1l-.3-.2h-.2c-.1-.1-.3-.2-.4-.2-.2-.1-.3-.2-.5-.3l-.1-.1c-.1-.1-.2-.1-.2-.2-.1-.1-.3-.3-.5-.4-.2-.1-.3-.2-.4-.3-.1 0-.2-.1-.2-.3v-.2l-.1-.1c-.1 0-.2-.1-.3-.2h-.1l-.1-.1c-.1-.2-.1-.3-.2-.3-.2-.1-.3-.2-.4-.3l-.1-.1c-.2-.3-.4-.5-.6-.8v.1h-.1c.1.2.4.6.6.9l.1.1.1.1h-.1c-.1 0-.3-.1-.4-.2-.1-.1-.2-.2-.3-.2.1.1.1.2.2.3l.1.2.3.3c0 .1.1.2.2.3.1.1.2.2.2.3v.1H4l.2.2.1.1-.1-.1.1-.1c.1.1.2.2.3.4 0 0 0 .1.1.1v.1c.1.1.1.1.2 0l.1-.1v.1h.1c.1.1.2.3.3.4.1.1.2.2.3.2.1.1.2.2.3.2.4.3.8.6 1.1.8l.6.3c.3.2.6.3.9.5.5.3 1.2.5 1.9.7.2 0 .5.1.7.2.1 0 .2.1.3.1.1 0 .2.1.4.1.3.1.6.1.9.2h2v.1c.3.2.3.2.3.3zm2.4-.2zm-.6-.1s.1 0 0 0h.2v-.1l-.2.1zm.6 0h1-.2.1-.9zm-.2 0zm1.3-.2c0 .1 0 .1 0 0h.1-.1c.1 0 0 0 0 0zm2-.7c.1 0 .1 0 0 0 .1 0 .1 0 0 0 .1 0 .1 0 0 0zm1.6-.6zM4.7 25.6zm-.1 0zm-1.5-2.2zM.9 17.2H1c.1 0 .2.1.2.1s0-.1-.1-.1v.1H1c.1-.1.1-.1-.1-.1l.2-.2v-.1H.8c.1.1.1.2.1.3zm.2-.1zm-.3-.3h.4v-.3c0-.1 0-.2-.1-.3C1 16.1 1 16 1 16v.3l-.1-.5c0-.1-.1-.2-.1-.3H.7v.4l-.1-.1c-.1-.1-.1-.1-.1-.2v.1c.1.1 0 .2 0 .3v.1c.1.1.1.3.1.5v.2h.2c-.1 0-.1 0 0 0zM.9 15zm-.6-.3zm8.3-.5s0 .1 0 0c0 .1 0 0 0 0zm1.3 6.9v-1.3c0-.3 0-.6-.1-.9-.1-.5-.1-.9-.1-1.5v-2.1h.1l.1.1.1-.1c0-.1.1-.2.1-.4 0-.1 0-.2.1-.2v-.1s-.1 0-.1-.1v-.1c0-.1 0-.2.2-.3v-.6s0-.1.1-.1.1 0 .1-.1c0 0 0-.1.1-.1v-.1h.1l.1-.1c0-.1.1-.1.1-.1l.2-.2.1-.1c0-.1.1-.1.1-.2s.1-.1.2-.1c.2-.1.3-.2.4-.4 0 0 .1 0 .1-.1h.1v-.1h.1s.1 0 .1-.1l.1-.1c.1-.1.2-.1.4-.2.3-.2.7-.3 1.1-.5h.4c.2-.1.3-.1.5-.1h1.1c.1 0 .2 0 .4.1s.3.1.5.2.3.2.5.3c.1.1.2.2.3.2.2.1.3.2.5.3.3.2.5.4.7.7 0 .1.1.1.1.2.2.2.4.5.5.8l.2.7v.1c0 .1.1.2 0 .3 0 .2-.1.5-.1.7v.4c0 .3-.1.6-.2.9v.1h.1c0 .1 0 .1-.1.2 0 .1 0 .1-.1.2v.1c-.1.3-.2.6-.4.9-.1.1-.1.2-.2.3 0 .1-.1.1-.1.2s-.1.1-.1.2-.1.2-.2.2l-.3.3-.9.6c-.2.1-.4.2-.6.2h-.1c-.3.1-.6.1-.9.2h-1.6c-.3 0-.6-.1-.9-.2-.1 0-.2-.1-.3-.1-.2-.1-.3-.1-.5-.2s-.5-.3-.7-.5c0-.1-.1-.1-.2-.2h-.1c-.1 0-.1 0-.2-.1l-.1.1.1-.1c0-.1.1-.1.1-.2 0 0 0-.1-.1-.1 0 0 0-.1-.1-.1-.1-.1-.2-.3-.2-.4v-.1c0-.1-.1-.1-.1-.2 0 0 0-.1-.1-.1l-.1-.1v.1h-.1l-.1-.1v.1c.1.2.2.3.2.5 0 .1 0 .1.1.2v.2c0 .1.1.1.1.2s.1.1.1.2l.1.1v-.1l.1.1c.1.2.2.3.3.5l-.1.1.1.1h.2v.1c0 .1.1.2.2.3.1.1.2.1.2.3v.1c.1.1.2.1.3.2.1.1.2.1.3.2l-.1-.1.3.1c.3.1.6.3.8.4l.2.1h-.2c-1.1-.5-2.2-.5-3.4-.5zm-.1-5.5v1.9c0 .5 0 1 .1 1.4 0 .3.1.6.1.9V21c1.1 0 2.1 0 3.1-.1-.2-.1-.3-.2-.5-.2h-.1c-.2 0-.3-.1-.5-.2-.1-.1-.2-.1-.3-.2-.1-.1-.2-.1-.3-.2 0 0 .1 0 .1.1l-.1-.1c-.1-.1-.2-.2-.2-.3h-.1c-.1 0-.2-.1-.2-.2h-.1s0-.1-.1-.1c-.1-.1-.1-.2-.2-.3 0-.1-.1-.1-.1-.2s-.1-.1-.1-.2-.1-.1-.1-.2v-.1c0-.1-.1-.1-.1-.2-.1-.3-.2-.4-.2-.6 0-.1 0-.1.1-.2h.1L10 17h.1l.1.3.1.1c.1.1.1.2.2.3 0 0 0 .1.1.1 0 .1.1.1.1.2v.1c.1.1.2.3.2.4 0 0 0 .1.1.1 0 0 0 .1.1.1l.1.1.3.3c.2.2.4.4.7.5.2.1.3.1.5.2.1 0 .2.1.3.1.3.1.6.2.9.2h1.6c.3 0 .6-.1.9-.2h.1c.2 0 .4-.1.6-.2.3-.2.5-.3.8-.6l.3-.3.2-.2c0-.1.1-.1.1-.2s.1-.1.1-.2c.1-.1.1-.2.2-.3.1-.3.2-.6.4-.8V17c0-.1 0-.1.1-.2 0 0-.1 0-.1-.1 0 0 0-.1.1-.1 0-.1.1-.1.1-.2.1-.3.2-.5.2-.8v-.4c0-.2.1-.5.1-.7v-.4l-.2-.7c-.1-.3-.3-.5-.4-.8 0-.1-.1-.1-.1-.2-.2-.3-.4-.5-.7-.7-.2-.1-.4-.2-.5-.3-.1-.1-.2-.2-.3-.2-.2-.1-.3-.2-.5-.3-.1-.1-.3-.1-.4-.2-.1 0-.2-.1-.4-.1h-1.1c-.2 0-.3.1-.5.1h-.3c-.4.2-.7.3-1.1.5-.1 0-.1.1-.2.1.1 0 .1.1.1.1s-.1 0-.1.1c-.1 0-.2.1-.2.1l-.1-.1s-.1 0-.1.1c0 0-.1 0-.1.1-.1.2-.3.3-.5.4-.1 0-.1.1-.2.1l-.1.1c0 .1-.1.1-.1.2l-.2.2-.1.1s0 .1-.1.1v.1c0 .1-.1.2-.2.3l-.1.1v-.1s0-.1.1-.1v-.1s0 .1-.1.1c0 .1-.1.1-.1.2v.2s0 .1-.1.1v.3c-.1 0-.1.1-.1.2v.1h.1v.1c0 .1-.1.1-.1.2s0 .3-.1.4c0 .1-.1.1-.1.1-.5.6-.5.5-.6.5zm1.2-2.4zm1.4-1.4zm.2-.1zm4.5 9.2l.3-.1c.4-.2.8-.4 1.2-.8 0 0 .1-.1.2-.1.5-.3.8-.7 1-1 .2-.3.4-.7.6-1 .1-.2.2-.3.2-.5v-.2l.1-.2v.2c0 1.2.1 2.3.3 3.4v.1h-.1c-1.1 0-2.3.1-3.5.1l-.3.1zm3.4-3.4c-.1.1-.1.3-.2.4-.2.3-.3.7-.6 1-.2.3-.6.8-1 1-.1 0-.1.1-.2.1-.3.3-.6.5-1 .7 1.1 0 2.1-.1 3.2-.1-.1-.9-.2-2-.2-3.1zm1.6 3.3H22V19l.1.1h.2v-.3h.1v-.2h-.1l.1-.1.1-.1-.1-.1h.1v-.4c-.1-.1-.1-.2-.1-.3v-.3h.2v-.1h-.1v-.7H22l-.1-.1c-.1-.1 0-.2 0-.2V15l.1.1V15h-.1l.1-2.6.1.1.1.1c.1.1.2.2.2.3l.6.9c.1.1.1.2.2.3.2.3.4.5.5.8.1.1.1.2.2.3.1.2.3.4.4.6.1.2.3.4.4.6l.6.9c.2.3.4.5.6.8.1.1.2.2.3.4l.3.3c.2.3.4.6.6.8.1.1.2.3.3.4 0 .1.1.1.2.1l.1.1h-.1c.1 0 .1.1.1.1v.2-.1h-5.2s-.1 0-.1-.1l-.3.5zm0-.3c.1.1.1.1 0 0l.1.1h5c.1 0 .1 0 .2-.1v-.1l-.1-.1-.1-.1-.1-.1c-.1-.1-.2-.3-.3-.4-.2-.3-.4-.6-.6-.8l-.3-.3c-.1-.1-.2-.2-.3-.4-.2-.3-.4-.5-.6-.8l-.6-.9c-.1-.2-.3-.4-.4-.6-.1-.2-.3-.4-.4-.6-.1-.1-.1-.2-.2-.3-.2-.3-.3-.5-.5-.8.1-.2.1-.3 0-.4l-.6-.9c0-.1-.1-.2-.2-.3l-.1 2.2h.1v.7H22v.6l.1.1v.1H22v.6s0 .1.1.1c0 0 0 .1.1.1v.1H22v.2h.1c.1.1.1.2.1.2v.6l.1.1h-.1c0 .1 0 .1.1.1v.1c.1.1 0 .1 0 .2v.1h-.1s0 .1-.1.1v1.6-.1.1c0 .1 0 .1 0 0zm5.5-.1c0 .1 0 0 0 0zm-5.4-1.5zm5.9.4v-.2l-.4-.5c-.3-.4-.5-.8-.8-1.1-.1-.1-.1-.2-.2-.3-.3-.6-.7-1.1-1-1.5-.2-.2-.4-.5-.5-.7-.1-.1-.2-.3-.3-.4-.1-.2-.3-.4-.4-.6-.1-.2-.3-.4-.4-.6l-.1-.1c-.1-.1-.1-.2-.2-.2-.1-.2-.3-.4-.4-.6-.1-.2-.2-.4-.4-.6-.2-.2-.3-.5-.5-.7-.1-.1-.1-.2-.2-.3-.1-.1-.2-.2-.2-.4v-.1c0-.2 0-.4-.1-.7V8.5h-.8c-.2 0-.3-.1-.5-.2-.3-.3-.5-.6-.7-.9-.1-.2-.2-.3-.3-.5l.1-.1c.1.2.2.3.3.5.2.3.4.6.7.9.1.1.2.2.4.2h1l-.1.1v1c0 .2 0 .4.1.7v.1c.1.1.2.2.2.3.1.1.1.2.2.3.2.2.3.5.5.7.1.2.3.4.4.6.1.2.2.4.4.6 0 .1.1.2.2.2l.1.1c.1.2.3.4.4.6.1.2.3.4.4.6.1.1.2.3.3.4.2.2.3.5.5.7.4.5.7 1 1 1.6.1.1.1.2.2.3.3.4.5.8.8 1.1l.2.3v-.2c0-.1 0-.1.1-.2v-.5h.1v-.1c0-.1-.1-.2-.1-.3v-.1H28h.2v.1c0-.1.1-.3.1-.4v-.9c0-.2 0-.3.1-.5v-.3c0-.1 0-.1-.1-.1v-.6h.1l.1.1v-.2c-.1-.1-.1-.3 0-.4h-.2v-.5h.1v-.1l.1.1s.1 0 .1.1v-.6h.1v.2c0 .2 0 .5-.1.7h.2-.2c-.2.1-.1.2 0 .4 0 0 .1.1 0 .2v.1l-.2.1v.4c.1 0 .1.1.1.1l.1.1v.4c-.1.1-.1.3-.1.5v.9c0 .2-.1.4-.1.5 0 .1-.1.1-.1.1v1l-.2.5zm-.3-.5c.1 0 .1 0 0 0zm.2 0s0-.1 0 0v-.2.2zm0-.9v.3c0 .1 0 .1-.1.2 0 0 0 .1-.1.1V18h.1l.1-.1c.1 0 0 0 0 0zm.1-.4c0 .1 0 .1.1.2-.1-.1-.1-.1-.1-.2zm.5-2.9zm-.2-.9v.2h.1c-.1-.1-.1-.1-.1-.2 0 0 0-.1 0 0zm-7.7.1l-.1-.1c0-.1-.1-.2-.1-.4-.1-.3-.2-.6-.4-.8-.1-.2-.2-.3-.3-.5-.1-.1-.2-.3-.3-.4l-.1-.1-.6-.6c-.4-.2-.8-.4-1.3-.6-.1-.1-.3-.1-.4-.2L17 10h3.2c.1 0 .2 0 .2.1.1.2.2.3.3.5v3.2zM17.3 10c.1 0 .1.1.2.1.5.2.9.4 1.3.7.3.2.5.4.7.6 0 0 .1.1.1.2.1.1.2.3.3.4.1.2.2.3.3.5.2.3.3.6.4.9 0 .1 0 .1.1.2v-2.9c-.1-.1-.2-.3-.3-.4 0-.1-.1-.1-.2-.1h-1.1l-1.8-.2zm-7.6 3.3v-.5c0-.9.1-1.7.1-2.6v-.1h3.4l-.1.1c-.2.1-.3.2-.5.3-.1.1-.2.1-.3.2-.1.1-.2.1-.2.2-.2.1-.3.3-.5.5l-.4.4-.2.2c0 .1-.1.1-.1.2l-.3.3c-.2.2-.3.4-.4.6l-.5.2zm.2-3c0 .9 0 1.7-.1 2.6v.1c.1-.2.2-.4.4-.6l.3-.3c0-.1.1-.1.1-.2l.2-.2.4-.4c.2-.2.3-.4.5-.5.1-.1.2-.1.2-.2.1-.1.2-.2.3-.2.1-.1.2-.1.3-.2h-2.1c0 .1-.3.1-.5.1zM28.4 12l-.1-.1v-1.4c-.3-.5-.4-.7-.4-.9-.1-.2-.1-.3-.2-.5s-.1-.3-.2-.5v-.1c-.1-.2-.1-.3-.2-.5s-.2-.3-.3-.5l-.2-.2s0-.1-.1-.1c0-.1-.1-.1-.1-.2-.1-.2-.3-.3-.4-.5-.1-.2-.3-.3-.4-.5-.1-.1-.1-.2-.2-.3-.2-.2-.4-.5-.6-.8-.3-.3-.5-.6-.8-.8l-.1-.1c-.1-.1-.2-.3-.4-.4-.7-.4-1.5-.8-2.4-1.2l-.2-.1c-.3-.1-.6-.3-.9-.3-.7-.2-1.4-.4-2-.5-.1 0-.2 0-.3-.1-.2 0-.4-.1-.6-.1-.3 0-.5-.1-.8-.1h-1c0 .1.1.1.1.2.1.1.2.3.3.4.4.5.7 1 1.1 1.4.2.3.4.5.6.8.1.1.2.3.3.4.1.2.3.4.4.5.1.2.3.3.4.5l-.1.1c-.1-.2-.3-.4-.4-.5-.1-.2-.3-.3-.4-.5-.1-.1-.2-.3-.3-.4-.2-.3-.4-.5-.6-.8-.4-.5-.7-1-1.1-1.4-.1-.1-.2-.3-.3-.4-.1-.1-.1-.2-.2-.3l-.1-.1h1.3c.3 0 .5 0 .8.1.2 0 .4.1.6.1.1 0 .2 0 .3.1.6.1 1.2.3 2 .5.3.1.6.2.9.4l.2.1c.9.4 1.7.8 2.4 1.2.2.1.3.3.4.4l.1.1.8.8c.2.2.4.5.6.8.2.1.3.2.4.3.1.2.3.3.4.5.1.2.3.3.4.5.1.1.1.1.1.2 0 0 0 .1.1.1 0 0 0 .1.1.2.1.2.2.3.3.5.1.2.1.3.2.5v.1c.1.2.1.3.2.5s.1.3.2.5.1.5.2.7v1.5l.1.1c.2 0 .2 0 .1.1 0-.1 0-.1 0 0zM9.6 9.1h-.2C9.3 9 9.2 9 9.1 9H9h.1c.1-.2.2-.3.4-.5l.6-.9c.1-.1.1-.1.1-.2s.1-.1.1-.2l.1-.1s0-.1.1-.1c0-.1.1-.1.1-.2v-.1s0-.1.1-.1v-.2l.3-.3V6c0-.1.1-.1.1-.2h-.2l.1-.1c.1-.1.1-.2.2-.3.5-.1.7-.2.8-.4l.1-.1H12l.1-.1c.1-.1.2-.3.3-.4v-.1l.2-.3c.2 0 .3-.2.4-.3.1-.1.2-.3.3-.4l.1-.1c0-.1.1-.1.1-.2.1-.2.3-.4.4-.7l.3-.3c0-.1.1-.1.1-.2l.1-.1c.1 0 .1 0 .1.1.1.2.3.3.4.5.1.2.3.3.4.5 0 .1.1.1.1.2.2.2.3.4.5.6.1.2.2.3.3.5.1.2.2.3.3.5.3.4.5.7.8 1.1.4.3.6.5.7.8.2.3.4.6.6.8.1.1.2.2.2.4.2.3.5.6.6.9l.1.1h-2.1c-.4 0-.9.1-1.3.1-.2 0-.4 0-.6.1-.8.1-1.7.1-2.5.1H9.8s-.1.1-.2.1zm-.4-.2h3.9c.8 0 1.6 0 2.5-.1.2 0 .4 0 .6-.1.4 0 .9-.1 1.3-.1h1.9c-.2-.3-.4-.5-.5-.8-.1-.1-.2-.2-.2-.4-.2-.3-.4-.6-.6-.8-.2-.3-.4-.6-.6-.8-.3-.4-.5-.8-.8-1.1-.1-.2-.2-.3-.3-.5-.2-.2-.4-.4-.5-.6-.1-.2-.3-.4-.5-.6 0-.1-.1-.1-.1-.2-.1-.2-.3-.3-.4-.5-.1-.2-.3-.3-.4-.5h-.1l-.1.1c-.1.1-.2.3-.3.4-.2.2-.3.4-.4.6 0 .1-.1.1-.1.2l-.1.1c-.1.1-.2.3-.3.4-.1.1-.2.3-.3.4v.1l.1-.1-.1.2v.1s0 .1-.1.2v.1l-.1-.1v-.1l-.1.1c-.1.1-.1.2-.2.2-.1.1-.1.2-.2.2-.1.1-.2.2-.2.3-.1.1-.1.2-.2.3v.1c0 .1-.1.1-.1.2v.1l-.3.3s0 .1-.1.1h-.1v.1c0 .1-.1.1-.1.2 0 0 0 .1-.1.1l-.1.1c0 .1-.1.1-.1.2s-.1.1-.1.2c-.6.8-.9 1.1-1.1 1.3-.1.2-.2.3-.3.4zm2.9-4c0 .1 0 .1 0 0 0 0 .1 0 0 0 .1 0 .1 0 0 0z"/><path d="M22 17.5zm1.6 10c-.1.1-.2.2-.4.2.1-.1.2-.2.4-.2 0-.1 0 0 0 0zM4.7 13.8c.1-.1.2-.3.3-.4h.1c-.1.1-.3.3-.4.5v-.1zm-2.9 4.9c-.1-.2-.2-.4-.2-.5h.1c0 .1.1.3.1.5.1 0 0 0 0 0zm2.6-4.8c-.1.1-.1.2-.2.3h-.1c0-.1.2-.3.3-.3-.1 0-.1 0 0 0zm18.1 14h.3c-.2.1-.2.1-.3 0zM4.4 14.3s0-.1 0 0l.1-.1c0-.1 0-.1.1-.2-.1 0-.1.1-.2.1v.1c-.1 0-.1 0-.2.1 0 0-.1 0-.1.1v.1H4l-.2.2v.1l.3-.3c0-.1.1-.1.1-.2 0 .1-.1.2-.1.3H4l-.1.1-.2.1-.3.3c-.1.1-.1.2-.2.3.1 0 .2 0 .1.1.1 0 .2-.1.2-.2v-.1c.1-.1.2-.2.3-.2v-.1h-.1c.1-.1.2-.3.3-.4.1 0 .1-.1.1-.1.2 0 .3 0 .3-.1z"/><path class="st0" d="M22.6 28c-.1 0-.1 0-.1-.1v-.1h.5l-.2.2h-.2zm.6-.3v-.1c.1 0 .1-.1.2-.1s.1-.1.2-.1v.1c-.1.1-.2.2-.4.2zM1.8 18.8c-.1-.1-.1-.2-.2-.3 0-.1-.1-.2-.1-.3h.1c.1.1.1.2.2.4 0 .1 0 .1.1.2h-.1zm-.2-.6c0 .1.1.1.1.2s.1.1.1.2v-.1c-.1-.1-.1-.2-.2-.3zm20.7-.5l-.3-.2h-.1l.1-.1h.1l.2.3zm-18.9-2l-.1-.1h-.2l.1-.1c0-.1.1-.1.1-.2l.1-.1c.1-.1.2-.1.3-.2v-.1l.1-.1.1-.1v-.2H4c0-.1.1-.1.1-.2 0 0 .1 0 .1-.1 0 0 .1 0 .1-.1v.2h.1-.1c-.1 0-.1.1-.1.1s0 .1-.1.1l-.1.1c.1.3 0 .3 0 .4v.2l-.1.1c-.1 0-.1.1-.2.1-.1.2-.1.3-.3.3zm0-.3s0 .1 0 0l.1.1s.1 0 .1-.1v-.2c.1-.1.1-.1.2-.1l.1-.1h-.1s.1-.1.1-.2l-.1.1c-.1.1-.2.1-.3.2l-.1.1v.2zm.9-1.1s0 .1 0 0c0 .1 0 .1 0 0l.1-.1c-.1 0-.1 0-.1.1zm.1-.2c0 .1 0 .1 0 0 .1 0 .1 0 0 0 .1 0 0 0 0 0zm-.3.1c-.1 0-.1 0 0 0 0-.1 0-.2.1-.3.1-.1.1-.1.1-.2v-.1h.1l-.1.1-.1.1v.1c0 .3-.1.3-.1.3zm.6-.3l-.1-.1h-.1c.1-.1.2-.3.3-.4h.1l-.1.1c.2.1.1.3-.1.4zm0-.1c.1-.1.2-.2.3-.4-.1.1-.2.2-.3.4z"/><path d="M4.6 14.2c0 .1-.1.1-.1.2h-.1c0 .2-.2.4-.3.5h.1l.1-.1.3-.4v-.2zm-3.4 4.4h.2s.1 0 .1-.1v.1h-.3c0 .1 0 0 0 0zm-.1-.4c0-.1 0-.1 0 0-.1-.2 0-.2 0-.3v.3c0-.1 0-.1 0 0zm.3-.7c0 .1.1.2.1.3h-.1s-.1-.1 0-.3c-.1 0 0 0 0 0zm22.5 9.7c.1 0 .1 0 .2-.1-.1.1-.2.1-.2.2-.1 0 0-.1 0-.1zM11.5 5.8c.1 0 .1-.1.2-.1-.1.1-.1.2-.2.3v-.2c-.1 0 0 0 0 0zm2.9 5.1c.1 0 .2-.1.3-.1v.1h-.1c-.1 0-.2.1-.2 0 0 .1 0 0 0 0zm7.6 8.6c0 .1.2.2 0 .3 0 0 .1 0 .1.1H22v-.4z"/><path class="st0" d="M23.9 27.4c-.1 0-.1 0 0 0h-.1v-.3h.2l.2-.1-.2.2c0 .1-.1.1-.1.2zM22 19.9c-.1 0-.1-.1-.1-.1v-.6l.1.4v.1l.1.1v.2l-.1-.1c.1 0 .1 0 0 0zm.1-.3c-.1.1-.1.1 0 0 0 .1 0 .1 0 0 0 .1 0 .1 0 0zm-20.6-.8h-.3v-.2h.3v.2c0-.1 0-.1 0 0zm-.3-.5l-.1-.1-.1-.1c0-.1 0-.1.1-.2l.1-.1v.5zm.2-.3c0-.1-.1-.2-.1-.2 0-.1 0-.1-.1-.2h.1c0 .1 0 .1.1.2 0 .1 0 .1.1.2h-.1c.1-.1.1-.1 0 0zm2.8-3.1h-.1l-.1-.1h.1c.1 0 .3-.2.3-.4v-.1h.1v-.1s0-.1.1-.1V14l.1.1-.1.2-.3.4c0 .2-.1.2-.1.2zm10.2-3.8V11c.1 0 .2-.1.3-.1h.1v.2-.1h-.3l-.1.1zm-3-5v-.4s.1 0 .1-.1c0 0 .1 0 .1-.1l.1.1-.1.1s0 .1-.1.1l-.1.3zm.1-.3z"/></svg>