<?xml version="1.0" encoding="utf-8"?>
<!-- Generator: Adobe Illustrator 20.1.0, SVG Export Plug-In . SVG Version: 6.00 Build 0)  -->
<svg version="1.1" id="Layer_1" xmlns="http://www.w3.org/2000/svg" xmlns:xlink="http://www.w3.org/1999/xlink" x="0px" y="0px"
	 viewBox="0 0 793.7 378.7" style="enable-background:new 0 0 793.7 378.7;" xml:space="preserve">
<style type="text/css">
	.st0{fill:#F3F3F3;}
	.st1{fill:#191919;}
	.st2{fill:#FFFFFF;}
	.st3{opacity:0.5;fill:#FFFFFF;enable-background:new    ;}
	.st4{fill:#282828;}
</style>
<title>computer-illu</title>
<path class="st0" d="M396.8,30.5h360.3c2.2,0,4,1.8,4,4v344.2l0,0H396.8l0,0V30.5L396.8,30.5z"/>
<path class="st1" d="M794.2,35.5c0-19.3-16.2-34.7-35.5-34.7H35C15.9,0.6,0.3,16,0.2,35.2c0,0.1,0,0.2,0,0.3v343.3h397v-348h360
	c2.2,0.1,4,1.9,4,4.1v343.9h33V35.5z"/>
<path class="st2" d="M38.7,46c0.1,0.7,0.7,1.2,1.6,1.2s1.5-0.4,1.5-1.2s-0.4-0.9-1.3-1.1l-0.6-0.2c-1.3-0.3-1.9-1-1.9-2
	c0-1.2,0.9-2,2.4-2c1.2-0.1,2.2,0.7,2.3,1.9v0.1h-1c-0.1-0.7-0.7-1.2-1.4-1.1l0,0c-0.8,0-1.3,0.4-1.3,1.1s0.4,0.9,1.2,1.1l0.6,0.2
	c1.4,0.3,2,0.9,2,2c0,1.3-1,2.1-2.5,2.1s-2.4-0.8-2.5-2.1H38.7z"/>
<path class="st2" d="M46.4,41.1v1.5h2.1v0.8h-2.1v2.9c0,0.5,0.4,0.8,1,0.8c0.2,0,0.9,0,1,0v0.8c-0.1,0-0.9,0-1.1,0
	c-1.4,0-2-0.5-2-1.6v-2.9H44v-0.8h1.4v-1.5H46.4z"/>
<path class="st2" d="M50.3,46.4c0-1,0.7-1.5,1.9-1.6l1.4-0.1v-0.5c0-0.6-0.4-1-1.1-1c-0.5-0.1-0.9,0.2-1.1,0.7h-1
	c0.2-1,1.1-1.6,2.1-1.5c1.3,0,2,0.6,2,1.8v3.6h-0.9V47h-0.1c-0.3,0.6-0.9,0.9-1.6,0.9C51,48,50.3,47.3,50.3,46.4
	C50.3,46.5,50.3,46.4,50.3,46.4z M53.6,46v-0.6l-1.3,0.1c-0.7,0-1.1,0.3-1.1,0.8s0.4,0.8,1,0.8C52.9,47.2,53.5,46.7,53.6,46L53.6,46
	L53.6,46z"/>
<path class="st2" d="M58.7,43.9c0.1-0.9,0.9-1.6,1.8-1.5c0.3,0,0.5,0,0.8,0.1v1.1c-0.3-0.1-0.6-0.1-0.9-0.2c-1.2,0-1.9,0.8-1.9,2V47
	h1.6v0.8h-3.6V47h1v-3.8h-1.2v-0.8h2.1V44L58.7,43.9z"/>
<path class="st2" d="M64.9,41.1v1.5H67v0.8h-2.1v2.9c0,0.5,0.4,0.8,1,0.8c0.2,0,0.9,0,1,0v0.8c-0.1,0-0.9,0-1.1,0
	c-1.4,0-2-0.5-2-1.6v-2.9h-1.3v-0.8h1.4v-1.5H64.9z"/>
<path class="st2" d="M69,47.9v-0.8h1.8v-3.7H69v-0.8h2.7v4.5h1.7v0.8H69z M70.5,40.6c0-0.4,0.3-0.8,0.7-0.8c0.4,0,0.8,0.3,0.8,0.7
	s-0.3,0.8-0.7,0.8l0,0C70.8,41.4,70.5,41.1,70.5,40.6C70.4,40.7,70.4,40.6,70.5,40.6L70.5,40.6z"/>
<path class="st2" d="M75,42.6h1v0.9l0,0c0.3-0.7,1-1,1.7-1c1.2,0,1.8,0.7,1.8,2V48h-1v-3.3c0-0.9-0.4-1.3-1.2-1.3
	c-0.7,0-1.3,0.6-1.3,1.3v0.1v3.1h-1V42.6z"/>
<path class="st2" d="M81.1,48.5h1c0.1,0.4,0.6,0.7,1.3,0.7c0.9,0,1.4-0.4,1.4-1.2v-1h-0.1c-0.3,0.6-0.9,1-1.6,0.9c-1.1,0-2-0.9-2-2
	c0-0.1,0-0.2,0-0.3v-0.9c-0.1-1.1,0.6-2.1,1.7-2.2c0.1,0,0.2,0,0.2,0c0.7-0.1,1.3,0.3,1.6,0.9h0.1v-0.8h1v5.3c0,1.2-0.9,2-2.4,2
	C82,49.9,81.2,49.3,81.1,48.5z M83.3,47.1c0.7,0,1.3-0.6,1.4-1.3c0-0.1,0-0.1,0-0.2v-0.7c0.1-0.7-0.5-1.4-1.2-1.5s-1.4,0.5-1.5,1.2
	c0,0.1,0,0.2,0,0.2v0.7C81.9,46.2,82.4,46.9,83.3,47.1C83.2,47.1,83.3,47.1,83.3,47.1L83.3,47.1z"/>
<path class="st2" d="M95.5,40.9c2,0,3,1.2,3,3.5s-1,3.5-3,3.5h-2.1v-7H95.5z M94.5,47h0.9c1.4,0,2.1-0.8,2.1-2.6s-0.7-2.6-2.1-2.6
	h-0.9V47z"/>
<path class="st2" d="M104.3,46.5c-0.2,1-1.2,1.6-2.2,1.5c-1.2,0.1-2.2-0.8-2.4-1.9c0-0.1,0-0.3,0-0.4v-0.8c0-1.3,0.9-2.3,2.2-2.4
	c1.3,0,2.3,0.9,2.4,2.2c0,0.1,0,0.2,0,0.3v0.6h-3.6v0.2c-0.1,0.7,0.5,1.4,1.2,1.5c0.1,0,0.1,0,0.2,0c0.5,0.1,1-0.2,1.2-0.7
	L104.3,46.5z M100.7,44.8h2.6c0-1-0.5-1.5-1.3-1.5S100.7,43.8,100.7,44.8z"/>
<path class="st2" d="M106.8,42.6l1.4,4.3h0.1l1.4-4.3h1l-1.9,5.3h-1.1l-1.9-5.3H106.8z"/>
<path class="st2" d="M116.7,46.5c-0.2,1-1.2,1.6-2.2,1.5c-1.2,0.1-2.2-0.8-2.4-1.9c0-0.1,0-0.3,0-0.4v-0.8c0-1.3,0.9-2.3,2.2-2.4
	c1.3,0,2.3,0.9,2.4,2.2c0,0.1,0,0.2,0,0.3v0.6h-3.6v0.2c-0.1,0.7,0.5,1.4,1.2,1.5c0.1,0,0.1,0,0.2,0c0.5,0.1,1-0.2,1.2-0.7
	L116.7,46.5z M113.1,44.8h2.6c0-1-0.5-1.5-1.3-1.5S113.1,43.8,113.1,44.8L113.1,44.8z"/>
<path class="st2" d="M118.4,47.9v-0.8h1.8v-5.8h-1.7v-0.8h2.7v6.6h1.7v0.8H118.4z"/>
<path class="st2" d="M124.4,45.7v-0.8c0-1.3,1.1-2.4,2.4-2.4s2.3,1.1,2.3,2.4v0.8c0,1.3-1,2.4-2.3,2.4C125.4,48,124.4,47,124.4,45.7
	L124.4,45.7z M125.4,44.9v0.7c0,1,0.5,1.6,1.4,1.6s1.4-0.6,1.4-1.6v-0.7c0-1-0.5-1.6-1.4-1.6S125.3,43.9,125.4,44.9L125.4,44.9z"/>
<path class="st2" d="M135.3,44.8v1c0.1,1.1-0.6,2.1-1.7,2.2c-0.1,0-0.2,0-0.3,0c-0.7,0.1-1.3-0.3-1.5-0.9h-0.1v2.6h-1v-7.1h1v0.8
	h0.1c0.3-0.6,0.9-1,1.6-0.9c1.1,0,2,0.9,2,2C135.3,44.6,135.3,44.7,135.3,44.8z M131.7,44.9v0.8c-0.1,0.7,0.4,1.4,1.2,1.5
	c0.7,0.1,1.4-0.4,1.5-1.2c0-0.1,0-0.2,0-0.3v-0.8c0.1-0.7-0.4-1.4-1.2-1.5c-0.7-0.1-1.4,0.4-1.5,1.2
	C131.6,44.6,131.6,44.8,131.7,44.9z"/>
<path class="st2" d="M141.7,47.9h-0.9v-3.7c0-0.6-0.2-0.9-0.6-0.9s-0.7,0.4-0.7,1v3.6h-0.9v-3.7c0-0.6-0.2-0.9-0.6-0.9
	s-0.7,0.4-0.7,1v3.6h-0.9v-5.3h0.9v0.8h0.1c0.1-0.5,0.5-0.9,1-0.9s0.9,0.4,1,0.8h0.1c0.1-0.5,0.5-0.9,1.1-0.8c0.7,0,1.1,0.5,1.1,1.5
	L141.7,47.9z"/>
<path class="st2" d="M147.6,46.5c-0.2,1-1.2,1.6-2.2,1.5c-1.2,0.1-2.3-0.7-2.4-1.9c0-0.2,0-0.3,0-0.5v-0.8c0-1.3,0.9-2.3,2.2-2.4
	c1.3,0,2.3,0.9,2.4,2.2c0,0.1,0,0.2,0,0.3v0.6H144v0.2c-0.1,0.7,0.5,1.4,1.2,1.5c0.1,0,0.1,0,0.2,0c0.5,0.1,1-0.2,1.2-0.7
	L147.6,46.5z M144,44.8h2.6c0-1-0.5-1.5-1.3-1.5S144,43.8,144,44.8z"/>
<path class="st2" d="M149.2,42.6h0.9v0.9h0.1c0.3-0.7,1-1,1.7-1c1.2,0,1.8,0.7,1.8,2V48h-1v-3.3c0-0.9-0.4-1.3-1.1-1.3
	c-0.7,0-1.3,0.5-1.4,1.3c0,0.1,0,0.1,0,0.2V48h-1V42.6z"/>
<path class="st2" d="M157.6,41.1v1.5h2.1v0.8h-2.1v2.9c0,0.5,0.4,0.8,1,0.8c0.2,0,0.9,0,1,0v0.8c-0.1,0-0.9,0-1.1,0
	c-1.4,0-2-0.5-2-1.6v-2.9h-1.4v-0.8h1.4v-1.5H157.6z"/>
<path class="st2" d="M162.3,46c0.1,0.7,0.7,1.2,1.6,1.2s1.5-0.5,1.5-1.2s-0.3-0.9-1.3-1.1l-0.6-0.2c-1.3-0.3-1.9-1-1.9-2
	c0-1.2,0.9-2,2.4-2c1.2-0.1,2.2,0.7,2.3,1.9v0.1h-1c-0.1-0.7-0.7-1.2-1.4-1.1l0,0c-0.8,0-1.4,0.4-1.4,1.1s0.4,0.9,1.2,1.1l0.6,0.2
	c1.4,0.3,1.9,0.9,1.9,2c0,1.3-1,2.1-2.5,2.1s-2.5-0.8-2.5-2L162.3,46z"/>
<path class="st2" d="M172.3,46.5c-0.2,1-1.2,1.6-2.2,1.5c-1.2,0.1-2.2-0.8-2.4-1.9c0-0.1,0-0.3,0-0.4v-0.8c0-1.3,0.9-2.3,2.2-2.4
	c1.3,0,2.3,0.9,2.4,2.2c0,0.1,0,0.2,0,0.3v0.6h-3.6v0.2c-0.1,0.7,0.5,1.4,1.2,1.5c0.1,0,0.1,0,0.2,0c0.5,0.1,1-0.2,1.2-0.7
	L172.3,46.5z M168.7,44.8h2.6c0-1-0.5-1.5-1.3-1.5S168.7,43.8,168.7,44.8z"/>
<path class="st2" d="M176.1,43.9c0.1-0.9,0.9-1.6,1.9-1.5c0.3,0,0.5,0,0.8,0.1v1.1c-0.3-0.1-0.6-0.1-0.9-0.2c-1.2,0-1.9,0.8-1.9,2
	V47h1.6v0.8H174V47h1v-3.8h-1.2v-0.8h2.2V44L176.1,43.9z"/>
<path class="st2" d="M180.9,42.6l1.4,4.3h0.1l1.4-4.3h1l-1.9,5.3h-1.1l-1.9-5.3H180.9z"/>
<path class="st2" d="M190.8,46.5c-0.2,1-1.2,1.6-2.2,1.5c-1.2,0.1-2.2-0.8-2.4-1.9c0-0.1,0-0.3,0-0.4v-0.8c0-1.3,0.9-2.3,2.2-2.4
	c1.3,0,2.3,0.9,2.4,2.2c0,0.1,0,0.2,0,0.3v0.6h-3.6v0.2c-0.1,0.7,0.5,1.4,1.2,1.5c0.1,0,0.1,0,0.2,0c0.5,0.1,1-0.2,1.2-0.7
	L190.8,46.5z M187.3,44.8h2.6c0-1-0.5-1.5-1.3-1.5S187.3,43.8,187.3,44.8L187.3,44.8z"/>
<path class="st2" d="M194.7,43.9c0.1-0.9,0.9-1.6,1.9-1.5c0.3,0,0.5,0,0.8,0.1v1.1c-0.3-0.1-0.6-0.1-0.9-0.2c-1.2,0-1.9,0.8-1.9,2
	V47h1.6v0.8h-3.6V47h1.1v-3.8h-1.2v-0.8h2.1L194.7,43.9L194.7,43.9z"/>
<path class="st2" d="M200,47c0-0.5,0.5-0.9,1-0.9s0.9,0.5,0.9,1S201.5,48,201,48C200.4,48,200,47.6,200,47L200,47z"/>
<path class="st2" d="M206.1,47c0-0.5,0.5-0.9,1-0.9s0.9,0.5,0.9,1s-0.4,0.9-0.9,0.9S206.1,47.6,206.1,47L206.1,47z"/>
<path class="st2" d="M212.3,47c0-0.5,0.5-0.9,1-0.9s0.9,0.5,0.9,1s-0.4,0.9-0.9,0.9C212.7,48,212.3,47.6,212.3,47L212.3,47z"/>
<path class="st2" d="M44.2,84.7l3.4-8.6h1l-3.4,8.6H44.2z"/>
<path class="st2" d="M68.9,84.7l3.4-8.6h1l-3.4,8.6H68.9z"/>
<path class="st2" d="M87.1,85.5v-0.8h5.1v0.8H87.1z"/>
<path class="st2" d="M106,84.7l3.4-8.6h1l-3.4,8.6H106z"/>
<path class="st2" d="M121.8,84.7l-3.4-8.6h1l3.4,8.6H121.8z"/>
<path class="st2" d="M155.2,83.9v-7h0.9l2.8,5.2h0.1v-5.3h0.9v7H159l-2.9-5.3H156v5.3L155.2,83.9z"/>
<path class="st2" d="M163.8,79.6l-1,4.3h-0.9l-1.2-7h0.9l0.4,2.7l0.4,2.9h0.1l0.9-4h0.9l0.9,4h0.1l0.4-2.9l0.4-2.7h0.9l-1.2,7h-0.9
	L163.8,79.6L163.8,79.6z"/>
<path class="st2" d="M171.1,82h-2.3l-0.6,1.9h-1l2.2-7h1.1l2.2,7h-1.1L171.1,82z M170.9,81.2L170,78l0,0l-1,3.1L170.9,81.2z"/>
<path class="st2" d="M38,96.7l3.4-8.6h1L39,96.7H38z"/>
<path class="st2" d="M53.8,96.7l-3.4-8.6h1l3.4,8.6H53.8z"/>
<path class="st2" d="M62.7,96.7l3.4-8.6h1l-3.4,8.6H62.7z"/>
<path class="st2" d="M78.5,96.7l-3.4-8.6h1l3.4,8.6H78.5z"/>
<path class="st2" d="M81.3,96.7l3.4-8.6h1l-3.4,8.6H81.3z"/>
<path class="st2" d="M97,96.7l-3.4-8.6h1l3.4,8.6H97z"/>
<path class="st2" d="M99.8,96.7l3.4-8.6h1l-3.4,8.6H99.8z"/>
<path class="st2" d="M111.8,93.2v-0.9h5.2v0.9H111.8z"/>
<path class="st2" d="M127.9,96.7l-3.4-8.6h1l3.4,8.6H127.9z"/>
<path class="st2" d="M160.1,95.9h-4.3v-7h1V95h3.3V95.9z"/>
<path class="st2" d="M161.5,93.7v-0.8c0-1.3,1-2.4,2.3-2.4s2.4,1,2.4,2.3l0,0v0.8c0,1.3-1,2.4-2.3,2.4C162.5,96,161.5,95,161.5,93.7
	L161.5,93.7z M162.5,92.9v0.7c0,1,0.5,1.6,1.4,1.6s1.4-0.6,1.4-1.6v-0.7c0-1-0.5-1.6-1.4-1.6S162.4,91.9,162.5,92.9L162.5,92.9z"/>
<path class="st2" d="M171.3,92.3c-0.1-0.6-0.6-1-1.2-1c-0.9,0-1.3,0.6-1.3,1.7v0.4c0,1.1,0.5,1.7,1.3,1.7c0.6,0,1.1-0.4,1.2-1h1
	c-0.1,1.1-1.1,1.9-2.2,1.8c-1.2,0.1-2.2-0.8-2.3-2c0-0.1,0-0.3,0-0.4v-0.7c-0.2-1.2,0.7-2.3,1.9-2.4c0.2,0,0.3,0,0.5,0
	c1.1-0.1,2.1,0.7,2.2,1.8l0,0L171.3,92.3z"/>
<path class="st2" d="M173.9,94.4c0-0.9,0.7-1.5,1.9-1.6l1.4-0.1v-0.5c0-0.6-0.4-1-1.1-1c-0.5-0.1-0.9,0.2-1.1,0.7h-1
	c0.2-1,1.1-1.6,2.1-1.5c1.3,0,2,0.6,2,1.8v3.6h-0.9V95h-0.1c-0.3,0.6-0.9,0.9-1.6,0.9C174.7,96,173.9,95.3,173.9,94.4
	C173.9,94.5,173.9,94.4,173.9,94.4z M177.2,94v-0.6l-1.3,0.1c-0.7,0-1.1,0.3-1.1,0.8s0.4,0.8,1,0.8C176.5,95.2,177.1,94.7,177.2,94
	L177.2,94L177.2,94z"/>
<path class="st2" d="M180.2,95.9v-0.8h1.8v-5.8h-1.7v-0.8h2.7v6.6h1.7v0.8L180.2,95.9z"/>
<path class="st2" d="M194.4,88.9c2,0,3,1.2,3,3.5s-1,3.5-3,3.5h-2.1v-7H194.4z M193.4,95h0.9c1.4,0,2.1-0.8,2.1-2.6
	s-0.7-2.6-2.1-2.6h-0.9V95z"/>
<path class="st2" d="M203.2,94.5c-0.2,1-1.2,1.6-2.2,1.5c-1.2,0.1-2.2-0.8-2.4-1.9c0-0.1,0-0.3,0-0.4v-0.8c0-1.3,0.9-2.3,2.2-2.4
	c1.3,0,2.3,0.9,2.4,2.2c0,0.1,0,0.2,0,0.3v0.6h-3.6v0.2c-0.1,0.7,0.5,1.4,1.2,1.5c0.1,0,0.1,0,0.2,0c0.5,0.1,1-0.2,1.2-0.7
	L203.2,94.5L203.2,94.5z M199.6,92.8h2.6c0-0.9-0.5-1.5-1.3-1.5S199.6,91.8,199.6,92.8z"/>
<path class="st2" d="M205.7,90.6l1.4,4.3h0.1l1.4-4.3h1l-1.9,5.3h-1.1l-1.9-5.3H205.7z"/>
<path class="st2" d="M215.6,94.5c-0.2,1-1.2,1.6-2.2,1.5c-1.2,0.1-2.3-0.7-2.4-1.9c0-0.2,0-0.3,0-0.5v-0.8c0-1.3,0.9-2.3,2.2-2.4
	c1.3,0,2.3,0.9,2.4,2.2c0,0.1,0,0.2,0,0.3v0.6H212v0.2c-0.1,0.7,0.5,1.4,1.2,1.5c0.1,0,0.1,0,0.2,0c0.5,0.1,1-0.2,1.2-0.7
	L215.6,94.5z M212,92.8h2.6c0-0.9-0.5-1.5-1.3-1.5S212,91.8,212,92.8z"/>
<path class="st2" d="M217.3,95.9v-0.8h1.8v-5.8h-1.7v-0.8h2.7v6.6h1.7v0.8L217.3,95.9z"/>
<path class="st2" d="M223.3,93.7v-0.8c0-1.3,1-2.4,2.3-2.4s2.4,1,2.4,2.3l0,0v0.8c0,1.3-1,2.4-2.3,2.4C224.3,96,223.3,95,223.3,93.7
	L223.3,93.7z M224.3,92.9v0.7c0,1,0.5,1.6,1.4,1.6s1.4-0.6,1.4-1.6v-0.7c0-1-0.5-1.6-1.4-1.6S224.2,91.9,224.3,92.9L224.3,92.9z"/>
<path class="st2" d="M234.2,92.8v1c0.1,1.1-0.6,2.1-1.7,2.2c-0.1,0-0.2,0-0.3,0c-0.7,0.1-1.3-0.3-1.5-0.9h-0.1v2.6h-1v-7.1h1v0.8
	h0.1c0.3-0.6,0.9-1,1.6-0.9c1.1,0,2,0.9,2,2C234.2,92.6,234.2,92.7,234.2,92.8z M230.6,92.9v0.8c-0.1,0.7,0.4,1.4,1.2,1.5
	c0.7,0.1,1.4-0.4,1.5-1.2c0-0.1,0-0.2,0-0.3v-0.8c0.1-0.7-0.4-1.4-1.2-1.5c-0.7-0.1-1.4,0.4-1.5,1.2
	C230.5,92.6,230.5,92.8,230.6,92.9z"/>
<path class="st2" d="M240.6,95.9h-0.9v-3.7c0-0.6-0.2-0.9-0.6-0.9s-0.7,0.4-0.7,0.9v3.6h-0.9v-3.7c0-0.6-0.2-0.9-0.6-0.9
	s-0.7,0.4-0.7,0.9v3.6h-0.9v-5.3h0.9v0.8h0.1c0.1-0.5,0.5-0.9,1-0.9s0.9,0.4,1,0.8h0.1c0.1-0.5,0.5-0.9,1.1-0.8
	c0.7,0,1.1,0.5,1.1,1.4L240.6,95.9z"/>
<path class="st2" d="M246.5,94.5c-0.2,1-1.2,1.6-2.2,1.5c-1.2,0.1-2.2-0.8-2.4-1.9c0-0.1,0-0.3,0-0.4v-0.8c0-1.3,0.9-2.3,2.2-2.4
	c1.3,0,2.3,0.9,2.4,2.2c0,0.1,0,0.2,0,0.3v0.6h-3.6v0.2c-0.1,0.7,0.5,1.4,1.2,1.5c0.1,0,0.1,0,0.2,0c0.5,0.1,1-0.2,1.2-0.7
	L246.5,94.5z M242.9,92.8h2.6c0-0.9-0.5-1.5-1.3-1.5S242.9,91.8,242.9,92.8z"/>
<path class="st2" d="M248.1,90.6h0.9v0.9h0.1c0.3-0.7,1-1,1.7-1c1.2,0,1.8,0.7,1.8,2V96h-1v-3.3c0-0.9-0.4-1.3-1.1-1.3
	c-0.7,0-1.3,0.5-1.4,1.3c0,0.1,0,0.1,0,0.2V96h-1V90.6z"/>
<path class="st2" d="M256.5,89.1v1.5h2.1v0.8h-2.1v2.9c0,0.5,0.4,0.8,1,0.8c0.2,0,0.9,0,1,0v0.8c-0.1,0-0.9,0-1.1,0
	c-1.4,0-2-0.5-2-1.6v-2.9H254v-0.8h1.4v-1.5C255.4,89.1,256.5,89.1,256.5,89.1z"/>
<path class="st2" d="M271.1,95.9h-4.2v-7h4.2v0.9h-3.2v2.1h3v0.8h-3V95h3.2V95.9z"/>
<path class="st2" d="M272.8,90.6h1v0.9h0.1c0.3-0.7,1-1,1.7-1c1.2,0,1.8,0.7,1.8,2V96h-1v-3.3c0-0.9-0.4-1.3-1.1-1.3
	s-1.3,0.5-1.4,1.3c0,0.1,0,0.1,0,0.2V96h-1L272.8,90.6z"/>
<path class="st2" d="M279.9,90.6l1.4,4.3h0.1l1.4-4.3h1l-1.9,5.3h-1.1l-1.9-5.3H279.9z"/>
<path class="st2" d="M285.3,95.9v-0.8h1.8v-3.7h-1.8v-0.8h2.7v4.5h1.7v0.8H285.3z M286.8,88.6c0-0.4,0.3-0.8,0.7-0.8
	c0.4,0,0.8,0.3,0.8,0.7c0,0.4-0.3,0.8-0.7,0.8l0,0C287.1,89.4,286.8,89.1,286.8,88.6L286.8,88.6z"/>
<path class="st2" d="M293.6,91.9c0.1-0.9,0.9-1.6,1.9-1.5c0.3,0,0.5,0,0.8,0.1v1.1c-0.3-0.1-0.6-0.1-0.9-0.2c-1.2,0-1.9,0.8-1.9,2.1
	v1.6h1.6v0.8h-3.6v-0.8h1v-3.8h-1.2v-0.8h2.1v1.4L293.6,91.9z"/>
<path class="st2" d="M297.5,93.7v-0.8c0-1.3,1.1-2.4,2.4-2.4s2.4,1.1,2.4,2.4v0.8c0,1.3-1.1,2.4-2.4,2.4S297.5,94.9,297.5,93.7z
	 M298.5,92.9v0.7c0,1,0.5,1.6,1.4,1.6s1.4-0.6,1.4-1.6v-0.7c0-1-0.5-1.6-1.4-1.6S298.4,91.9,298.5,92.9L298.5,92.9z"/>
<path class="st2" d="M303.8,90.6h1v0.9h0.1c0.3-0.7,1-1,1.7-1c1.2,0,1.8,0.7,1.8,2V96h-1v-3.3c0-0.9-0.4-1.3-1.1-1.3
	s-1.3,0.5-1.4,1.3c0,0.1,0,0.1,0,0.2V96h-1L303.8,90.6z"/>
<path class="st2" d="M314.8,95.9h-0.9v-3.7c0-0.6-0.2-0.9-0.6-0.9s-0.7,0.4-0.7,0.9v3.6h-0.9v-3.7c0-0.6-0.2-0.9-0.6-0.9
	s-0.7,0.4-0.7,0.9v3.6h-0.9v-5.3h0.9v0.8h0.1c0.1-0.5,0.5-0.9,1-0.9s0.9,0.4,1,0.8h0.1c0.1-0.5,0.5-0.9,1.1-0.8
	c0.7,0,1.1,0.5,1.1,1.4V95.9z"/>
<path class="st2" d="M320.6,94.5c-0.2,1-1.2,1.6-2.2,1.5c-1.2,0.1-2.2-0.8-2.4-1.9c0-0.1,0-0.3,0-0.4v-0.8c0-1.3,0.9-2.3,2.2-2.4
	c1.3,0,2.3,0.9,2.4,2.2c0,0.1,0,0.2,0,0.3v0.6H317v0.2c-0.1,0.7,0.5,1.4,1.2,1.5c0.1,0,0.1,0,0.2,0c0.5,0.1,1-0.2,1.2-0.7
	L320.6,94.5z M317.1,92.8h2.6c0-0.9-0.5-1.5-1.3-1.5S317.1,91.8,317.1,92.8L317.1,92.8z"/>
<path class="st2" d="M322.3,90.6h1v0.9h0.1c0.3-0.7,1-1,1.7-1c1.2,0,1.8,0.7,1.8,2V96h-1v-3.3c0-0.9-0.4-1.3-1.1-1.3
	s-1.3,0.5-1.4,1.3c0,0.1,0,0.1,0,0.2V96h-1L322.3,90.6z"/>
<path class="st2" d="M330.7,89.1v1.5h2.1v0.8h-2.1v2.9c0,0.5,0.4,0.8,1,0.8c0.2,0,0.9,0,1,0v0.8c-0.1,0-0.9,0-1.1,0
	c-1.4,0-2-0.5-2-1.6v-2.9h-1.4v-0.8h1.4v-1.5C329.6,89.1,330.7,89.1,330.7,89.1z"/>
<path class="st2" d="M37.6,129.2v-0.9h5.2v0.9H37.6z"/>
<path class="st2" d="M44.2,127v-1.1l4.3,2.5v0.8l-4.3,2.5v-1.1l3.3-1.8v-0.1L44.2,127z"/>
<path class="st2" d="M61.1,131.9h-4.3v-7h1v6.1h3.3V131.9z"/>
<path class="st2" d="M62.8,131.9v-0.8h1.8v-3.7h-1.7v-0.8h2.7v4.5h1.7v0.8H62.8z M64.2,124.6c0-0.4,0.3-0.8,0.7-0.8
	c0.4,0,0.8,0.3,0.8,0.7c0,0.4-0.3,0.8-0.7,0.8l0,0C64.6,125.4,64.3,125,64.2,124.6L64.2,124.6L64.2,124.6z"/>
<path class="st2" d="M71.1,126.5c1.2,0,1.9,0.6,2,1.5h-0.9c-0.1-0.5-0.6-0.8-1.1-0.7c-0.6,0-1,0.3-1,0.7s0.3,0.6,0.9,0.7l0.8,0.2
	c1,0.2,1.5,0.7,1.5,1.5c0,1-0.8,1.7-2.1,1.7s-2.1-0.6-2.2-1.5h1c0.1,0.4,0.6,0.7,1.2,0.7s1.1-0.3,1.1-0.8s-0.2-0.6-0.9-0.7l-0.8-0.2
	c-1-0.2-1.5-0.7-1.5-1.5C69.1,127.1,69.9,126.5,71.1,126.5z"/>
<path class="st2" d="M77.3,125.1v1.5h2.1v0.8h-2.1v2.9c0,0.5,0.4,0.8,1,0.8c0.2,0,0.9,0,1,0v0.8c-0.1,0-0.9,0-1.1,0
	c-1.4,0-2-0.5-2-1.6v-2.9h-1.3v-0.8h1.4v-1.5H77.3z"/>
<path class="st2" d="M85.7,130.5c-0.2,1-1.2,1.6-2.2,1.5c-1.2,0.1-2.2-0.8-2.4-1.9c0-0.1,0-0.3,0-0.4v-0.8c0-1.3,0.9-2.3,2.2-2.4
	c1.3,0,2.3,0.9,2.4,2.2c0,0.1,0,0.2,0,0.3v0.6h-3.6v0.2c-0.1,0.7,0.5,1.4,1.2,1.5c0.1,0,0.1,0,0.2,0c0.5,0.1,1-0.2,1.2-0.7
	L85.7,130.5z M82.2,128.8h2.6c0-0.9-0.5-1.5-1.3-1.5S82.2,127.8,82.2,128.8L82.2,128.8z"/>
<path class="st2" d="M87.4,126.6h0.9v0.9h0.1c0.3-0.7,1-1,1.7-1c1.2,0,1.8,0.7,1.8,2v3.4h-1v-3.3c0-0.9-0.4-1.3-1.2-1.3
	c-0.7,0-1.3,0.5-1.4,1.3c0,0.1,0,0.1,0,0.2v3.1h-1L87.4,126.6z"/>
<path class="st2" d="M93.7,131.9v-0.8h1.8v-3.7h-1.8v-0.8h2.7v4.5h1.7v0.8H93.7z M95.1,124.6c0-0.4,0.3-0.8,0.7-0.8
	c0.4,0,0.8,0.3,0.8,0.7c0,0.4-0.3,0.8-0.7,0.8l0,0C95.5,125.4,95.2,125.1,95.1,124.6L95.1,124.6z"/>
<path class="st2" d="M99.8,126.6h0.9v0.9h0.1c0.3-0.7,1-1,1.7-1c1.2,0,1.8,0.7,1.8,2v3.4h-1v-3.3c0-0.9-0.4-1.3-1.2-1.3
	c-0.7,0-1.3,0.5-1.4,1.3c0,0.1,0,0.1,0,0.2v3.1h-1L99.8,126.6z"/>
<path class="st2" d="M105.8,132.4h1c0.1,0.4,0.6,0.7,1.3,0.7c0.9,0,1.4-0.4,1.4-1.2V131h-0.1c-0.3,0.6-0.9,1-1.6,0.9
	c-1.1,0-2-0.9-2-2c0-0.1,0-0.2,0-0.3v-0.9c-0.1-1.1,0.6-2.1,1.7-2.3c0.1,0,0.2,0,0.3,0c0.7-0.1,1.3,0.3,1.6,0.9h0.1v-0.8h1v5.3
	c0,1.2-0.9,2-2.4,2C106.7,133.9,105.9,133.4,105.8,132.4z M108.1,131.1c0.7,0,1.3-0.6,1.4-1.3c0-0.1,0-0.1,0-0.2v-0.7
	c0.1-0.7-0.5-1.4-1.2-1.5s-1.4,0.5-1.5,1.2c0,0.1,0,0.2,0,0.2v0.7c-0.1,0.7,0.4,1.4,1.2,1.5C107.9,131.1,108,131.1,108.1,131.1
	L108.1,131.1z"/>
<path class="st2" d="M118.2,129.6v-0.8c0-1.3,1-2.4,2.3-2.4s2.4,1,2.4,2.3l0,0v0.8c0,1.3-1,2.4-2.3,2.4
	C119.2,132,118.2,131,118.2,129.6C118.2,129.7,118.2,129.7,118.2,129.6z M119.2,128.9v0.7c0,1,0.5,1.6,1.4,1.6s1.4-0.6,1.4-1.6v-0.7
	c0-1-0.5-1.6-1.4-1.6S119.2,127.9,119.2,128.9L119.2,128.9z"/>
<path class="st2" d="M124.5,126.6h0.9v0.9h0.1c0.3-0.7,1-1,1.7-1c1.2,0,1.8,0.7,1.8,2v3.4h-1v-3.3c0-0.9-0.4-1.3-1.2-1.3
	c-0.7,0-1.3,0.5-1.4,1.3c0,0.1,0,0.1,0,0.2v3.1h-1L124.5,126.6z"/>
<path class="st2" d="M141.5,128.8v1c0.1,1.1-0.6,2.1-1.7,2.2c-0.1,0-0.2,0-0.3,0c-0.7,0.1-1.3-0.3-1.5-0.9h-0.1v2.6h-1v-7.1h1v0.8
	h0.1c0.3-0.6,0.9-1,1.6-0.9c1.1,0,2,0.9,2,2C141.5,128.6,141.5,128.7,141.5,128.8z M137.8,128.9v0.8c-0.1,0.7,0.4,1.4,1.2,1.5
	c0.7,0.1,1.4-0.4,1.5-1.2c0-0.1,0-0.2,0-0.3v-0.8c0.1-0.7-0.4-1.4-1.2-1.5c-0.7-0.1-1.4,0.4-1.5,1.2
	C137.8,128.6,137.8,128.8,137.8,128.9z"/>
<path class="st2" d="M142.9,129.6v-0.8c0-1.3,1-2.4,2.3-2.4s2.4,1,2.4,2.3l0,0v0.8c0,1.3-1,2.4-2.3,2.4
	C144,132,142.9,131,142.9,129.6C142.9,129.7,142.9,129.7,142.9,129.6z M143.9,128.9v0.7c0,1,0.5,1.6,1.4,1.6s1.4-0.6,1.4-1.6v-0.7
	c0-1-0.5-1.6-1.4-1.6S143.9,127.9,143.9,128.9L143.9,128.9z"/>
<path class="st2" d="M151.4,127.9c0.1-0.9,0.9-1.6,1.9-1.5c0.3,0,0.5,0,0.8,0.1v1.1c-0.3-0.1-0.6-0.1-0.9-0.2c-1.2,0-1.9,0.8-1.9,2
	v1.6h1.6v0.8h-3.6V131h1.1v-3.8h-1.2v-0.8h2.1v1.4L151.4,127.9z"/>
<path class="st2" d="M157.6,125.1v1.5h2.1v0.8h-2.1v2.9c0,0.5,0.4,0.8,1,0.8c0.2,0,0.9,0,1,0v0.8c-0.1,0-0.9,0-1.1,0
	c-1.4,0-2-0.5-2-1.6v-2.9h-1.4v-0.8h1.4v-1.5H157.6z"/>
<path class="st2" d="M169.1,127.9h0.8c0.6,0.1,1.2-0.4,1.3-1.1v-0.1c0-0.6-0.5-1.1-1.1-1.1H170c-0.7-0.1-1.3,0.4-1.3,1.1l0,0h-0.9
	c0-1.2,1-2.1,2.2-2h0.1c1.3,0,2.2,0.8,2.2,1.8c0.1,0.8-0.5,1.5-1.2,1.6v0.1c0.9,0.1,1.6,0.8,1.5,1.7c-0.2,1.4-1.5,2.3-2.9,2.1
	c-1.1-0.2-1.9-1-2.1-2.1h1c0.1,0.7,0.8,1.3,1.5,1.2c0.9,0,1.5-0.5,1.5-1.2s-0.6-1.2-1.5-1.2h-0.8L169.1,127.9z"/>
<path class="st2" d="M178.6,128.4c0,2.4-0.9,3.7-2.5,3.7s-2.5-1.3-2.5-3.7s0.9-3.7,2.5-3.7S178.6,126,178.6,128.4z M177.5,126.8
	c-0.2-0.8-0.6-1.3-1.3-1.3c-1,0-1.5,1-1.5,2.8c0,0.2,0,0.4,0,0.6L177.5,126.8z M174.9,129.9c0.2,0.8,0.6,1.3,1.3,1.3
	c0.9,0,1.4-1,1.4-2.8c0-0.2,0-0.4,0-0.6L174.9,129.9z"/>
<path class="st2" d="M184.8,128.4c0,2.4-0.9,3.7-2.5,3.7s-2.5-1.3-2.5-3.7s0.9-3.7,2.5-3.7S184.8,126,184.8,128.4z M183.7,126.8
	c-0.2-0.8-0.6-1.3-1.3-1.3c-1,0-1.5,1-1.5,2.8c0,0.2,0,0.4,0,0.6L183.7,126.8z M181.1,129.9c0.2,0.8,0.6,1.3,1.3,1.3
	c0.9,0,1.4-1,1.4-2.8c0-0.2,0-0.4,0-0.6L181.1,129.9z"/>
<path class="st2" d="M191,128.4c0,2.4-0.9,3.7-2.5,3.7s-2.5-1.3-2.5-3.7s0.9-3.7,2.5-3.7S191,126,191,128.4z M189.8,126.8
	c-0.2-0.8-0.6-1.3-1.3-1.3c-1,0-1.5,1-1.5,2.8c0,0.2,0,0.4,0,0.6L189.8,126.8z M187.3,129.9c0.2,0.8,0.6,1.3,1.3,1.3
	c0.9,0,1.4-1,1.4-2.8c0-0.2,0-0.4,0-0.6L187.3,129.9z"/>
<rect x="37.1" y="142.1" class="st3" width="4.8" height="11.4"/>
<rect x="721.4" y="47.9" class="st4" width="19.2" height="3.3"/>
<rect x="721.4" y="53.7" class="st4" width="19.2" height="3.3"/>
<rect x="721.4" y="59.5" class="st4" width="19.2" height="3.3"/>
<polygon class="st4" points="436.8,62.8 427.3,62.8 417.8,62.8 427.3,47.9 "/>
<rect x="417.8" y="88.7" class="st1" width="153.7" height="86"/>
<rect x="586.9" y="88.7" class="st1" width="153.7" height="86"/>
<rect x="417.8" y="189.4" class="st1" width="153.7" height="86"/>
<rect x="586.9" y="189.4" class="st1" width="153.7" height="86"/>
<rect x="417.8" y="290" class="st1" width="220.1" height="13"/>
<rect x="417.8" y="310.1" class="st1" width="120" height="13"/>
</svg>
