<?xml version="1.0" encoding="utf-8"?>
<!-- Generator: Adobe Illustrator 16.0.0, SVG Export Plug-In . SVG Version: 6.00 Build 0)  -->
<!DOCTYPE svg PUBLIC "-//W3C//DTD SVG 1.1//EN" "http://www.w3.org/Graphics/SVG/1.1/DTD/svg11.dtd">
<svg version="1.1" id="Layer_1" xmlns="http://www.w3.org/2000/svg" xmlns:xlink="http://www.w3.org/1999/xlink" x="0px" y="0px"
	 width="24px" height="24px" viewBox="0 0 24 24" enable-background="new 0 0 24 24" xml:space="preserve">
<path d="M16.72,0.018c-0.024,0.019-0.689,0.708-1.473,1.534l-1.425,1.5l-0.57,2.223l-1.591,0.028c-2.959,0.063-4.707,0.3-5.03,0.685
	C6.57,6.059,6.579,6.082,6.688,6.177C7.463,6.842,13.575,7.036,16.4,6.49c1.002-0.194,1.259-0.438,0.712-0.669
	c-0.413-0.181-1.928-0.429-2.607-0.429c-0.185,0-0.228-0.014-0.228-0.085c0-0.043,0.104-0.479,0.228-0.964l0.224-0.884l1.33-1.405
	c0.731-0.773,1.334-1.443,1.345-1.481C17.451,0.359,16.886-0.097,16.72,0.018z M6.68,6.6c0,0.144,0.574,5.548,0.603,5.633
	c0.009,0.038,0.057-0.033,0.104-0.171c0.422-1.183,1.262-2.185,1.975-2.351c0.347-0.081,0.608,0.004,0.889,0.285
	c0.308,0.309,0.365,0.641,0.128,0.769c-0.119,0.062-0.233-0.024-0.385-0.3c-0.327-0.584-0.936-0.276-1.591,0.816
	c-0.693,1.149-0.874,2.423-0.347,2.423c0.194,0,0.665-0.371,0.993-0.778c0.223-0.285,0.308-0.442,0.432-0.808
	c0.081-0.247,0.175-0.476,0.213-0.503c0.038-0.028,0.123-0.049,0.199-0.039c0.123,0.015,0.133,0.034,0.147,0.238
	c0.009,0.156-0.028,0.347-0.133,0.642c-0.138,0.389-0.294,0.888-0.589,1.866c-0.066,0.223-0.152,0.451-0.194,0.508
	c-0.104,0.147-0.252,0.138-0.318-0.014c-0.048-0.1-0.034-0.205,0.1-0.651c0.086-0.294,0.171-0.574,0.185-0.627
	c0.015-0.061-0.095,0.02-0.299,0.209c-0.475,0.442-0.94,0.628-1.215,0.479c-0.081-0.042-0.091-0.033-0.091,0.081
	c0,0.36,0.342,3.6,0.384,3.651c0.143,0.171,1.154,0.461,2.18,0.623c0.784,0.122,3.016,0.122,3.8,0
	c0.674-0.109,1.41-0.28,1.766-0.413c0.503-0.186,0.441,0.019,0.727-2.446c0.137-1.202,0.247-2.194,0.238-2.199
	c-0.009-0.009-0.162,0.104-0.338,0.252c-0.38,0.322-0.631,0.446-0.912,0.451c-0.251,0-0.38-0.063-0.437-0.218
	c-0.067-0.167,0.023-0.361,0.384-0.809c0.404-0.498,0.471-0.593,0.471-0.693c0-0.214-0.49,0.009-0.77,0.352
	c-0.09,0.114-0.224,0.3-0.294,0.413c-0.161,0.252-0.58,1.206-0.788,1.801c-0.162,0.461-0.313,0.674-0.47,0.674
	c-0.091,0-0.243-0.113-0.243-0.181c0-0.125,0.152-0.509,0.433-1.121c0.181-0.389,0.327-0.718,0.327-0.727s-0.091,0.053-0.204,0.143
	c-0.271,0.224-0.57,0.366-0.755,0.366c-0.181,0-0.371-0.114-0.371-0.218c0-0.086,0.009-0.091-0.29,0.075
	c-0.452,0.247-0.708,0.156-0.708-0.256v-0.19l-0.194,0.204c-0.357,0.366-0.841,0.493-1.106,0.285
	c-0.171-0.133-0.167-0.447,0.014-0.988c0.328-0.969,0.579-1.349,0.802-1.205c0.138,0.085,0.114,0.223-0.104,0.674
	c-0.375,0.773-0.398,1.14-0.066,1.044c0.318-0.09,0.698-0.588,0.964-1.253c0.071-0.186,0.161-0.371,0.204-0.419
	c0.104-0.118,0.262-0.086,0.314,0.067c0.033,0.1,0,0.231-0.186,0.688c-0.152,0.371-0.232,0.637-0.232,0.778
	c-0.004,0.205,0,0.214,0.133,0.205c0.171-0.015,0.446-0.194,0.484-0.322c0.148-0.479,1.244-3.158,1.33-3.254
	c0.095-0.095,0.133-0.108,0.242-0.066c0.081,0.028,0.138,0.086,0.148,0.147c0.009,0.057-0.081,0.323-0.199,0.594
	c-0.466,1.077-1.073,2.636-1.073,2.755c0,0.075,0.024,0.132,0.047,0.132c0.114,0,0.428-0.199,0.769-0.489
	c0.304-0.266,0.375-0.352,0.442-0.564c0.18-0.552,0.312-0.708,0.507-0.604c0.077,0.043,0.09,0.086,0.071,0.214
	c-0.014,0.091-0.014,0.162,0,0.162c0.015,0,0.123-0.086,0.238-0.194c0.361-0.328,0.669-0.409,0.954-0.233
	c0.133,0.081,0.152,0.119,0.152,0.3c0,0.247-0.19,0.585-0.589,1.054c-0.147,0.172-0.266,0.333-0.266,0.361
	c0,0.023,0.047,0.042,0.11,0.042c0.104,0,0.902-0.611,1.078-0.826c0.052-0.066,0.162-0.941,0.414-3.253
	c0.186-1.738,0.337-3.168,0.327-3.173c-0.004-0.009-0.128,0.028-0.276,0.081c-0.37,0.128-1.173,0.266-2.137,0.365
	c-1.045,0.104-4.583,0.119-5.619,0.023c-0.964-0.09-1.895-0.237-2.29-0.365L6.682,6.493v0.104L6.68,6.6z M8.104,18.383
	c0,0.009,0.152,0.275,0.333,0.589l0.337,0.574l0.138,1.908l0.143,1.915l0.143,0.123c0.356,0.305,1.211,0.475,2.541,0.504
	c1.511,0.033,2.688-0.156,3.073-0.504l0.152-0.134l0.109-1.927l0.109-1.924l0.309-0.541c0.17-0.295,0.309-0.552,0.309-0.57
	c0-0.014-0.143,0.019-0.323,0.081c-0.642,0.218-1.891,0.412-3.001,0.475c-1.235,0.067-3.149-0.167-4.118-0.503
	c-0.138-0.048-0.252-0.076-0.252-0.066H8.104z"/>
</svg>
