<?xml version="1.0" encoding="utf-8"?>
<!-- Generator: Adobe Illustrator 16.0.0, SVG Export Plug-In . SVG Version: 6.00 Build 0)  -->
<!DOCTYPE svg PUBLIC "-//W3C//DTD SVG 1.1//EN" "http://www.w3.org/Graphics/SVG/1.1/DTD/svg11.dtd">
<svg version="1.1" id="Layer_1" xmlns="http://www.w3.org/2000/svg" xmlns:xlink="http://www.w3.org/1999/xlink" x="0px" y="0px"
	 width="24px" height="24px" viewBox="0 0 24 24" enable-background="new 0 0 24 24" xml:space="preserve">
<path d="M0,11.326v4.016h6.686v1.347h5.338v-1.347H24v-8.03H0.001L0,11.326L0,11.326z M6.685,11.326v2.669H5.337v-3.992H4.04v3.992
	H1.298V8.656h5.387V11.326z M13.361,11.33L13.346,14l-2.621-0.009v1.351H7.984V8.656h5.387L13.361,11.33L13.361,11.33z M22.7,11.326
	v2.669h-1.347v-3.992h-1.347v4.017l-1.347-0.028v-3.988h-1.299v3.992h-2.693V8.656H22.7V11.326L22.7,11.326z M10.725,11.326v1.322
	h1.25v-2.646h-1.25v1.321V11.326z"/>
</svg>
